<svg width="223" height="43" viewBox="0 0 223 43" fill="none" xmlns="http://www.w3.org/2000/svg">
<g clip-path="url(#clip0_1_891)">
<path opacity="0.4" fill-rule="evenodd" clip-rule="evenodd" d="M22.676 19.0124C22.5601 19.0819 22.421 18.9428 22.5137 18.8269C25.8293 14.6303 34.4775 10.6423 39.3001 13.0073C40.9927 13.8651 41.9665 15.3258 41.9433 16.8329C41.8042 16.4851 41.5955 16.1605 41.3405 15.8591C40.9695 15.3954 40.5058 14.978 39.9493 14.6303C39.7175 14.4911 39.4624 14.352 39.2074 14.2593C36.3324 13.0073 32.1358 13.6333 28.5188 15.1635C26.9885 15.8127 25.551 16.601 24.3686 17.5053C23.7425 17.969 23.1861 18.4559 22.7224 18.966V19.0355L22.676 19.0124Z" fill="#0C4E4B"/>
<path fill-rule="evenodd" clip-rule="evenodd" d="M31.6253 28.1707C30.3732 27.4983 37.3985 29.7241 39.3229 27.7533C39.6243 27.4519 39.7866 27.0346 39.8098 26.5245V26.4781C39.8098 26.3158 39.8098 26.1767 39.7866 26.0144C39.7403 25.7593 39.6707 25.5043 39.5548 25.2493C39.5316 25.2029 39.5084 25.1333 39.4852 25.087L39.4389 25.0174V24.971C39.2302 24.6464 38.9751 24.345 38.6969 24.0436C38.6505 23.9972 38.6042 23.9509 38.5578 23.9277C38.5114 23.8813 38.4651 23.8349 38.4187 23.8117C38.0477 23.4871 37.6072 23.2089 37.1435 22.9307C36.2624 22.4206 35.1959 22.0033 34.083 21.6323C33.967 21.5859 33.8279 21.5627 33.712 21.5164C31.2079 20.7512 28.4488 20.3339 26.4549 20.1948C24.9014 20.0788 23.603 20.1484 23.603 20.1484C23.4639 20.1484 23.4175 19.9629 23.5567 19.8934C24.2059 19.6383 24.9246 19.4528 25.6897 19.3137C25.8289 19.2905 25.9448 19.2673 26.0839 19.2442C27.22 19.0587 28.4256 18.9659 29.6777 19.0123C29.9327 19.0123 30.1878 19.0123 30.4196 19.0355C32.5295 19.1514 34.6626 19.5688 36.4943 20.2875C36.958 20.473 37.3985 20.6585 37.7927 20.8903C38.3723 21.1918 38.9056 21.5395 39.3693 21.9105C39.6939 22.1656 39.9953 22.4438 40.2735 22.7452L40.3199 22.8148L40.3895 22.9075H40.4127L40.459 23.0002C40.5981 23.2089 40.7373 23.3944 40.8532 23.5799C40.9691 23.7654 41.085 23.974 41.1778 24.1595C41.1778 24.2059 41.2242 24.2523 41.2473 24.2755C41.3865 24.6001 41.5024 24.9247 41.5719 25.2261V25.2724C41.6647 25.597 41.6879 25.9216 41.6879 26.2462C41.6879 29.3763 38.1868 31.7413 31.5325 28.1938" fill="#0C4E4B"/>
<path opacity="0.9" fill-rule="evenodd" clip-rule="evenodd" d="M23.58 19.8702H23.4872C23.3713 19.8702 23.3249 19.7542 23.3713 19.6847L23.4177 19.6383C23.8582 19.4296 24.3219 19.221 24.8088 19.0587C25.0175 18.9891 25.2493 18.9196 25.4812 18.85C26.8955 18.4327 28.5185 18.1544 30.1879 18.0849C30.8371 18.0617 31.4863 18.0385 32.1355 18.0849C34.8482 18.2008 37.4914 18.8036 39.3926 20.0325C39.7636 20.2643 40.1114 20.5194 40.4128 20.7976C40.4591 20.8208 40.4823 20.8672 40.5287 20.8903C40.5519 20.9135 40.5751 20.9367 40.6214 20.9831C40.7837 21.1454 40.946 21.3309 41.1083 21.5164C41.5257 22.0264 41.8271 22.5829 42.0126 23.1394C42.0126 23.1857 42.0358 23.2321 42.059 23.2785C42.1749 23.6263 42.2213 23.9509 42.2444 24.2986C42.2908 24.9942 42.1517 25.6666 41.8271 26.2462C41.8271 25.9216 41.7807 25.597 41.7112 25.2724V25.2261C41.6184 24.9015 41.5257 24.6001 41.3634 24.2755C41.3634 24.2291 41.317 24.1827 41.2938 24.1595C41.2011 23.974 41.0852 23.7654 40.9692 23.5799C40.8533 23.3944 40.7142 23.2089 40.5751 23.0234L40.5287 22.9307H40.5055L40.436 22.8148L40.3896 22.7452C40.1114 22.4438 39.8099 22.1656 39.4853 21.9105C39.0216 21.5395 38.4884 21.1918 37.9087 20.8903C37.4914 20.6817 37.0508 20.473 36.6103 20.2875C34.7555 19.5688 32.6224 19.1514 30.5357 19.0355C30.2806 19.0355 30.0256 19.0123 29.7937 19.0123C28.5417 18.9891 27.336 19.0587 26.1999 19.2442C26.0608 19.2442 25.9449 19.2905 25.8058 19.3137C25.0407 19.4528 24.3219 19.6615 23.6727 19.8934L23.58 19.8702Z" fill="#0C4E4B"/>
<path opacity="0.8" fill-rule="evenodd" clip-rule="evenodd" d="M23.3712 19.7078C23.3712 19.7078 23.1857 19.6151 23.2321 19.5224V19.4992H23.2552C23.8349 19.1282 24.5073 18.7804 25.226 18.5022C25.3188 18.479 25.3883 18.4326 25.4811 18.4094C26.8026 17.9225 28.2865 17.5516 29.84 17.3429C30.0486 17.3197 30.2805 17.2965 30.4892 17.2733C33.712 16.9256 37.0507 17.2733 39.4157 18.5949C39.7403 18.7804 40.0185 18.9659 40.2967 19.1746C40.2967 19.1746 40.3663 19.2209 40.3895 19.2441C40.4822 19.3137 40.575 19.4064 40.6677 19.476C40.7836 19.5687 40.8996 19.6847 40.9923 19.8006C41.1778 20.0093 41.3401 20.2179 41.5024 20.4266C41.711 20.728 41.8965 21.0294 42.0356 21.3308V21.3772C42.1979 21.725 42.3139 22.0728 42.3603 22.4438V22.4901C42.453 23.1161 42.4066 23.719 42.1748 24.2754C42.1748 23.9508 42.082 23.603 41.9893 23.2553C41.9893 23.2089 41.9661 23.1625 41.9429 23.1161C41.7574 22.5597 41.456 22.0032 41.0387 21.4931C40.8996 21.3077 40.7372 21.1222 40.5518 20.9599C40.5286 20.9367 40.5054 20.9135 40.459 20.8671C40.4127 20.8439 40.3895 20.7976 40.3431 20.7744C40.0417 20.4962 39.6939 20.2411 39.3229 20.0093C37.3985 18.7804 34.7553 18.1776 32.0658 18.0617C31.4166 18.0385 30.7674 18.0617 30.1182 18.0617C28.4488 18.1312 26.849 18.4094 25.4115 18.8268C25.1796 18.8963 24.971 18.9659 24.7391 19.0355C24.229 19.2209 23.7653 19.4064 23.348 19.6151L23.3016 19.6615L23.3712 19.7078ZM29.7009 18.9891C28.4025 18.9891 27.1736 19.105 26.1766 19.2209H26.1071C27.2432 19.0355 28.4488 18.9659 29.7009 18.9891Z" fill="#0C4E4B"/>
<path opacity="0.7" fill-rule="evenodd" clip-rule="evenodd" d="M42.4531 22.1656C42.4531 22.1656 42.4067 22.3279 42.3835 22.4206C42.3372 22.0729 42.2212 21.7251 42.0821 21.3541V21.3077C41.9198 21.0063 41.7575 20.6817 41.5488 20.4035C41.3865 20.1948 41.2242 19.9861 41.0388 19.7775C40.9228 19.6615 40.8301 19.5688 40.7141 19.4529C40.6214 19.3601 40.5287 19.2906 40.4359 19.221C40.4127 19.221 40.3895 19.1746 40.3432 19.1515C40.065 18.9196 39.7867 18.7341 39.4621 18.5486C37.1204 17.227 33.7584 16.8793 30.5356 17.227C30.327 17.227 30.0951 17.2734 29.8864 17.2966C28.333 17.5053 26.8491 17.8762 25.5275 18.3631C25.5275 18.3631 25.342 18.4327 25.2725 18.4559C24.5537 18.7341 23.8813 19.0819 23.3017 19.4297H23.2785V19.4529C23.1858 19.4761 23.1394 19.4297 23.1162 19.3601C23.1162 19.3601 23.1162 19.2674 23.1626 19.2442L23.2553 19.1746C23.6031 18.9196 23.9509 18.6877 24.3451 18.4791C24.6001 18.34 24.8551 18.2008 25.1102 18.0617C26.6868 17.2734 28.5648 16.6706 30.5124 16.3228C33.9903 15.6968 37.6536 15.9055 40.0418 17.4125H40.065C40.3432 17.598 40.575 17.7835 40.8069 17.9922C41.0156 18.1777 41.201 18.3631 41.3633 18.5718C41.6184 18.8732 41.8271 19.1746 41.9894 19.4992C42.1517 19.8007 42.2676 20.1021 42.3603 20.4035C42.5226 20.9599 42.5458 21.5396 42.4299 22.096L42.4531 22.1656Z" fill="#0C4E4B"/>
<path opacity="0.6" fill-rule="evenodd" clip-rule="evenodd" d="M23.1855 19.2443H23.1159L23.0232 19.3138C22.9073 19.3602 22.8377 19.2443 22.8609 19.1747L22.9073 19.1052C23.2782 18.7806 23.6724 18.4792 24.1129 18.1777C24.2984 18.0386 24.5071 17.9227 24.6926 17.8068C25.9446 17.0185 27.4517 16.3461 29.0283 15.836C29.6543 15.6273 30.2803 15.465 30.9063 15.3259C33.5495 14.7231 36.2622 14.6303 38.4417 15.3259C38.859 15.465 39.2532 15.6273 39.6241 15.8128C39.6705 15.8128 39.7169 15.8592 39.7633 15.8824C39.8096 15.8824 39.8328 15.9287 39.856 15.9287C40.0647 16.0447 40.2733 16.1838 40.4588 16.3229C40.9921 16.717 41.4094 17.1808 41.734 17.6677C41.7572 17.714 41.7804 17.7372 41.8036 17.7836C41.9891 18.085 42.1514 18.3864 42.2441 18.711C42.4528 19.3138 42.4992 19.9167 42.3832 20.5195C42.2905 20.2181 42.1746 19.8935 42.0123 19.6153C41.85 19.2907 41.6413 18.9892 41.3863 18.6878C41.224 18.4792 41.0385 18.2937 40.8298 18.1082C40.5979 17.8995 40.3429 17.714 40.0879 17.5517H40.0647C37.6765 16.0215 34.0132 15.8128 30.5354 16.4388C28.5878 16.7866 26.7097 17.3894 25.1331 18.1777C24.8549 18.3169 24.5998 18.456 24.368 18.5951C23.9738 18.8269 23.6028 19.0588 23.2782 19.3138L23.1855 19.2443Z" fill="#0C4E4B"/>
<path opacity="0.5" fill-rule="evenodd" clip-rule="evenodd" d="M22.8611 19.1513C22.8611 19.1513 22.6524 19.1049 22.6756 19.0121V18.9426C23.1857 18.4325 23.7422 17.9456 24.3682 17.4819C25.5507 16.6008 26.9882 15.7893 28.5184 15.1401C32.1354 13.6099 36.3088 12.9839 39.207 14.2359C39.4621 14.3518 39.7171 14.4677 39.949 14.6069C40.5054 14.9546 40.9691 15.372 41.3401 15.8357C41.5952 16.1371 41.7806 16.4849 41.9429 16.8095C42.198 17.3891 42.3139 18.0152 42.2444 18.6412C42.1284 18.3166 41.9893 18.0152 41.8038 17.7137C41.8038 17.6674 41.7575 17.6442 41.7343 17.5978C41.4097 17.1109 40.9691 16.6472 40.4591 16.253C40.2736 16.1139 40.0649 15.9748 39.8562 15.8589C39.833 15.8589 39.7867 15.8125 39.7635 15.8125C39.7171 15.7893 39.6707 15.7661 39.6244 15.743C39.2534 15.5575 38.8592 15.3952 38.4419 15.2561C36.2856 14.5605 33.5497 14.6764 30.9065 15.2561C30.2805 15.3952 29.6545 15.5807 29.0285 15.7661C27.4519 16.2762 25.9448 16.9486 24.6928 17.7369C24.4841 17.8529 24.2986 17.992 24.1131 18.1079C23.6726 18.4093 23.2785 18.7107 22.9075 19.0353L22.8611 19.1049V19.1513Z" fill="#0C4E4B"/>
<path opacity="0.4" fill-rule="evenodd" clip-rule="evenodd" d="M23.4636 22.6755C23.3941 22.5596 23.5332 22.4205 23.6491 22.5132C27.8457 25.8288 31.8337 34.477 29.4687 39.2997C28.6108 40.9922 27.1501 41.966 25.6431 41.9428C25.9909 41.8037 26.3155 41.595 26.6169 41.34C27.0806 40.969 27.4979 40.5053 27.8457 39.9489C27.9848 39.717 28.1239 39.462 28.2167 39.2069C29.4687 36.3319 28.8427 32.1353 27.3124 28.5183C26.6632 26.988 25.8517 25.5505 24.9707 24.3681C24.507 23.7421 24.0201 23.1856 23.51 22.7219H23.4404L23.4636 22.6755Z" fill="#0C4E4B"/>
<path fill-rule="evenodd" clip-rule="evenodd" d="M14.3054 31.6485C14.9778 30.3964 12.752 37.4217 14.7228 39.3461C15.0242 39.6475 15.4415 39.8098 15.9516 39.833H15.998C16.1603 39.833 16.2994 39.833 16.4617 39.8098C16.7168 39.7635 16.9718 39.6939 17.2268 39.578C17.2732 39.5548 17.3428 39.5316 17.3891 39.5084L17.4587 39.462H17.5051C17.8297 39.2534 18.1311 38.9983 18.4325 38.7201C18.4789 38.6737 18.5252 38.6274 18.5484 38.581C18.5948 38.5346 18.6412 38.4882 18.6644 38.4419C18.989 38.0709 19.2672 37.6304 19.5454 37.1667C20.0555 36.2856 20.4728 35.2191 20.8438 34.1062C20.8902 33.9902 20.9134 33.8511 20.9597 33.7352C21.7249 31.2311 22.1422 28.472 22.2813 26.4781C22.3972 24.9246 22.3277 23.6262 22.3277 23.6262C22.3277 23.4871 22.5132 23.4407 22.5827 23.5798C22.8146 24.229 23.0233 24.9478 23.1624 25.7129C23.1856 25.852 23.2087 25.968 23.2319 26.1071C23.4174 27.2432 23.5102 28.4488 23.4638 29.7009C23.4638 29.9559 23.4638 30.211 23.4406 30.4428C23.3247 32.5527 22.9073 34.6858 22.1886 36.5175C22.0031 36.9812 21.8176 37.4217 21.5857 37.8159C21.2843 38.3955 20.9365 38.9288 20.5656 39.3925C20.3105 39.7171 20.0323 40.0185 19.7309 40.2967L19.6613 40.3431L19.5918 40.4127H19.5686L19.499 40.4822C19.3135 40.6445 19.1281 40.7836 18.9426 40.8996C18.7571 41.0155 18.5484 41.1314 18.3629 41.2242C18.3166 41.2242 18.2702 41.2705 18.247 41.2937C17.9224 41.4328 17.5978 41.5488 17.2964 41.6183H17.25C16.9254 41.7111 16.6008 41.7342 16.2762 41.7342C13.1462 41.7342 10.7812 38.2332 14.3286 31.5789" fill="#0C4E4B"/>
<path opacity="0.9" fill-rule="evenodd" clip-rule="evenodd" d="M22.6065 23.5799V23.4872C22.6065 23.3713 22.7225 23.3249 22.792 23.3481L22.8384 23.3945C23.0471 23.835 23.2557 24.2987 23.418 24.7856C23.4876 24.9943 23.5571 25.2261 23.6267 25.458C24.044 26.8723 24.3223 28.4953 24.3918 30.1647C24.415 30.8139 24.4382 31.4631 24.3918 32.1123C24.2759 34.825 23.6731 37.4682 22.4442 39.3694C22.2124 39.7404 21.9573 40.0882 21.6791 40.3896C21.6559 40.4359 21.6096 40.4591 21.5864 40.5055C21.5632 40.5287 21.54 40.5519 21.4936 40.5982C21.3313 40.7605 21.1458 40.9228 20.9604 41.0851C20.4503 41.5025 19.8938 41.8039 19.3374 41.9894C19.291 41.9894 19.2446 42.0126 19.1982 42.0357C18.8505 42.1517 18.5259 42.198 18.1781 42.2212C17.4825 42.2676 16.8101 42.1285 16.2305 41.8039C16.5551 41.8039 16.8797 41.7575 17.2043 41.688H17.2506C17.5752 41.5952 17.8767 41.5025 18.2013 41.3402C18.2476 41.3402 18.294 41.2938 18.3172 41.2706C18.5027 41.1779 18.7113 41.062 18.8968 40.946C19.0823 40.8301 19.2678 40.691 19.4533 40.5519L19.5228 40.4823H19.546L19.6156 40.3896L19.6851 40.32C19.9866 40.0418 20.2648 39.7404 20.5198 39.4158C20.8908 38.9521 21.2386 38.4188 21.54 37.8391C21.7487 37.4218 21.9573 36.9813 22.1428 36.5407C22.8616 34.6859 23.2789 32.5528 23.3948 30.4661C23.3948 30.211 23.418 29.956 23.418 29.7241C23.4412 28.4721 23.3717 27.2665 23.1862 26.1304C23.1862 25.9913 23.1398 25.8753 23.1166 25.7362C22.9775 24.9711 22.7688 24.2523 22.537 23.6031L22.6065 23.5799Z" fill="#0C4E4B"/>
<path opacity="0.8" fill-rule="evenodd" clip-rule="evenodd" d="M22.7685 23.3714C22.7685 23.3714 22.8612 23.1859 22.954 23.2323H22.9772V23.2555C23.325 23.8583 23.6727 24.5307 23.951 25.2495C23.9742 25.3422 24.0205 25.4118 24.0437 25.5045C24.5306 26.8261 24.9016 28.31 25.1103 29.8634C25.1334 30.0721 25.1566 30.3039 25.1798 30.5126C25.5276 33.7354 25.1798 37.0742 23.8582 39.4391C23.6727 39.7637 23.4873 40.0419 23.2786 40.3202C23.2786 40.3202 23.2322 40.3897 23.209 40.4129C23.1395 40.5056 23.0467 40.5984 22.9772 40.6911C22.8844 40.807 22.7685 40.923 22.6526 41.0157C22.4439 41.2012 22.2352 41.3635 22.0266 41.5258C21.7251 41.7345 21.4237 41.92 21.1223 42.0359H21.0759C20.7282 42.1982 20.3804 42.3141 20.0094 42.3605H19.963C19.337 42.4532 18.7342 42.4069 18.1777 42.175C18.5023 42.175 18.8501 42.0823 19.1979 41.9895C19.2443 41.9895 19.2906 41.9663 19.337 41.9432C19.8935 41.7577 20.4499 41.4563 20.96 41.0389C21.1455 40.8998 21.331 40.7375 21.4933 40.552C21.5165 40.5288 21.5397 40.5056 21.586 40.4593C21.6092 40.4361 21.6556 40.3897 21.6788 40.3433C21.957 40.0419 22.212 39.6941 22.4439 39.3232C23.6727 37.3988 24.2756 34.7556 24.3915 32.066C24.4147 31.4168 24.3915 30.7676 24.3915 30.1184C24.3219 28.4491 24.0437 26.8493 23.6264 25.4118C23.5568 25.1799 23.4873 24.9712 23.4177 24.7394C23.2322 24.2293 23.0467 23.7656 22.8381 23.3482L22.7917 23.3019L22.7685 23.3714ZM23.4873 29.7011C23.4873 28.4027 23.3713 27.1739 23.2554 26.1769V26.1073C23.4409 27.2434 23.5104 28.4491 23.4873 29.7011Z" fill="#0C4E4B"/>
<path opacity="0.7" fill-rule="evenodd" clip-rule="evenodd" d="M20.3107 42.4528C20.3107 42.4528 20.1484 42.4065 20.0557 42.3833C20.4034 42.3369 20.7512 42.221 21.1222 42.0818H21.1686C21.47 41.9195 21.7946 41.7572 22.0728 41.5486C22.2815 41.3863 22.4902 41.224 22.6988 41.0385C22.8148 40.9226 22.9075 40.8298 23.0234 40.7139C23.1162 40.6211 23.1857 40.5284 23.2553 40.4357C23.2553 40.4125 23.3017 40.3893 23.3248 40.3429C23.5335 40.0647 23.7422 39.7633 23.9045 39.4387C25.2261 37.0969 25.5739 33.735 25.2261 30.5122C25.2261 30.3035 25.1797 30.0717 25.1565 29.863C24.9478 28.3095 24.5769 26.8257 24.09 25.5041C24.09 25.5041 24.0204 25.3186 23.9972 25.249C23.719 24.5303 23.3712 23.8579 23.0234 23.2783V23.2551H23.0002V23.2319C22.9771 23.1391 23.0234 23.0928 23.093 23.0696C23.093 23.0696 23.1857 23.0696 23.2089 23.116L23.2785 23.2087C23.5335 23.5565 23.7654 23.9043 23.974 24.2984C24.1132 24.5535 24.2523 24.8317 24.3914 25.0867C25.1797 26.6865 25.7825 28.5646 26.1303 30.5122C26.7563 33.99 26.5477 37.6534 25.0406 40.0415C24.8783 40.3429 24.6928 40.598 24.4841 40.8298C24.2986 41.0385 24.1132 41.224 23.9045 41.3863C23.6031 41.6413 23.3017 41.85 22.9771 42.0123C22.6756 42.1746 22.3742 42.2905 22.0728 42.3833C21.5164 42.5456 20.9367 42.5687 20.3803 42.4528H20.3107Z" fill="#0C4E4B"/>
<path opacity="0.6" fill-rule="evenodd" clip-rule="evenodd" d="M23.2322 23.1855V23.1159L23.1627 23.0232C23.1163 22.9073 23.2322 22.8377 23.3018 22.8609L23.3714 22.9073C23.696 23.2782 23.9974 23.6724 24.2988 24.1129C24.4379 24.2984 24.5538 24.5071 24.6698 24.6926C25.4581 25.9446 26.1305 27.4517 26.6405 29.0283C26.8492 29.6543 27.0115 30.2803 27.1506 30.9063C27.7535 33.5495 27.8462 36.2622 27.1506 38.4417C27.0115 38.859 26.8492 39.2532 26.6637 39.6241C26.6637 39.6705 26.6174 39.7169 26.5942 39.7633C26.5942 39.8096 26.5478 39.8328 26.5478 39.856C26.4319 40.0647 26.2928 40.2733 26.1536 40.4588C25.7595 40.9921 25.2958 41.4094 24.8089 41.734C24.7625 41.7572 24.7393 41.7804 24.6929 41.8036C24.3915 41.9891 24.0901 42.1514 23.7655 42.2441C23.1627 42.4528 22.5599 42.4992 21.957 42.3832C22.2584 42.2905 22.583 42.1746 22.8613 42.0123C23.1859 41.85 23.4873 41.6413 23.7887 41.3863C23.9974 41.224 24.1829 41.0385 24.3683 40.8298C24.577 40.5979 24.7625 40.3429 24.9248 40.0879C26.4319 37.6534 26.6405 33.99 26.0145 30.5122C25.6667 28.5646 25.0639 26.6865 24.2756 25.1099C24.1365 24.8317 23.9974 24.5766 23.8583 24.3216C23.6264 23.9042 23.3945 23.5565 23.1627 23.2087L23.2322 23.1855Z" fill="#0C4E4B"/>
<path opacity="0.5" fill-rule="evenodd" clip-rule="evenodd" d="M23.3252 22.8609C23.3252 22.8609 23.3716 22.6522 23.4643 22.6754H23.5339C24.0439 23.1855 24.5308 23.7419 24.9946 24.3679C25.8756 25.5504 26.6871 26.9879 27.3363 28.5182C28.8666 32.1351 29.4926 36.3086 28.2406 39.2068C28.1246 39.4618 28.0087 39.7169 27.8696 39.9487C27.5218 40.5052 27.1045 40.9689 26.6407 41.3399C26.3393 41.5949 26.0147 41.7804 25.6669 41.9427C25.0873 42.1977 24.4613 42.3137 23.8353 42.2441C24.1599 42.1282 24.4613 41.9891 24.7627 41.8036C24.8091 41.8036 24.8323 41.7572 24.8786 41.734C25.3655 41.4094 25.8293 40.9689 26.2234 40.4588C26.3625 40.2733 26.5016 40.0647 26.6176 39.856C26.6176 39.8328 26.6639 39.7864 26.6639 39.7632C26.6871 39.7169 26.7103 39.6705 26.7335 39.6241C26.919 39.2532 27.0813 38.859 27.2204 38.4417C27.916 36.2854 27.8 33.5495 27.2204 30.9063C27.0813 30.2803 26.8958 29.6543 26.7103 29.0283C26.2002 27.4516 25.5278 25.9446 24.7395 24.6925C24.6236 24.4839 24.4845 24.2984 24.3686 24.1129C24.0671 23.6724 23.7657 23.2782 23.4411 22.9072L23.3716 22.8609H23.3252Z" fill="#0C4E4B"/>
<path opacity="0.4" fill-rule="evenodd" clip-rule="evenodd" d="M19.8468 23.4871C19.9627 23.4175 20.1019 23.5566 20.0091 23.6725C16.6936 27.8691 8.0453 31.8571 3.22268 29.4921C1.53012 28.6343 0.556321 27.1736 0.579506 25.6665C0.718621 26.0143 0.927292 26.3389 1.18233 26.6403C1.55331 27.104 2.01702 27.5214 2.57348 27.8692C2.80533 28.0083 3.06038 28.1474 3.31542 28.2401C6.19044 29.4921 10.3871 28.8661 14.004 27.3359C15.5343 26.6867 16.9718 25.8984 18.1543 24.9941C18.7803 24.5304 19.3367 24.0435 19.8004 23.5334V23.4639L19.8468 23.4871Z" fill="#0C4E4B"/>
<path fill-rule="evenodd" clip-rule="evenodd" d="M10.8741 14.3286C12.1261 15.001 5.10088 12.7752 3.17646 14.746C2.87505 15.0474 2.71275 15.4647 2.68956 15.9748V16.0212C2.68956 16.1835 2.68956 16.3226 2.71275 16.4849C2.75912 16.7399 2.82868 16.995 2.94461 17.25C2.96779 17.2964 2.99098 17.3659 3.01416 17.4123L3.06054 17.4819V17.5282C3.26921 17.8528 3.52425 18.1543 3.80248 18.4557C3.84885 18.502 3.89522 18.5484 3.94159 18.5716C3.98796 18.618 4.03433 18.6643 4.08071 18.6875C4.45168 19.0121 4.89221 19.2904 5.35592 19.5686C6.23698 20.0787 7.30352 20.496 8.41643 20.867C8.53236 20.9134 8.67147 20.9365 8.7874 20.9829C11.2915 21.748 14.0506 22.1654 16.0445 22.3045C17.598 22.4204 18.8964 22.3509 18.8964 22.3509C19.0355 22.3509 19.0818 22.5364 18.9427 22.6059C18.2935 22.861 17.5748 23.0464 16.8097 23.1856C16.6705 23.2087 16.5546 23.2319 16.4155 23.2551C15.2794 23.4406 14.0737 23.5333 12.8217 23.487C12.5667 23.487 12.3116 23.487 12.0798 23.4638C9.96987 23.3479 7.83679 22.9305 6.00512 22.2118C5.5414 22.0263 5.12406 21.8408 4.70672 21.6089C4.12708 21.3075 3.59381 20.9597 3.13009 20.5888C2.80549 20.3337 2.50408 20.0555 2.22585 19.7541L2.17948 19.6845L2.10992 19.5918H2.08674L2.04036 19.499C1.90125 19.2904 1.76214 19.1049 1.64621 18.9194C1.53028 18.7339 1.41435 18.5252 1.32161 18.3397C1.32161 18.2934 1.27524 18.247 1.25205 18.2238C1.11294 17.8992 0.997009 17.5746 0.927452 17.2732V17.2268C0.834709 16.9022 0.811523 16.5776 0.811523 16.253C0.811523 13.123 4.31256 10.758 10.9669 14.3054" fill="#0C4E4B"/>
<path opacity="0.9" fill-rule="evenodd" clip-rule="evenodd" d="M18.9427 22.6292H19.0355C19.1514 22.6292 19.1978 22.7452 19.1514 22.8147L19.105 22.8611C18.6645 23.0698 18.2008 23.2784 17.7139 23.4407C17.5052 23.5103 17.2733 23.5799 17.0415 23.6494C15.6272 24.0668 14.0042 24.345 12.3348 24.4145C11.6856 24.4377 11.0364 24.4609 10.3872 24.4145C7.67446 24.2986 5.03129 23.6958 3.13007 22.4669C2.7591 22.2351 2.41131 21.98 2.1099 21.7018C2.06352 21.6786 2.04034 21.6323 1.99397 21.6091C1.97078 21.5859 1.9476 21.5627 1.90122 21.5163C1.73892 21.354 1.57662 21.1685 1.41432 20.9831C0.996982 20.473 0.695568 19.9165 0.510083 19.3601C0.510083 19.3137 0.486897 19.2673 0.463711 19.2209C0.347783 18.8732 0.301412 18.5486 0.278226 18.2008C0.231854 17.5052 0.370969 16.8328 0.695568 16.2532H0.718754C0.718754 16.5778 0.765126 16.9024 0.834683 17.227V17.2733C0.927425 17.5979 1.02017 17.9225 1.18247 18.224C1.18247 18.2703 1.22884 18.3167 1.25203 18.3399C1.34477 18.5254 1.4607 18.734 1.57662 18.9195C1.69255 19.105 1.83167 19.2905 1.97078 19.476L2.01715 19.5687H2.04034L2.1099 19.6847L2.15627 19.7542C2.4345 20.0556 2.73591 20.3339 3.06051 20.5889C3.52422 20.9599 4.05749 21.3077 4.63714 21.6091C5.05448 21.8177 5.49501 22.0264 5.93553 22.2119C7.79039 22.9307 9.92347 23.348 12.0102 23.4639C12.2652 23.4639 12.5203 23.4871 12.7521 23.4871C14.0042 23.5103 15.2098 23.4407 16.3459 23.2553C16.485 23.2553 16.601 23.2089 16.7401 23.1857C17.5052 23.0466 18.224 22.8379 18.8732 22.6061L18.9427 22.6292Z" fill="#0C4E4B"/>
<path opacity="0.8" fill-rule="evenodd" clip-rule="evenodd" d="M19.1511 22.8149C19.1511 22.8149 19.3365 22.9076 19.2902 23.0004V23.0236H19.267C18.6873 23.3945 18.015 23.7423 17.2962 24.0206C17.2035 24.0437 17.1339 24.0901 17.0412 24.1133C15.7196 24.6002 14.2357 24.9712 12.6822 25.1798C12.4736 25.203 12.2417 25.2262 12.033 25.2494C8.81024 25.5972 5.47149 25.2494 3.10655 23.9278C2.78195 23.7423 2.50373 23.5568 2.2255 23.3482C2.2255 23.3482 2.15594 23.3018 2.13275 23.2786C2.04001 23.2091 1.94727 23.1163 1.85453 23.0468C1.7386 22.954 1.62267 22.8381 1.52993 22.7222C1.34444 22.5135 1.18214 22.3048 1.01984 22.0961C0.81117 21.7947 0.625684 21.4933 0.48657 21.1919V21.1455C0.32427 20.7977 0.208342 20.45 0.16197 20.079V20.0326C0.0692277 19.4066 0.115599 18.8038 0.347456 18.2473C0.347456 18.5719 0.440199 18.9197 0.532942 19.2675C0.532942 19.3139 0.556127 19.3602 0.579313 19.4066C0.764799 19.9631 1.06621 20.5195 1.48355 21.0296C1.62267 21.2151 1.78497 21.4006 1.97045 21.5629C1.99364 21.5861 2.01683 21.6092 2.0632 21.6556C2.10957 21.6788 2.13275 21.7252 2.17913 21.7484C2.48054 22.0266 2.82833 22.2816 3.1993 22.5135C5.12371 23.7423 7.76688 24.3452 10.4564 24.4611C11.1056 24.4843 11.7548 24.4611 12.404 24.4611C14.0734 24.3915 15.6732 24.1133 17.1107 23.696C17.3426 23.6264 17.5512 23.5568 17.7831 23.4873C18.2932 23.3018 18.7569 23.1163 19.1742 22.9076L19.2206 22.8613L19.1511 22.8149ZM12.8214 23.5337C14.1198 23.5337 15.3486 23.4177 16.3456 23.3018H16.4151C15.279 23.4873 14.0734 23.5568 12.8214 23.5337Z" fill="#0C4E4B"/>
<path opacity="0.7" fill-rule="evenodd" clip-rule="evenodd" d="M0.0697774 20.3571C0.0697774 20.3571 0.116149 20.1948 0.139334 20.1021C0.185706 20.4498 0.301634 20.7976 0.440749 21.1686V21.215C0.603048 21.5164 0.765348 21.841 0.974019 22.1192C1.13632 22.3279 1.29862 22.5365 1.4841 22.7452C1.60003 22.8611 1.69278 22.9539 1.8087 23.0698C1.90145 23.1626 1.99419 23.2321 2.08693 23.3017C2.11012 23.3017 2.1333 23.348 2.17968 23.3712C2.4579 23.6031 2.73613 23.7886 3.06073 23.9741C5.40249 25.2956 8.76441 25.6434 11.9872 25.2956C12.1959 25.2956 12.4278 25.2493 12.6364 25.2261C14.1899 25.0174 15.6737 24.6464 16.9953 24.1595C16.9953 24.1595 17.1808 24.09 17.2504 24.0668C17.9691 23.7886 18.6415 23.4408 19.2212 23.093H19.2443V23.0698C19.3371 23.0466 19.3835 23.093 19.4066 23.1626C19.4066 23.1626 19.4066 23.2553 19.3603 23.2785L19.2675 23.348C18.9197 23.6031 18.572 23.8349 18.1778 24.0436C17.9228 24.1827 17.6677 24.3218 17.4127 24.461C15.8361 25.2493 13.958 25.8521 12.0104 26.1999C8.53256 26.8259 4.86922 26.6172 2.48109 25.1102H2.4579C2.20286 24.9247 1.94782 24.7392 1.71596 24.5305C1.50729 24.345 1.3218 24.1595 1.15951 23.9509C0.904462 23.6495 0.695791 23.348 0.533491 23.0234C0.371191 22.722 0.255263 22.4206 0.16252 22.1192C0.000220332 21.5627 -0.0229654 20.9831 0.0929631 20.4267L0.0697774 20.3571Z" fill="#0C4E4B"/>
<path opacity="0.6" fill-rule="evenodd" clip-rule="evenodd" d="M19.337 23.2784H19.4066L19.4993 23.2088C19.6152 23.1625 19.6848 23.2784 19.6616 23.3479L19.6152 23.4175C19.2675 23.7421 18.8501 24.0435 18.4096 24.3449C18.2241 24.484 18.0154 24.6 17.8299 24.7159C16.5779 25.5042 15.0708 26.1766 13.4942 26.6867C12.8682 26.8954 12.2422 27.0577 11.6162 27.1968C8.973 27.7996 6.26028 27.8923 4.08082 27.1968C3.66348 27.0577 3.26932 26.8954 2.89835 26.7099C2.85198 26.7099 2.80561 26.6635 2.75924 26.6403C2.71287 26.6403 2.68968 26.5939 2.66649 26.5939C2.45782 26.478 2.24915 26.3389 2.06367 26.1998C1.53039 25.8056 1.11305 25.3419 0.788452 24.855C0.765267 24.8086 0.742081 24.7855 0.718895 24.7391C0.53341 24.4377 0.37111 24.1363 0.278367 23.8117C0.0696959 23.2088 0.0233245 22.606 0.139253 22.0032C0.231996 22.3046 0.347924 22.6292 0.510224 22.9074C0.672524 23.232 0.881195 23.5334 1.13624 23.8348C1.29854 24.0435 1.48402 24.229 1.69269 24.4145C1.92455 24.6232 2.17959 24.8086 2.43464 24.9709H2.45782C4.84595 26.5012 8.50929 26.7099 11.9871 26.0839C13.9347 25.7361 15.8128 25.1332 17.3894 24.3449C17.6676 24.2058 17.9227 24.0667 18.1545 23.9276C18.5487 23.6957 18.9197 23.4639 19.2443 23.2088L19.337 23.2784Z" fill="#0C4E4B"/>
<path opacity="0.5" fill-rule="evenodd" clip-rule="evenodd" d="M19.6619 23.3479C19.6619 23.3479 19.8706 23.3943 19.8474 23.487V23.5566C19.3373 24.0667 18.7809 24.5536 18.1548 25.0173C16.9724 25.8983 15.5349 26.7098 14.0046 27.359C10.3876 28.8893 6.21421 29.5153 3.31599 28.2633C3.06095 28.1473 2.80591 28.0314 2.57405 27.8923C2.0176 27.5445 1.55388 27.1272 1.18291 26.6635C0.927868 26.362 0.742383 26.0374 0.580083 25.6897C0.32504 25.11 0.209112 24.484 0.278669 23.858C0.394597 24.1826 0.533712 24.484 0.719197 24.7854C0.719197 24.8318 0.765568 24.855 0.788754 24.9013C1.11335 25.3882 1.55388 25.852 2.06397 26.2461C2.24945 26.3852 2.45812 26.5243 2.6668 26.6403C2.68998 26.6403 2.73635 26.6866 2.75954 26.6866C2.80591 26.7098 2.85228 26.733 2.89865 26.7562C3.26962 26.9417 3.66378 27.104 4.08112 27.2431C6.23739 27.9387 8.9733 27.8227 11.6165 27.2431C12.2425 27.104 12.8685 26.9185 13.4945 26.733C15.0711 26.2229 16.5782 25.5505 17.8302 24.7622C18.0389 24.6463 18.2244 24.5072 18.4099 24.3913C18.8504 24.0898 19.2446 23.7884 19.6155 23.4638L19.6619 23.3943V23.3479Z" fill="#0C4E4B"/>
<path opacity="0.4" fill-rule="evenodd" clip-rule="evenodd" d="M19.0583 19.8471C19.1278 19.963 18.9887 20.1021 18.8728 20.0094C14.6762 16.6938 10.6882 8.04554 13.0532 3.22292C13.911 1.53036 15.3717 0.556565 16.8788 0.579751C16.531 0.718865 16.2064 0.927536 15.905 1.18258C15.4413 1.55355 15.0239 2.01726 14.6762 2.57372C14.537 2.80558 14.3979 3.06062 14.3052 3.31566C13.0532 6.19069 13.6792 10.3873 15.2094 14.0043C15.8586 15.5345 16.6469 16.972 17.5512 18.1545C18.0149 18.7805 18.5018 19.337 19.0119 19.8007H19.0814L19.0583 19.8471Z" fill="#0C4E4B"/>
<path fill-rule="evenodd" clip-rule="evenodd" d="M28.217 10.8741C27.5447 12.1261 29.7705 5.10087 27.7997 3.17646C27.4983 2.87504 27.0809 2.71274 26.5709 2.68956H26.5245C26.3622 2.68956 26.2231 2.68956 26.0608 2.71274C25.8057 2.75911 25.5507 2.82867 25.2956 2.9446C25.2493 2.96779 25.1797 2.99097 25.1333 3.01416L25.0638 3.06053H25.0174C24.6928 3.2692 24.3914 3.52424 24.09 3.80247C24.0436 3.84884 23.9972 3.89521 23.9741 3.94158C23.9277 3.98796 23.8813 4.03433 23.8581 4.0807C23.5335 4.45167 23.2553 4.8922 22.9771 5.35591C22.467 6.23697 22.0496 7.30351 21.6787 8.41642C21.6323 8.53235 21.6091 8.67147 21.5627 8.78739C20.7976 11.2914 20.3803 14.0505 20.2412 16.0445C20.1252 17.598 20.1948 18.8964 20.1948 18.8964C20.1948 19.0355 20.0093 19.0818 19.9397 18.9427C19.7079 18.2935 19.4992 17.5748 19.3601 16.8096C19.3369 16.6705 19.3137 16.5546 19.2905 16.4155C19.1051 15.2794 19.0123 14.0737 19.0587 12.8217C19.0587 12.5667 19.0587 12.3116 19.0819 12.0798C19.1978 9.96986 19.6151 7.83678 20.3339 6.00511C20.5194 5.5414 20.7049 5.10087 20.9367 4.70671C21.2381 4.12707 21.5859 3.5938 21.9569 3.13009C22.2119 2.80549 22.4902 2.50407 22.7916 2.22584L22.8611 2.17947L22.9307 2.10991H22.9539L23.0234 2.04036C23.2089 1.87806 23.3944 1.73894 23.5799 1.62302C23.7654 1.50709 23.9741 1.39116 24.1595 1.29842C24.2059 1.29842 24.2523 1.25204 24.2755 1.22886C24.6001 1.08974 24.9247 0.973816 25.2261 0.904259H25.2725C25.5971 0.811516 25.9217 0.78833 26.2463 0.78833C29.3763 0.78833 31.7413 4.28937 28.1939 10.9437" fill="#0C4E4B"/>
<path opacity="0.9" fill-rule="evenodd" clip-rule="evenodd" d="M19.9166 18.9427V19.0355C19.9166 19.1514 19.8006 19.1978 19.7311 19.1514L19.6847 19.105C19.476 18.6645 19.2674 18.2008 19.1051 17.7139C19.0355 17.5052 18.9659 17.2733 18.8964 17.0415C18.479 15.6272 18.2008 14.0042 18.1313 12.3348C18.1081 11.6856 18.0849 11.0364 18.1313 10.3872C18.2472 7.67446 18.85 5.03129 20.0789 3.13007C20.3107 2.7591 20.5658 2.41131 20.844 2.1099C20.8672 2.06352 20.9135 2.04034 20.9367 1.99397C20.9599 1.97078 20.9831 1.9476 21.0295 1.90122C21.1918 1.73892 21.3773 1.57662 21.5627 1.41432C22.0728 0.996982 22.6293 0.695568 23.1857 0.510083C23.2321 0.510083 23.2785 0.486897 23.3249 0.463711C23.6726 0.347783 23.9972 0.301412 24.345 0.278226C25.0406 0.231854 25.713 0.370969 26.2926 0.695568C25.968 0.695568 25.6434 0.74194 25.3188 0.811497H25.2725C24.9479 0.90424 24.6464 0.996982 24.3218 1.15928C24.2755 1.15928 24.2291 1.20565 24.2059 1.22884C24.0204 1.32158 23.8118 1.43751 23.6263 1.55344C23.4408 1.66937 23.2553 1.80848 23.0698 1.9476L23.0003 2.01715H22.9771L22.9075 2.1099L22.838 2.17945C22.5365 2.45768 22.2583 2.7591 22.0033 3.08369C21.6323 3.54741 21.2845 4.08068 20.9831 4.66032C20.7744 5.07766 20.5658 5.51819 20.3803 5.95872C19.6615 7.81358 19.2442 9.94666 19.1282 12.0334C19.1282 12.2884 19.1051 12.5435 19.1051 12.7753C19.0819 14.0273 19.1514 15.233 19.3369 16.3691C19.3369 16.5082 19.3833 16.6241 19.4065 16.7633C19.5456 17.5284 19.7543 18.2471 19.9861 18.8963L19.9166 18.9427Z" fill="#0C4E4B"/>
<path opacity="0.8" fill-rule="evenodd" clip-rule="evenodd" d="M19.731 19.1513C19.731 19.1513 19.6383 19.3368 19.5456 19.2904H19.5224C19.1514 18.6876 18.8268 18.0152 18.5486 17.2964C18.5254 17.2037 18.479 17.1341 18.4558 17.0414C17.9689 15.7198 17.598 14.2359 17.3893 12.6825C17.3661 12.4738 17.3429 12.242 17.3197 12.0333C16.9719 8.81048 17.3197 5.47174 18.6413 3.1068C18.8268 2.7822 19.0123 2.50397 19.221 2.22574C19.221 2.22574 19.2673 2.15618 19.2905 2.133C19.3601 2.04026 19.4528 1.94751 19.5224 1.85477C19.6151 1.73884 19.731 1.62291 19.847 1.53017C20.0556 1.34469 20.2643 1.18239 20.473 1.02009C20.7744 0.811414 21.0758 0.625928 21.3772 0.486814H21.4236C21.7714 0.324514 22.1192 0.208586 22.4901 0.162215H22.5365C23.1625 0.0694718 23.7654 0.115843 24.3218 0.3477C23.9972 0.3477 23.6494 0.440443 23.3016 0.533186C23.2553 0.533186 23.2089 0.556371 23.1625 0.579557C22.6061 0.765043 22.0496 1.06646 21.5395 1.4838C21.354 1.62291 21.1686 1.78521 21.0063 1.9707C20.9831 1.99388 20.9599 2.01707 20.9135 2.06344C20.8903 2.10981 20.844 2.133 20.8208 2.17937C20.5425 2.48078 20.2875 2.82857 20.0556 3.19954C18.8268 5.12395 18.224 7.76712 18.108 10.4567C18.0849 11.1059 18.108 11.7551 18.108 12.4043C18.1776 14.0736 18.4558 15.6734 18.8732 17.111C18.9427 17.3428 19.0123 17.5515 19.0818 17.7833C19.2673 18.2934 19.4528 18.7571 19.6615 19.1745L19.7079 19.2209L19.731 19.1513ZM19.0123 12.8216C19.0123 14.12 19.1282 15.3488 19.2441 16.3458V16.4154C19.0587 15.2793 18.9891 14.0736 19.0123 12.8216Z" fill="#0C4E4B"/>
<path opacity="0.7" fill-rule="evenodd" clip-rule="evenodd" d="M22.212 0.0695256C22.212 0.0695256 22.3743 0.115897 22.467 0.139083C22.1192 0.185454 21.7715 0.301383 21.4005 0.440497H21.3541C21.0527 0.602797 20.7281 0.765096 20.4499 0.973768C20.2412 1.13607 20.0325 1.29837 19.8239 1.48385C19.7079 1.59978 19.6152 1.69252 19.4993 1.80845C19.4065 1.9012 19.337 1.99394 19.2674 2.08668C19.2674 2.10987 19.221 2.13305 19.1978 2.17942C18.9892 2.45765 18.7805 2.75907 18.6182 3.08367C17.2966 5.42542 16.9488 8.78735 17.2966 12.0102C17.2966 12.2188 17.343 12.4507 17.3662 12.6594C17.5748 14.2128 17.9458 15.6967 18.4327 17.0183C18.4327 17.0183 18.5023 17.2038 18.5255 17.2733C18.8037 17.9921 19.1515 18.6645 19.4993 19.2441V19.2673H19.5224V19.2905C19.5456 19.3832 19.4993 19.4296 19.4297 19.4528C19.4297 19.4528 19.337 19.4528 19.3138 19.4064L19.2442 19.3137C18.9892 18.9659 18.7573 18.6181 18.5486 18.2239C18.4095 17.9689 18.2704 17.6907 18.1313 17.4356C17.343 15.8358 16.7402 13.9578 16.3924 12.0102C15.7664 8.5323 15.975 4.86896 17.4821 2.48084C17.6444 2.17942 17.8299 1.92438 18.0386 1.69252C18.2241 1.48385 18.4095 1.29837 18.6182 1.13607C18.9196 0.881025 19.221 0.672354 19.5456 0.510054C19.847 0.347754 20.1485 0.231825 20.4499 0.139083C21.0063 -0.0232172 21.586 -0.0464029 22.1424 0.0695256H22.212Z" fill="#0C4E4B"/>
<path opacity="0.6" fill-rule="evenodd" clip-rule="evenodd" d="M19.2672 19.3368V19.4063L19.3368 19.4991C19.3832 19.615 19.2672 19.6845 19.1977 19.6614L19.1281 19.615C18.8035 19.2672 18.5021 18.8499 18.2007 18.4093C18.0616 18.2239 17.9456 18.0152 17.8297 17.8297C17.0414 16.5777 16.369 15.0706 15.8589 13.494C15.6503 12.868 15.488 12.2419 15.3488 11.6159C14.746 8.97276 14.6533 6.26003 15.3488 4.08058C15.488 3.66323 15.6503 3.26908 15.8357 2.89811C15.8357 2.85173 15.8821 2.80536 15.9053 2.75899C15.9053 2.71262 15.9517 2.68944 15.9517 2.66625C16.0676 2.45758 16.2067 2.24891 16.3458 2.06342C16.74 1.53015 17.2037 1.11281 17.6906 0.788208C17.737 0.765023 17.7602 0.741837 17.8065 0.718651C18.1079 0.533166 18.4094 0.370866 18.734 0.278123C19.3368 0.0694517 19.9396 0.0230804 20.5424 0.139009C20.241 0.231752 19.9164 0.34768 19.6382 0.50998C19.3136 0.67228 19.0122 0.880951 18.7108 1.13599C18.5021 1.29829 18.3166 1.48378 18.1311 1.69245C17.9225 1.92431 17.737 2.17935 17.5747 2.43439C16.0676 4.86889 15.8589 8.53223 16.4849 12.0101C16.8327 13.9577 17.4356 15.8357 18.2239 17.4124C18.363 17.6906 18.5021 17.9456 18.6412 18.2007C18.8731 18.618 19.1049 18.9658 19.3368 19.3136L19.2672 19.3368Z" fill="#0C4E4B"/>
<path opacity="0.5" fill-rule="evenodd" clip-rule="evenodd" d="M19.1974 19.6617C19.1974 19.6617 19.151 19.8703 19.0583 19.8472H18.9887C18.4786 19.3371 17.9917 18.7806 17.528 18.1546C16.647 16.9721 15.8355 15.5346 15.1863 14.0044C13.656 10.3874 13.03 6.21396 14.282 3.31575C14.398 3.06071 14.5139 2.80567 14.653 2.57381C15.0008 2.01735 15.4181 1.55364 15.8818 1.18267C16.1833 0.927624 16.5079 0.742139 16.8556 0.579839C17.4353 0.324796 18.0613 0.208868 18.6873 0.278425C18.3627 0.394353 18.0613 0.533467 17.7599 0.718953C17.7135 0.718953 17.6903 0.765324 17.644 0.78851C17.1571 1.11311 16.6933 1.55364 16.2992 2.06372C16.1601 2.24921 16.021 2.45788 15.905 2.66655C15.905 2.68974 15.8587 2.73611 15.8587 2.75929C15.8355 2.80567 15.8123 2.85204 15.7891 2.89841C15.6036 3.26938 15.4413 3.66354 15.3022 4.08088C14.6066 6.23715 14.7226 8.97306 15.3022 11.6162C15.4413 12.2422 15.6268 12.8683 15.8123 13.4943C16.3224 15.0709 16.9948 16.578 17.7831 17.83C17.899 18.0387 18.0381 18.2242 18.154 18.4096C18.4555 18.8502 18.7569 19.2443 19.0815 19.6153L19.151 19.6617H19.1974Z" fill="#0C4E4B"/>
<path d="M214.654 27.0808C215.604 27.0808 216.439 26.8721 217.181 26.4316C217.923 25.9911 218.502 25.4114 218.943 24.6695C219.36 23.9276 219.569 23.0929 219.569 22.1654C219.569 21.238 219.36 20.4033 218.943 19.6846C218.526 18.9426 217.946 18.363 217.181 17.9225C216.439 17.4819 215.581 17.2733 214.654 17.2733C213.726 17.2733 212.868 17.4819 212.103 17.8993C211.338 18.3166 210.758 18.8963 210.341 19.6382C209.924 20.3801 209.715 21.238 209.715 22.1654C209.715 23.603 210.179 24.7854 211.106 25.6897C212.034 26.6171 213.216 27.0808 214.677 27.0808M220.125 14.5374H223.024V29.8399H219.615V26.7098C219.198 27.7764 218.479 28.6111 217.459 29.2139C216.439 29.8167 215.233 30.1181 213.865 30.1181C212.358 30.1181 211.037 29.7704 209.877 29.0516C208.741 28.356 207.86 27.3822 207.234 26.1534C206.608 24.9245 206.307 23.5798 206.307 22.1191C206.307 20.6584 206.631 19.244 207.257 18.0616C207.907 16.8559 208.811 15.9285 209.97 15.2329C211.129 14.5374 212.497 14.2128 214.028 14.2128C215.187 14.2128 216.253 14.491 217.25 15.0474C218.247 15.6039 219.012 16.369 219.592 17.3428V17.4587L220.125 14.5374ZM199.026 14.2128C200.765 14.2128 202.156 14.7692 203.2 15.8589C204.266 16.9487 204.8 18.4325 204.8 20.2874V29.8399H201.438V21.1453C201.438 19.8005 201.136 18.8035 200.533 18.1311C199.931 17.4588 199.142 17.1341 198.122 17.1341C197.102 17.1341 196.267 17.4819 195.641 18.1543C195.015 18.8499 194.691 19.8237 194.691 21.1221V29.8167H191.329V21.1221C191.329 19.8005 191.027 18.8035 190.425 18.1311C189.822 17.4588 189.033 17.111 188.06 17.111C187.016 17.111 186.182 17.4588 185.556 18.1311C184.93 18.8035 184.605 19.8005 184.605 21.1221V29.8167H181.22V14.5142H184.025L184.535 16.8096C184.999 15.9749 185.625 15.3489 186.413 14.8851C187.179 14.4214 188.129 14.1896 189.196 14.1896C190.216 14.1896 191.143 14.4214 191.955 14.8851C192.789 15.3489 193.415 15.9981 193.879 16.8327C194.412 15.9981 195.108 15.3489 195.966 14.8851C196.824 14.4214 197.844 14.1896 199.026 14.1896V14.2128ZM174.821 16.8327C175.632 15.2329 176.954 14.4446 178.808 14.4446C179.226 14.4446 179.55 14.4446 179.782 14.5142V17.4356C179.342 17.366 178.971 17.3428 178.623 17.3428C177.487 17.3428 176.606 17.5979 175.957 18.1311C175.307 18.6644 174.983 19.4295 174.936 20.4265V29.8167H171.575V14.5142H174.334L174.797 16.8096L174.821 16.8327ZM162.022 16.9487C160.816 16.9487 159.796 17.2964 158.962 18.0152C158.127 18.7108 157.663 19.615 157.57 20.7279H166.381C166.335 19.6382 165.917 18.7571 165.106 18.0384C164.294 17.3196 163.274 16.9719 162.022 16.9719V16.9487ZM162.022 14.2128C163.599 14.2128 164.99 14.5605 166.172 15.2793C167.378 15.9749 168.282 17.0182 168.931 18.3862C169.581 19.7541 169.882 21.3771 169.836 23.3015H157.547C157.64 24.484 158.127 25.4578 159.031 26.1998C159.912 26.9649 161.002 27.3359 162.277 27.3359C163.297 27.3359 164.178 27.104 164.897 26.6635C165.616 26.2229 166.172 25.6201 166.52 24.9014L169.488 25.226C169.21 26.1534 168.723 26.9881 168.05 27.73C167.355 28.472 166.52 29.0748 165.5 29.4921C164.48 29.9327 163.413 30.1413 162.254 30.1413C160.7 30.1413 159.309 29.8167 158.104 29.1443C156.875 28.4951 155.924 27.5677 155.229 26.3621C154.533 25.1564 154.185 23.7884 154.185 22.2118C154.185 20.6352 154.51 19.36 155.182 18.1543C155.855 16.9255 156.782 15.9749 157.988 15.2793C159.193 14.5837 160.538 14.2359 162.022 14.2359V14.2128ZM142.616 26.7098C144.007 26.7098 145.236 26.4084 146.279 25.852C147.322 25.2723 148.134 24.4376 148.713 23.3247C149.293 22.235 149.571 20.9134 149.571 19.3832C149.571 17.8529 149.293 16.5313 148.713 15.4416C148.134 14.3519 147.322 13.494 146.279 12.9144C145.236 12.3347 144.007 12.0565 142.616 12.0565H139.115V26.733H142.616V26.7098ZM135.66 29.8399V8.90323H142.616C144.749 8.90323 146.58 9.36694 148.157 10.2712C149.734 11.1754 150.939 12.4275 151.774 14.0273C152.609 15.6271 153.026 17.3892 153.026 19.36C153.026 21.3308 152.609 23.0929 151.774 24.6927C150.939 26.2925 149.734 27.5445 148.157 28.4488C146.58 29.353 144.749 29.8167 142.616 29.8167H135.66V29.8399ZM130.374 14.5374H133.759V17.1805H130.374V29.8167H127.012V17.1805H124.624V14.5374H127.012V10.0857H130.374V14.5374ZM119.221 16.8327C120.033 15.2329 121.354 14.4446 123.209 14.4446C123.627 14.4446 123.951 14.4446 124.183 14.5142V17.4356C123.742 17.366 123.371 17.3428 123.024 17.3428C121.888 17.3428 121.007 17.5979 120.357 18.1311C119.708 18.6644 119.384 19.4295 119.337 20.4265V29.8167H115.975V14.5142H118.734L119.198 16.8096L119.221 16.8327ZM105.124 27.0808C106.075 27.0808 106.91 26.8721 107.652 26.4316C108.394 25.9911 108.973 25.4114 109.414 24.6695C109.831 23.9276 110.04 23.0929 110.04 22.1654C110.04 21.238 109.831 20.4033 109.414 19.6846C108.996 18.9426 108.417 18.363 107.652 17.9225C106.91 17.4819 106.052 17.2733 105.124 17.2733C104.197 17.2733 103.339 17.4819 102.574 17.8993C101.809 18.3166 101.229 18.8963 100.812 19.6382C100.394 20.3801 100.186 21.238 100.186 22.1654C100.186 23.603 100.65 24.7854 101.577 25.6897C102.504 26.6171 103.687 27.0808 105.148 27.0808H105.124ZM110.573 14.5374H113.471V29.8399H110.063V26.7098C109.646 27.7764 108.927 28.6111 107.907 29.2139C106.886 29.8167 105.681 30.1181 104.313 30.1181C102.806 30.1181 101.484 29.7704 100.325 29.0516C99.1888 28.356 98.3078 27.3822 97.6817 26.1534C97.0557 24.9245 96.7543 23.5798 96.7543 22.1191C96.7543 20.6584 97.0789 19.244 97.7049 18.0616C98.3541 16.8559 99.2584 15.9285 100.418 15.2329C101.577 14.5374 102.945 14.2128 104.475 14.2128C105.634 14.2128 106.701 14.491 107.698 15.0474C108.695 15.6039 109.46 16.369 110.04 17.3428V17.4587L110.573 14.5374ZM89.474 14.2128C91.2129 14.2128 92.6041 14.7692 93.6474 15.8589C94.714 16.9487 95.2472 18.4325 95.2472 20.2874V29.8399H91.8853V21.1453C91.8853 19.8005 91.5839 18.8035 90.9811 18.1311C90.3783 17.4588 89.5899 17.1341 88.5698 17.1341C87.5496 17.1341 86.7149 17.4819 86.0889 18.1543C85.4629 18.8499 85.1383 19.8237 85.1383 21.1221V29.8167H81.7764V21.1221C81.7764 19.8005 81.4749 18.8035 80.8721 18.1311C80.2693 17.4588 79.481 17.111 78.5072 17.111C77.4638 17.111 76.6291 17.4588 76.0031 18.1311C75.3771 18.8035 75.0525 19.8005 75.0525 21.1221V29.8167H71.6674V14.5142H74.4729L74.9829 16.8096C75.4467 15.9749 76.0727 15.3489 76.861 14.8851C77.6261 14.4214 78.5767 14.1896 79.6433 14.1896C80.6634 14.1896 81.5909 14.4214 82.4024 14.8851C83.2371 15.3489 83.8631 15.9981 84.3268 16.8327C84.8601 15.9981 85.5556 15.3489 86.4135 14.8851C87.2714 14.4214 88.2915 14.1896 89.474 14.1896V14.2128ZM62.8105 30.1181C61.3034 30.1181 59.9586 29.8167 58.8225 29.2139C57.6632 28.6111 56.7822 27.7996 56.1562 26.7794C55.5301 25.7592 55.1824 24.6231 55.1592 23.3943H58.7298C58.7761 24.6231 59.1703 25.5506 59.9586 26.1998C60.7237 26.849 61.6975 27.1967 62.8336 27.1967C63.9697 27.1967 64.8044 26.9417 65.4304 26.4316C66.0796 25.9215 66.3811 25.2491 66.3811 24.4376C66.3811 23.858 66.1956 23.3247 65.8014 22.8842C65.4073 22.4437 64.9435 22.0727 64.3871 21.7713C63.8306 21.4699 63.0423 21.0989 62.0453 20.6584C60.7237 20.0787 59.6804 19.5686 58.8689 19.1049C58.0806 18.6412 57.385 17.992 56.8054 17.2037C56.2257 16.4154 55.9475 15.4184 55.9475 14.2359C55.9475 13.1462 56.2257 12.1492 56.7822 11.3145C57.3386 10.4567 58.1269 9.80747 59.1239 9.32057C60.1209 8.85686 61.257 8.625 62.509 8.625C63.8538 8.625 65.0595 8.88004 66.0796 9.41331C67.0998 9.94658 67.9113 10.6885 68.491 11.6391C69.0706 12.5898 69.3952 13.6795 69.4416 14.9315L65.9637 15.0243C65.8942 13.9345 65.5696 13.0998 64.9667 12.4738C64.3639 11.8478 63.5524 11.5464 62.5786 11.5464C61.6975 11.5464 60.9556 11.7783 60.376 12.2652C59.7963 12.7289 59.4949 13.3549 59.4949 14.1432C59.4949 14.8156 59.6804 15.372 60.0745 15.8126C60.4687 16.2531 60.9556 16.6473 61.5121 16.9255C62.0917 17.2269 62.9032 17.5747 63.9466 18.0152C65.2681 18.5485 66.3115 19.0354 67.0998 19.4527C67.8881 19.8932 68.5605 20.4961 69.1402 21.2844C69.7198 22.0727 69.998 23.0465 69.998 24.229C69.998 25.4114 69.6966 26.478 69.0706 27.359C68.4446 28.2401 67.5867 28.9357 66.497 29.3994C65.4073 29.8863 64.1784 30.1181 62.8105 30.1181Z" fill="#0C4E4B"/>
<path d="M40.6906 0.74195V1.34478H41.0384C41.0384 1.34478 41.247 1.32159 41.2934 1.25204C41.3629 1.20566 41.3861 1.11292 41.3861 1.04336C41.3861 0.973807 41.3629 0.881064 41.2934 0.811507C41.2238 0.765136 41.1311 0.74195 41.0384 0.74195H40.6906ZM40.9456 1.50708L41.618 2.17946H41.363L40.6906 1.48389V2.17946H40.4819V0.556464H41.0615C41.2238 0.556464 41.3629 0.602836 41.4557 0.695578C41.5484 0.788321 41.5948 0.90425 41.5948 1.04336C41.5948 1.20566 41.5484 1.32159 41.4325 1.39115C41.3166 1.46071 41.2006 1.50708 41.0615 1.50708H40.9456ZM40.992 2.57362C41.2238 2.57362 41.4325 2.52725 41.5948 2.43451C41.7803 2.34176 41.9194 2.20265 42.0122 2.01716C42.1049 1.83168 42.1745 1.64619 42.1745 1.41433C42.1745 1.18248 42.1281 0.996992 42.0122 0.811507C41.9194 0.626021 41.7571 0.486907 41.5948 0.394164C41.4093 0.301422 41.2007 0.231865 40.992 0.231865C40.7833 0.231865 40.5746 0.278236 40.3892 0.394164C40.2037 0.486907 40.0646 0.626021 39.9718 0.811507C39.8791 0.996992 39.8095 1.18248 39.8095 1.41433C39.8095 1.64619 39.8559 1.83168 39.9718 2.01716C40.0646 2.20265 40.2269 2.34176 40.3892 2.43451C40.5746 2.52725 40.7601 2.59681 40.992 2.59681V2.57362ZM40.992 0.0231934C41.247 0.0231934 41.5021 0.0927504 41.7107 0.208679C41.9194 0.324607 42.0817 0.486907 42.2208 0.695578C42.3367 0.90425 42.4063 1.13611 42.4063 1.39115C42.4063 1.64619 42.3367 1.87805 42.2208 2.08672C42.1049 2.29539 41.9426 2.45769 41.7107 2.57362C41.5021 2.68955 41.2702 2.75911 40.992 2.75911C40.7138 2.75911 40.5051 2.68955 40.2964 2.57362C40.0877 2.45769 39.9254 2.29539 39.8095 2.08672C39.6936 1.87805 39.624 1.64619 39.624 1.39115C39.624 1.13611 39.6936 0.90425 39.8095 0.695578C39.9254 0.486907 40.0877 0.324607 40.2964 0.208679C40.5051 0.0927504 40.7369 0.0231934 40.992 0.0231934Z" fill="#0C4E4B"/>
<path d="M150.707 40.8067H151.264L153.907 37.5144V40.8067H154.556V36.4246H154L151.356 39.717V36.4246H150.707V40.8067ZM143.404 40.8067H144.146L145.699 38.6505L146.348 39.346V40.8067H146.997V39.346L147.647 38.6505L149.2 40.8067H149.942L148.064 38.2099L149.757 36.4246H148.991L147.021 38.5345V36.4246H146.371V38.5345L144.401 36.4246H143.636L145.328 38.2099L143.45 40.8067H143.404ZM140.761 40.2966C139.903 40.2966 139.161 39.5547 139.161 38.6041C139.161 37.6535 139.903 36.9115 140.761 36.9115C141.618 36.9115 142.36 37.6535 142.36 38.6041C142.36 39.5547 141.618 40.2966 140.761 40.2966ZM140.761 40.8995C141.989 40.8995 143.01 39.9025 143.01 38.6041C143.01 37.3057 142.013 36.3087 140.761 36.3087C139.508 36.3087 138.511 37.3057 138.511 38.6041C138.511 39.9025 139.508 40.8995 140.761 40.8995ZM134.315 40.8067H134.964V39.5779L135.822 38.6736L137.375 40.8299H138.117L136.239 38.2331L137.932 36.4478H137.167L134.964 38.7896V36.4478H134.315V40.8299V40.8067ZM127.104 40.8067H127.661L130.304 37.5144V40.8067H130.953V36.4246H130.397L127.753 39.717V36.4246H127.104V40.8067ZM127.8 34.4075C127.8 35.1494 128.31 35.6363 129.029 35.6363C129.747 35.6363 130.257 35.1262 130.257 34.4075H129.747C129.747 34.9176 129.492 35.1726 129.005 35.1726C128.518 35.1726 128.263 34.9176 128.263 34.4075H127.753H127.8ZM123.742 40.2966C122.884 40.2966 122.142 39.5547 122.142 38.6041C122.142 37.6535 122.884 36.9115 123.742 36.9115C124.6 36.9115 125.342 37.6535 125.342 38.6041C125.342 39.5547 124.6 40.2966 123.742 40.2966ZM123.742 40.8995C124.971 40.8995 125.991 39.9025 125.991 38.6041C125.991 37.3057 124.994 36.3087 123.742 36.3087C122.49 36.3087 121.493 37.3057 121.493 38.6041C121.493 39.9025 122.49 40.8995 123.742 40.8995ZM117.76 40.2039V38.7432H119.221C119.731 38.7432 120.009 38.9982 120.009 39.4851C120.009 39.972 119.754 40.2271 119.221 40.2271H117.76V40.2039ZM117.76 38.1867V37.0043H119.128C119.592 37.0043 119.824 37.2361 119.824 37.6071C119.824 37.9781 119.615 38.2099 119.128 38.2099H117.76V38.1867ZM117.111 40.7835H119.221C120.125 40.7835 120.635 40.2735 120.635 39.5083C120.635 39.0678 120.45 38.8128 120.264 38.6505C120.148 38.5577 120.032 38.4882 119.893 38.4418C119.986 38.3722 120.079 38.3027 120.172 38.2331C120.311 38.094 120.45 37.8621 120.45 37.5375C120.45 36.8883 119.963 36.4014 119.128 36.4014H117.111V40.7835ZM113.726 40.2735C112.868 40.2735 112.126 39.5315 112.126 38.5809C112.126 37.6303 112.868 36.8883 113.726 36.8883C114.584 36.8883 115.326 37.6303 115.326 38.5809C115.326 39.5315 114.584 40.2735 113.726 40.2735ZM113.726 40.8763C114.955 40.8763 115.975 39.8793 115.975 38.5809C115.975 37.2825 114.978 36.2855 113.726 36.2855C112.474 36.2855 111.477 37.2825 111.477 38.5809C111.477 39.8793 112.474 40.8763 113.726 40.8763ZM108.509 40.2735C107.744 40.2735 107.002 39.5315 107.002 38.5809C107.002 37.6303 107.744 36.8883 108.509 36.8883C109.344 36.8883 110.016 37.5839 110.016 38.5809C110.016 39.5779 109.344 40.2735 108.509 40.2735ZM106.353 42.6848H107.002V40.1343C107.095 40.2734 107.211 40.3894 107.373 40.5053C107.628 40.6908 107.999 40.8763 108.509 40.8763C109.692 40.8763 110.665 39.9257 110.665 38.5809C110.665 37.2361 109.715 36.2855 108.509 36.2855C107.999 36.2855 107.628 36.471 107.373 36.6565C107.211 36.7724 107.095 36.8883 107.002 37.0275V36.3783H106.353V42.6848ZM102.968 40.2735C102.11 40.2735 101.368 39.5315 101.368 38.5809C101.368 37.6303 102.11 36.8883 102.968 36.8883C103.826 36.8883 104.568 37.6303 104.568 38.5809C104.568 39.5315 103.826 40.2735 102.968 40.2735ZM102.968 40.8763C104.197 40.8763 105.217 39.8793 105.217 38.5809C105.217 37.2825 104.22 36.2855 102.968 36.2855C101.716 36.2855 100.719 37.2825 100.719 38.5809C100.719 39.8793 101.716 40.8763 102.968 40.8763ZM96.244 40.1807C96.3831 40.0184 96.499 39.8097 96.6149 39.5547C96.8004 39.1142 96.9859 38.5113 96.9859 37.6535V36.9579H98.7248V40.1575H96.2672L96.244 40.1807ZM95.247 41.8733H95.8962V40.7835H99.4204V41.8733H100.07V40.1807H99.374V36.3783H96.3599V37.6535C96.3599 38.5345 96.1512 39.1605 95.9657 39.5547C95.8498 39.8097 95.7339 39.9952 95.5716 40.1575H95.247V41.8501V41.8733ZM91.4445 40.088C91.5605 40.2503 91.6996 40.3662 91.8619 40.4821C92.1401 40.6676 92.5575 40.8763 93.0907 40.8763C94.2268 40.8763 94.7833 40.2271 94.7833 39.5547C94.7833 39.091 94.5746 38.8359 94.3427 38.6968C94.2036 38.6041 94.0645 38.5577 93.9022 38.5113C94.0182 38.465 94.1341 38.4186 94.25 38.3259C94.4123 38.1867 94.5978 37.9317 94.5978 37.5375C94.5978 36.9115 93.995 36.3087 93.0907 36.3087C92.5806 36.3087 92.2097 36.471 91.9314 36.6333C91.7691 36.726 91.63 36.842 91.5373 36.9579L92.001 37.4216C92.001 37.4216 92.1865 37.2593 92.3024 37.1666C92.4879 37.0275 92.7429 36.9115 93.1139 36.9115C93.7167 36.9115 93.9718 37.1898 93.9718 37.5607C93.9718 37.9317 93.6472 38.2563 93.1139 38.2563H92.6038V38.8591H93.1139C93.8559 38.8591 94.1573 39.1837 94.1573 39.6011C94.1573 40.0184 93.8327 40.343 93.1139 40.343C92.7197 40.343 92.4183 40.2039 92.2097 40.0416C92.0937 39.9489 91.9778 39.8561 91.8851 39.7402L91.4677 40.1575L91.4445 40.088ZM87.9203 38.8128C87.9203 39.6938 87.3407 40.2735 86.506 40.2735C85.9032 40.2735 85.6017 39.9489 85.6017 39.5779C85.6017 39.1605 85.88 38.9055 86.4132 38.8128L87.9203 38.5345V38.8128ZM87.9203 40.7835H88.5695V38.0013C88.5695 37.0506 87.8276 36.3087 86.8306 36.3087C86.2973 36.3087 85.9032 36.5174 85.6249 36.726C85.4626 36.842 85.3235 36.9811 85.1844 37.1434L85.6017 37.5607C85.6945 37.4448 85.8104 37.3521 85.9263 37.2361C86.135 37.0738 86.4364 36.9115 86.8306 36.9115C87.4798 36.9115 87.9203 37.3521 87.9203 38.0013L86.2278 38.2795C85.3931 38.4186 84.9525 38.8823 84.9525 39.6011C84.9525 40.2503 85.6017 40.8763 86.506 40.8763C86.9697 40.8763 87.3175 40.714 87.5725 40.5285C87.7116 40.4358 87.8276 40.3198 87.9203 40.1807V40.7835ZM80.7559 40.7835H81.4051V39.5547L82.263 38.6505L83.8164 40.8067H84.5584L82.6803 38.2099L84.3729 36.4246H83.6078L81.4051 38.7664V36.4246H80.7559V40.8067V40.7835ZM75.4464 40.7835H76.0029L78.646 37.4912V40.7835H79.2952V36.4014H78.7388L76.0956 39.6938V36.4014H75.4464V40.7835ZM70.1833 40.7835H70.8325V38.8591H73.3365V40.7835H73.9857V36.4014H73.3365V38.2795H70.8325V36.4014H70.1833V40.7835ZM64.8737 40.7835H65.4302L68.0734 37.4912V40.7835H68.7226V36.4014H68.1661L65.5229 39.6938V36.4014H64.8737V40.7835ZM59.0309 40.7835C59.0309 40.7835 59.1237 40.8299 59.1701 40.8299C59.2628 40.8531 59.3787 40.8763 59.4947 40.8763C60.3061 40.8763 60.8626 40.3198 60.8626 37.6767V36.9811H62.787V40.7835H63.4362V36.4014H60.2366V37.6767C60.2366 39.9025 59.912 40.2271 59.4251 40.2271C59.3323 40.2271 59.2396 40.2271 59.1701 40.1807C59.1237 40.1807 59.0773 40.1575 59.0541 40.1343V40.7835H59.0309ZM55.1357 40.7835H55.7849V39.5547L56.6428 38.6505L58.1963 40.8067H58.9382L57.0602 38.2099L58.7527 36.4246H57.9876L55.7849 38.7664V36.4246H55.1357V40.8067V40.7835Z" fill="#0C4E4B"/>
</g>
<defs>
<clipPath id="clip0_1_891">
<rect width="223" height="42.7312" fill="white"/>
</clipPath>
</defs>
</svg>
