<svg width="624" height="624" viewBox="0 0 624 624" fill="none" xmlns="http://www.w3.org/2000/svg">
<g opacity="0.06">
<path opacity="0.4" fill-rule="evenodd" clip-rule="evenodd" d="M332.483 278.874L332.42 278.921C330.651 280.043 328.677 277.816 329.956 276.204C378.464 214.523 505.476 156.159 575.971 190.909C600.817 203.356 615.191 224.932 614.781 246.935C612.601 241.976 609.647 237.158 606.03 232.625C600.675 225.943 593.788 219.846 585.559 214.776C582.131 212.691 578.53 210.827 574.771 209.184C532.486 190.703 471.184 200.054 418.127 222.421C395.65 231.866 374.657 243.666 357.219 256.665C348.058 263.521 339.844 270.676 332.957 278.005L332.468 278.921L332.483 278.874Z" fill="#0C4E4B"/>
<path fill-rule="evenodd" clip-rule="evenodd" d="M463.918 413.183C445.643 403.169 548.629 436.055 576.951 407.038C581.279 402.568 583.885 396.661 583.98 388.874V388.194V387.973C584.011 385.699 583.869 383.44 583.553 381.276C583 377.422 581.895 373.726 580.315 370.156C579.952 369.366 579.573 368.561 579.162 367.787L578.562 366.649L578.198 366.002C575.466 361.231 571.864 356.698 567.536 352.465C566.92 351.833 566.273 351.217 565.594 350.633C564.946 350.017 564.267 349.416 563.556 348.832C558.154 344.172 551.82 339.844 544.823 335.864C531.744 328.408 516.312 322.106 499.916 316.846C498.115 316.262 496.33 315.709 494.498 315.156C457.9 304.036 417.369 297.955 388.068 295.917C365.212 294.385 346.4 295.159 346.4 295.191C344.267 295.206 343.73 292.316 345.673 291.573L345.847 291.51C355.261 287.94 365.749 285.081 376.964 282.981C378.891 282.602 380.834 282.254 382.792 281.954C399.314 279.221 417.227 278.037 435.518 278.4C439.214 278.479 442.863 278.621 446.559 278.826C477.392 280.469 508.73 286.566 535.772 297.244C542.469 299.882 548.866 302.788 554.963 306.01C563.382 310.433 571.169 315.425 578.135 320.969C582.953 324.807 587.36 328.882 591.293 333.273L592.099 334.19L592.256 334.348L593.236 335.485L593.583 335.895L594.341 336.796L594.594 337.112C596.711 339.734 598.685 342.419 600.486 345.215C602.255 348.042 603.835 350.87 605.225 353.744C605.525 354.345 605.793 354.961 606.078 355.561C608.21 360.252 609.837 364.943 610.943 369.587L611.116 370.251C612.206 375.084 612.759 379.87 612.759 384.53C612.949 430.495 561.297 465.103 463.934 413.246" fill="#0C4E4B"/>
<path opacity="0.9" fill-rule="evenodd" clip-rule="evenodd" d="M345.799 291.494C344.93 291.605 344.472 291.668 344.472 291.668C342.814 291.873 341.929 290.104 342.609 288.904L343.414 288.13C349.732 284.955 356.619 282.064 363.948 279.506C367.123 278.4 370.361 277.342 373.678 276.362C394.513 270.139 418.237 266.253 442.547 265.069C452.008 264.61 461.564 264.563 471.058 264.926C510.736 266.474 549.577 275.509 577.646 293.469C583.048 296.928 588.039 300.719 592.572 304.857C593.125 305.363 593.646 305.821 594.168 306.326C594.594 306.737 595.021 307.148 595.415 307.543C597.911 310.007 600.233 312.597 602.397 315.298C608.384 322.912 612.775 330.967 615.507 339.086C615.713 339.718 615.918 340.334 616.108 340.966C617.64 345.957 618.556 350.949 618.856 355.861C619.488 366.065 617.466 375.874 612.743 384.482C612.743 379.823 612.19 375.037 611.1 370.203L610.927 369.54C609.837 364.896 608.21 360.189 606.062 355.514C605.777 354.913 605.509 354.297 605.209 353.697C603.819 350.838 602.239 347.995 600.47 345.167C598.669 342.372 596.695 339.686 594.578 337.064L594.326 336.748L593.567 335.848L593.22 335.437L592.241 334.3L592.083 334.142L591.277 333.226C587.328 328.851 582.937 324.76 578.119 320.921C571.169 315.377 563.366 310.386 554.947 305.963C548.85 302.741 542.453 299.834 535.756 297.197C508.714 286.519 477.392 280.422 446.543 278.779C442.847 278.558 439.198 278.431 435.502 278.353C417.211 277.989 399.299 279.174 382.776 281.906C380.818 282.191 378.875 282.554 376.948 282.933C365.717 285.05 355.245 287.909 345.831 291.463H345.799V291.494Z" fill="#0C4E4B"/>
<path opacity="0.8" fill-rule="evenodd" clip-rule="evenodd" d="M342.608 288.92C340.966 289.267 339.939 287.498 340.571 286.25L340.887 285.808H340.903L341.266 285.492C349.843 280.216 359.62 275.43 370.266 271.197C371.514 270.692 372.794 270.186 374.105 269.728H374.152C393.438 262.431 415.347 257.06 437.966 253.964C441.109 253.538 444.268 253.143 447.475 252.827C494.672 247.788 543.843 252.953 578.23 272.303C582.826 274.878 587.138 277.689 591.135 280.832L591.387 280.99C591.83 281.338 592.256 281.67 592.667 282.001C594.073 283.123 595.479 284.307 596.79 285.508C598.48 287.008 600.107 288.588 601.639 290.199C604.403 293.153 606.899 296.201 609.11 299.345C612.222 303.673 614.749 308.174 616.771 312.755L617.024 313.371C619.219 318.52 620.704 323.701 621.494 328.867L621.604 329.641C622.9 338.723 622.031 347.647 618.887 355.861C618.587 350.964 617.671 345.973 616.139 340.997C615.95 340.366 615.744 339.75 615.539 339.118C612.79 330.999 608.415 322.927 602.429 315.33C600.265 312.629 597.943 310.038 595.447 307.574C595.036 307.179 594.626 306.769 594.199 306.358C593.694 305.853 593.157 305.394 592.604 304.889C588.086 300.766 583.095 296.96 577.677 293.5C549.608 275.541 510.767 266.506 471.089 264.958C461.596 264.579 452.04 264.642 442.578 265.1C418.253 266.285 394.528 270.17 373.71 276.394C370.393 277.373 367.139 278.432 363.98 279.537C356.651 282.096 349.78 284.987 343.446 288.162L342.64 288.936L342.608 288.92ZM435.502 278.368C416.484 278.7 398.556 280.011 383.693 281.812L382.776 281.922C399.298 279.19 417.211 278.005 435.502 278.368Z" fill="#0C4E4B"/>
<path opacity="0.7" fill-rule="evenodd" clip-rule="evenodd" d="M622.394 325.06C622.126 326.323 621.81 327.603 621.462 328.851C620.672 323.701 619.188 318.505 616.992 313.355L616.739 312.739C614.718 308.159 612.19 303.657 609.079 299.329C606.867 296.186 604.372 293.137 601.607 290.183C600.075 288.556 598.448 286.977 596.758 285.492C595.447 284.276 594.041 283.107 592.635 281.985C592.225 281.654 591.798 281.322 591.356 280.975L591.103 280.817C587.107 277.689 582.795 274.862 578.198 272.287C543.812 252.938 494.64 247.772 447.443 252.811C444.237 253.127 441.078 253.522 437.934 253.948C415.299 257.044 393.407 262.415 374.121 269.697H374.073C372.778 270.17 371.499 270.676 370.235 271.181C359.605 275.415 349.811 280.201 341.234 285.476L340.871 285.792H340.855L340.539 286.234H340.46C339.228 286.645 338.265 285.776 338.091 284.781V284.734C337.98 284.134 338.186 283.486 338.802 283.012L340.097 282.049C345.041 278.447 350.443 274.972 356.193 271.703L356.43 271.56C360.078 269.491 363.853 267.485 367.771 265.542L367.976 265.432C391.101 254.012 418.743 245.15 447.206 240.033C498.273 230.871 551.962 233.857 587.075 256.112L587.549 256.428C591.467 258.924 595.131 261.657 598.543 264.658C601.576 267.375 604.34 270.186 606.836 273.14C610.548 277.484 613.628 282.033 616.139 286.724C618.414 291.115 620.199 295.617 621.431 300.135C623.674 308.443 624.053 316.799 622.426 324.807L622.394 325.044V325.06Z" fill="#0C4E4B"/>
<path opacity="0.6" fill-rule="evenodd" clip-rule="evenodd" d="M340.018 282.112L338.944 282.57C338.122 282.917 337.68 283.107 337.68 283.107C336.148 283.739 334.821 282.254 335.153 280.927L335.722 279.995C340.997 275.288 346.889 270.708 353.302 266.332C356.066 264.437 358.925 262.573 361.879 260.756C380.36 249.32 402.268 239.417 425.44 231.945C434.459 229.039 443.652 226.496 452.924 224.379C491.639 215.55 531.491 214.175 563.271 224.206C569.384 226.133 575.197 228.502 580.647 231.314C581.294 231.645 581.926 231.961 582.558 232.309C583.079 232.593 583.584 232.877 584.09 233.146C587.138 234.883 590.061 236.779 592.841 238.801C600.612 244.582 606.93 251.247 611.7 258.371C612.064 258.924 612.427 259.477 612.759 260.03C615.555 264.453 617.719 269.033 619.282 273.693C622.236 282.444 623.01 291.479 621.43 300.166C620.198 295.633 618.414 291.131 616.139 286.74C613.628 282.049 610.547 277.484 606.835 273.156C604.34 270.202 601.576 267.375 598.543 264.674C595.131 261.673 591.466 258.924 587.549 256.444L587.075 256.128C551.978 233.872 498.273 230.887 447.206 240.048C418.743 245.166 391.101 254.027 367.976 265.448L367.771 265.558C363.853 267.501 360.078 269.507 356.429 271.576L356.192 271.718C350.443 275.004 345.041 278.463 340.097 282.064L340.002 282.143L340.018 282.112Z" fill="#0C4E4B"/>
<path opacity="0.5" fill-rule="evenodd" clip-rule="evenodd" d="M335.153 280.911C333.653 281.685 332.199 280.248 332.484 278.874L332.973 277.958C339.86 270.613 348.074 263.457 357.235 256.618C374.673 243.634 395.666 231.835 418.143 222.373C471.2 200.007 532.502 190.672 574.787 209.137C578.546 210.779 582.131 212.643 585.575 214.728C593.804 219.799 600.691 225.896 606.046 232.577C609.679 237.11 612.617 241.928 614.797 246.888C618.635 255.544 620.214 264.674 619.298 273.661C617.735 269.002 615.571 264.421 612.775 259.998C612.443 259.445 612.08 258.892 611.716 258.34C606.946 251.216 600.628 244.55 592.857 238.769C590.077 236.731 587.154 234.852 584.106 233.114C583.6 232.846 583.111 232.561 582.574 232.277C581.942 231.93 581.31 231.614 580.662 231.282C575.213 228.47 569.4 226.101 563.287 224.174C531.523 214.144 491.655 215.518 452.94 224.348C443.668 226.464 434.459 229.007 425.456 231.914C402.3 239.385 380.391 249.305 361.895 260.725C358.941 262.541 356.098 264.405 353.318 266.301C346.905 270.676 341.013 275.257 335.738 279.964L335.169 280.896L335.153 280.911Z" fill="#0C4E4B"/>
<path opacity="0.4" fill-rule="evenodd" clip-rule="evenodd" d="M344.046 332.515L343.999 332.452C342.877 330.699 345.104 328.709 346.715 329.988C408.397 378.496 466.761 505.508 432.011 576.003C419.564 600.849 397.988 615.223 375.985 614.828C380.944 612.633 385.762 609.695 390.295 606.062C396.977 600.707 403.074 593.82 408.144 585.591C410.245 582.163 412.109 578.562 413.736 574.802C432.216 532.518 422.866 471.216 400.499 418.158C391.053 395.681 379.254 374.689 366.254 357.267C359.399 348.09 352.244 339.892 344.915 333.005L344.014 332.515H344.046Z" fill="#0C4E4B"/>
<path fill-rule="evenodd" clip-rule="evenodd" d="M209.737 463.949C219.751 445.674 186.849 548.661 215.881 576.982C220.351 581.31 226.259 583.901 234.046 584.011H234.725H234.946C237.221 584.043 239.48 583.901 241.644 583.585C245.498 583.032 249.194 581.926 252.764 580.347C253.553 579.983 254.359 579.604 255.133 579.209L256.27 578.609L256.918 578.246C261.688 575.513 266.221 571.928 270.455 567.584C271.086 566.952 271.702 566.32 272.287 565.641C272.903 564.993 273.503 564.314 274.103 563.603C278.763 558.201 283.091 551.867 287.071 544.87C294.527 531.791 300.829 516.375 306.089 499.963C306.674 498.163 307.227 496.378 307.779 494.545C318.899 457.947 324.981 417.432 327.018 388.115C328.55 365.259 327.776 346.447 327.745 346.447C327.729 344.33 330.62 343.793 331.362 345.72L331.425 345.894C334.995 355.292 337.854 365.78 339.971 377.011C340.35 378.938 340.697 380.881 340.997 382.855C343.73 399.378 344.915 417.274 344.551 435.581C344.457 439.261 344.33 442.926 344.125 446.622C342.482 477.455 336.385 508.793 325.707 535.819C323.069 542.516 320.163 548.913 316.941 555.011C312.518 563.43 307.527 571.217 301.982 578.183C298.144 583 294.069 587.391 289.678 591.34L288.762 592.146L288.604 592.304L287.466 593.283L287.056 593.631L286.155 594.389L285.839 594.641C283.233 596.758 280.532 598.748 277.736 600.533C274.909 602.302 272.082 603.882 269.207 605.272C268.607 605.572 267.991 605.856 267.39 606.141C262.699 608.273 258.008 609.9 253.364 610.99L252.7 611.148C247.867 612.253 243.081 612.79 238.421 612.806C192.456 612.98 157.848 561.329 209.705 463.981" fill="#0C4E4B"/>
<path opacity="0.9" fill-rule="evenodd" clip-rule="evenodd" d="M331.425 345.831C331.315 344.978 331.236 344.52 331.236 344.52C331.031 342.861 332.8 341.977 334 342.64L334.758 343.446C337.933 349.764 340.824 356.651 343.383 363.98C344.488 367.139 345.547 370.393 346.526 373.71C352.749 394.544 356.635 418.269 357.82 442.594C358.278 452.04 358.325 461.596 357.946 471.089C356.398 510.768 347.363 549.609 329.404 577.677C325.944 583.079 322.138 588.086 318.015 592.604C317.525 593.157 317.052 593.694 316.546 594.199C316.135 594.642 315.725 595.052 315.33 595.463C312.866 597.974 310.275 600.281 307.574 602.445C299.961 608.447 291.905 612.822 283.786 615.555C283.154 615.76 282.538 615.966 281.907 616.155C276.931 617.687 271.924 618.603 267.027 618.903C256.823 619.535 247.014 617.513 238.406 612.806C243.065 612.806 247.851 612.254 252.685 611.148L253.348 610.99C257.992 609.9 262.699 608.273 267.375 606.141C267.975 605.856 268.591 605.588 269.191 605.272C272.05 603.882 274.893 602.302 277.721 600.533C280.517 598.733 283.218 596.758 285.824 594.642L286.14 594.389L287.04 593.631L287.451 593.283L288.588 592.304L288.746 592.146L289.662 591.34C294.038 587.391 298.129 582.985 301.967 578.183C307.511 571.217 312.502 563.43 316.925 555.011C320.147 548.914 323.054 542.516 325.692 535.819C336.369 508.777 342.467 477.455 344.109 446.622C344.33 442.926 344.457 439.261 344.536 435.581C344.899 417.29 343.714 399.378 340.982 382.856C340.697 380.897 340.334 378.954 339.955 377.011C337.854 365.781 334.979 355.308 331.41 345.894V345.847L331.425 345.831Z" fill="#0C4E4B"/>
<path opacity="0.8" fill-rule="evenodd" clip-rule="evenodd" d="M334.016 342.64C333.668 340.982 335.437 339.971 336.685 340.587L337.127 340.903V340.934L337.443 341.298C342.719 349.875 347.489 359.652 351.738 370.282C352.244 371.546 352.749 372.825 353.207 374.121V374.168C360.505 393.454 365.875 415.347 368.971 437.982C369.398 441.125 369.792 444.3 370.108 447.491C375.147 494.688 369.982 543.859 350.648 578.246C348.074 582.842 345.262 587.155 342.119 591.151L341.961 591.388C341.613 591.83 341.282 592.256 340.966 592.667C339.844 594.073 338.66 595.479 337.459 596.79C335.959 598.48 334.379 600.107 332.768 601.639C329.814 604.403 326.766 606.899 323.622 609.126C319.294 612.222 314.793 614.749 310.212 616.771L309.596 617.024C304.447 619.235 299.25 620.704 294.1 621.494L293.326 621.604C284.244 622.9 275.304 622.031 267.106 618.888C272.003 618.588 276.994 617.671 281.97 616.139C282.601 615.95 283.217 615.744 283.849 615.539C291.968 612.806 300.04 608.415 307.637 602.429C310.338 600.265 312.929 597.959 315.393 595.447C315.788 595.036 316.198 594.626 316.609 594.184C317.114 593.678 317.588 593.141 318.078 592.588C322.201 588.071 326.007 583.079 329.467 577.661C347.426 549.593 356.461 510.752 358.009 471.073C358.388 461.58 358.341 452.024 357.883 442.578C356.698 418.253 352.812 394.528 346.589 373.694C345.61 370.377 344.551 367.123 343.446 363.964C340.887 356.635 337.996 349.748 334.821 343.43L334.063 342.624L334.016 342.64ZM344.551 435.549C344.22 416.532 342.909 398.588 341.108 383.724L340.997 382.824C343.73 399.346 344.915 417.242 344.551 435.549Z" fill="#0C4E4B"/>
<path opacity="0.7" fill-rule="evenodd" clip-rule="evenodd" d="M297.86 622.426C296.596 622.157 295.317 621.841 294.069 621.494C299.218 620.704 304.415 619.235 309.564 617.024L310.18 616.771C314.761 614.749 319.263 612.222 323.591 609.126C326.734 606.899 329.782 604.403 332.736 601.639C334.363 600.107 335.943 598.48 337.427 596.79C338.644 595.479 339.813 594.073 340.934 592.667C341.266 592.256 341.598 591.83 341.929 591.388L342.087 591.151C345.215 587.154 348.042 582.842 350.617 578.246C369.966 543.859 375.131 494.688 370.077 447.491C369.761 444.3 369.366 441.125 368.94 437.982C365.844 415.347 360.473 393.454 353.191 374.168V374.121C352.718 372.825 352.212 371.546 351.707 370.282C347.473 359.652 342.687 349.874 337.412 341.297L337.096 340.934V340.903L336.654 340.587V340.508C336.243 339.276 337.112 338.312 338.107 338.138H338.154C338.754 338.028 339.402 338.233 339.876 338.849L340.839 340.144C344.441 345.088 347.916 350.49 351.201 356.24L351.343 356.477C353.413 360.142 355.419 363.917 357.377 367.818L357.472 368.024C368.892 391.148 377.753 418.79 382.871 447.254C392.033 498.321 389.047 552.025 366.791 587.123L366.475 587.597C363.98 591.514 361.247 595.179 358.246 598.59C355.529 601.623 352.718 604.387 349.764 606.883C345.42 610.595 340.871 613.675 336.18 616.171C331.788 618.461 327.287 620.246 322.769 621.462C314.461 623.705 306.105 624.084 298.097 622.457L297.86 622.426Z" fill="#0C4E4B"/>
<path opacity="0.6" fill-rule="evenodd" clip-rule="evenodd" d="M340.808 340.05L340.35 338.976C340.002 338.154 339.813 337.712 339.813 337.712C339.181 336.18 340.666 334.853 342.008 335.185L342.94 335.753C347.647 341.029 352.228 346.936 356.604 353.334C358.499 356.114 360.363 358.957 362.179 361.911C373.615 380.391 383.519 402.3 390.99 425.472C393.897 434.491 396.44 443.684 398.556 452.956C407.386 491.671 408.776 531.538 398.73 563.303C396.803 569.432 394.434 575.229 391.622 580.678C391.29 581.326 390.974 581.958 390.627 582.59C390.343 583.127 390.058 583.616 389.79 584.122C388.068 587.17 386.157 590.092 384.135 592.872C378.354 600.644 371.688 606.978 364.564 611.732C364.012 612.095 363.459 612.459 362.906 612.79C358.483 615.586 353.902 617.75 349.243 619.314C340.492 622.268 331.457 623.042 322.77 621.462C327.303 620.23 331.789 618.461 336.18 616.171C340.871 613.659 345.436 610.579 349.764 606.883C352.718 604.387 355.545 601.623 358.246 598.59C361.247 595.178 363.996 591.514 366.476 587.597L366.792 587.123C389.047 552.025 392.033 498.336 382.871 447.254C377.754 418.806 368.892 391.148 357.472 368.023L357.377 367.818C355.419 363.901 353.413 360.126 351.344 356.477L351.201 356.24C347.916 350.506 344.457 345.088 340.84 340.144L340.761 340.05H340.808Z" fill="#0C4E4B"/>
<path opacity="0.5" fill-rule="evenodd" clip-rule="evenodd" d="M342.008 335.185C341.234 333.684 342.672 332.231 344.046 332.515L344.946 333.005C352.291 339.892 359.447 348.09 366.286 357.267C379.27 374.705 391.069 395.682 400.531 418.159C422.897 471.216 432.232 532.518 413.767 574.802C412.14 578.562 410.261 582.147 408.176 585.591C403.105 593.82 397.008 600.707 390.327 606.062C385.794 609.695 380.976 612.633 376.016 614.828C367.376 618.651 358.215 620.23 349.243 619.33C353.902 617.766 358.483 615.602 362.906 612.806C363.459 612.475 364.012 612.111 364.564 611.748C371.688 606.978 378.354 600.66 384.135 592.888C386.173 590.108 388.068 587.186 389.79 584.138C390.058 583.632 390.343 583.143 390.627 582.605C390.974 581.974 391.29 581.342 391.622 580.694C394.434 575.245 396.803 569.448 398.73 563.319C408.776 531.554 407.386 491.687 398.556 452.972C396.44 443.7 393.897 434.507 390.99 425.488C383.519 402.316 373.615 380.423 362.179 361.927C360.363 358.973 358.499 356.114 356.603 353.35C352.228 346.937 347.647 341.045 342.94 335.769L342.008 335.201V335.185Z" fill="#0C4E4B"/>
<path opacity="0.4" fill-rule="evenodd" clip-rule="evenodd" d="M290.942 344.583L291.005 344.536C292.774 343.414 294.748 345.641 293.469 347.268C244.961 408.95 117.949 467.314 47.4382 432.564C22.5919 420.117 8.218 398.525 8.62868 376.537C10.8243 381.513 13.7622 386.315 17.3952 390.848C22.7499 397.529 29.6367 403.642 37.882 408.713C41.3096 410.798 44.911 412.662 48.6545 414.304C90.939 432.785 152.241 423.434 205.298 401.068C227.775 391.622 248.768 379.823 266.206 366.823C275.383 359.968 283.581 352.812 290.468 345.483L290.957 344.567L290.942 344.583Z" fill="#0C4E4B"/>
<path fill-rule="evenodd" clip-rule="evenodd" d="M159.507 210.274C177.783 220.288 74.7959 187.386 46.4746 216.418C42.1466 220.888 39.5404 226.796 39.4456 234.583V235.262V235.483C39.414 237.758 39.5562 240.017 39.8721 242.197C40.4249 246.051 41.5306 249.747 43.1102 253.317C43.4735 254.106 43.8368 254.896 44.2474 255.686L44.8477 256.839L45.211 257.487C47.9436 262.257 51.545 266.806 55.8729 271.023C56.5048 271.655 57.1524 272.255 57.8158 272.856C58.4634 273.472 59.1426 274.072 59.8534 274.656C65.2713 279.316 71.5894 283.644 78.5869 287.624C91.6655 295.08 107.098 301.382 123.493 306.642C125.294 307.227 127.079 307.795 128.911 308.348C165.509 319.452 206.041 325.549 235.341 327.587C258.197 329.135 277.01 328.345 277.01 328.314C279.126 328.282 279.679 331.188 277.737 331.931L277.563 331.994C268.149 335.548 257.66 338.423 246.446 340.524C244.519 340.903 242.576 341.25 240.617 341.55C224.095 344.283 206.183 345.468 187.892 345.104C184.211 345.009 180.547 344.883 176.851 344.678C146.018 343.035 114.68 336.954 87.6377 326.26C80.9562 323.622 74.5432 320.716 68.4461 317.494C60.0271 313.071 52.24 308.095 45.2742 302.535C40.4565 298.713 36.0654 294.622 32.1165 290.246L31.3109 289.315L31.153 289.157L30.1737 288.019L29.8261 287.609L29.068 286.708L28.8152 286.392C26.6986 283.786 24.7242 281.085 22.9235 278.289C21.1544 275.462 19.5749 272.634 18.1849 269.775C17.8848 269.175 17.6162 268.543 17.3319 267.959C15.1837 263.284 13.5726 258.576 12.4669 253.933L12.2931 253.269C11.2033 248.436 10.6504 243.65 10.6504 239.006C10.4609 193.041 62.1122 158.417 159.476 210.29" fill="#0C4E4B"/>
<path opacity="0.9" fill-rule="evenodd" clip-rule="evenodd" d="M277.626 331.962C278.495 331.852 278.953 331.773 278.953 331.773C280.611 331.568 281.48 333.337 280.817 334.537L280.011 335.295C273.693 338.47 266.806 341.361 259.477 343.92C256.302 345.025 253.064 346.084 249.747 347.063C228.913 353.286 205.188 357.172 180.878 358.357C171.417 358.815 161.876 358.862 152.383 358.499C112.705 356.951 73.864 347.916 45.7954 329.956C40.3933 326.497 35.4019 322.69 30.8686 318.568C30.3158 318.078 29.7945 317.604 29.2733 317.099C28.8468 316.688 28.4203 316.278 28.0254 315.883C25.5297 313.419 23.2078 310.828 21.0438 308.143C15.0415 300.529 10.6662 292.458 7.93356 284.355C7.72822 283.723 7.52287 283.107 7.33333 282.475C5.80116 277.484 4.88503 272.492 4.58491 267.596C3.95309 257.392 5.97492 247.583 10.6978 238.974C10.6978 243.65 11.2506 248.42 12.3405 253.253L12.5142 253.917C13.6041 258.561 15.2311 263.268 17.3793 267.943C17.6636 268.528 17.9321 269.16 18.2322 269.76C19.6222 272.619 21.2018 275.446 22.9709 278.274C24.7716 281.069 26.746 283.77 28.8626 286.377L29.1153 286.693L29.8735 287.593L30.221 288.004L31.2003 289.141L31.3583 289.299L32.1638 290.231C36.1127 294.606 40.5039 298.697 45.3215 302.52C52.2715 308.064 60.0745 313.055 68.4935 317.478C74.5906 320.7 80.9877 323.607 87.685 326.244C114.727 336.938 146.065 343.019 176.898 344.662C180.594 344.883 184.243 345.01 187.939 345.089C206.23 345.452 224.142 344.267 240.664 341.535C242.623 341.25 244.566 340.903 246.493 340.508C257.708 338.407 268.196 335.532 277.61 331.978H277.642L277.626 331.962Z" fill="#0C4E4B"/>
<path opacity="0.8" fill-rule="evenodd" clip-rule="evenodd" d="M280.816 334.537C282.459 334.19 283.486 335.943 282.854 337.206L282.538 337.649H282.506L282.143 337.965C273.566 343.24 263.789 348.026 253.158 352.26C251.895 352.749 250.615 353.271 249.32 353.729H249.273C229.986 361.01 208.078 366.397 185.459 369.477C182.316 369.903 179.157 370.298 175.95 370.614C128.753 375.653 79.5817 370.488 45.2107 351.154C40.6142 348.579 36.302 345.752 32.3057 342.624L32.053 342.466C31.6107 342.135 31.2001 341.787 30.7894 341.471C29.3678 340.35 27.9778 339.165 26.6668 337.965C24.9766 336.48 23.3497 334.885 21.8175 333.273C19.0533 330.335 16.5576 327.271 14.3463 324.128C11.2346 319.8 8.70727 315.298 6.68545 310.733L6.43272 310.101C4.23715 304.952 2.75237 299.755 1.9626 294.606L1.85202 293.832C0.556791 284.75 1.44134 275.825 4.58465 267.627C4.88476 272.524 5.78511 277.515 7.31727 282.491C7.50682 283.123 7.71215 283.739 7.91749 284.371C10.6659 292.489 15.0413 300.561 21.0278 308.159C23.1917 310.844 25.5137 313.434 28.0094 315.898C28.4201 316.293 28.8307 316.704 29.2572 317.115C29.7627 317.62 30.2997 318.094 30.8526 318.584C35.3701 322.706 40.3773 326.513 45.7793 329.972C73.8479 347.932 112.689 356.967 152.367 358.515C161.86 358.894 171.417 358.846 180.862 358.372C205.187 357.188 228.912 353.302 249.731 347.079C253.064 346.099 256.302 345.041 259.461 343.935C266.79 341.361 273.661 338.486 279.995 335.311L280.801 334.553L280.816 334.537ZM187.907 345.073C206.925 344.741 224.853 343.43 239.716 341.629L240.617 341.519C224.095 344.251 206.183 345.436 187.891 345.073H187.907Z" fill="#0C4E4B"/>
<path opacity="0.7" fill-rule="evenodd" clip-rule="evenodd" d="M1.0309 298.397C1.29942 297.133 1.61533 295.854 1.96283 294.606C2.75261 299.755 4.23738 304.952 6.43295 310.101L6.68568 310.733C8.7075 315.298 11.2348 319.816 14.3465 324.128C16.5579 327.271 19.0536 330.32 21.8178 333.273C23.3499 334.9 24.9769 336.48 26.667 337.965C27.978 339.181 29.3838 340.365 30.7896 341.471C31.2003 341.803 31.6268 342.135 32.0533 342.466L32.306 342.624C36.3022 345.752 40.6144 348.579 45.2109 351.154C79.5977 370.488 128.753 375.653 175.95 370.614C179.157 370.298 182.316 369.903 185.459 369.477C208.094 366.381 229.987 361.01 249.273 353.728H249.32C250.616 353.27 251.911 352.749 253.159 352.26C263.789 348.026 273.566 343.24 282.143 337.965L282.507 337.649H282.538L282.854 337.206H282.933C284.165 336.796 285.129 337.664 285.302 338.66V338.707C285.413 339.291 285.208 339.955 284.592 340.444L283.296 341.408C278.352 345.009 272.95 348.484 267.217 351.77L266.98 351.912C263.331 353.981 259.556 355.987 255.639 357.946L255.433 358.056C232.309 369.461 204.666 378.338 176.203 383.44C125.136 392.601 71.4472 389.616 36.3338 367.36L35.86 367.044C31.9585 364.564 28.2781 361.816 24.8663 358.815C21.8336 356.098 19.0694 353.286 16.5737 350.317C12.8617 345.973 9.7974 341.44 7.28591 336.733C5.01136 332.326 3.22646 327.855 1.99442 323.322C-0.248544 315.014 -0.627632 306.658 0.999304 298.65L1.0309 298.413V298.397Z" fill="#0C4E4B"/>
<path opacity="0.6" fill-rule="evenodd" clip-rule="evenodd" d="M283.407 341.345L284.481 340.887C285.302 340.555 285.744 340.35 285.744 340.35C287.292 339.718 288.603 341.203 288.272 342.53L287.703 343.462C282.427 348.169 276.52 352.749 270.123 357.14C267.343 359.02 264.5 360.884 261.546 362.716C243.065 374.136 221.157 384.056 197.985 391.527C188.965 394.434 179.772 396.977 170.501 399.077C131.786 407.907 91.9337 409.297 60.1532 399.251C54.0403 397.324 48.2118 394.955 42.7781 392.143C42.1305 391.812 41.4987 391.496 40.8669 391.132C40.3456 390.848 39.8402 390.564 39.3347 390.295C36.2862 388.558 33.364 386.662 30.584 384.64C22.8126 378.859 16.4944 372.209 11.7242 365.07C11.3609 364.517 10.9976 363.964 10.6659 363.411C7.88587 359.004 5.70609 354.408 4.14234 349.748C1.18858 340.997 0.414599 331.978 1.99415 323.275C3.2104 327.824 4.9953 332.31 7.28564 336.701C9.79713 341.392 12.8615 345.941 16.5734 350.285C19.0691 353.255 21.8333 356.066 24.866 358.783C28.2779 361.784 31.9424 364.533 35.8597 367.013L36.3336 367.329C71.4312 389.584 125.136 392.57 176.203 383.408C204.666 378.291 232.308 369.429 255.433 358.025L255.638 357.914C259.556 355.972 263.331 353.966 266.979 351.881L267.216 351.738C272.95 348.453 278.368 344.978 283.296 341.377L283.391 341.298L283.407 341.345Z" fill="#0C4E4B"/>
<path opacity="0.5" fill-rule="evenodd" clip-rule="evenodd" d="M288.272 342.545C289.773 341.771 291.226 343.209 290.942 344.583L290.452 345.499C283.565 352.844 275.351 359.999 266.19 366.839C248.768 379.823 227.76 391.622 205.283 401.083C152.226 423.45 90.9232 432.785 48.6386 414.32C44.8793 412.693 41.2779 410.829 37.8661 408.728C29.6209 403.658 22.734 397.545 17.3794 390.864C13.7464 386.33 10.8084 381.513 8.61285 376.553C4.77455 367.913 3.195 358.767 4.11113 349.78C5.67489 354.439 7.85467 359.036 10.6347 363.443C10.9664 363.996 11.3297 364.548 11.693 365.101C16.4632 372.225 22.7814 378.891 30.5528 384.672C33.3328 386.709 36.255 388.605 39.3035 390.327C39.7932 390.595 40.2986 390.879 40.8357 391.164C41.4675 391.527 42.0993 391.843 42.7469 392.175C48.1964 394.986 54.0091 397.356 60.122 399.283C91.8867 409.329 131.755 407.939 170.469 399.109C179.741 397.008 188.95 394.465 197.953 391.559C221.11 384.087 243.018 374.168 261.515 362.748C264.468 360.931 267.327 359.067 270.092 357.172C276.489 352.781 282.396 348.2 287.672 343.493L288.241 342.561L288.272 342.545Z" fill="#0C4E4B"/>
<path opacity="0.4" fill-rule="evenodd" clip-rule="evenodd" d="M279.379 290.941L279.427 291.005C280.548 292.774 278.337 294.748 276.71 293.469C215.028 244.961 156.664 117.949 191.414 47.4381C203.861 22.5918 225.438 8.21788 247.441 8.62856C242.481 10.8083 237.663 13.7621 233.13 17.3951C226.433 22.7497 220.351 29.6366 215.265 37.8818C213.18 41.3094 211.316 44.9108 209.674 48.6543C191.209 90.9547 200.544 152.241 222.91 205.298C232.356 227.775 244.155 248.767 257.155 266.206C264.01 275.367 271.166 283.581 278.495 290.468L279.411 290.957L279.379 290.941Z" fill="#0C4E4B"/>
<path fill-rule="evenodd" clip-rule="evenodd" d="M413.688 159.507C403.674 177.783 436.56 74.7959 407.544 46.4746C403.074 42.1466 397.166 39.5403 389.379 39.4456H388.7H388.479C386.204 39.414 383.945 39.5561 381.781 39.872C377.927 40.4249 374.231 41.5306 370.661 43.1101C369.872 43.4734 369.066 43.8367 368.292 44.2474L367.155 44.8476L366.507 45.2109C361.737 47.9435 357.188 51.5449 352.97 55.8729C352.339 56.5047 351.722 57.1523 351.138 57.8157C350.522 58.4633 349.938 59.1425 349.337 59.8533C344.678 65.2554 340.35 71.5894 336.369 78.5868C328.914 91.6655 322.611 107.082 317.351 123.493C316.767 125.294 316.214 127.079 315.661 128.911C304.541 165.509 298.46 206.041 296.422 235.341C294.874 258.197 295.664 277.01 295.696 277.01C295.712 279.142 292.821 279.679 292.079 277.736L292.015 277.563C288.446 268.149 285.587 257.66 283.486 246.446C283.107 244.518 282.759 242.576 282.459 240.617C279.727 224.095 278.542 206.183 278.905 187.892C278.984 184.211 279.126 180.547 279.332 176.851C280.974 146.018 287.072 114.68 297.749 87.6376C300.387 80.9561 303.293 74.5432 306.516 68.4461C310.939 60.0271 315.93 52.2399 321.474 45.2741C325.312 40.4565 329.388 36.0653 333.779 32.1165L334.695 31.3109L334.853 31.1529L335.974 30.1736L336.385 29.8261L337.285 29.0679L337.601 28.8152C340.223 26.6986 342.909 24.7242 345.704 22.9235C348.532 21.1544 351.359 19.5748 354.234 18.1848C354.834 17.8847 355.45 17.6162 356.05 17.3319C360.742 15.1995 365.433 13.5725 370.077 12.4826L370.74 12.3089C375.574 11.219 380.36 10.6662 385.019 10.6662C430.984 10.4766 465.592 62.1279 413.736 159.491" fill="#0C4E4B"/>
<path opacity="0.9" fill-rule="evenodd" clip-rule="evenodd" d="M291.999 277.626C292.11 278.495 292.173 278.953 292.173 278.953C292.379 280.611 290.609 281.496 289.409 280.817L288.635 280.011C285.46 273.693 282.57 266.806 280.011 259.477C278.905 256.302 277.847 253.064 276.867 249.747C270.644 228.913 266.758 205.188 265.574 180.879C265.116 171.417 265.068 161.877 265.431 152.368C266.979 112.689 276.014 73.8483 293.974 45.7797C297.433 40.3776 301.224 35.3704 305.362 30.8529C305.868 30.3159 306.326 29.7788 306.831 29.2576C307.242 28.8311 307.653 28.4046 308.048 28.0097C310.512 25.514 313.102 23.1921 315.803 21.0281C323.417 15.0258 331.472 10.6505 339.591 7.90207C340.223 7.69673 340.839 7.49138 341.471 7.30184C346.462 5.76967 351.454 4.85353 356.35 4.55342C366.554 3.9216 376.363 5.94343 384.972 10.6663C380.312 10.6663 375.526 11.2191 370.693 12.309L370.029 12.4828C365.385 13.5726 360.678 15.1996 356.003 17.332C355.403 17.6163 354.787 17.8848 354.186 18.1849C351.327 19.5749 348.484 21.1545 345.657 22.9236C342.861 24.7243 340.176 26.6987 337.554 28.8153L337.238 29.068L336.337 29.8262L335.927 30.1737L334.805 31.153L334.647 31.311L333.731 32.1166C329.356 36.0654 325.265 40.4566 321.427 45.2742C315.882 52.2242 310.891 60.0272 306.468 68.4462C303.246 74.5433 300.34 80.9404 297.702 87.6377C287.024 114.68 280.927 146.002 279.284 176.851C279.063 180.547 278.937 184.211 278.858 187.892C278.494 206.183 279.679 224.095 282.412 240.617C282.696 242.576 283.059 244.519 283.438 246.446C285.555 257.66 288.414 268.149 291.968 277.563V277.594L291.999 277.626Z" fill="#0C4E4B"/>
<path opacity="0.8" fill-rule="evenodd" clip-rule="evenodd" d="M289.425 280.817C289.773 282.475 288.02 283.502 286.756 282.87L286.314 282.554V282.522L285.998 282.159C280.722 273.582 275.936 263.805 271.703 253.174C271.197 251.911 270.692 250.631 270.234 249.336V249.289C262.936 230.002 257.566 208.094 254.47 185.475C254.043 182.332 253.649 179.173 253.333 175.966C248.294 128.769 253.459 79.5977 272.808 45.2267C275.383 40.6302 278.195 36.318 281.338 32.3218L281.496 32.0691C281.844 31.6268 282.175 31.2003 282.507 30.7896C283.628 29.3838 284.813 27.978 286.014 26.667C287.514 24.9769 289.094 23.3499 290.705 21.8178C293.659 19.0536 296.707 16.5579 299.85 14.3465C304.178 11.2348 308.68 8.70752 313.261 6.68569L313.877 6.43296C319.026 4.23739 324.207 2.75261 329.372 1.96284L330.146 1.85227C339.229 0.557037 348.153 1.44158 356.367 4.58489C351.47 4.885 346.479 5.78534 341.503 7.31751C340.871 7.50705 340.255 7.7124 339.623 7.91774C331.505 10.6662 323.433 15.0415 315.835 21.0438C313.134 23.2078 310.544 25.5297 308.08 28.0254C307.685 28.4361 307.274 28.8468 306.864 29.2733C306.358 29.7787 305.9 30.3158 305.395 30.8686C301.272 35.3861 297.465 40.3933 294.006 45.7953C276.047 73.8639 267.012 112.705 265.464 152.383C265.084 161.876 265.148 171.433 265.606 180.894C266.79 205.219 270.676 228.944 276.9 249.763C277.879 253.08 278.937 256.334 280.043 259.493C282.602 266.822 285.492 273.693 288.667 280.027L289.441 280.832L289.425 280.817ZM278.874 187.923C279.206 206.941 280.517 224.869 282.317 239.732L282.412 240.649C279.68 224.127 278.495 206.214 278.858 187.923H278.874Z" fill="#0C4E4B"/>
<path opacity="0.7" fill-rule="evenodd" clip-rule="evenodd" d="M325.565 1.03089C326.829 1.29942 328.108 1.61533 329.356 1.96283C324.207 2.7526 319.01 4.23738 313.861 6.43296L313.245 6.68568C308.664 8.70751 304.162 11.2348 299.834 14.3465C296.691 16.5579 293.642 19.0536 290.689 21.8178C289.062 23.3499 287.482 24.9769 285.997 26.667C284.781 27.978 283.612 29.3838 282.491 30.7896C282.175 31.2003 281.827 31.6268 281.48 32.069L281.322 32.3218C278.194 36.318 275.367 40.6302 272.792 45.2267C253.443 79.6135 248.278 128.769 253.317 175.966C253.632 179.173 254.027 182.332 254.454 185.475C257.55 208.11 262.92 230.002 270.202 249.289V249.336C270.676 250.631 271.181 251.927 271.687 253.174C275.92 263.805 280.706 273.582 285.982 282.159L286.298 282.522V282.554L286.74 282.87V282.949C287.151 284.181 286.282 285.145 285.287 285.318H285.239C284.639 285.429 283.991 285.223 283.518 284.607L282.554 283.312C278.953 278.368 275.478 272.966 272.208 267.232L272.066 266.995C269.997 263.347 267.991 259.572 266.048 255.654L265.937 255.449C254.517 232.324 245.656 204.682 240.538 176.219C231.377 125.152 234.362 71.463 256.618 36.3496L256.934 35.8758C259.429 31.9743 262.162 28.2939 265.163 24.8821C267.88 21.8494 270.692 19.0852 273.645 16.5895C277.989 12.8775 282.538 9.81319 287.229 7.28591C291.621 5.01136 296.122 3.22647 300.64 1.99442C308.948 -0.248541 317.304 -0.627634 325.312 0.999302L325.549 1.03089H325.565Z" fill="#0C4E4B"/>
<path opacity="0.6" fill-rule="evenodd" clip-rule="evenodd" d="M282.617 283.407L283.075 284.481C283.423 285.303 283.612 285.745 283.612 285.745C284.244 287.293 282.759 288.604 281.433 288.272L280.501 287.703C275.794 282.444 271.213 276.536 266.838 270.123C264.942 267.343 263.078 264.5 261.262 261.546C249.826 243.065 239.922 221.157 232.451 197.985C229.544 188.966 227.001 179.773 224.885 170.501C216.071 131.786 214.681 91.934 224.711 60.1535C226.638 54.0248 229.007 48.2121 231.819 42.7785C232.151 42.1308 232.467 41.499 232.814 40.8672C233.098 40.3459 233.383 39.8405 233.651 39.335C235.389 36.2865 237.284 33.3643 239.306 30.5843C245.087 22.8129 251.753 16.4947 258.877 11.7245C259.43 11.3612 259.982 10.9979 260.535 10.6662C264.958 7.8862 269.539 5.70642 274.198 4.14266C282.949 1.17311 291.968 0.414925 300.656 1.99447C296.122 3.22652 291.637 5.01141 287.245 7.28596C282.554 9.79745 277.989 12.8776 273.661 16.5895C270.708 19.0694 267.88 21.8494 265.179 24.8822C262.178 28.294 259.43 31.9585 256.95 35.8758L256.634 36.3497C234.378 71.4473 231.392 125.152 240.554 176.219C245.672 204.682 254.533 232.324 265.953 255.449L266.064 255.654C268.006 259.572 270.013 263.347 272.082 266.996L272.224 267.232C275.509 272.966 278.969 278.384 282.57 283.312L282.649 283.407H282.617Z" fill="#0C4E4B"/>
<path opacity="0.5" fill-rule="evenodd" clip-rule="evenodd" d="M281.417 288.272C282.191 289.773 280.754 291.226 279.379 290.957L278.463 290.468C271.118 283.581 263.963 275.367 257.124 266.206C244.14 248.768 232.34 227.775 222.879 205.298C200.513 152.241 191.177 90.9389 209.642 48.6544C211.285 44.8951 213.149 41.3095 215.234 37.8819C220.304 29.6366 226.401 22.7498 233.099 17.3951C237.632 13.7621 242.45 10.8242 247.409 8.6286C256.065 4.7903 265.195 3.21074 274.183 4.12688C269.523 5.69064 264.927 7.87042 260.52 10.6504C259.967 10.9821 259.414 11.3454 258.861 11.7087C251.737 16.479 245.072 22.7972 239.29 30.5685C237.253 33.3486 235.373 36.2707 233.636 39.3193C233.367 39.8247 233.083 40.3302 232.799 40.8514C232.451 41.4674 232.135 42.1151 231.803 42.7627C228.992 48.2121 226.623 54.0091 224.695 60.1377C214.665 91.9025 216.055 131.77 224.869 170.485C226.986 179.757 229.529 188.966 232.435 197.969C239.907 221.125 249.826 243.034 261.246 261.53C263.063 264.5 264.927 267.343 266.822 270.107C271.197 276.52 275.778 282.412 280.485 287.688L281.417 288.256V288.272Z" fill="#0C4E4B"/>
</g>
</svg>
