<svg width="30" height="30" viewBox="0 0 30 30" fill="none" xmlns="http://www.w3.org/2000/svg">
<g clip-path="url(#clip0_1_631)">
<path d="M12.0459 0C12.4223 0.0868726 12.8084 0.144788 13.1752 0.27027C15.5594 1.03282 17.0845 3.14672 17.1135 5.70463C17.1135 5.94595 17.1135 6.18726 17.1135 6.47683C17.4996 6.47683 17.8471 6.45753 18.1945 6.47683C19.5749 6.57336 20.6366 7.74131 20.627 9.10232C20.6077 10.4923 19.5459 11.6216 18.1656 11.6988C17.8181 11.7181 17.4706 11.6988 17.1328 11.6988C17.0169 12.1622 16.9301 12.5869 16.7853 13.0019C16.4571 13.9768 15.8779 14.7876 15.0864 15.4344C14.9127 15.5792 14.8355 15.7239 14.8451 15.9459C14.8548 16.6023 14.8451 16.6023 15.4822 16.7278C16.322 16.8919 17.1135 17.1815 17.8471 17.6158C18.0111 17.7124 18.127 17.7027 18.3007 17.6351C18.6965 17.4807 19.1115 17.3745 19.5169 17.2394C19.6231 17.2008 19.7389 17.1718 19.8258 17.1042C21.2447 16.0811 23.0305 16.0714 24.4301 17.1042C24.5266 17.1718 24.6521 17.2297 24.7679 17.249C26.4378 17.4903 27.7698 18.8224 28.0208 20.5116C28.0401 20.6274 28.098 20.7529 28.1656 20.8494C29.1888 22.2683 29.1791 24.0251 28.1559 25.4537C28.0884 25.5502 28.0401 25.6757 28.0208 25.8012C27.7891 27.4228 26.4764 28.7645 24.8644 29.0251C24.6907 29.0541 24.5169 29.1313 24.3625 29.2375C23.6965 29.6911 22.9725 29.9421 22.1714 29.9421C20.8876 29.9421 19.5942 29.9421 18.3104 29.9421C12.7023 29.9421 7.10381 29.9421 1.4957 29.9421C1.37987 29.9421 1.26404 29.9421 1.13856 29.9421C1.13856 29.8166 1.12891 29.7201 1.12891 29.6236C1.12891 27.9247 1.12891 26.2355 1.12891 24.5367C1.14821 20.7046 3.68682 17.5579 7.41269 16.7471C7.6347 16.6988 7.86636 16.6699 8.12698 16.6216C8.12698 16.3127 8.12698 16.0135 8.12698 15.7143C8.12698 15.6564 8.07871 15.5888 8.03045 15.5502C6.81423 14.5656 6.1096 13.3012 5.88759 11.7085C5.58837 11.7085 5.28914 11.7085 4.98991 11.7085C3.59995 11.6699 2.57678 10.7625 2.36443 9.39189C2.16172 8.01158 3.25246 6.60232 4.65207 6.47683C5.03817 6.43822 5.42427 6.47683 5.88759 6.47683C5.88759 5.96525 5.84898 5.51158 5.88759 5.05791C6.17717 2.42278 8.11732 0.434363 10.7525 0.0482625C10.8007 0.0482625 10.8393 0.019305 10.8779 0C11.264 0 11.6598 0 12.0459 0ZM5.22157 24.7973H6.97833V28.166H17.5382C17.4899 28.1081 17.4706 28.0792 17.4416 28.0598C16.7756 27.4324 16.3702 26.6602 16.2351 25.7529C16.2158 25.6274 16.1386 25.5019 16.0613 25.3958C15.0961 24.0637 15.0961 22.2394 16.0613 20.9073C16.1193 20.8205 16.1965 20.7336 16.2254 20.6371C16.3895 20.1062 16.5343 19.5656 16.6984 19.0058C15.6173 18.3977 14.3818 18.3108 13.0884 18.3591V16.5347C12.0073 16.834 10.9648 16.8243 9.88373 16.5347V18.3301C9.25632 18.3687 8.65786 18.3591 8.07871 18.4363C5.39532 18.7838 3.09802 21.2066 2.94358 23.8996C2.86636 25.2896 2.90497 26.6892 2.89532 28.0792C2.89532 28.1178 2.91462 28.1467 2.92427 28.1853H5.23122V24.8166L5.22157 24.7973ZM22.1231 28.1853C22.7312 28.1853 23.2428 27.9633 23.6579 27.5193C23.8027 27.3649 23.9571 27.307 24.1694 27.307C25.4339 27.307 26.3027 26.4093 26.3123 25.1448C26.3123 24.9614 26.3606 24.8166 26.4957 24.6815C27.4127 23.7452 27.403 22.529 26.4957 21.583C26.3992 21.4768 26.322 21.3031 26.322 21.1583C26.293 19.8359 25.4339 18.9768 24.1019 18.9479C23.9571 18.9479 23.7833 18.8707 23.6772 18.7645C22.7312 17.8571 21.5247 17.8571 20.5787 18.7645C20.4725 18.861 20.2988 18.9382 20.154 18.9382C18.8316 18.9672 17.9725 19.8359 17.9532 21.1583C17.9532 21.2934 17.8857 21.4575 17.7891 21.5637C16.8528 22.5386 16.8528 23.7259 17.7891 24.7104C17.8857 24.8069 17.9436 24.9807 17.9532 25.1158C17.9725 26.4286 18.8316 27.2876 20.1347 27.3166C20.2891 27.3166 20.4725 27.3938 20.5884 27.5C21.0227 27.9151 21.5247 28.166 22.1231 28.1757V28.1853ZM7.60574 5.86873V6.20656C7.60574 7.77992 7.60574 9.34363 7.60574 10.917C7.60574 11.1776 7.62504 11.4479 7.654 11.6988C7.93393 13.832 10.0768 15.3668 12.1907 14.9421C14.0729 14.5656 15.3374 13.0309 15.3471 11.0714C15.3567 9.4305 15.3471 7.79923 15.3471 6.1583C15.3471 6.07143 15.3374 5.99421 15.3277 5.88803C12.7505 6.99807 10.1926 6.99807 7.59609 5.87838L7.60574 5.86873ZM7.96288 4.05405C10.2216 5.34749 13.2235 5.15444 14.9899 4.03475C14.5169 2.77027 13.0498 1.78571 11.6019 1.75676C10.0189 1.7278 8.55169 2.64479 7.96288 4.05405ZM5.84898 8.24324C5.48219 8.24324 5.14435 8.21429 4.80651 8.24324C4.41076 8.29151 4.12118 8.6583 4.10188 9.05405C4.08257 9.4305 4.34319 9.84556 4.71964 9.91313C5.08644 9.9807 5.46288 9.96139 5.84898 9.98069V8.24324ZM17.1424 8.24324V9.97104C17.4706 9.97104 17.7698 9.99035 18.0691 9.97104C18.5227 9.94209 18.8606 9.56564 18.8606 9.12162C18.8606 8.68726 18.5517 8.30116 18.1173 8.2529C17.7988 8.22394 17.4803 8.2529 17.1424 8.2529V8.24324Z" fill="white"/>
<path d="M14.141 19.8938V21.6119H12.4229V19.8938H14.141Z" fill="white"/>
<path d="M11.998 23.3398H13.7162V25.058H11.998V23.3398Z" fill="white"/>
<path d="M10.3958 24.7104V26.4189H8.66797V24.7104H10.3958Z" fill="white"/>
<path d="M8.64881 22.1622H6.93066V20.4441H8.64881V22.1622Z" fill="white"/>
<path d="M21.2357 22.8475H19.5176V21.1294H21.2357V22.8475Z" fill="white"/>
<path d="M24.7397 23.4653V25.1738H23.0312V23.4653H24.7397Z" fill="white"/>
<path d="M14.1505 12.3648C13.5616 12.3648 13.0018 12.3648 12.442 12.3648C12.191 11.6891 11.9111 11.4382 11.4284 11.4671C10.9844 11.4961 10.6755 11.7953 10.5501 12.3648H8.82227C8.85122 11.4092 9.24698 10.6563 10.0385 10.1544C10.9555 9.57523 11.9207 9.54627 12.857 10.1061C13.6968 10.608 14.1022 11.3803 14.1505 12.3745V12.3648Z" fill="white"/>
</g>
<defs>
<clipPath id="clip0_1_631">
<rect width="30" height="30" fill="white"/>
</clipPath>
</defs>
</svg>
