<svg width="30" height="30" viewBox="0 0 30 30" fill="none" xmlns="http://www.w3.org/2000/svg">
<g clip-path="url(#clip0_2042_4153)">
<path d="M28.138 30H1.81243C1.81243 29.4552 1.81243 28.9105 1.81243 28.3658C1.81243 26.4542 2.44631 24.7804 3.75367 23.374C4.00128 23.1066 4.23898 22.8194 4.45687 22.5619C2.22841 21.5417 1.62425 19.4816 1.85205 17.6593C2.09966 17.6593 2.35717 17.689 2.60478 17.6593C3.01085 17.5998 3.44664 17.5602 3.8131 17.3919C4.84314 16.9065 5.30864 16.0449 5.31854 14.9257C5.31854 13.2618 5.28883 11.588 5.33835 9.92404C5.35816 9.08218 5.4473 8.23041 5.63548 7.40836C6.21983 4.98181 7.58662 3.07029 9.6467 1.6936C11.7068 0.307004 13.9947 -0.188209 16.441 0.178249C18.5605 0.505089 20.373 1.44599 21.8686 2.99106C23.7504 4.9422 24.6418 7.29941 24.6318 10.0033C24.6318 11.6375 24.6318 13.2816 24.6318 14.9158C24.6318 16.5203 25.7708 17.6494 27.3753 17.6593C27.6229 17.6593 27.8705 17.6593 28.1181 17.6593C28.2865 19.9273 27.4843 21.621 25.3747 22.6213C25.5133 22.7402 25.6223 22.8293 25.7213 22.9283C27.1178 24.1763 27.93 25.7312 28.0785 27.6031C28.138 28.3955 28.1181 29.1977 28.128 30H28.138ZM8.83455 10.6471C9.68632 10.6471 10.4886 10.6471 11.3007 10.6471C12.0138 10.6471 12.3407 10.3202 12.3506 9.61701C12.3506 8.93361 12.3308 8.25022 12.4001 7.57673C12.5288 6.30899 13.6975 5.32846 14.9851 5.32846C16.2826 5.32846 17.4314 6.30899 17.5602 7.57673C17.6295 8.27003 17.5998 8.97323 17.6097 9.67643C17.6196 10.2905 17.9663 10.6371 18.5704 10.6371C19.3232 10.6371 20.0759 10.6371 20.8187 10.6371C20.9078 10.6371 21.0069 10.6371 21.0861 10.6471C21.0861 12.2912 21.1555 13.9155 21.0663 15.5199C20.9673 17.3423 20.0957 18.8181 18.6299 19.9273C17.7484 20.6008 16.758 20.9772 15.6586 21.1258C15.7477 21.1456 15.827 21.1555 15.9161 21.1555C18.4912 21.1555 21.0663 21.1555 23.6414 21.1555C23.8098 21.1555 23.9782 21.1456 24.1366 21.1159C25.1568 20.9574 26.0283 20.1948 26.2264 19.2935C26.1967 19.2737 26.1571 19.2638 26.1175 19.2439C24.0574 18.6101 22.8689 16.9957 22.859 14.8465C22.859 13.1924 22.859 11.5285 22.859 9.87452C22.859 8.72562 22.6807 7.61635 22.1954 6.5764C20.9871 3.96168 18.9765 2.34728 16.1043 1.89169C14.0541 1.56484 12.1525 2.02044 10.4787 3.21886C8.19078 4.84315 7.0815 7.11123 7.06169 9.91414C7.06169 11.6078 7.06169 13.3014 7.06169 15.0049C7.05179 17.0056 5.78404 18.6695 3.86262 19.234C3.80319 19.2539 3.74377 19.2836 3.68434 19.3133C4.10032 20.4919 5.03132 21.1555 6.26935 21.1555C8.86427 21.1555 11.4592 21.1555 14.0442 21.1555C14.1135 21.1555 14.1829 21.1555 14.3215 21.1357C14.2225 21.1159 14.2027 21.1059 14.1729 21.096C11.3502 20.7098 9.19111 18.5506 8.87417 15.7081C8.76522 14.7573 8.82465 13.7768 8.81475 12.8161C8.81475 12.0931 8.81475 11.38 8.81475 10.6173L8.83455 10.6471ZM8.83455 28.2271H21.1257V24.7012H22.8887V28.237H26.375C26.375 28.1776 26.375 28.1281 26.375 28.0885C26.2958 26.4642 25.6322 25.1271 24.3743 24.0871C22.8689 22.8293 21.0762 22.8689 19.2736 22.958C18.7487 25.1271 17.0056 26.3255 15.2426 26.4344C14.3314 26.4939 13.4797 26.2859 12.7071 25.8105C11.6276 25.1469 10.964 24.1763 10.6668 22.9382C10.0726 22.9382 9.49814 22.9382 8.92369 22.9382C6.86361 22.9679 5.29873 23.8692 4.25879 25.6421C3.79329 26.4344 3.57539 27.306 3.57539 28.237H7.0914V24.7012H8.83455V28.237V28.2271ZM10.647 12.4001C10.647 13.5193 10.5579 14.6088 10.6668 15.6883C10.8649 17.6692 12.6477 19.2737 14.6583 19.4024C16.7382 19.5411 18.6794 18.1941 19.1944 16.2331C19.5212 14.9851 19.3232 13.7075 19.3628 12.4496C19.3628 12.4397 19.343 12.4199 19.3133 12.4001C19.0557 12.4001 18.7982 12.4001 18.5308 12.4001C17.1046 12.3704 16.035 11.4295 15.8864 10.0132C15.8171 9.3595 15.8666 8.68601 15.8567 8.02242C15.8567 7.45788 15.4803 7.06171 14.9653 7.07161C14.4701 7.07161 14.1036 7.46778 14.1036 8.02242C14.1036 8.56716 14.1036 9.11189 14.1036 9.65662C14.0937 11.2512 12.9646 12.3803 11.3799 12.3902C11.1323 12.3902 10.8748 12.3902 10.6569 12.3902L10.647 12.4001ZM12.5387 22.9283C12.826 23.9683 13.9848 24.7408 15.1039 24.6715C16.1736 24.6121 17.2631 23.79 17.4017 22.9283H12.5387Z" fill="white"/>
<path d="M0 1.87191H1.6342V0.0693359H3.37735V1.86201H5.24926V3.60516H3.39716V5.29878H1.65401V3.61506H0V1.86201V1.87191Z" fill="white"/>
<path d="M0 8.88416H1.73325V10.6372H0V8.88416Z" fill="white"/>
<path d="M26.3947 3.44669H24.6416V1.71344H26.3748V0.0693359H28.118V1.68373H29.9305V3.42688H28.1378V5.29878H26.3947V3.43678V3.44669Z" fill="white"/>
<path d="M28.1479 8.90393H29.9208V10.6174H28.1479V8.90393Z" fill="white"/>
</g>
<defs>
<clipPath id="clip0_2042_4153">
<rect width="30" height="30" fill="white"/>
</clipPath>
</defs>
</svg>
