<svg width="30" height="30" viewBox="0 0 30 30" fill="none" xmlns="http://www.w3.org/2000/svg">
<g clip-path="url(#clip0_2042_4177)">
<path d="M29.9999 29.8262C29.8937 29.8262 29.7876 29.8262 29.6814 29.8262C19.9324 29.8262 10.1833 29.8262 0.443944 29.8262C0.328114 29.8262 0.212284 29.8262 0.0771484 29.8262V11.9691H14.1022C14.1022 11.5926 14.1022 11.2548 14.1022 10.9169C14.0829 9.749 14.1312 8.58104 14.4111 7.43239C14.8744 5.55981 15.7432 3.89957 17.0849 2.50961C17.8571 1.6988 18.6775 0.936254 19.4497 0.173706C19.8358 0.559806 20.2316 0.965212 20.6563 1.38027C20.6273 1.40923 20.5598 1.48645 20.4826 1.56367C19.6814 2.37448 18.8416 3.15633 18.0887 4.00575C16.6215 5.66598 15.9073 7.64475 15.8493 9.85517C15.83 10.5405 15.8493 11.2162 15.8493 11.9401C15.9845 11.9401 16.1003 11.9594 16.2258 11.9594C20.6949 11.9594 25.1737 11.9594 29.6428 11.9594C29.7586 11.9594 29.8744 11.9691 29.9903 11.9787V29.8262H29.9999ZM26.4768 28.0598H28.2239V21.1197C27.7509 21.332 27.3262 21.5058 26.9111 21.7085C25.8107 22.249 24.6524 22.3359 23.4652 22.1911C22.7123 22.0946 22.0656 21.7471 21.3899 21.4478C20.1544 20.8976 18.9382 20.9749 17.7509 21.5926C17.7509 21.6505 17.7509 21.6795 17.7509 21.7085C17.915 22.8281 17.5289 23.7355 16.6312 24.3919C15.6949 25.0675 14.6717 25.1351 13.6582 24.5849C12.6737 24.054 12.2007 23.1853 12.1814 22.0753C12.1814 21.8919 12.2393 21.6602 12.1524 21.5444C12.0463 21.4092 11.8146 21.3706 11.6312 21.2934C11.5733 21.2644 11.5057 21.2451 11.4382 21.2355C10.3571 20.9845 9.3146 21.0714 8.33004 21.6119C7.36479 22.1428 6.32232 22.3069 5.22194 22.249C4.36286 22.2007 3.58101 21.9401 2.82811 21.554C2.51923 21.3996 2.1814 21.2837 1.84356 21.1486V28.0598H3.60031V26.5926H5.34742V28.0695H7.12348V26.5926H8.87058V28.0695H10.6466V26.5926H12.4131V28.0598H14.1795V26.583H15.9266V28.0598H17.7026V26.5926H19.4497V28.0695H21.2258V26.5926H22.9729V28.0695H24.749V26.5926H26.5057V28.0598H26.4768ZM28.2239 19.2857V17.3648H15.8493C15.8493 17.8764 15.8493 18.3783 15.8493 18.8706C15.8493 18.9189 15.888 18.9864 15.9169 19.0251C16.2258 19.3725 16.5443 19.7104 16.8243 20.0193C17.3648 19.8262 17.8667 19.5946 18.3976 19.4787C19.8455 19.1698 21.2354 19.3532 22.5578 20.0482C23.7644 20.6853 24.9999 20.6563 26.2354 20.0772C26.8532 19.7876 27.5096 19.5656 28.2046 19.2857H28.2239ZM1.8146 19.3919C2.55784 19.4787 3.19491 19.778 3.84163 20.0868C5.02889 20.6563 6.21614 20.6467 7.42271 20.0868C7.93429 19.8552 8.45553 19.5946 8.99607 19.4787C10.3281 19.1795 11.6505 19.2857 12.8957 19.9131C12.9826 19.9517 13.1466 19.9807 13.1949 19.9324C13.4941 19.6428 13.7644 19.3243 14.0443 19.0154C14.0733 18.9864 14.0926 18.9285 14.0926 18.8803C14.0926 18.3783 14.0926 17.8764 14.0926 17.3648H1.82425V19.3919H1.8146ZM15.8687 15.5695H28.2239V13.7355H15.8687V15.5695ZM1.82425 15.5695H14.0829V13.7355H1.82425V15.5695ZM14.9903 20.5019C14.6717 20.9266 14.3725 21.2837 14.1215 21.6602C13.7451 22.2297 14.0154 22.915 14.6717 23.1177C15.0771 23.2432 15.5308 23.1177 15.8011 22.7702C16.081 22.4227 16.11 22.0656 15.8493 21.6698C15.5984 21.2934 15.3088 20.9363 14.9903 20.5019Z" fill="white"/>
<path d="M1.82422 10.0193V8.28186C3.64854 8.33978 5.2219 7.78959 6.48638 6.44789C7.74121 5.11584 8.17557 3.50387 8.05009 1.69885H9.76823C10.2702 6.18727 6.59256 10.2606 1.82422 10.0097V10.0193Z" fill="white"/>
<path d="M1.82422 6.73744V5.03859C4.02499 4.4884 4.44005 4.02508 4.74893 1.72778H6.42847C6.77596 4.19883 4.62345 6.7857 1.83387 6.74709L1.82422 6.73744Z" fill="white"/>
</g>
<defs>
<clipPath id="clip0_2042_4177">
<rect width="30" height="30" fill="white"/>
</clipPath>
</defs>
</svg>
