<svg width="30" height="30" viewBox="0 0 30 30" fill="none" xmlns="http://www.w3.org/2000/svg">
<g clip-path="url(#clip0_2042_4188)">
<path d="M2.92447 0H19.4206C19.4206 1.49614 19.3916 3.00193 19.4399 4.49807C19.4785 5.57915 19.6233 6.65058 19.7102 7.72201C19.7295 7.89575 19.8067 7.99228 19.9611 8.0695C22.9727 9.49807 24.4978 12.722 23.6774 15.9459C23.6194 16.168 23.6774 16.2934 23.8222 16.4479C25.521 18.1371 27.2102 19.8359 28.909 21.5251C29.3337 21.9498 29.6812 22.4228 29.855 23.0116C29.9032 23.1757 29.9515 23.3398 29.9901 23.5135V24.334C29.7971 24.8069 29.6909 25.3378 29.411 25.7529C28.2913 27.4324 25.994 27.6158 24.5075 26.168C23.687 25.3764 22.8955 24.556 22.0847 23.7548C22.0171 23.6873 21.9399 23.61 21.8337 23.5135C21.3318 25.695 20.8395 27.8185 20.3472 29.9324H2.00748C1.57312 28.0405 1.14841 26.1583 0.704391 24.2857C0.356901 22.8089 0.12524 21.3224 0.0769778 19.807C-0.00989477 16.9208 0.463078 14.1216 1.55381 11.4382C2.52872 9.07336 3.00169 6.62162 2.95343 4.06371C2.92447 2.81853 2.95343 1.57336 2.95343 0.318533C2.95343 0.212355 2.94377 0.106178 2.93412 0L2.92447 0ZM7.79899 18.8707C7.89551 18.9286 7.98238 18.9768 8.0596 19.0251C9.03451 19.6429 9.99976 20.251 10.965 20.8687C11.1194 20.9653 11.2256 20.9749 11.3801 20.8687C11.853 20.5502 12.3453 20.251 12.8376 19.9421C12.9341 19.8842 13.021 19.8166 13.1272 19.749C10.5596 17.8185 9.74879 14.7587 10.6175 12.2104C11.7855 8.80309 14.3241 7.32625 17.8279 7.41313C17.77 6.48649 17.7025 5.55019 17.6735 4.60425C17.6445 3.6583 17.6735 2.7027 17.6735 1.7471H4.70053C4.70053 2.22973 4.70053 2.69305 4.70053 3.16602C4.67157 4.31467 4.69088 5.46332 4.59435 6.61197C4.43991 8.50386 3.88972 10.3089 3.18509 12.0753C1.9013 15.2703 1.50555 18.5907 2.0654 21.9884C2.29706 23.417 2.66385 24.8263 2.97273 26.2355C3.11752 26.8822 3.27196 27.5193 3.41675 28.1371H10.3183C10.3183 26.2934 10.3183 24.4691 10.3183 22.6448C10.3183 22.5483 10.2121 22.4228 10.1252 22.3649C9.15034 21.7375 8.16578 21.1197 7.19088 20.5019C7.09435 20.444 6.99783 20.3764 6.9013 20.3089C7.21983 19.807 7.51906 19.334 7.82794 18.8417L7.79899 18.8707ZM17.104 19.2761C19.8839 19.2761 22.1426 17.027 22.1523 14.2471C22.1523 11.4768 19.9032 9.19884 17.1233 9.18919C14.3337 9.17954 12.0557 11.4479 12.0557 14.2375C12.0557 17.0174 14.3144 19.2761 17.0944 19.2761H17.104ZM12.075 28.195C14.3434 28.195 16.5731 28.195 18.8028 28.195C18.8704 28.195 18.9862 28.0792 19.0152 28.0019C19.1407 27.5483 19.2372 27.0946 19.3434 26.6409C19.6716 25.1544 19.9998 23.6776 20.3086 22.1911C20.3279 22.0946 20.2797 21.9402 20.2121 21.8629C19.9032 21.5347 19.575 21.2259 19.2662 20.9073C19.1503 20.7819 19.0442 20.7722 18.8801 20.8108C17.6445 21.139 16.4187 21.11 15.1832 20.7722C15.0673 20.7432 14.8936 20.7722 14.7874 20.8301C13.938 21.3514 13.1079 21.8919 12.2681 22.4131C12.133 22.5 12.0654 22.5869 12.0654 22.7606C12.0654 24.4981 12.0654 26.2259 12.0654 27.9633C12.0654 28.0309 12.0654 28.0985 12.075 28.195ZM20.7527 19.9807C20.8781 20.0772 20.9747 20.1351 21.0422 20.2124C22.3743 21.5347 23.6967 22.8668 25.0287 24.1988C25.299 24.4691 25.5596 24.749 25.8395 25C26.66 25.7529 27.9534 25.3571 28.2044 24.2761C28.3395 23.7259 28.1465 23.2625 27.7604 22.8764C26.1677 21.2838 24.575 19.7008 22.992 18.1081C22.9438 18.0598 22.8955 18.0212 22.8183 17.9537C22.2777 18.7548 21.6214 19.4208 20.7527 20V19.9807Z" fill="white"/>
<path d="M16.6024 14.5077C17.4229 13.6776 18.1951 12.9054 18.9384 12.1621C19.3727 12.5965 19.7685 13.0019 20.1546 13.3783C19.0059 14.527 17.8187 15.7142 16.6411 16.8918C15.9268 16.1679 15.1932 15.4247 14.4692 14.7007C14.8457 14.3243 15.2414 13.9189 15.6758 13.4942C15.975 13.8223 16.2839 14.1602 16.6024 14.5077Z" fill="white"/>
</g>
<defs>
<clipPath id="clip0_2042_4188">
<rect width="30" height="30" fill="white"/>
</clipPath>
</defs>
</svg>
