<svg width="250" height="250" viewBox="0 0 250 250" fill="none" xmlns="http://www.w3.org/2000/svg">
<g clip-path="url(#clip0_2129_4118)">
<path d="M91.9201 180.041L126.039 116.794C128.122 117.022 130.065 117.235 132.23 117.47L96.9944 182.786C119.737 187.264 138.608 198.561 155.414 214.187C157.107 211.049 158.637 208.212 160.169 205.372C174.21 179.33 188.242 153.28 202.318 127.257C203.024 125.948 203.077 125.159 201.873 124.1C197.598 120.349 193.434 116.478 189.136 112.567C190.287 111.245 191.483 109.869 192.837 108.308C196.09 111.183 199.281 113.961 202.419 116.799C204.417 118.61 206.35 120.495 208.283 122.373C209.877 123.925 210.04 124.913 209.027 126.85C208.057 128.709 207.043 130.543 205.946 132.578C206.507 132.918 206.986 133.229 207.485 133.502C210.863 135.333 214.245 137.15 217.624 138.98C220.267 140.414 220.648 141.606 219.251 144.195C206.402 168.02 193.549 191.838 180.698 215.661C175.199 225.854 169.699 236.048 164.199 246.245C162.456 249.474 160.476 249.732 158.132 246.97C152.189 239.962 145.93 233.263 138.905 227.321C131.916 221.41 124.465 216.184 116.12 212.34C110.043 209.541 103.727 207.505 97.0727 206.603C96.3635 206.507 95.6347 206.417 94.9654 206.178C93.2204 205.552 92.6648 204.193 93.2911 202.448C93.7761 201.101 94.3642 199.753 94.5946 198.355C95.2315 194.557 93.0184 190.536 89.7119 189.186C85.4173 187.43 81.0211 188.479 78.5378 191.854C75.4455 196.053 74.6777 196.028 71.0939 192.196C64.0258 184.643 55.499 179.126 46.1886 174.766C32.8901 168.538 18.8525 165.196 4.24553 164.048C1.23794 163.812 0.240878 161.83 1.69942 159.126C20.1375 124.94 38.5719 90.7685 57.0112 56.5953C58.3603 54.0945 59.6023 53.7415 62.1288 55.0963C66.0357 57.1916 69.9292 59.3043 74.0529 61.5289C75.0361 59.7064 75.9614 57.9835 76.8913 56.2673C78.2947 53.6812 79.0931 53.2935 81.9759 54.0179C88.418 55.6313 94.8505 57.2928 101.418 58.9697C100.888 60.9224 100.411 62.6865 99.9126 64.5289C93.8388 62.9383 87.7874 61.3515 81.6577 59.743L33.7533 148.543C55.9028 153.953 75.7094 163.508 91.9103 180.044L91.9201 180.041Z" fill="#A7C6C4"/>
<path d="M131.268 92.3782C126.352 89.7261 121.574 87.1073 116.754 84.5646C113.477 82.8337 110.5 80.7817 108.416 77.6279C104.603 71.855 104.653 65.822 107.681 59.8686C111.515 52.3288 115.602 44.913 119.699 37.5071C124.648 28.5759 134.628 25.5425 143.638 30.3457C160.374 39.2676 177.07 48.2624 193.715 57.3604C202.604 62.221 205.538 72.1723 200.849 81.1534C196.904 88.7074 192.86 96.2116 188.71 103.655C183.871 112.33 173.903 115.165 164.96 110.541C162.294 109.165 159.69 107.666 157.016 106.305C156.536 106.063 155.676 105.959 155.294 106.227C148.668 110.878 141.181 111.937 133.352 111.667C125.936 111.41 119.067 109.337 112.808 105.343C111.503 104.508 110.28 103.521 109.113 102.499C107.99 101.516 107.458 100.28 108.275 98.818C109.062 97.4132 110.243 97.0277 111.785 97.4463C118.73 99.3347 124.955 97.9587 130.427 93.2624C130.689 93.0353 130.91 92.7618 131.275 92.3816L131.268 92.3782ZM151.679 59.2073C154 60.169 156.11 60.8485 158.019 61.8988C159.221 62.5598 160.059 63.8217 159.504 65.3965C158.952 66.965 157.773 67.6341 156.13 67.4397C155.127 67.3198 154.134 67.0827 153.128 66.9983C152.669 66.9599 151.924 67.0076 151.764 67.2814C150.499 69.4352 149.348 71.6537 148.122 73.9263L154.515 77.3752C155.026 74.0539 157.142 73.4155 159.734 73.496C159.967 73.5033 160.208 73.4286 160.443 73.3795C165.415 72.2804 168.596 66.1029 166.476 61.6734C164.441 57.4205 157.752 53.6241 152.762 54.0298C152.387 55.8164 152.001 57.6624 151.679 59.2073ZM153.376 79.3266L146.561 75.6503L142.936 82.3699C144.946 83.454 146.733 84.5038 148.609 85.3646C149.036 85.5583 150.064 85.2696 150.309 84.8824C151.387 83.1805 152.278 81.3615 153.376 79.3266Z" fill="white"/>
<path d="M74.8706 141.814C73.7613 141.215 72.6448 140.638 71.5474 140.017C68.8555 138.491 68.0062 136.212 69.5874 133.554C70.7231 131.646 70.6489 130.145 69.8346 128.143C66.7349 120.5 70.1465 111.628 77.5563 107.511C84.3726 103.72 93.8559 105.681 98.5751 112.126C106.951 123.573 99.1358 137.272 88.0047 138.714C86.5437 138.904 85.7951 139.503 85.2183 140.747C84.8244 141.598 84.2574 142.422 83.6032 143.096C82.3147 144.422 80.7166 144.775 79.0141 143.971C77.6087 143.307 76.2639 142.508 74.8914 141.768C74.8829 141.784 74.876 141.796 74.8675 141.812L74.8706 141.814Z" fill="white"/>
<path d="M152.566 147.088C160.088 151.235 166.003 155.797 171.456 160.965C172.815 162.255 172.889 163.968 171.813 165.135C170.649 166.398 169.046 166.359 167.497 165.135C162.989 161.582 158.64 157.795 153.894 154.593C147.333 150.165 139.862 147.698 132.215 145.807C131.695 145.678 131.162 145.559 130.666 145.356C129.197 144.756 128.508 143.349 128.91 141.86C129.287 140.471 130.761 139.515 132.289 139.959C136.874 141.29 141.463 142.637 145.977 144.192C148.567 145.086 151.016 146.395 152.567 147.084L152.566 147.088Z" fill="white"/>
<path d="M144.619 163.433C152.368 168.01 157.737 172.097 162.63 176.811C164.299 178.42 164.378 180.283 162.826 181.423C161.403 182.468 160.157 182.192 158.784 181.096C154.21 177.445 149.713 173.661 144.877 170.381C138.626 166.137 131.479 163.828 124.19 161.995C123.552 161.835 122.903 161.719 122.281 161.514C120.743 161.004 119.845 159.414 120.241 157.983C120.644 156.531 122.191 155.581 123.783 155.953C131.742 157.812 139.384 160.531 144.623 163.435L144.619 163.433Z" fill="white"/>
<path d="M161.855 131.393C168.676 135.285 174.62 139.703 179.996 144.87C181.365 146.186 181.555 147.889 180.546 149.038C179.369 150.38 177.59 150.46 176.122 149.078C171.402 144.629 166.324 140.646 160.703 137.405C154.705 133.944 148.226 131.656 141.519 129.994C140.881 129.834 140.229 129.723 139.606 129.527C138.078 129.038 137.133 127.444 137.493 126.026C137.848 124.609 139.504 123.481 141 123.948C146.41 125.639 151.801 127.402 157.16 129.249C158.906 129.851 160.533 130.786 161.855 131.401L161.855 131.393Z" fill="white"/>
<path d="M71.4356 148.076C70.6432 147.648 69.832 147.255 69.065 146.788C67.6307 145.912 67.0913 144.447 67.6583 143.108C68.2269 141.766 69.9449 140.978 71.4482 141.658C73.3518 142.521 75.1972 143.545 76.9506 144.679C78.2617 145.526 78.5272 147.302 77.7765 148.489C77.0003 149.715 75.4099 150.13 73.9716 149.435C73.1079 149.019 72.2787 148.53 71.4356 148.076Z" fill="white"/>
<path d="M111.292 112.644C111.498 113.127 112.267 114.091 112.18 114.972C112.091 115.866 111.331 116.957 110.545 117.442C109.52 118.076 108.179 118.445 106.97 118.464C106.088 118.475 104.82 117.958 104.406 117.269C103.944 116.495 103.927 115.132 104.287 114.258C104.949 112.659 109.183 111.563 111.292 112.644Z" fill="white"/>
<path d="M68.0141 154.418C65.5513 153.089 64.7324 151.596 65.5742 149.967C66.4587 148.259 68.3073 148.041 70.7574 149.363C73.2393 150.702 74.0742 152.302 73.1694 153.987C72.2614 155.67 70.5893 155.811 68.0124 154.421L68.0141 154.418Z" fill="white"/>
<path d="M99.1265 102.783C98.8153 103.36 98.5999 104.017 98.1759 104.492C97.1639 105.632 95.8423 106.057 94.4936 105.227C93.1907 104.426 92.7529 103.113 93.3172 101.65C93.6558 100.765 94.1584 99.9392 94.6415 99.1195C95.543 97.5925 97.2277 96.9955 98.5841 97.6822C99.9993 98.3965 100.481 100.211 99.6836 101.864C99.5302 102.186 99.345 102.492 99.1741 102.809C99.1582 102.8 99.1392 102.79 99.1233 102.781L99.1265 102.783Z" fill="white"/>
<path d="M105.041 135.587C102.438 134.184 101.731 132.885 102.631 131.202C103.611 129.37 105.3 129.176 107.917 130.612C108.438 130.898 108.975 131.191 109.421 131.579C110.637 132.64 110.873 134.212 109.96 135.442C109.006 136.732 107.736 136.947 106.309 136.263C105.877 136.055 105.466 135.809 105.041 135.587Z" fill="white"/>
<path d="M66.327 108.847C68.8563 110.212 69.4305 111.127 68.8854 112.904C68.8351 113.073 68.8339 113.264 68.7536 113.413C67.8209 115.165 65.7466 115.233 63.0338 113.601C60.881 112.305 60.3051 110.665 61.4352 109.04C62.4828 107.53 63.7913 107.479 66.327 108.847Z" fill="white"/>
<path d="M79.1123 95.7055C81.9354 97.208 82.6277 102.259 80.6975 103.546C79.2676 104.497 77.5234 104.158 76.7755 102.609C76.2171 101.444 75.6771 100.154 75.6259 98.8988C75.5883 97.9824 76.1242 96.7615 76.8225 96.1725C77.4529 95.641 78.6507 95.7798 79.1123 95.7055Z" fill="white"/>
<path d="M151.678 59.2104C152 57.6654 152.386 55.8195 152.76 54.0329C157.75 53.6272 164.439 57.4236 166.474 61.6765C168.594 66.106 165.41 72.2817 160.441 73.3826C160.209 73.4334 159.969 73.5081 159.732 73.4991C157.142 73.4154 155.024 74.057 154.513 77.3783L148.12 73.9294C149.346 71.6568 150.498 69.4383 151.762 67.2845C151.922 67.0107 152.668 66.9629 153.126 67.0014C154.132 67.0858 155.125 67.3229 156.129 67.4427C157.769 67.6404 158.95 66.9681 159.502 65.3996C160.057 63.8248 159.219 62.5629 158.017 61.9019C156.106 60.8547 153.999 60.172 151.678 59.2104Z" fill="#0C4E4B"/>
<path d="M153.374 79.3296C152.275 81.3677 151.385 83.1834 150.308 84.8854C150.062 85.2726 149.035 85.5613 148.607 85.3675C146.732 84.5116 144.944 83.457 142.935 82.3729L146.56 75.6533L153.374 79.3296Z" fill="#0C4E4B"/>
</g>
<defs>
<clipPath id="clip0_2129_4118">
<rect width="184.386" height="184.375" fill="white" transform="translate(87.5382) rotate(28.3453)"/>
</clipPath>
</defs>
</svg>
