<svg width="14" height="22" viewBox="0 0 14 22" fill="none" xmlns="http://www.w3.org/2000/svg">
<path fill-rule="evenodd" clip-rule="evenodd" d="M9.48627 0.357647C10.2561 0.547492 10.9593 0.944132 11.52 1.50469C12.0807 2.06525 12.4776 2.76841 12.6676 3.53815C13.1343 5.4106 13.1305 7.36944 12.6566 9.24006C12.5714 9.58494 12.4454 9.91278 12.2853 10.2185H12.287L6.75794 21.7143L0.982792 10.25C0.81207 9.93071 0.681639 9.59147 0.59449 9.24006C0.124102 7.36853 0.124102 5.40968 0.59449 3.53815C0.783684 2.76754 1.18015 2.0634 1.74094 1.50201C2.30172 0.940628 3.00544 0.543408 3.77584 0.353389C4.70972 0.120201 5.66851 0.00153211 6.63106 0C7.57712 0 8.54021 0.117513 9.48627 0.357647ZM8.81271 9.72118C9.09183 9.65189 9.34681 9.50786 9.55024 9.30458C9.75368 9.10129 9.89789 8.84642 9.96739 8.56735C10.325 7.11377 10.325 5.65934 9.96739 4.20576C9.89781 3.92672 9.75357 3.6719 9.55014 3.46863C9.34672 3.26535 9.09179 3.1213 8.81271 3.05192C7.38099 2.68842 5.88113 2.68842 4.44941 3.05192C4.17029 3.12121 3.91531 3.26524 3.71187 3.46853C3.50844 3.67181 3.36422 3.92668 3.29472 4.20576C2.93108 5.63688 2.93108 7.13622 3.29472 8.56735C3.36422 8.84642 3.50844 9.10129 3.71187 9.30458C3.91531 9.50786 4.17029 9.65189 4.44941 9.72118C5.88113 10.0847 7.38099 10.0847 8.81271 9.72118Z" fill="white"/>
</svg>
