<svg width="17" height="17" viewBox="0 0 17 17" fill="none" xmlns="http://www.w3.org/2000/svg">
<path d="M15.9766 12.1569L12.6904 10.5138C12.5361 10.4369 12.3616 10.4104 12.1914 10.4381C12.0213 10.4658 11.8642 10.5463 11.7423 10.6683L10.3662 12.0444C8.38878 11.7264 5.27267 8.61115 4.95555 6.63369L6.33164 5.25761C6.4536 5.13577 6.53414 4.97865 6.56186 4.8085C6.58958 4.63835 6.56307 4.46379 6.48609 4.30955L4.843 1.02337C4.78921 0.915654 4.71241 0.821076 4.61802 0.746332C4.52363 0.671587 4.41397 0.618502 4.29679 0.590834C4.17961 0.563166 4.05779 0.561592 3.93993 0.586222C3.82208 0.610852 3.71108 0.661085 3.61479 0.733365L0.328618 3.198C0.226585 3.27452 0.143771 3.37375 0.0867326 3.48783C0.0296947 3.6019 0 3.72769 0 3.85523C0 11.7174 5.28253 16.9999 13.1447 16.9999C13.2722 16.9999 13.398 16.9702 13.5121 16.9132C13.6262 16.8562 13.7254 16.7733 13.8019 16.6713L16.2666 13.3851C16.3388 13.2889 16.3891 13.1779 16.4137 13.06C16.4383 12.9421 16.4368 12.8203 16.4091 12.7031C16.3814 12.586 16.3283 12.4763 16.2536 12.3819C16.1789 12.2875 16.0843 12.2107 15.9766 12.1569Z" fill="white"/>
<path d="M9.4441 2.21194C10.8598 2.21367 12.2171 2.77684 13.2182 3.77792C14.2192 4.77899 14.7824 6.13624 14.7841 7.55197C14.7841 7.76986 14.8707 7.97882 15.0248 8.13289C15.1788 8.28696 15.3878 8.37351 15.6057 8.37351C15.8236 8.37351 16.0325 8.28696 16.1866 8.13289C16.3407 7.97882 16.4272 7.76986 16.4272 7.55197C16.4251 5.7006 15.6886 3.92568 14.3795 2.61656C13.0704 1.30744 11.2955 0.571022 9.4441 0.568848C9.22622 0.568848 9.01725 0.655403 8.86318 0.809472C8.70911 0.963542 8.62256 1.1725 8.62256 1.39039C8.62256 1.60828 8.70911 1.81724 8.86318 1.97131C9.01725 2.12538 9.22622 2.21194 9.4441 2.21194Z" fill="white"/>
<path d="M9.4441 5.4988C9.98882 5.4988 10.5112 5.71519 10.8964 6.10036C11.2816 6.48554 11.498 7.00794 11.498 7.55266C11.498 7.77055 11.5845 7.97951 11.7386 8.13358C11.8927 8.28765 12.1016 8.3742 12.3195 8.3742C12.5374 8.3742 12.7464 8.28765 12.9004 8.13358C13.0545 7.97951 13.141 7.77055 13.141 7.55266C13.141 6.57217 12.7516 5.63184 12.0582 4.93852C11.3649 4.24521 10.4246 3.85571 9.4441 3.85571C9.22622 3.85571 9.01725 3.94227 8.86318 4.09634C8.70911 4.25041 8.62256 4.45937 8.62256 4.67726C8.62256 4.89514 8.70911 5.10411 8.86318 5.25818C9.01725 5.41225 9.22622 5.4988 9.4441 5.4988Z" fill="white"/>
</svg>
