<svg width="19" height="22" viewBox="0 0 19 22" fill="none" xmlns="http://www.w3.org/2000/svg">
<path fill-rule="evenodd" clip-rule="evenodd" d="M0.98057 4.03641C0.869619 3.14896 1.58845 2.50707 2.47884 1.96181C5.77266 0.0043574 5.82191 1.29828 6.36856 2.75661C7.69371 6.29189 7.67183 5.1473 5.99547 7.47172C5.40669 8.28801 6.86363 10.9077 7.47465 11.9732C8.09203 13.0353 9.63239 15.6067 10.6334 15.5049C13.4847 15.2153 12.5045 14.6239 14.9034 17.5395C15.8929 18.7417 16.9892 19.4315 13.6463 21.3055C12.7293 21.8038 11.814 22.1056 11.1007 21.5655C6.66043 17.9205 1.91707 9.70509 0.980653 4.03646L0.98057 4.03641ZM10.626 3.24841C13.0855 3.26846 15.3503 4.58382 16.5803 6.71439C17.806 8.83717 17.8138 11.4729 16.6059 13.6055C16.4283 13.918 16.538 14.3155 16.8505 14.4928C17.1633 14.6701 17.5606 14.5605 17.7376 14.2479C19.1709 11.7177 19.1613 8.5848 17.7072 6.06633C16.2429 3.531 13.5641 1.97258 10.6363 1.94792C10.2773 1.94496 9.98381 2.23399 9.98131 2.59311C9.97835 2.95206 10.2671 3.24558 10.626 3.24824L10.626 3.24841ZM10.6066 5.95173C12.1089 5.96416 13.4888 6.76754 14.2398 8.06878C14.9887 9.36302 14.9918 10.9708 14.2548 12.2711C14.0777 12.5835 14.1871 12.9808 14.4999 13.1583C14.8122 13.3356 15.2096 13.2262 15.387 12.9134C16.3469 11.219 16.3438 9.10241 15.3665 7.41578C14.3837 5.71364 12.5814 4.66755 10.6168 4.65124C10.2578 4.64829 9.96432 4.93731 9.96165 5.29643C9.95854 5.65569 10.2474 5.94874 10.6065 5.95173L10.6066 5.95173ZM10.7143 8.66126C11.2126 8.70694 11.6486 8.98696 11.8985 9.42002C12.1698 9.88963 12.1717 10.4646 11.9038 10.9366C11.7262 11.2491 11.8359 11.6466 12.1488 11.8238C12.4612 12.0014 12.8585 11.8917 13.036 11.5789C13.5276 10.7107 13.5242 9.63184 13.0251 8.76739C12.5654 7.97147 11.7464 7.45 10.8313 7.36622C10.4738 7.33374 10.1574 7.59775 10.1251 7.95516C10.0929 8.31287 10.3564 8.62908 10.7143 8.66126Z" fill="#0C4E4B"/>
</svg>
