<svg width="17" height="17" viewBox="0 0 17 17" fill="none" xmlns="http://www.w3.org/2000/svg">
<path d="M8.78665 1.09145C8.67503 0.747908 8.18901 0.747908 8.07738 1.09145L6.39812 6.2597C6.3482 6.41334 6.20503 6.51736 6.04348 6.51736L0.609258 6.51736C0.248037 6.51736 0.0978475 6.97959 0.390082 7.19191L4.78646 10.3861C4.91715 10.481 4.97184 10.6493 4.92192 10.803L3.24265 15.9712C3.13103 16.3148 3.52423 16.6004 3.81646 16.3881L8.21284 13.194C8.34353 13.099 8.5205 13.099 8.65119 13.194L13.0476 16.3881C13.3398 16.6004 13.733 16.3148 13.6214 15.9712L11.9421 10.803C11.8922 10.6493 11.9469 10.481 12.0776 10.3861L16.474 7.19191C16.7662 6.97959 16.616 6.51736 16.2548 6.51736L10.8206 6.51736C10.659 6.51736 10.5158 6.41334 10.4659 6.2597L8.78665 1.09145Z" fill="#FFBA34"/>
</svg>
