<svg width="21" height="20" viewBox="0 0 21 20" fill="none" xmlns="http://www.w3.org/2000/svg">
<path d="M15.3327 12C15.4127 11.34 15.4727 10.68 15.4727 10C15.4727 9.32 15.4127 8.66 15.3327 8H18.7127C18.8727 8.64 18.9727 9.31 18.9727 10C18.9727 10.69 18.8727 11.36 18.7127 12M13.5627 17.56C14.1627 16.45 14.6227 15.25 14.9427 14H17.8927C16.9238 15.6683 15.3868 16.932 13.5627 17.56ZM13.3127 12H8.63266C8.53266 11.34 8.47266 10.68 8.47266 10C8.47266 9.32 8.53266 8.65 8.63266 8H13.3127C13.4027 8.65 13.4727 9.32 13.4727 10C13.4727 10.68 13.4027 11.34 13.3127 12ZM10.9727 17.96C10.1427 16.76 9.47266 15.43 9.06266 14H12.8827C12.4727 15.43 11.8027 16.76 10.9727 17.96ZM6.97266 6H4.05266C5.01151 4.32721 6.54745 3.06149 8.37266 2.44C7.77266 3.55 7.32266 4.75 6.97266 6ZM4.05266 14H6.97266C7.32266 15.25 7.77266 16.45 8.37266 17.56C6.55128 16.9317 5.0175 15.6677 4.05266 14ZM3.23266 12C3.07266 11.36 2.97266 10.69 2.97266 10C2.97266 9.31 3.07266 8.64 3.23266 8H6.61266C6.53266 8.66 6.47266 9.32 6.47266 10C6.47266 10.68 6.53266 11.34 6.61266 12M10.9727 2.03C11.8027 3.23 12.4727 4.57 12.8827 6H9.06266C9.47266 4.57 10.1427 3.23 10.9727 2.03ZM17.8927 6H14.9427C14.6297 4.76146 14.1662 3.5659 13.5627 2.44C15.4027 3.07 16.9327 4.34 17.8927 6ZM10.9727 0C5.44266 0 0.972656 4.5 0.972656 10C0.972656 12.6522 2.02622 15.1957 3.90159 17.0711C4.83017 17.9997 5.93257 18.7362 7.14582 19.2388C8.35908 19.7413 9.65944 20 10.9727 20C13.6248 20 16.1684 18.9464 18.0437 17.0711C19.9191 15.1957 20.9727 12.6522 20.9727 10C20.9727 8.68678 20.714 7.38642 20.2115 6.17317C19.7089 4.95991 18.9723 3.85752 18.0437 2.92893C17.1151 2.00035 16.0127 1.26375 14.7995 0.761205C13.5862 0.258658 12.2859 0 10.9727 0Z" fill="#0C4E4B"/>
</svg>
