<svg width="30" height="30" viewBox="0 0 30 30" fill="none" xmlns="http://www.w3.org/2000/svg">
<g clip-path="url(#clip0_1_597)">
<path d="M21.9884 -0.000113116C22.4035 0.154327 22.8572 0.250852 23.2336 0.463207C25.502 1.71803 25.695 4.86475 23.6197 6.41881C23.5425 6.47672 23.4653 6.53464 23.3591 6.6022C23.4074 6.68908 23.446 6.77595 23.4942 6.85317C24.2471 8.25278 24.6236 9.74892 24.6622 11.3319C24.6718 12.0076 24.4691 12.6157 24.0155 13.1466C24.3437 13.5713 24.5753 14.0346 24.6332 14.5752C24.7684 15.859 23.9576 17.0752 22.7124 17.4323C22.5966 17.4709 22.4421 17.5578 22.3939 17.664C21.5734 19.7393 20.1448 21.2354 18.1081 22.1524C18.0792 22.1621 18.0502 22.1717 18.0309 22.191C18.0116 22.2007 18.002 22.22 17.9634 22.2489C18.0888 22.6736 18.2047 23.108 18.3398 23.5424C18.3591 23.6099 18.4749 23.6678 18.5618 23.6871C19.8263 23.9767 21.0811 24.2953 22.3456 24.5366C24.9518 25.0481 26.5637 26.6215 27.3649 29.0926C27.4518 29.3628 27.529 29.6331 27.6159 29.9227H2.33594C2.35524 29.8261 2.36489 29.7393 2.39385 29.6524C2.70273 28.5231 3.16605 27.4709 3.9286 26.5636C4.94212 25.3667 6.28381 24.7972 7.7896 24.498C8.97686 24.2566 10.1448 23.9671 11.3224 23.7161C11.5155 23.6775 11.6023 23.5906 11.641 23.4072C11.7375 23.0211 11.8533 22.6447 11.9691 22.2393C11.6699 22.0848 11.3707 21.9497 11.0908 21.7856C9.44018 20.8397 8.26258 19.4883 7.5676 17.7122C7.52899 17.6061 7.41316 17.4709 7.31663 17.4516C5.58883 17.0076 4.57532 14.8937 5.88806 13.2142C5.89771 13.1949 5.90737 13.1756 5.92667 13.137C5.49231 12.6254 5.27995 12.0173 5.28961 11.3223C5.31856 9.78753 5.67571 8.33965 6.38999 6.969C6.44791 6.85317 6.51547 6.72769 6.59269 6.59255C6.50582 6.53464 6.43825 6.47672 6.36103 6.41881C5.15447 5.46321 4.64289 4.22769 4.99038 2.73155C5.32822 1.26437 6.31277 0.385987 7.7896 0.0578019C7.84752 0.0481494 7.89578 0.0191919 7.9537 -0.000113116C8.26258 -0.000113116 8.58111 -0.000113116 8.88999 -0.000113116C8.9286 0.0191919 8.97686 0.0481494 9.01547 0.0481494C10.2413 0.27981 11.1197 0.97479 11.6603 2.09448C11.6892 2.16205 11.7278 2.22962 11.7761 2.29718C13.9189 1.57325 16.0522 1.5829 18.1854 2.29718C18.2336 2.20066 18.2722 2.13309 18.3012 2.06552C18.8031 1.0134 19.6332 0.35703 20.7626 0.077107C20.8688 0.0481494 20.9653 0.0191919 21.0618 -0.00976562C21.3707 -0.00976562 21.6892 -0.00976562 21.9981 -0.00976562L21.9884 -0.000113116ZM8.79347 15.7142C9.47879 19.0057 11.8437 20.8783 14.6332 21.0424C15.9749 21.1196 17.2201 20.7914 18.3495 20.0482C19.9035 19.0153 20.7529 17.5192 21.139 15.7045C21.3707 15.7238 21.583 15.7431 21.7954 15.7624C22.3939 15.8204 22.8668 15.4536 22.9054 14.9034C22.9344 14.3918 22.5097 14.0057 21.9112 13.996C21.8437 13.996 21.7761 13.996 21.7085 13.996C21.5251 14.025 21.4286 13.9381 21.361 13.774C21.139 13.2528 20.8977 12.7412 20.6661 12.2296C20.5213 11.9111 20.3765 11.6022 20.2317 11.2837C16.7182 11.8918 13.2336 11.8821 9.73941 11.2837C9.38227 12.0752 9.00582 12.8377 8.68729 13.6196C8.56181 13.9188 8.40737 14.0346 8.07918 14.0057C7.75099 13.9671 7.46142 14.0732 7.24906 14.3435C7.0174 14.6427 6.98845 14.9709 7.17184 15.2991C7.37455 15.6756 7.73169 15.7914 8.1371 15.7721C8.3591 15.7721 8.58111 15.7335 8.81277 15.7142H8.79347ZM22.5193 12.1138C22.8282 11.9304 22.9151 11.6408 22.8958 11.3416C22.8572 10.8204 22.8282 10.2895 22.722 9.77788C21.5637 4.60413 15.946 1.95935 11.2742 4.44969C8.55215 5.89757 7.16219 8.26243 7.03671 11.3416C7.02706 11.6505 7.12358 11.9111 7.41316 12.1138C7.84752 11.1678 8.27223 10.2412 8.69694 9.30491C12.8958 10.2026 17.0657 10.2026 21.2355 9.30491C21.6699 10.2509 22.0946 11.1775 22.5193 12.1041V12.1138ZM25.0483 28.1852C24.3823 27.2489 23.5425 26.6408 22.4807 26.3898C21.1197 26.0617 19.7491 25.7721 18.3784 25.4536C18.195 25.4149 18.0888 25.4439 17.9634 25.5983C16.4383 27.5578 13.4846 27.5578 11.9595 25.5983C11.8244 25.4246 11.7085 25.4149 11.5155 25.4536C10.3958 25.7142 9.27609 25.9651 8.1564 26.2065C7.25872 26.3898 6.38999 26.6505 5.69501 27.2779C5.40544 27.5385 5.15447 27.8377 4.8842 28.1176C4.9035 28.137 4.92281 28.1563 4.93246 28.1756H25.0483V28.1852ZM13.639 22.7702C13.5039 23.2238 13.3688 23.6968 13.2433 24.1794C13.224 24.2663 13.2433 24.3918 13.3012 24.469C14.0444 25.5983 15.8784 25.5983 16.6217 24.469C16.6699 24.4014 16.7182 24.3049 16.6989 24.2373C16.5637 23.7354 16.4093 23.2335 16.2838 22.7798H13.639V22.7702ZM7.61586 5.14467C8.31084 4.35317 9.09269 3.67749 9.99038 3.15626C10.1641 3.05008 10.1062 2.9439 10.0483 2.81842C9.73941 2.12344 8.97686 1.68908 8.22397 1.77595C7.44212 1.86282 6.7954 2.46128 6.66026 3.21417C6.51547 4.02498 6.88227 4.76823 7.62551 5.15433L7.61586 5.14467ZM22.3166 5.14467C23.0695 4.73927 23.417 3.99603 23.2722 3.19487C23.1274 2.44197 22.4711 1.84352 21.6989 1.7663C20.9267 1.68908 20.1448 2.14274 19.8745 2.85703C19.8456 2.93425 19.8745 3.09834 19.9421 3.13695C20.8398 3.68715 21.6313 4.35317 22.3263 5.15433L22.3166 5.14467Z" fill="white"/>
<path d="M17.5287 12.915V14.6332H15.8105V12.915H17.5287Z" fill="white"/>
<path d="M15.3955 16.3611H17.1137V18.0792H15.3955V16.3611Z" fill="white"/>
<path d="M13.7932 17.7317V19.4402H12.0654V17.7317H13.7932Z" fill="white"/>
<path d="M12.0463 15.1835H10.3281V13.4653H12.0463V15.1835Z" fill="white"/>
</g>
<defs>
<clipPath id="clip0_1_597">
<rect width="30" height="30" fill="white"/>
</clipPath>
</defs>
</svg>
