<svg width="30" height="30" viewBox="0 0 30 30" fill="none" xmlns="http://www.w3.org/2000/svg">
<g clip-path="url(#clip0_2042_4164)">
<path d="M7.07541 30V28.2529H1.84375V26.4865H7.10437V24.7297H8.40746C8.35919 24.6332 8.33989 24.5656 8.30128 24.5077C7.49047 23.195 7.10437 21.7664 7.10437 20.2316C7.10437 19.8552 7.08506 19.4691 7.10437 19.0926C7.11402 18.8417 7.02715 18.6872 6.8341 18.5328C5.52136 17.5096 4.50784 16.2548 3.97695 14.6621C3.12753 12.1042 3.66807 9.80693 5.309 7.72199C6.22599 6.56369 7.38429 5.70461 8.69703 5.02894C8.80321 4.97102 8.92869 4.86485 8.95765 4.75867C9.55611 2.26832 11.1874 0.801139 13.6391 0.212336C16.1295 -0.38612 18.8129 0.646699 20.2221 2.68338C20.6372 3.28183 20.9364 3.9382 21.0715 4.65249C21.1102 4.84554 21.197 4.96137 21.3804 5.0579C23.06 5.92662 24.4789 7.07527 25.4538 8.72585C27.0465 11.4189 26.7858 14.5946 24.7588 17.0367C24.2858 17.6062 23.7163 18.0888 23.1758 18.5907C23.031 18.7258 22.9634 18.8417 22.9634 19.0347C22.9345 19.9131 22.9441 20.7915 22.838 21.6602C22.7028 22.7509 22.2588 23.7548 21.6314 24.7297H22.9634V26.4768H26.4866V24.7587H28.2627V30.0096H26.5059V28.2722H22.9924V30.0096H7.07541V30ZM15.0291 24.7201C16.3708 24.7201 17.7221 24.7201 19.0638 24.7201C19.2665 24.7201 19.4113 24.6621 19.5465 24.5077C20.6468 23.2915 21.197 21.8629 21.197 20.222C21.197 18.7259 21.1777 17.2394 21.2067 15.7432C21.2163 15.2509 21.0812 14.8648 20.7916 14.4787C19.2762 12.4421 17.3167 10.9845 15.0291 9.92276C14.8939 9.86485 14.7009 9.83589 14.5658 9.88415C11.9499 10.6757 10.1256 12.3455 9.02522 14.8359C8.948 15.0096 8.87078 15.2027 8.87078 15.3957C8.87078 17.1428 8.84182 18.8899 8.88043 20.6274C8.91904 22.1139 9.50784 23.3977 10.5117 24.5077C10.6468 24.6525 10.782 24.7201 10.9943 24.7201C12.336 24.7201 13.6874 24.7201 15.0291 24.7201ZM22.9634 16.3803C24.4596 14.9035 25.1739 12.693 24.4113 10.6081C23.8129 8.98647 22.6739 7.81851 21.2163 6.96909C17.8669 5.04824 14.3534 4.8745 10.7337 6.08106C10.4152 6.18724 10.116 6.33203 9.79742 6.45751C9.83603 6.50577 9.84568 6.51542 9.84568 6.51542C10.0966 6.56369 10.3476 6.6023 10.5889 6.65056C13.8032 7.28763 16.7858 8.47488 19.3824 10.5212C20.7241 11.583 21.892 12.7992 22.7511 14.2857C22.8766 14.5077 22.9345 14.7876 22.9538 15.0482C22.9827 15.4633 22.9538 15.8784 22.9538 16.361L22.9634 16.3803ZM12.2009 8.88029C12.2009 8.88029 12.1719 8.85133 12.1333 8.84168C10.6468 8.41697 9.13139 8.15635 7.59665 8.02122C7.50977 8.02122 7.4036 8.05983 7.34568 8.11774C5.00977 10.3089 4.61402 13.417 6.70861 15.9652C6.81479 16.1004 6.93062 16.2162 7.10437 16.4092C7.10437 16.0425 7.08506 15.7529 7.10437 15.4826C7.13333 15.1641 7.16228 14.8359 7.26846 14.5463C7.90553 12.8185 8.92869 11.3513 10.3573 10.1834C10.9461 9.71041 11.5928 9.305 12.2009 8.88029ZM21.1777 26.5058H14.1797V28.2239H21.1777V26.5058ZM11.0136 4.13126C13.726 3.39766 16.3515 3.39766 19.0542 4.1216C18.1082 2.54824 16.7569 1.82431 15.0387 1.82431C13.3206 1.82431 11.9692 2.5579 11.0136 4.13126ZM8.89973 26.4961V28.2143H12.3843V26.4961H8.89973Z" fill="white"/>
<path d="M16.2256 22.6352C15.3473 22.0174 14.7006 22.0174 13.8125 22.6545C13.4071 22.2491 13.0114 21.8437 12.606 21.4383C13.5712 20.2606 16.0036 19.9228 17.4612 21.4093C17.0558 21.8147 16.6504 22.2105 16.2256 22.6352Z" fill="white"/>
<path d="M13.2625 17.6544H10.666V15.9266H13.2625V17.6544Z" fill="white"/>
<path d="M16.8145 15.9266H19.4206V17.6448H16.8145V15.9266Z" fill="white"/>
</g>
<defs>
<clipPath id="clip0_2042_4164">
<rect width="30" height="30" fill="white"/>
</clipPath>
</defs>
</svg>
