<svg width="40" height="40" viewBox="0 0 40 40" fill="none" xmlns="http://www.w3.org/2000/svg">
<path d="M29.242 23.768C22.3491 23.803 21.2342 28.1072 20.8625 31.7466L20.6936 33.3562H19.3082L19.1393 31.7466C18.7677 28.1072 17.6189 23.803 10.9625 23.768C9.84749 21.3882 9.37445 19.4636 9.37445 17.294C9.37445 11.87 13.6656 6.79569 20.0177 6.79569C26.37 6.79569 30.5935 11.8348 30.5935 17.3291C30.5935 19.4636 30.3908 21.3882 29.242 23.768ZM19.9503 0.216797C9.47591 0.216797 0.893555 9.10537 0.893555 19.9884C0.893555 30.9067 9.47591 39.7951 19.9503 39.7951C30.5259 39.7951 39.0745 30.9067 39.0745 19.9884C39.0745 9.1054 30.5259 0.216797 19.9503 0.216797Z" fill="#29B24A"/>
</svg>
