<svg width="20" height="19" viewBox="0 0 20 19" fill="none" xmlns="http://www.w3.org/2000/svg">
<path d="M13.5096 18.1588H6.01987C4.55635 18.1573 3.15325 17.6057 2.11842 16.6252C1.08359 15.6447 0.501548 14.3153 0.5 12.9287L0.5 5.83274C0.501652 4.44622 1.08374 3.11693 2.11856 2.1365C3.15337 1.15608 4.55641 0.604592 6.01987 0.603027L13.5096 0.603027C14.9731 0.604494 16.3762 1.15594 17.4111 2.13637C18.446 3.11681 19.0282 4.44615 19.0298 5.83274V12.9287C19.0283 14.3154 18.4462 15.6448 17.4113 16.6253C16.3763 17.6059 14.9731 18.1574 13.5096 18.1588ZM6.01987 2.3688C5.05055 2.36988 4.12126 2.73518 3.43585 3.38456C2.75044 4.03394 2.36488 4.91438 2.36374 5.83274V12.9287C2.36488 13.8471 2.75045 14.7275 3.43588 15.3768C4.1213 16.0261 5.05059 16.3913 6.01987 16.3923H13.5096C14.4788 16.3913 15.408 16.0261 16.0934 15.3768C16.7788 14.7274 17.1643 13.847 17.1653 12.9287V5.83274C17.1643 4.91441 16.7788 4.03397 16.0934 3.38458C15.4081 2.73519 14.4788 2.36988 13.5096 2.3688H6.01987ZM9.76374 13.9208C8.81599 13.9205 7.88961 13.654 7.10174 13.1549C6.31387 12.6558 5.6999 11.9466 5.33744 11.1169C4.97498 10.2873 4.88033 9.37439 5.06544 8.49375C5.25056 7.61312 5.70713 6.80426 6.37742 6.16946C7.04772 5.53466 7.90164 5.10241 8.83121 4.92739C9.76078 4.75236 10.7242 4.84241 11.5998 5.18616C12.4754 5.5299 13.2237 6.11189 13.7501 6.85855C14.2766 7.60521 14.5575 8.483 14.5574 9.38093C14.5562 10.5848 14.0509 11.739 13.1524 12.5902C12.2538 13.4414 11.0356 13.9201 9.76491 13.9212L9.76374 13.9208ZM9.76374 6.60497C9.18455 6.60497 8.61837 6.76769 8.1368 7.07255C7.65523 7.37742 7.27988 7.81073 7.05824 8.3177C6.8366 8.82467 6.7786 9.38253 6.8916 9.92072C7.00459 10.4589 7.28349 10.9533 7.69304 11.3413C8.10258 11.7293 8.62438 11.9936 9.19243 12.1006C9.76049 12.2077 10.3493 12.1527 10.8844 11.9427C11.4195 11.7327 11.8768 11.3771 12.1986 10.9209C12.5204 10.4646 12.6921 9.92819 12.6921 9.37945C12.6909 8.6443 12.3821 7.9396 11.8334 7.41981C11.2847 6.90001 10.5408 6.60752 9.76491 6.60645L9.76374 6.60497ZM14.5652 5.96096C14.3381 5.96088 14.1161 5.89699 13.9272 5.77737C13.7384 5.65774 13.5913 5.48775 13.5044 5.28889C13.4175 5.09003 13.3949 4.87123 13.4393 4.66017C13.4837 4.44911 13.5931 4.25525 13.7538 4.10313C13.9145 3.951 14.1192 3.84743 14.342 3.80551C14.5648 3.7636 14.7957 3.78522 15.0055 3.86765C15.2153 3.95008 15.3947 4.0896 15.5208 4.26859C15.6469 4.44757 15.7142 4.65797 15.7141 4.87319C15.7141 5.16175 15.5933 5.43853 15.3781 5.64275C15.1629 5.84697 14.871 5.96194 14.5664 5.96243L14.5652 5.96096Z" fill="white"/>
</svg>
