<svg width="40" height="40" viewBox="0 0 40 40" fill="none" xmlns="http://www.w3.org/2000/svg">
<rect width="40" height="40" rx="20" fill="url(#paint0_linear_1_737)"/>
<path d="M22.9355 29H16.0641C14.7215 28.9985 13.4342 28.4644 12.4848 27.5149C11.5354 26.5655 11.0014 25.2782 11 23.9355L11 17.0641C11.0015 15.7215 11.5355 14.4343 12.4849 13.4849C13.4343 12.5355 14.7215 12.0015 16.0641 12H22.9355C24.2782 12.0014 25.5655 12.5354 26.5149 13.4848C27.4644 14.4342 27.9985 15.7215 28 17.0641V23.9355C27.9986 25.2782 27.4645 26.5656 26.5151 27.5151C25.5656 28.4645 24.2782 28.9986 22.9355 29V29ZM16.0641 13.7099C15.1749 13.7109 14.3223 14.0646 13.6935 14.6935C13.0646 15.3223 12.7109 16.1749 12.7099 17.0641V23.9355C12.7109 24.8247 13.0647 25.6773 13.6935 26.306C14.3223 26.9348 15.1749 27.2885 16.0641 27.2894H22.9355C23.8247 27.2885 24.6772 26.9348 25.306 26.306C25.9348 25.6772 26.2885 24.8247 26.2894 23.9355V17.0641C26.2885 16.1749 25.9348 15.3223 25.306 14.6935C24.6773 14.0647 23.8247 13.7109 22.9355 13.7099H16.0641ZM19.4989 24.8962C18.6294 24.8959 17.7795 24.6378 17.0567 24.1545C16.3339 23.6712 15.7706 22.9844 15.4381 22.181C15.1055 21.3776 15.0187 20.4937 15.1885 19.6409C15.3584 18.7882 15.7772 18.0049 16.3922 17.3902C17.0071 16.7755 17.7906 16.3569 18.6434 16.1875C19.4962 16.018 20.3801 16.1052 21.1834 16.438C21.9867 16.7709 22.6732 17.3345 23.1562 18.0575C23.6392 18.7805 23.8969 19.6305 23.8969 20.5C23.8957 21.6657 23.4321 22.7834 22.6078 23.6077C21.7834 24.4319 20.6657 24.8955 19.5 24.8965L19.4989 24.8962ZM19.4989 17.8119C18.9676 17.8119 18.4481 17.9695 18.0063 18.2647C17.5645 18.5599 17.2201 18.9795 17.0168 19.4704C16.8134 19.9614 16.7602 20.5015 16.8639 21.0227C16.9676 21.5439 17.2235 22.0226 17.5992 22.3983C17.9749 22.774 18.4536 23.0299 18.9748 23.1336C19.4959 23.2372 20.0361 23.184 20.5271 22.9807C21.018 22.7774 21.4376 22.433 21.7328 21.9912C22.028 21.5494 22.1856 21.0299 22.1856 20.4986C22.1844 19.7867 21.9011 19.1043 21.3977 18.601C20.8943 18.0976 20.2119 17.8144 19.5 17.8134L19.4989 17.8119ZM23.904 17.1883C23.6956 17.1882 23.4919 17.1264 23.3187 17.0105C23.1455 16.8947 23.0105 16.7301 22.9308 16.5375C22.8511 16.3449 22.8303 16.1331 22.871 15.9287C22.9117 15.7243 23.0122 15.5366 23.1596 15.3893C23.307 15.242 23.4948 15.1417 23.6992 15.1011C23.9036 15.0605 24.1154 15.0815 24.3079 15.1613C24.5005 15.2411 24.665 15.3762 24.7807 15.5495C24.8964 15.7228 24.9581 15.9266 24.9581 16.135C24.9581 16.4144 24.8472 16.6824 24.6498 16.8802C24.4524 17.0779 24.1845 17.1893 23.9051 17.1897L23.904 17.1883Z" fill="white"/>
<defs>
<linearGradient id="paint0_linear_1_737" x1="20" y1="0" x2="20" y2="40" gradientUnits="userSpaceOnUse">
<stop stop-color="#D803DF"/>
<stop offset="1" stop-color="#FFA800"/>
</linearGradient>
</defs>
</svg>
