<svg width="21" height="20" viewBox="0 0 21 20" fill="none" xmlns="http://www.w3.org/2000/svg">
<path d="M14.9088 11.7422L14.9014 11.8035C13.1044 10.9079 12.9165 10.7886 12.6844 11.1367C12.5234 11.3778 12.0544 11.9245 11.913 12.0863C11.77 12.2456 11.6278 12.2579 11.3851 12.1475C11.14 12.025 10.353 11.7676 9.42147 10.934C8.69582 10.2844 8.20879 9.48765 8.06497 9.2425C7.82554 8.82901 8.32646 8.77018 8.78244 7.90725C8.86416 7.73564 8.82248 7.60081 8.76201 7.47905C8.70072 7.35648 8.21287 6.15524 8.00858 5.67638C7.81246 5.19915 7.61062 5.25962 7.45944 5.25962C6.98876 5.21876 6.64473 5.2253 6.34156 5.54073C5.02265 6.99038 5.35523 8.4858 6.48374 10.076C8.70154 12.9786 9.88317 13.513 12.0438 14.255C12.6272 14.4405 13.1592 14.4144 13.58 14.3539C14.0491 14.2795 15.024 13.7647 15.2275 13.1886C15.4358 12.6125 15.4358 12.1345 15.3745 12.0241C15.3141 11.9138 15.1539 11.8525 14.9088 11.7422Z" fill="white"/>
<path d="M17.3709 2.86931C11.0876 -3.20471 0.689159 1.20065 0.685073 9.76949C0.685073 11.4823 1.1337 13.1526 1.98846 14.6276L0.602539 19.663L5.77931 18.313C12.239 21.8023 20.2113 17.169 20.2146 9.77439C20.2146 7.17906 19.2013 4.73654 17.3586 2.90118L17.3709 2.86931ZM18.5819 9.74742C18.577 15.9849 11.7299 19.8803 6.31455 16.6966L6.02037 16.5218L2.95599 17.3185L3.77724 14.3399L3.58194 14.0335C0.211932 8.66876 4.08368 1.65745 10.4674 1.65745C12.6362 1.65745 14.6717 2.50322 16.2048 4.03541C17.7369 5.55453 18.5819 7.59009 18.5819 9.74742Z" fill="white"/>
</svg>
