<svg width="28" height="28" viewBox="0 0 28 28" fill="none" xmlns="http://www.w3.org/2000/svg">
<g clip-path="url(#clip0_2020_18347)">
<path d="M20.6833 0.207341C21.264 0.550972 21.3588 0.787959 21.2047 1.47522C21.0033 2.3817 20.7604 3.28817 20.6241 4.20649C20.2568 6.70078 20.6122 9.11212 21.6965 11.3931C22.3423 12.7499 22.8873 14.1362 23.1599 15.6233C23.622 18.1769 23.4205 20.6771 22.5852 23.1299C22.1349 24.4511 21.7083 25.7841 21.2699 27.1113C21.104 27.6149 20.8611 27.7926 20.3397 27.7926C16.1095 27.7926 11.8793 27.7926 7.65499 27.7926C7.18102 27.7926 6.90256 27.6326 6.77221 27.2357C6.1916 25.4464 5.53988 23.675 5.05998 21.8561C4.15351 18.4376 4.53269 15.1138 6.05533 11.9263C6.76036 10.4511 7.26396 8.92253 7.43578 7.28732C7.61352 5.61657 7.44763 3.97543 7.02697 2.35207C6.94995 2.04991 6.87886 1.74183 6.80184 1.43967C6.63595 0.776109 6.73074 0.539122 7.31728 0.201416H20.6833V0.207341ZM8.56146 1.83663C9.49756 5.32626 9.28427 8.72109 7.79718 12.0389C11.9504 13.9052 16.0621 13.9111 20.2094 12.0389C19.4688 10.4096 19.0363 8.73887 18.9119 6.99701C18.7815 5.24924 18.983 3.53108 19.4451 1.83663H8.56146ZM21.7202 16.909C21.5957 15.7181 21.3173 14.5984 20.8789 13.5082C16.2813 15.5582 11.7075 15.5582 7.12769 13.5082C6.70112 14.6161 6.40488 15.73 6.29232 16.9208C7.72016 16.7846 9.07691 16.9386 10.3981 17.3533C11.7312 17.774 12.9279 18.4494 14.0003 19.3618C16.2458 17.5015 18.8111 16.6839 21.7261 16.909H21.7202ZM13.1768 26.1752C13.1886 26.11 13.1946 26.0863 13.1946 26.0626C13.1946 24.3682 13.1946 22.6678 13.1946 20.9733C13.1946 20.8726 13.1175 20.7363 13.0346 20.6652C11.1387 19.0241 8.94064 18.3191 6.44043 18.5205C6.26862 18.5324 6.19752 18.5857 6.22714 18.7634C6.33971 19.581 6.35749 20.4223 6.5767 21.2103C7.02105 22.8337 7.57204 24.4274 8.09342 26.0271C8.11711 26.0982 8.26523 26.1633 8.3541 26.1693C9.3613 26.1811 10.3626 26.1752 11.3698 26.1752C11.9682 26.1752 12.5725 26.1752 13.1886 26.1752H13.1768ZM21.8327 18.5797C21.7202 18.556 21.6728 18.5383 21.6194 18.5324C19.1133 18.3131 16.9034 19.0182 14.9897 20.6475C14.8535 20.766 14.8061 20.8844 14.8061 21.0622C14.812 22.6678 14.8061 24.2734 14.8061 25.8849V26.1811C16.2102 26.1811 17.5729 26.1811 18.9356 26.1811C19.2496 26.1811 19.6347 26.27 19.848 26.1219C20.0494 25.9797 20.079 25.5827 20.1679 25.2924C20.6359 23.752 21.1336 22.2175 21.5543 20.6593C21.732 19.9957 21.7379 19.2789 21.8268 18.5857L21.8327 18.5797Z" fill="#0C4E4B"/>
<path d="M20.3454 28.0001H7.66064C7.08594 28.0001 6.73046 27.769 6.58235 27.301C6.41645 26.7974 6.25056 26.2997 6.08467 25.802C5.6581 24.5341 5.21967 23.2307 4.87012 21.9154C3.96957 18.5147 4.30727 15.1258 5.88323 11.8435C6.64159 10.2616 7.08594 8.76858 7.24591 7.26964C7.4118 5.68775 7.28146 4.09994 6.84303 2.41141C6.78971 2.21589 6.74231 2.02038 6.70084 1.82486L6.62382 1.49308C6.44015 0.740649 6.57642 0.414792 7.23406 0.023764L7.28146 -0.00585938H20.7601L20.8075 0.023764C21.4592 0.408868 21.5955 0.740649 21.4236 1.51678C21.3703 1.76562 21.3111 2.00853 21.2518 2.25144C21.0978 2.89723 20.9438 3.57264 20.843 4.23621C20.4816 6.69495 20.8371 9.07074 21.8976 11.2984C22.6856 12.9455 23.1359 14.2667 23.3729 15.582C23.835 18.1414 23.6395 20.7009 22.7922 23.1952C22.4901 24.0839 22.1998 24.9726 21.9095 25.8672L21.4829 27.1765C21.2874 27.7631 20.9615 28.0001 20.3513 28.0001H20.3454ZM7.37625 0.414792C6.92005 0.687327 6.87265 0.841369 7.00892 1.39829L7.09187 1.73007C7.13926 1.92558 7.18666 2.11517 7.23406 2.31069C7.68433 4.05254 7.8206 5.68775 7.64879 7.31704C7.4829 8.85745 7.0267 10.3979 6.25056 12.0212C4.722 15.2146 4.39022 18.5028 5.26707 21.8088C5.6107 23.1063 6.04913 24.4097 6.4757 25.6717C6.64752 26.1753 6.81341 26.6729 6.9793 27.1765C7.06224 27.4254 7.21036 27.5913 7.66656 27.5913H20.3513C20.7838 27.5913 20.9497 27.4728 21.0859 27.0521L21.5125 25.7428C21.8028 24.8481 22.0931 23.9535 22.3953 23.0648C23.2188 20.6416 23.4084 18.1473 22.9581 15.659C22.7271 14.3852 22.2827 13.0936 21.5125 11.4821C20.4165 9.17738 20.0432 6.71864 20.4224 4.17696C20.5231 3.49562 20.6831 2.81428 20.8371 2.16257C20.8964 1.91966 20.9497 1.67675 21.003 1.43384C21.1333 0.847293 21.08 0.693252 20.6297 0.420717H7.37625V0.414792ZM19.4804 26.4123C19.3856 26.4123 19.2908 26.4063 19.19 26.4004C19.1012 26.3945 19.0182 26.3886 18.9353 26.3886C17.9459 26.3886 16.9564 26.3886 15.9493 26.3886H14.5984V24.7711C14.5984 23.5329 14.5984 22.3005 14.5984 21.0623C14.5984 20.8194 14.6754 20.6416 14.8532 20.4935C16.8024 18.8346 19.0893 18.1059 21.6369 18.331C21.6784 18.331 21.7199 18.3429 21.7791 18.3606L22.0576 18.4258L22.0339 18.6095C22.0102 18.8227 21.9865 19.042 21.9687 19.2612C21.9272 19.7411 21.8798 20.2387 21.7554 20.7127C21.4473 21.874 21.0859 23.0352 20.7364 24.1668C20.612 24.5638 20.4935 24.9548 20.3691 25.3517C20.3454 25.4228 20.3276 25.4999 20.3098 25.5828C20.2446 25.8553 20.1795 26.1397 19.9662 26.2938C19.824 26.3945 19.6522 26.4182 19.4744 26.4182L19.4804 26.4123ZM18.9412 25.9679C19.0301 25.9679 19.1249 25.9738 19.2197 25.9798C19.4152 25.9916 19.6344 26.0094 19.7292 25.9442C19.8121 25.885 19.8655 25.6598 19.9069 25.4821C19.9306 25.3932 19.9484 25.3043 19.9721 25.2273C20.0906 24.8304 20.215 24.4334 20.3394 24.0365C20.689 22.9108 21.0445 21.7495 21.3585 20.6002C21.477 20.1617 21.5184 19.6996 21.5599 19.2197C21.5718 19.0597 21.5895 18.8998 21.6073 18.7398C19.1723 18.5265 16.992 19.2197 15.1316 20.8075C15.0487 20.8786 15.0191 20.9379 15.0191 21.0623C15.0191 22.3005 15.0191 23.5329 15.0191 24.7711V25.9738H15.9552C16.9624 25.9738 17.9518 25.9738 18.9412 25.9738V25.9679ZM10.0483 26.3826C9.47951 26.3826 8.90482 26.3826 8.33605 26.3767C8.18793 26.3767 7.9391 26.276 7.87985 26.0923L7.53029 25.02C7.12742 23.7935 6.71269 22.5257 6.36313 21.2637C6.21502 20.7127 6.15577 20.144 6.09652 19.587C6.07282 19.3204 6.0432 19.0538 6.00765 18.7931C6.00173 18.7398 5.97803 18.5858 6.07875 18.4613C6.16762 18.3488 6.30389 18.3251 6.41053 18.3132C8.96406 18.1059 11.2332 18.8405 13.1528 20.5054C13.2654 20.6061 13.3839 20.7838 13.3839 20.9675C13.3898 22.4072 13.3898 23.8469 13.3898 25.2925V26.0627C13.3898 26.0627 13.3898 26.116 13.3779 26.1575L13.3483 26.3352L13.1647 26.3886H10.6941C10.4749 26.3886 10.2556 26.3886 10.0424 26.3886L10.0483 26.3826ZM8.28865 25.9501C8.28865 25.9501 8.33012 25.9561 8.34197 25.962C9.12995 25.9679 9.91201 25.9679 10.7 25.9679H12.9751V25.2925C12.9751 23.8528 12.9751 22.4131 12.9691 20.9734C12.9691 20.9497 12.9336 20.8668 12.8803 20.8253C11.0436 19.2375 8.88112 18.5324 6.44015 18.7339C6.4283 18.7339 6.42238 18.7339 6.41645 18.7339C6.452 19.0301 6.48163 19.2908 6.50532 19.5456C6.55865 20.0847 6.61789 20.6416 6.76009 21.1571C7.10372 22.4131 7.51844 23.6751 7.92132 24.8955L8.27088 25.9679C8.27088 25.9679 8.27088 25.9561 8.28273 25.9561L8.28865 25.9501ZM13.9941 19.6285L13.8638 19.5159C12.8033 18.6154 11.6124 17.9518 10.3327 17.5489C9.01146 17.1342 7.69618 16.992 6.30981 17.1224L6.06097 17.1461L6.08467 16.8972C6.18539 15.7775 6.46385 14.6399 6.9319 13.4313L7.00892 13.2299L7.21036 13.3187C11.7131 15.3331 16.281 15.3331 20.7956 13.3187L20.9911 13.2299L21.0741 13.4313C21.5244 14.5451 21.8028 15.6767 21.9332 16.8854L21.9569 17.1342L21.708 17.1164C18.8346 16.8913 16.3581 17.6793 14.1304 19.5219L13.9941 19.6344V19.6285ZM7.29923 16.6602C8.3716 16.6602 9.41434 16.8202 10.4512 17.152C11.7309 17.5549 12.9217 18.2066 13.9941 19.0894C16.1744 17.3357 18.6983 16.524 21.4829 16.6839C21.3585 15.6767 21.1215 14.7229 20.7601 13.7868C16.2692 15.736 11.719 15.736 7.23406 13.7868C6.86081 14.7999 6.62382 15.7538 6.51717 16.6958C6.77786 16.678 7.03855 16.6662 7.29923 16.6662V16.6602ZM14 13.6327C11.8968 13.6327 9.79944 13.1647 7.70803 12.2227L7.51844 12.1397L7.60139 11.9501C9.03516 8.75081 9.28992 5.36189 8.35382 1.88411L8.28273 1.62343H19.7055L19.6344 1.88411C19.1663 3.60819 18.9886 5.32042 19.1071 6.97341C19.2315 8.69748 19.6522 10.3268 20.3868 11.9442L20.4757 12.1338L20.2861 12.2167C18.2006 13.1588 16.1033 13.6327 14 13.6327ZM8.06351 11.9264C12.0627 13.6742 15.9493 13.6683 19.9306 11.9264C19.2256 10.3268 18.8227 8.71526 18.6983 7.00895C18.5798 5.39152 18.7398 3.72076 19.1663 2.04408H8.8278C9.68687 5.45669 9.43211 8.78043 8.06944 11.9324L8.06351 11.9264Z" fill="#0C4E4B"/>
<path d="M27.7981 7.7497C27.5552 8.02816 27.3182 8.31846 27.0635 8.591C26.6369 9.0472 26.2044 9.49747 25.766 9.9596C26.1096 9.9596 26.471 9.9596 26.8324 9.9596C27.3775 9.9596 27.7448 10.2914 27.7448 10.7713C27.7448 11.2512 27.3775 11.577 26.8265 11.577C25.8193 11.577 24.818 11.577 23.8108 11.577C23.2184 11.577 22.8984 11.2512 22.8984 10.6587C22.8984 9.65152 22.8984 8.65025 22.8984 7.64305C22.8984 7.09798 23.2243 6.73065 23.7042 6.73065C24.1841 6.73065 24.5099 7.09798 24.5099 7.64305C24.5099 8.01631 24.5099 8.39549 24.5099 8.82206C24.6166 8.72727 24.6877 8.66802 24.7529 8.60285C25.2446 8.11703 25.7364 7.6312 26.2281 7.14538C26.8561 6.52329 27.3479 6.57661 27.7981 7.3172V7.7497Z" fill="#0C4E4B"/>
<path d="M25.2332 11.7843C24.7592 11.7843 24.2852 11.7843 23.8053 11.7843C23.1062 11.7843 22.6855 11.3636 22.6855 10.6586C22.6855 9.65141 22.6855 8.64421 22.6855 7.64294C22.6855 6.9853 23.1062 6.52318 23.6987 6.52318C24.2911 6.52318 24.7118 6.9853 24.7118 7.64294V8.34798L26.0804 7.00308C26.4477 6.63575 26.7854 6.48171 27.1113 6.52318C27.4312 6.56465 27.7097 6.78979 27.9704 7.21637L28 7.26376V7.83253L27.7274 8.15246C27.5616 8.34798 27.3897 8.54942 27.212 8.73901C26.9098 9.05894 26.6077 9.37887 26.2996 9.6988L26.2463 9.75805H26.8269C27.1646 9.75805 27.4668 9.87062 27.6682 10.078C27.8519 10.2616 27.9467 10.5046 27.9467 10.7771C27.9467 11.3696 27.4786 11.7843 26.821 11.7843C26.2877 11.7843 25.7605 11.7843 25.2272 11.7843H25.2332ZM23.7046 6.93791C23.3432 6.93791 23.1062 7.21636 23.1062 7.64294C23.1062 8.65014 23.1062 9.65141 23.1062 10.6586C23.1062 11.1385 23.3373 11.3696 23.8112 11.3696C24.8184 11.3696 25.8197 11.3696 26.8269 11.3696C27.2653 11.3696 27.5379 11.1385 27.5379 10.7712C27.5379 10.6112 27.4845 10.469 27.3838 10.3624C27.2594 10.2379 27.0639 10.1669 26.8387 10.1669H26.0804H25.2865L26.0093 9.40849C26.3174 9.08856 26.6195 8.77455 26.9158 8.4487C27.0876 8.26503 27.2535 8.06952 27.4194 7.874L27.5971 7.66664V7.37041C27.4194 7.09195 27.2475 6.94383 27.0698 6.92013C26.8861 6.89643 26.6492 7.02085 26.3825 7.28746L24.9073 8.74493C24.8599 8.79233 24.8125 8.8338 24.7533 8.8812L24.3089 9.27815V7.63109C24.3089 7.19859 24.0719 6.92013 23.7105 6.92013L23.7046 6.93791Z" fill="#0C4E4B"/>
<path d="M2.29847 9.9595C1.96076 9.6218 1.66453 9.31372 1.36237 9.01156C1.08391 8.7331 0.799524 8.46056 0.51514 8.1821C0.130036 7.797 0.100413 7.30525 0.438119 6.96755C0.775826 6.62984 1.26165 6.65354 1.6586 7.03864C2.1859 7.55409 2.70727 8.06953 3.23456 8.58498C3.30566 8.65015 3.37676 8.72125 3.49525 8.83382C3.49525 8.36577 3.4834 7.95104 3.49525 7.53631C3.51302 6.94977 4.08772 6.56467 4.61501 6.80165C4.91717 6.93792 5.10084 7.18083 5.10084 7.51262C5.11269 8.60868 5.11269 9.70474 5.10084 10.7949C5.10084 11.2392 4.74536 11.571 4.30101 11.5769C3.22272 11.5829 2.14442 11.5829 1.07206 11.5769C0.609935 11.5769 0.266304 11.2155 0.260379 10.7771C0.260379 10.3268 0.609935 9.97135 1.08983 9.96543C1.48086 9.9595 1.87189 9.96543 2.30439 9.96543L2.29847 9.9595Z" fill="#0C4E4B"/>
<path d="M2.67203 11.7842C2.13881 11.7842 1.60559 11.7842 1.07237 11.7842C0.503597 11.7842 0.0592467 11.3399 0.0533221 10.777C0.0533221 10.2142 0.503597 9.76391 1.08422 9.75799C1.3212 9.75799 1.55819 9.75799 1.80703 9.75799C1.60559 9.55062 1.416 9.36103 1.22048 9.16552C1.07237 9.0174 0.918324 8.86929 0.764283 8.72117L0.373254 8.33606C0.136267 8.09315 0 7.80284 0 7.51846C0 7.25777 0.100719 7.02079 0.296234 6.82527C0.716885 6.40462 1.33305 6.43425 1.80703 6.89044C2.14473 7.22223 2.48244 7.55401 2.82014 7.88579L3.28819 8.34791C3.28819 8.06353 3.28819 7.79692 3.28819 7.53031C3.30004 7.18075 3.47778 6.86082 3.76809 6.67716C4.05248 6.49942 4.39018 6.46979 4.70419 6.61199C5.09522 6.7838 5.31443 7.10373 5.31443 7.51254C5.32628 8.6086 5.32628 9.70466 5.31443 10.8007C5.31443 11.3517 4.86416 11.7842 4.30724 11.7842C3.76217 11.7842 3.2171 11.7901 2.67203 11.7901V11.7842ZM1.54634 10.1609C1.3923 10.1609 1.24418 10.1609 1.09014 10.1609C0.734659 10.1609 0.462124 10.4275 0.468049 10.7652C0.468049 11.097 0.734659 11.3576 1.07237 11.3576C2.15066 11.3636 3.22302 11.3636 4.30131 11.3576C4.63902 11.3576 4.89378 11.1088 4.89378 10.783C4.90563 9.68689 4.90563 8.59675 4.89378 7.50069C4.89378 7.25777 4.76936 7.08003 4.52645 6.97339C4.34278 6.89044 4.14727 6.90822 3.98138 7.00894C3.80364 7.12151 3.70292 7.30517 3.697 7.52438C3.69107 7.80284 3.697 8.08723 3.697 8.38346V9.30179L2.52391 8.17017C2.1862 7.83839 1.8485 7.50661 1.51079 7.17483C1.19678 6.86675 0.841304 6.84305 0.586543 7.10373C0.473974 7.2163 0.408802 7.35849 0.414727 7.50661C0.414727 7.68435 0.503597 7.86802 0.663563 8.02798L1.04867 8.40716C1.20271 8.55528 1.35675 8.70932 1.50487 8.85744C1.71223 9.0648 1.91959 9.27216 2.13881 9.4973L2.79052 10.1609H1.90182C1.7774 10.1609 1.65891 10.1609 1.54041 10.1609H1.54634Z" fill="#0C4E4B"/>
<path d="M14.0122 11.5768C13.5738 11.5768 13.2065 11.2214 13.1946 10.7889C13.1828 10.3445 13.556 9.96533 14.0063 9.96533C14.4447 9.96533 14.8061 10.3327 14.812 10.7711C14.812 11.2095 14.4506 11.5768 14.0122 11.5828V11.5768Z" fill="#0C4E4B"/>
<path d="M14.0004 11.7841C13.4613 11.7841 12.9992 11.3338 12.9873 10.7888C12.9873 10.5222 13.088 10.2556 13.2835 10.06C13.4731 9.86452 13.7397 9.75195 14.0063 9.75195C14.5633 9.75195 15.0135 10.2082 15.0195 10.7651C15.0195 11.322 14.5751 11.7782 14.0182 11.7841H14.0063H14.0004ZM14.0004 10.1667C13.8405 10.1667 13.6923 10.2319 13.5738 10.3503C13.4554 10.4688 13.3961 10.6229 13.402 10.7828C13.408 11.1028 13.6805 11.3753 14.0063 11.3694C14.3263 11.3694 14.5988 11.0909 14.5988 10.7651C14.5988 10.4451 14.3263 10.1667 14.0004 10.1667Z" fill="#0C4E4B"/>
</g>
<defs>
<clipPath id="clip0_2020_18347">
<rect width="28.0059" height="28" fill="white"/>
</clipPath>
</defs>
</svg>
