<svg width="28" height="28" viewBox="0 0 28 28" fill="none" xmlns="http://www.w3.org/2000/svg">
<g clip-path="url(#clip0_2020_18757)">
<path d="M0.207031 16.4232C1.29125 16.4232 2.38139 16.4291 3.4656 16.4232C3.54855 16.4232 3.65519 16.3521 3.70851 16.281C4.09954 15.7596 4.46687 15.2145 4.86975 14.705C5.00602 14.5332 5.07711 14.3732 5.07711 14.154C5.07119 12.2344 5.07119 10.3089 5.07711 8.3893C5.07711 6.76594 6.108 5.49214 7.68397 5.14258C7.87948 5.10111 8.08685 5.08926 8.32383 5.06556C8.32383 5.59286 8.32383 6.0846 8.31791 6.57635C8.31791 6.62375 8.22311 6.69485 8.16387 6.70669C7.1626 6.91406 6.70047 7.4769 6.70047 8.49002C6.70047 10.4037 6.70047 12.3174 6.70047 14.2251C6.70047 14.3554 6.75972 14.4976 6.83674 14.6102C7.23962 15.179 7.64842 15.7418 8.075 16.2987C8.12832 16.3698 8.25866 16.4291 8.35346 16.4291C9.58579 16.435 10.8122 16.4291 12.0445 16.4291C12.1452 16.4291 12.24 16.4291 12.3822 16.4291C12.3822 16.7253 12.3822 17.0097 12.3822 17.2941C12.4 18.0524 12.9688 18.716 13.7094 18.8404C14.4796 18.9708 15.2379 18.556 15.5045 17.8273C15.5697 17.6436 15.5993 17.4422 15.6171 17.2526C15.6349 16.9919 15.6171 16.7312 15.6171 16.4291C15.7237 16.4291 15.8185 16.4291 15.9133 16.4291C17.1516 16.4291 18.3899 16.4291 19.6281 16.4291C19.8058 16.4291 19.8829 16.358 19.9777 16.2158C20.3331 15.6944 20.7123 15.179 21.1034 14.6813C21.2278 14.5273 21.3048 14.391 21.3048 14.1836C21.2989 12.2463 21.2929 10.303 21.3048 8.3656C21.3107 6.74817 22.3298 5.49214 23.8998 5.13666C24.1012 5.08926 24.3027 5.08333 24.5337 5.05371V6.67115C24.4626 6.683 24.3915 6.70077 24.3264 6.71262C23.5384 6.82519 22.9459 7.45913 22.94 8.25303C22.9222 10.2733 22.9341 12.2937 22.94 14.314C22.94 14.4088 22.9933 14.5213 23.0585 14.5924C23.5384 15.1138 23.9887 15.6589 24.3086 16.3047C24.3441 16.3698 24.4804 16.4172 24.5693 16.4172C25.5409 16.4232 26.5067 16.4172 27.4783 16.4172C27.5731 16.4172 27.6738 16.4172 27.7805 16.4172V27.7808H0.207031C0.207031 23.989 0.207031 20.2031 0.207031 16.4113V16.4232ZM1.82447 18.0643C1.82447 19.3085 1.82447 20.523 1.82447 21.7317C1.82447 21.7909 1.89556 21.8857 1.95481 21.9094C2.5058 22.1168 3.0805 22.2649 3.61372 22.5137C4.79273 23.0647 5.94804 23.0766 7.10335 22.4841C7.26924 22.4012 7.44106 22.3123 7.61287 22.2412C9.15921 21.6369 10.6819 21.6902 12.163 22.4604C13.3657 23.0825 14.5625 23.0884 15.7771 22.4841C16.1977 22.2767 16.648 22.0812 17.1042 21.9805C18.4669 21.6783 19.7644 21.8857 21.0145 22.5433C22.0928 23.1062 23.2007 23.0529 24.3086 22.5433C24.83 22.3064 25.3691 22.1108 25.9142 21.945C26.1097 21.8857 26.1689 21.8383 26.1689 21.6369C26.1571 20.5349 26.1689 19.427 26.1689 18.325C26.1689 18.242 26.1571 18.1532 26.1512 18.0524C25.5943 18.0524 25.067 18.0465 24.5397 18.0584C24.4686 18.0584 24.3797 18.1472 24.3441 18.2243C23.882 19.1544 23.1474 19.6758 22.1046 19.6699C21.0737 19.6699 20.3391 19.1544 19.8947 18.2302C19.8295 18.0939 19.7585 18.0524 19.6103 18.0524C18.8757 18.0584 18.1351 18.0643 17.4004 18.0524C17.2049 18.0524 17.1279 18.1117 17.0627 18.2954C16.6184 19.6225 15.3801 20.4993 13.9878 20.4934C12.5955 20.4934 11.375 19.6106 10.9188 18.2835C10.8951 18.2124 10.8655 18.1354 10.83 18.0584C10.0242 18.0584 9.23623 18.0643 8.44825 18.0584C8.24681 18.0584 8.15202 18.1235 8.06907 18.3013C7.5003 19.4981 6.11393 20.0135 4.9053 19.4862C4.26543 19.2078 3.83886 18.716 3.57817 18.0761H1.81854L1.82447 18.0643ZM1.83039 26.1515H26.1512V23.4972C25.7483 23.675 25.375 23.829 25.0136 24.0008C23.4199 24.7473 21.8321 24.7473 20.2443 23.9771C19.948 23.8349 19.6459 23.675 19.3319 23.592C18.3484 23.3432 17.3945 23.432 16.494 23.9297C15.9311 24.2378 15.3268 24.4333 14.6869 24.5044C13.502 24.6407 12.3941 24.4096 11.3336 23.8586C10.2434 23.2958 9.12959 23.3195 8.02167 23.8408C7.63657 24.0245 7.24554 24.22 6.83081 24.3326C5.42074 24.7177 4.06399 24.5874 2.76057 23.8942C2.47618 23.7401 2.15625 23.6394 1.83039 23.5031V26.1455V26.1515ZM22.1105 15.9373C21.8439 16.3224 21.6069 16.6364 21.4055 16.9742C21.2218 17.2822 21.3107 17.6259 21.5951 17.8629C21.8913 18.1117 22.312 18.1117 22.6141 17.8747C22.9104 17.6377 23.0111 17.2822 22.8215 16.9682C22.6201 16.6305 22.3772 16.3165 22.1165 15.9373H22.1105ZM5.88879 15.9373C5.63403 16.3047 5.39112 16.6187 5.18968 16.9564C4.99417 17.2763 5.08304 17.6259 5.37927 17.8688C5.6755 18.1117 6.10208 18.1117 6.39831 17.8688C6.70047 17.6259 6.78934 17.2822 6.59383 16.9623C6.39239 16.6246 6.14948 16.3106 5.89472 15.9433L5.88879 15.9373Z" fill="#0C4E4B"/>
<path d="M27.9882 28.0001H0V16.2159H0.859078C1.73 16.2159 2.59501 16.2218 3.46593 16.2159C3.48371 16.2159 3.52518 16.1804 3.54295 16.1567C3.697 15.9552 3.84511 15.7478 3.99323 15.5405C4.22429 15.2146 4.46128 14.8888 4.70419 14.5748C4.82268 14.4207 4.86416 14.3141 4.86416 14.1541C4.85823 12.2345 4.85823 10.309 4.86416 8.38941C4.86416 6.66533 5.9543 5.3145 7.6369 4.94125C7.7791 4.91162 7.92129 4.89385 8.08125 4.882C8.15235 4.87608 8.22345 4.87015 8.30047 4.8583L8.53153 4.82868V5.40337C8.53153 5.80625 8.53153 6.19135 8.5256 6.57646C8.5256 6.74827 8.33601 6.87861 8.20567 6.90824C7.29327 7.09783 6.90817 7.5718 6.90817 8.49013C6.90817 10.4038 6.90817 12.3115 6.90817 14.2252C6.90817 14.3022 6.94964 14.4089 7.00296 14.4859C7.39992 15.0487 7.81464 15.6175 8.23529 16.1685C8.24714 16.1863 8.31232 16.2159 8.35379 16.2159C9.33136 16.2218 10.3089 16.2159 11.2865 16.2159H12.5899V16.7017C12.5899 16.8972 12.5899 17.0868 12.5899 17.2823C12.6077 17.94 13.1054 18.5206 13.7452 18.6332C14.4207 18.7457 15.0783 18.3784 15.3094 17.7563C15.3627 17.62 15.3923 17.4542 15.4041 17.2349C15.416 17.0631 15.416 16.8913 15.4101 16.7017V16.2218H16.8083C17.7503 16.2218 18.6864 16.2218 19.6284 16.2218C19.6995 16.2218 19.7232 16.2218 19.8062 16.1033C20.1557 15.5879 20.5408 15.0665 20.9437 14.557C21.0622 14.4089 21.0978 14.3141 21.0978 14.1897C21.0918 12.2523 21.0859 10.309 21.0978 8.37163C21.1037 6.66533 22.1879 5.3145 23.8527 4.94125C23.9949 4.91162 24.143 4.89385 24.2971 4.87608L24.7414 4.82275V6.84307L24.5104 6.89046C24.457 6.90231 24.4037 6.91416 24.3504 6.92009C23.6454 7.02081 23.1477 7.5718 23.1418 8.25906C23.1299 10.2261 23.1299 12.193 23.1418 14.16V14.32C23.1418 14.3556 23.1714 14.4207 23.2069 14.4622C23.6394 14.9302 24.1371 15.5109 24.4926 16.2218C24.4926 16.204 24.54 16.2218 24.5696 16.2218C25.3339 16.2277 26.0923 16.2277 26.8565 16.2218H27.9882V28.0001ZM0.414727 27.5853H27.5734V16.6365H26.8565C26.0923 16.6365 25.328 16.6365 24.5637 16.6365C24.4333 16.6365 24.2023 16.5714 24.1193 16.4114C23.7816 15.7478 23.3136 15.1969 22.8989 14.7466C22.7922 14.634 22.727 14.4681 22.727 14.3259V14.166C22.7211 12.199 22.7152 10.232 22.727 8.26499C22.733 7.38221 23.3906 6.64755 24.2912 6.51721H24.3208V5.29673C24.1904 5.30858 24.066 5.32043 23.9416 5.35005C22.4723 5.68183 21.5184 6.86677 21.5066 8.37756C21.5006 10.3149 21.5066 12.2523 21.5066 14.1956C21.5066 14.4563 21.4118 14.634 21.2636 14.8236C20.8667 15.3272 20.4934 15.8426 20.1439 16.3462C20.0372 16.5003 19.9128 16.6484 19.6284 16.6484C18.6864 16.6425 17.7503 16.6425 16.8083 16.6484H15.8248V16.7076C15.8248 16.9091 15.8248 17.0927 15.8189 17.2764C15.8011 17.5371 15.7596 17.7326 15.6945 17.9104C15.3923 18.722 14.5391 19.2019 13.6682 19.0538C12.8328 18.9116 12.1871 18.1592 12.1693 17.306C12.1693 17.1105 12.1693 16.915 12.1693 16.7136V16.6425H11.2865C10.3089 16.6425 9.32543 16.6425 8.34786 16.6425C8.20567 16.6425 8.01016 16.5714 7.90351 16.4351C7.48286 15.8782 7.06221 15.3094 6.66526 14.7407C6.55861 14.5925 6.49344 14.4029 6.49344 14.2371C6.48752 12.3234 6.48752 10.4097 6.49344 8.50198C6.49344 7.39406 7.02666 6.74827 8.11088 6.51721C8.1168 6.1558 8.1168 5.7944 8.1168 5.42115V5.30858C7.98053 5.32043 7.85019 5.33228 7.72577 5.3619C6.2446 5.69368 5.28481 6.89046 5.27888 8.40718C5.27888 10.3268 5.27888 12.2464 5.27888 14.1719C5.27888 14.4266 5.20779 14.6281 5.03005 14.8532C4.78714 15.1613 4.55607 15.4812 4.33094 15.8012C4.18282 16.0085 4.02878 16.2218 3.87474 16.4292C3.79772 16.5358 3.63182 16.6543 3.46593 16.6543C2.59501 16.6543 1.72408 16.6543 0.859078 16.6543H0.414727V27.6031V27.5853ZM26.3648 26.3589H1.62928V23.2011L1.91367 23.3196C2.02031 23.3611 2.12103 23.4025 2.22175 23.444C2.44689 23.5329 2.66018 23.6099 2.86162 23.7225C4.08802 24.3801 5.40923 24.5223 6.77783 24.1431C7.11553 24.0483 7.45916 23.8883 7.78502 23.7343L7.93314 23.6632C9.12992 23.0944 10.3089 23.1004 11.4287 23.681C12.4833 24.2261 13.5438 24.4334 14.6636 24.3031C15.2679 24.232 15.8485 24.0483 16.3936 23.7521C17.3178 23.2485 18.325 23.1241 19.3855 23.3966C19.6818 23.4736 19.9543 23.604 20.215 23.7343L20.3394 23.7936C21.8798 24.5341 23.3788 24.5401 24.931 23.8113C25.1799 23.6928 25.4287 23.5862 25.6894 23.4736L26.3648 23.1774V26.3589ZM2.04401 25.9442H25.9501V23.8173L25.8553 23.8587C25.5946 23.9713 25.3517 24.0779 25.1088 24.1905C23.4617 24.9666 21.7969 24.9607 20.1617 24.1668L20.0372 24.1076C19.7943 23.9891 19.5396 23.8646 19.2848 23.7995C18.3309 23.5566 17.4245 23.6632 16.595 24.1135C16.0025 24.4393 15.3686 24.6408 14.711 24.7119C13.5083 24.8481 12.3707 24.6289 11.2391 24.0424C10.2378 23.5269 9.18324 23.521 8.11088 24.0305L7.96276 24.1016C7.61913 24.2675 7.26365 24.4334 6.89039 24.5401C5.41515 24.9429 3.99323 24.7889 2.67203 24.0839C2.48836 23.9831 2.28692 23.9061 2.07364 23.8291C2.06179 23.8291 2.05586 23.8232 2.04401 23.8173V25.9501V25.9442ZM22.6204 23.1537C22.0339 23.1537 21.471 23.0115 20.9259 22.7271C19.6877 22.0754 18.4554 21.8977 17.1579 22.188C16.7846 22.2709 16.3758 22.425 15.8781 22.6738C14.6102 23.3077 13.3305 23.2959 12.0804 22.6501C10.6763 21.9273 9.20102 21.8562 7.69615 22.4427C7.54803 22.502 7.39992 22.5731 7.25772 22.6501L7.2044 22.6738C6.01354 23.284 4.78121 23.2959 3.5311 22.7093C3.20525 22.5553 2.84384 22.4368 2.50021 22.3242C2.29285 22.2591 2.09141 22.188 1.88997 22.1109C1.74778 22.0576 1.62336 21.8858 1.62336 21.7377C1.61744 20.7305 1.61744 19.7292 1.62336 18.7043V17.857H3.73254L3.78587 17.9874C4.0347 18.6035 4.4435 19.036 5.00042 19.2849C6.10241 19.7707 7.37622 19.2849 7.89166 18.2007C8.01608 17.94 8.1879 17.8333 8.46043 17.8393C9.03513 17.8511 9.60982 17.8452 10.1904 17.8452H10.9843L11.0614 18.0525C11.0851 18.1059 11.1028 18.1592 11.1206 18.2125C11.5413 19.4448 12.6966 20.2743 13.9941 20.2802H14.0059C15.3034 20.2802 16.4528 19.4567 16.8675 18.2244C16.9623 17.9518 17.1164 17.8393 17.4067 17.8393C18.1413 17.8511 18.876 17.8511 19.6107 17.8393C19.8477 17.8274 19.9839 17.9281 20.0787 18.1355C20.4994 19.0123 21.1807 19.4567 22.105 19.4567H22.1168C23.0351 19.4567 23.7224 19.0064 24.1608 18.1236C24.2141 18.017 24.3623 17.8511 24.54 17.8452C24.9429 17.8333 25.3517 17.8333 25.7664 17.8393H26.3529L26.3707 18.1236C26.3707 18.1947 26.3826 18.254 26.3826 18.3192V19.279C26.3826 20.061 26.3826 20.849 26.3826 21.631C26.3826 21.9865 26.1871 22.0754 25.9797 22.1406C25.3754 22.3302 24.854 22.5197 24.3978 22.733C23.7876 23.0115 23.1951 23.1537 22.6145 23.1537H22.6204ZM18.325 21.6429C19.273 21.6429 20.2091 21.8858 21.1215 22.3598C22.0813 22.8634 23.1299 22.8634 24.2319 22.3598C24.7059 22.1406 25.2391 21.9451 25.8612 21.7495C25.9323 21.7258 25.9619 21.714 25.9678 21.7081C25.9678 21.7081 25.9678 21.6844 25.9678 21.6429C25.9619 20.8608 25.9619 20.0729 25.9678 19.2908V18.331C25.9678 18.331 25.9678 18.2895 25.9678 18.2658H25.7664C25.3517 18.2658 24.9547 18.2658 24.5518 18.2718C24.5755 18.2718 24.5459 18.3014 24.5341 18.3192C24.0186 19.356 23.2069 19.8773 22.1168 19.8773H22.105C21.0267 19.8773 20.1972 19.3323 19.7055 18.3192C19.6818 18.2718 19.6699 18.2658 19.6699 18.2658C19.6699 18.2658 19.6581 18.2658 19.6107 18.2658C18.8701 18.2718 18.1354 18.2777 17.3948 18.2658C17.2941 18.2658 17.2941 18.2658 17.2586 18.3666C16.7846 19.7707 15.4634 20.7009 13.9882 20.7068C12.5129 20.7068 11.2036 19.7589 10.7237 18.3547C10.7118 18.3251 10.7059 18.2955 10.694 18.2718H10.1845C9.59797 18.2718 9.02328 18.2718 8.44858 18.2658C8.33601 18.2658 8.31232 18.2718 8.25899 18.3903C7.64283 19.6878 6.13796 20.2506 4.82861 19.6759C4.20652 19.4034 3.74439 18.9353 3.44816 18.2836H2.03216V18.7161C2.03216 19.7411 2.03216 20.7423 2.03216 21.7436C2.22768 21.8029 2.42912 21.868 2.62463 21.9391C2.98011 22.0576 3.35336 22.182 3.70292 22.3479C4.84638 22.8812 5.9306 22.8752 7.01481 22.3183L7.06813 22.2946C7.22218 22.2117 7.38214 22.1346 7.54803 22.0695C9.17139 21.4355 10.7592 21.5126 12.27 22.2946C13.4135 22.8871 14.5332 22.893 15.6945 22.3124C16.2218 22.0458 16.6602 21.8858 17.069 21.791C17.4896 21.6962 17.9044 21.6547 18.325 21.6547V21.6429ZM22.1109 18.2658C21.8798 18.2658 21.6547 18.1888 21.4592 18.0288C21.08 17.7148 20.9911 17.2586 21.2222 16.8735C21.3644 16.6365 21.5243 16.4114 21.6962 16.1685C21.7732 16.0559 21.8561 15.9434 21.9391 15.8249L22.1109 15.576L22.2827 15.8249C22.3656 15.9434 22.4427 16.0559 22.5197 16.1685C22.6915 16.4114 22.8515 16.6365 22.9937 16.8735C23.2306 17.2646 23.1299 17.7385 22.7389 18.0466C22.5493 18.1947 22.3301 18.2718 22.1109 18.2718V18.2658ZM22.1109 16.3048C22.0872 16.3403 22.0635 16.3759 22.0339 16.4114C21.868 16.6484 21.7139 16.8617 21.5777 17.0868C21.4532 17.2942 21.5066 17.5253 21.7258 17.7089C21.945 17.8926 22.259 17.8985 22.4841 17.7208C22.6619 17.5786 22.7922 17.3416 22.6382 17.0868C22.5019 16.8617 22.3479 16.6425 22.182 16.4114C22.1583 16.3759 22.1346 16.3462 22.1109 16.3107V16.3048ZM5.8832 18.2658C5.65214 18.2658 5.427 18.1888 5.23741 18.0348C4.85823 17.7267 4.76344 17.2527 5.00635 16.8558C5.14854 16.6247 5.30851 16.3996 5.48032 16.1626C5.55734 16.0559 5.63436 15.9434 5.71731 15.8308L5.88912 15.5879L6.06094 15.8367C6.14389 15.9552 6.22091 16.0619 6.29793 16.1744C6.46974 16.4114 6.62378 16.6365 6.76598 16.8735C7.00889 17.2705 6.91409 17.7326 6.52306 18.0525C6.3394 18.2007 6.11426 18.2777 5.88912 18.2777L5.8832 18.2658ZM5.8832 16.3107C5.8595 16.3403 5.8358 16.3759 5.8121 16.4055C5.64621 16.6365 5.49217 16.8498 5.3559 17.075C5.21964 17.2942 5.27296 17.5371 5.4981 17.7148C5.71731 17.8926 6.03724 17.8985 6.25645 17.7148C6.3631 17.626 6.59416 17.389 6.40457 17.075C6.2683 16.8498 6.11426 16.6365 5.94837 16.4055C5.92467 16.3759 5.90097 16.3403 5.87728 16.3048L5.8832 16.3107Z" fill="#0C4E4B"/>
<path d="M16.4234 0.20752V1.80126C16.2694 1.83088 16.1213 1.85458 15.9732 1.89605C15.3214 2.07972 14.8178 2.67811 14.8119 3.35945C14.7941 5.39753 14.8001 7.43562 14.8119 9.47371C14.8119 9.56258 14.883 9.6633 14.9482 9.74624C15.3392 10.2795 15.7836 10.7831 16.1213 11.3459C16.7611 12.4123 16.3168 13.4669 15.7599 14.0476C15.0489 14.8 13.9528 15.0192 13.0167 14.6045C12.0806 14.1838 11.4704 13.2299 11.5889 12.2346C11.6304 11.8732 11.7726 11.494 11.9681 11.1859C12.2702 10.7001 12.6376 10.2558 13.0049 9.81734C13.1352 9.6633 13.1945 9.5211 13.1945 9.31966C13.1886 7.43562 13.2241 5.55157 13.1826 3.66753C13.1412 1.87235 14.4031 0.485979 15.9317 0.260842C15.9554 0.260842 15.9732 0.231218 15.9968 0.219369C16.139 0.219369 16.2872 0.219369 16.4294 0.219369L16.4234 0.20752ZM14.018 11.0911C13.8462 11.3044 13.7159 11.4585 13.5914 11.6244C13.4789 11.7784 13.3781 11.9324 13.2893 12.0983C13.1115 12.4242 13.1945 12.7678 13.4966 13.0048C13.8047 13.2477 14.2135 13.2418 14.5098 12.993C14.7941 12.756 14.883 12.4123 14.7053 12.1102C14.5038 11.7725 14.2668 11.4585 14.018 11.0911Z" fill="#0C4E4B"/>
<path d="M13.9941 15.0132C13.6327 15.0132 13.2773 14.9421 12.9336 14.788C11.8968 14.3259 11.2629 13.2595 11.3814 12.2049C11.4228 11.8257 11.5709 11.4228 11.7902 11.0674C12.0982 10.5697 12.4774 10.1135 12.8388 9.67505C12.9455 9.54471 12.981 9.44992 12.981 9.30772C12.981 8.65009 12.981 7.99245 12.981 7.32888C12.981 6.12618 12.9929 4.87607 12.9632 3.65559C12.9218 1.86041 14.16 0.314073 15.8486 0.041538L15.9197 -0.00585938H16.6188V1.96706L16.3048 2.0263C16.21 2.04408 16.1152 2.06185 16.0204 2.08555C15.4398 2.25144 15.0191 2.78466 15.0132 3.35343C14.9954 5.34412 15.0013 7.32888 15.0132 9.31957V9.46769C15.0132 9.46769 15.0784 9.58026 15.108 9.61581C15.2383 9.79355 15.3746 9.96536 15.5049 10.1372C15.7775 10.4867 16.0619 10.8481 16.2929 11.2332C16.9802 12.3826 16.5181 13.5439 15.9078 14.1837C15.3983 14.7229 14.6933 15.0073 13.9882 15.0073L13.9941 15.0132ZM16.0619 0.414792C16.0619 0.414792 16.0026 0.444416 15.9611 0.456265C14.4622 0.681403 13.3543 2.05593 13.3898 3.65559C13.4194 4.882 13.4135 6.1321 13.4076 7.34073C13.4076 7.99837 13.4017 8.65601 13.4076 9.31365C13.4076 9.55656 13.3365 9.74615 13.1706 9.94759C12.8151 10.3801 12.4419 10.8244 12.1516 11.2925C11.9679 11.5887 11.8376 11.9442 11.802 12.2582C11.7013 13.141 12.2404 14.0297 13.1114 14.4148C13.9645 14.794 14.9717 14.5925 15.6234 13.9053C16.1566 13.3424 16.524 12.4004 15.9552 11.4525C15.736 11.0851 15.4635 10.7356 15.1968 10.3979C15.0606 10.2201 14.9243 10.0483 14.788 9.87057C14.7169 9.76985 14.6162 9.63358 14.6162 9.47362V9.3255C14.6103 7.33481 14.6044 5.34412 14.6162 3.35343C14.6222 2.59507 15.1613 1.91373 15.9256 1.69452C16.0204 1.6649 16.1211 1.64712 16.2218 1.62935V0.414792H16.0678H16.0619ZM14.006 13.3957C13.7868 13.3957 13.5676 13.3187 13.378 13.1706C12.9929 12.8685 12.8921 12.4182 13.1173 12.0035C13.2002 11.8494 13.301 11.6894 13.4372 11.5058C13.5202 11.3932 13.609 11.2806 13.7157 11.1503L14.0475 10.7415L14.2074 10.9726C14.2844 11.0851 14.3615 11.1977 14.4385 11.3043C14.6044 11.5413 14.7643 11.7665 14.9065 12.0035C15.1317 12.3826 15.0369 12.8448 14.6696 13.1528C14.48 13.3128 14.2489 13.3898 14.0238 13.3898L14.006 13.3957ZM14.006 11.4406C13.9171 11.5532 13.8342 11.648 13.7631 11.7546C13.6387 11.9264 13.5498 12.0686 13.4728 12.2049C13.3483 12.4419 13.4017 12.667 13.6268 12.8507C13.8579 13.0343 14.1541 13.0284 14.3792 12.8448C14.5451 12.7085 14.6755 12.4715 14.5274 12.2227C14.3911 11.9975 14.243 11.7783 14.0771 11.5473C14.0534 11.5117 14.0297 11.4762 14.0001 11.4406H14.006Z" fill="#0C4E4B"/>
</g>
<defs>
<clipPath id="clip0_2020_18757">
<rect width="27.9882" height="28" fill="white"/>
</clipPath>
</defs>
</svg>
