<svg width="28" height="28" viewBox="0 0 28 28" fill="none" xmlns="http://www.w3.org/2000/svg">
<g clip-path="url(#clip0_2020_19131)">
<path d="M18.5816 0.207339C18.7415 0.254727 18.9074 0.296191 19.0673 0.343578C20.637 0.829298 21.5374 2.48193 21.0754 4.06348C20.791 5.03493 20.4712 5.99452 20.1691 6.96596C20.1395 7.06666 20.1098 7.16736 20.0684 7.30952C20.2639 7.30952 20.4179 7.30952 20.5778 7.30952C21.952 7.34506 22.9945 8.38758 23.0005 9.72035C23.0005 11.065 21.952 12.1193 20.5719 12.1549C20.3586 12.1549 20.1395 12.143 19.9262 12.1608C19.8551 12.1667 19.7426 12.2496 19.7367 12.3089C19.5708 13.7009 18.9785 14.8737 18.0011 15.8689C17.9893 15.8807 17.9952 15.8985 17.9774 15.9755C18.321 15.9755 18.6468 15.9518 18.9725 15.9755C22.3963 16.2598 24.89 18.9194 24.9315 22.3432C24.9493 23.8536 24.9315 25.3582 24.9315 26.8686C24.9315 27.461 24.6057 27.7868 24.0134 27.7868C17.237 27.7868 10.4547 27.7868 3.67828 27.7868C3.08594 27.7868 2.76015 27.461 2.76015 26.8686C2.76015 25.3582 2.7483 23.8536 2.76015 22.3432C2.79569 19.0853 5.08213 16.473 8.31632 16.011C8.7428 15.9518 9.17521 15.9696 9.60762 15.9459C9.63724 15.9459 9.67278 15.934 9.74386 15.9162C8.68949 14.8678 8.09123 13.6239 7.93129 12.1134C7.54035 12.1134 7.16717 12.149 6.794 12.1075C5.53823 11.9653 4.63195 10.8576 4.68526 9.57226C4.73857 8.35796 5.76332 7.35098 6.99539 7.30359C7.19087 7.29767 7.38041 7.30359 7.61735 7.30359C7.41003 6.64017 7.20864 6.03006 7.02501 5.41402C6.84138 4.78022 6.5926 4.14641 6.50967 3.50076C6.3142 1.97252 7.39819 0.562745 8.9205 0.254727C8.97974 0.24288 9.03897 0.219186 9.09228 0.201416C12.2554 0.201416 15.4126 0.201416 18.5757 0.201416L18.5816 0.207339ZM7.56996 22.9414C7.68251 22.9414 7.74767 22.9414 7.8069 22.9414C8.31039 22.9533 8.6658 23.2909 8.6658 23.7529C8.6658 24.215 8.30447 24.5526 7.80098 24.5585C7.47519 24.5585 7.15532 24.5585 6.82954 24.5585C6.30828 24.5526 5.97656 24.2209 5.97064 23.6937C5.97064 23.1665 5.96472 22.6334 5.97064 22.1062C5.98841 21.1348 6.34382 20.3114 7.03686 19.6243C7.49296 19.1741 8.04384 18.8898 8.64803 18.7239V17.6103C8.59472 17.6103 8.55918 17.6103 8.52364 17.6103C6.45636 17.8236 4.56679 19.6717 4.43055 21.739C4.33578 23.1784 4.38909 24.6296 4.37724 26.0749C4.37724 26.0986 4.39501 26.1223 4.40094 26.1519H23.2848C23.2848 24.7303 23.3618 23.3264 23.267 21.9344C23.1426 20.0804 22.1297 18.7654 20.4534 17.9776C20.1217 17.8236 19.7485 17.7407 19.3516 17.6044C19.3516 17.9243 19.3694 18.179 19.3516 18.4278C19.3279 18.6647 19.4168 18.7654 19.6419 18.8483C20.8621 19.3104 21.5848 20.4891 21.5018 21.8515C21.4308 23.0717 20.5008 24.1498 19.2509 24.4637C18.0366 24.7718 16.7276 24.2386 16.0523 23.1665C15.0512 21.5731 15.7443 19.5118 17.5035 18.8187C17.5865 18.7832 17.7227 18.7239 17.7227 18.6706C17.7405 18.3093 17.7346 17.948 17.7346 17.5807H14.6544C14.6544 18.025 14.6544 18.4515 14.6544 18.878C14.6544 19.1978 14.5122 19.4525 14.2279 19.6065C13.6889 19.9027 13.0551 19.5236 13.0432 18.8957C13.0314 18.4574 13.0432 18.025 13.0432 17.5807H10.3066V18.7239C10.3658 18.7476 10.4251 18.7654 10.4843 18.7832C11.7756 19.2097 12.6404 20.0686 12.8833 21.4013C13.0314 22.201 12.978 23.0421 12.9662 23.8655C12.9662 24.2446 12.6049 24.5348 12.2198 24.5467C11.8348 24.5585 11.4498 24.5644 11.0589 24.5467C10.6205 24.5289 10.2829 24.1616 10.2888 23.7292C10.2947 23.3146 10.6264 22.9651 11.0529 22.9355C11.1477 22.9296 11.2425 22.9355 11.3669 22.9355C11.3669 22.6334 11.3728 22.355 11.3669 22.0825C11.3432 21.1229 10.5968 20.3351 9.64909 20.2463C8.69541 20.1633 7.81875 20.8031 7.64697 21.7449C7.57589 22.1181 7.59958 22.509 7.57589 22.9296L7.56996 22.9414ZM13.8488 1.82443C12.439 1.82443 11.0292 1.82443 9.61947 1.82443C8.51771 1.82443 7.86021 2.70702 8.186 3.74954C8.52956 4.86315 8.89089 5.97083 9.23445 7.08443C9.29368 7.26805 9.37661 7.30952 9.55431 7.30952C12.4094 7.30952 15.2645 7.30952 18.1136 7.30952C18.2973 7.30952 18.3802 7.26213 18.4335 7.0785C18.7771 5.9649 19.1384 4.85722 19.482 3.74362C19.8077 2.69518 19.1443 1.81851 18.0426 1.81851C16.6446 1.81851 15.2408 1.81851 13.8429 1.81851L13.8488 1.82443ZM9.52469 8.93253C9.52469 9.84474 9.51285 10.7333 9.52469 11.6218C9.52469 11.9535 9.56616 12.2852 9.63131 12.611C10.0696 14.6427 11.9414 16.0406 14.0798 15.9518C16.0819 15.8689 17.8708 14.2695 18.0722 12.2733C18.1847 11.1894 18.1196 10.0876 18.1314 8.99177C18.1314 8.974 18.1136 8.96215 18.1018 8.93253H9.51877H9.52469ZM19.8848 21.5909C19.8848 20.8445 19.2806 20.2463 18.5342 20.2522C17.8056 20.2522 17.2014 20.8564 17.1955 21.5909C17.1896 22.3254 17.8056 22.9473 18.5401 22.9473C19.2865 22.9473 19.8848 22.3432 19.8848 21.5968V21.5909ZM7.89575 8.92661C7.61735 8.92661 7.3508 8.92069 7.08424 8.92661C6.65183 8.94438 6.32605 9.2524 6.29643 9.66111C6.26089 10.0817 6.55114 10.4667 6.98355 10.5141C7.27972 10.5496 7.58773 10.52 7.89575 10.52V8.92069V8.92661ZM19.7781 10.5556C20.1276 10.5378 20.4534 10.5556 20.7673 10.5022C21.1464 10.4371 21.3952 10.0758 21.3775 9.69666C21.3597 9.3294 21.0872 8.98585 20.7259 8.9503C20.4179 8.92069 20.1039 8.94438 19.7781 8.94438V10.5615V10.5556Z" fill="#0C4E4B"/>
<path d="M24.0074 28H3.67233C2.96744 28 2.54688 27.5794 2.54688 26.8745V25.838C2.54096 24.677 2.53503 23.51 2.54688 22.3491C2.58242 18.9786 4.93994 16.2894 8.28075 15.8096C8.58284 15.7681 8.88494 15.7622 9.17518 15.7563C9.21072 15.7563 9.25219 15.7563 9.28773 15.7563C8.41699 14.7789 7.9135 13.6594 7.74172 12.3385C7.68248 12.3385 7.62325 12.3385 7.56401 12.3385C7.30338 12.3444 7.03091 12.3563 6.76435 12.3207C5.39604 12.1667 4.40683 10.982 4.47199 9.57224C4.53122 8.23947 5.63298 7.15549 6.98352 7.10218C7.09606 7.10218 7.20861 7.10218 7.333 7.10218L7.22638 6.75862C7.09014 6.32029 6.9539 5.90565 6.82951 5.47916C6.78212 5.31331 6.72881 5.15337 6.6755 4.98752C6.52742 4.51957 6.37341 4.02792 6.30825 3.53036C6.10093 1.91326 7.2323 0.385022 8.88494 0.0592342C8.91455 0.0533108 8.94417 0.0414639 8.97379 0.0296171L9.09818 0H18.6408L18.7948 0.0533108C18.9074 0.0829279 19.0199 0.112545 19.1324 0.148085C20.8029 0.669346 21.7624 2.4523 21.2767 4.1227C21.0872 4.78612 20.8739 5.44362 20.6607 6.10704C20.56 6.41506 20.4652 6.72308 20.3704 7.02517L20.3467 7.09625C20.4297 7.09625 20.5067 7.09625 20.5837 7.09625C22.0764 7.13772 23.2018 8.26317 23.2078 9.71441C23.2078 11.1834 22.0823 12.3207 20.5778 12.3563C20.4948 12.3563 20.406 12.3563 20.3231 12.3563C20.1987 12.3563 20.0683 12.3563 19.944 12.3622L19.938 12.3681C19.7781 13.6476 19.2568 14.7849 18.3861 15.7563C18.5816 15.7563 18.7889 15.7563 18.9903 15.7681C22.5088 16.0584 25.0973 18.8246 25.1388 22.3431C25.1506 23.5041 25.1506 24.6651 25.1388 25.8261V26.8686C25.1388 27.5735 24.7123 27.9941 24.0133 27.9941L24.0074 28ZM7.92534 11.9179H8.11489L8.13266 12.1015C8.28075 13.5528 8.85532 14.7552 9.88599 15.7741L10.1585 16.0465L9.72014 16.1354C9.67275 16.1472 9.64313 16.1532 9.61352 16.1532C9.47135 16.1591 9.32919 16.165 9.18703 16.165C8.89086 16.165 8.61838 16.1769 8.33998 16.2124C5.20649 16.6626 2.99706 19.18 2.96152 22.3431C2.94967 23.5041 2.95559 24.6651 2.96152 25.832V26.8686C2.96152 27.3484 3.19845 27.5794 3.67233 27.5794H24.0074C24.4813 27.5794 24.7182 27.3484 24.7182 26.8686V25.8261C24.7242 24.6651 24.7301 23.51 24.7182 22.3491C24.6827 19.0497 22.2541 16.4553 18.9547 16.1828C18.7474 16.165 18.5342 16.1709 18.3032 16.1769C18.1965 16.1769 18.084 16.1769 17.9715 16.1769H17.7108L17.7938 15.8037L17.8471 15.7208C18.8067 14.7493 19.3694 13.5942 19.5234 12.2792C19.5471 12.0956 19.7603 11.9594 19.9025 11.9475C20.0447 11.9357 20.1868 11.9357 20.3231 11.9357C20.4001 11.9357 20.483 11.9357 20.56 11.9357C21.8335 11.9001 22.7931 10.9465 22.7872 9.70848C22.7872 8.48826 21.8276 7.54051 20.5659 7.50497C20.4652 7.50497 20.3586 7.50497 20.2461 7.50497H19.784L19.9677 6.88894C20.0624 6.58092 20.1631 6.2729 20.2638 5.96488C20.4711 5.30738 20.6844 4.65581 20.8739 3.99238C21.2945 2.53522 20.4593 0.983287 19.0021 0.527184C18.8955 0.491644 18.7889 0.462027 18.6823 0.43241L18.552 0.396869H9.13372C9.05672 0.426486 9.00933 0.438333 8.96786 0.45018C7.5344 0.740427 6.54519 2.06135 6.72289 3.4652C6.78212 3.92723 6.93021 4.39518 7.07237 4.84536C7.12568 5.01121 7.17899 5.17707 7.22638 5.34885C7.35077 5.76941 7.48109 6.18405 7.62325 6.61646L7.90165 7.49905H7.39816C7.26192 7.49905 7.1316 7.49905 7.00721 7.49905C5.87584 7.54643 4.94586 8.45272 4.89255 9.57224C4.83924 10.7629 5.6626 11.7639 6.81766 11.8942C7.0546 11.9179 7.30338 11.912 7.55809 11.9061C7.68248 11.9061 7.80687 11.9001 7.93127 11.9001L7.92534 11.9179ZM23.4921 26.3651H4.2469L4.19951 26.223C4.18174 26.1874 4.16397 26.14 4.16397 26.0808C4.16397 25.6425 4.16397 25.2041 4.16397 24.7599C4.16397 23.7648 4.15213 22.74 4.21728 21.733C4.35944 19.5769 6.27863 17.634 8.49991 17.4089C8.52953 17.4089 8.55915 17.4089 8.60061 17.4089H8.80201L8.85532 17.6162V18.8898L8.70131 18.9312C8.07935 19.103 7.58771 19.3814 7.18492 19.7783C6.53334 20.418 6.1957 21.2058 6.18386 22.1121C6.17793 22.6275 6.18386 23.1428 6.18386 23.6641C6.18386 24.1083 6.42672 24.3512 6.83543 24.3571C7.1553 24.3571 7.48109 24.3571 7.80095 24.3571C8.18597 24.3571 8.45845 24.1083 8.45845 23.7588C8.45845 23.4093 8.19782 23.1665 7.80095 23.1546H7.67064H7.35077L7.36262 22.9355C7.36854 22.8052 7.37446 22.6748 7.37446 22.5505C7.37446 22.2661 7.38631 21.9937 7.4337 21.7212C7.62325 20.6727 8.58284 19.9501 9.6609 20.0508C10.7153 20.1455 11.5386 21.0163 11.5682 22.0884C11.5682 22.278 11.5682 22.4675 11.5682 22.6689V23.1606H11.2484C11.1832 23.1606 11.124 23.1606 11.0648 23.1606C10.7508 23.1843 10.4961 23.439 10.4961 23.7529C10.4961 24.0728 10.7449 24.3452 11.0648 24.3571C11.4261 24.3689 11.8111 24.3689 12.208 24.3571C12.4686 24.3452 12.7529 24.1498 12.7529 23.8773V23.4449C12.7766 22.7815 12.7885 22.0944 12.67 21.4487C12.4508 20.2344 11.6867 19.411 10.4132 18.9905L10.0933 18.8779V17.3852H13.2446V18.0072C13.2446 18.3093 13.2446 18.6055 13.2446 18.9076C13.2446 19.1326 13.363 19.334 13.5467 19.4407C13.7244 19.5414 13.9376 19.5473 14.1212 19.4407C14.3345 19.3222 14.4352 19.1445 14.4411 18.8957C14.4411 18.5995 14.4411 18.3034 14.4411 18.0013V17.3912H17.9359V17.865C17.9359 18.1434 17.9359 18.4218 17.9241 18.7002C17.9122 18.8779 17.7286 18.9727 17.5687 19.0319C16.7809 19.3459 16.1767 19.9738 15.922 20.7557C15.6672 21.5316 15.7739 22.3787 16.2181 23.0776C16.8401 24.0728 18.0603 24.5644 19.1917 24.2801C20.3586 23.9839 21.2234 22.9888 21.2886 21.8515C21.3656 20.578 20.6844 19.4762 19.5589 19.0497C19.3457 18.9668 19.0969 18.8187 19.1384 18.4159C19.1561 18.256 19.1502 18.0901 19.1443 17.9065C19.1443 17.8117 19.1443 17.7169 19.1443 17.6103V17.326L19.4168 17.4148C19.5412 17.4563 19.6656 17.4919 19.784 17.5274C20.0506 17.6044 20.2994 17.6814 20.5363 17.7939C22.3311 18.6292 23.344 20.0626 23.4684 21.9226C23.5336 22.894 23.5158 23.8832 23.5039 24.8428C23.498 25.2752 23.4921 25.7136 23.4921 26.1519V26.3592V26.3651ZM4.58453 25.9505H23.0774C23.0774 25.5832 23.0834 25.2101 23.0893 24.8428C23.1071 23.8891 23.1189 22.9059 23.0538 21.9522C22.9353 20.2226 22.029 18.949 20.3586 18.1671C20.1454 18.0664 19.9084 17.9953 19.6596 17.9243C19.6241 17.9124 19.5886 17.9006 19.553 17.8946C19.553 18.096 19.5589 18.2737 19.5412 18.4514C19.5293 18.5699 19.5352 18.5995 19.6952 18.6588C20.9924 19.1504 21.7743 20.4121 21.6914 21.8693C21.6144 23.1843 20.6252 24.3334 19.2805 24.671C17.9833 24.9968 16.5735 24.4282 15.8568 23.285C15.3533 22.4794 15.2289 21.502 15.5192 20.6135C15.8153 19.7131 16.5025 18.9905 17.4087 18.6351C17.4502 18.6173 17.4798 18.6055 17.5035 18.5936C17.5154 18.3507 17.5154 18.102 17.5094 17.8591V17.7939H14.8439V17.9894C14.8439 18.2915 14.8439 18.5936 14.8439 18.8898C14.8439 19.2926 14.6543 19.6065 14.3108 19.7961C13.9968 19.9678 13.6296 19.9619 13.3275 19.7901C13.0195 19.6124 12.824 19.2807 12.8181 18.9076C12.8122 18.6055 12.8181 18.3034 12.8181 17.9953V17.7939H10.502V18.5818L10.5376 18.5936C11.9533 19.0556 12.8299 20.0212 13.0728 21.3717C13.1972 22.0529 13.1853 22.7637 13.1676 23.4508V23.8773C13.1557 24.3453 12.7292 24.748 12.2139 24.7658C11.8111 24.7836 11.4142 24.7836 11.0411 24.7658C10.502 24.7421 10.0637 24.286 10.0755 23.7411C10.0815 23.2198 10.502 22.7815 11.0351 22.7459C11.0766 22.7459 11.1121 22.7459 11.1536 22.7459V22.6689C11.1536 22.4734 11.1536 22.2898 11.1536 22.1062C11.1299 21.2473 10.4724 20.5483 9.62536 20.4713C8.76054 20.3943 7.99642 20.9689 7.84241 21.8041C7.80095 22.041 7.79503 22.2957 7.7891 22.5623C7.7891 22.6215 7.7891 22.6808 7.7891 22.7459H7.81872C8.43476 22.7637 8.87901 23.1902 8.87901 23.7648C8.87901 24.3452 8.42883 24.7717 7.8128 24.7777C7.48701 24.7777 7.16122 24.7777 6.83543 24.7777C6.20163 24.7717 5.77514 24.3393 5.76922 23.7114C5.76922 23.1546 5.76329 22.6393 5.76922 22.118C5.78699 21.0992 6.16609 20.2166 6.89467 19.494C7.30931 19.0853 7.83057 18.7772 8.44068 18.5877V17.8532C6.46226 18.1316 4.76224 19.8908 4.63192 21.7745C4.56676 22.7696 4.57269 23.7884 4.57861 24.7717C4.57861 25.1686 4.57861 25.5655 4.57861 25.9623L4.58453 25.9505ZM18.546 23.1546C18.1314 23.1546 17.7404 22.9888 17.4443 22.6867C17.1481 22.3905 16.9882 21.9996 16.9941 21.5909C17 20.7438 17.6931 20.0508 18.5342 20.0508C18.9547 20.0508 19.3457 20.2048 19.6359 20.501C19.9321 20.7912 20.092 21.1821 20.092 21.6027C20.092 22.0233 19.9321 22.4142 19.6359 22.7104C19.3457 23.0006 18.9547 23.1665 18.5401 23.1665L18.546 23.1546ZM18.546 20.4595H18.5401C17.9241 20.4595 17.4147 20.9689 17.4087 21.5909C17.4087 21.893 17.5213 22.1773 17.7404 22.3964C17.9596 22.6156 18.2439 22.74 18.552 22.74C18.854 22.74 19.1384 22.6215 19.3516 22.4083C19.5649 22.195 19.6833 21.9048 19.6833 21.5968C19.6833 21.2888 19.5649 21.0044 19.3457 20.7912C19.1324 20.578 18.8481 20.4654 18.546 20.4654V20.4595ZM13.8961 16.1591C11.74 16.1591 9.88599 14.7138 9.44174 12.6524C9.37066 12.3326 9.33512 11.9831 9.32919 11.6277C9.31735 10.9939 9.32327 10.3601 9.32327 9.71441V8.73112H18.238L18.2972 8.83774C18.3209 8.87328 18.3565 8.92067 18.3565 8.99767C18.3565 9.33531 18.3565 9.67294 18.3565 10.0106C18.3624 10.7629 18.3683 11.5388 18.2913 12.3029C18.0781 14.3761 16.2418 16.0762 14.0975 16.165C14.0265 16.165 13.9613 16.165 13.8902 16.165L13.8961 16.1591ZM9.73791 9.14576V9.71441C9.73791 10.3541 9.73791 10.9879 9.73791 11.6217C9.73791 11.9535 9.77937 12.2733 9.84453 12.5695C10.2592 14.4946 12.054 15.8274 14.0857 15.7444C16.0227 15.6615 17.6931 14.1274 17.8826 12.2556C17.9596 11.5151 17.9478 10.751 17.9418 10.0106C17.9418 9.72033 17.9418 9.43601 17.9418 9.14576H9.73791ZM19.5767 10.7747V8.73112H19.784C19.8847 8.73112 19.9795 8.73112 20.0802 8.73112C20.2994 8.73112 20.5304 8.71927 20.7555 8.74297C21.2056 8.79035 21.5729 9.20499 21.5966 9.69071C21.6203 10.1942 21.2827 10.6325 20.8088 10.7095C20.5778 10.751 20.3527 10.751 20.1098 10.7569C20.0091 10.7569 19.9025 10.7569 19.7959 10.7688L19.5767 10.7806V10.7747ZM19.9913 9.14576V10.3423C20.0269 10.3423 20.0624 10.3423 20.098 10.3423C20.3231 10.3423 20.5363 10.3364 20.7377 10.3008C20.9983 10.2534 21.1879 9.99873 21.176 9.70848C21.1642 9.43008 20.9509 9.1813 20.7081 9.1576C20.5067 9.13391 20.3053 9.13983 20.0861 9.14576C20.0565 9.14576 20.021 9.14576 19.9913 9.14576ZM7.333 10.7451C7.20861 10.7451 7.09014 10.7451 6.96575 10.7273C6.43264 10.6622 6.05354 10.1883 6.09501 9.64925C6.13647 9.13391 6.55111 8.74297 7.08422 8.7252C7.26784 8.71927 7.45739 8.7252 7.64694 8.7252H8.11489V10.7392H7.90757C7.8128 10.7392 7.71802 10.7392 7.62325 10.7392C7.52847 10.7392 7.4337 10.7392 7.33892 10.7392L7.333 10.7451ZM7.39223 9.13391C7.29154 9.13391 7.19676 9.13391 7.09606 9.13391C6.77028 9.14576 6.53334 9.37085 6.50372 9.67887C6.48003 9.99873 6.6992 10.2771 7.00721 10.3127C7.19676 10.3364 7.39223 10.3304 7.59955 10.3245C7.62917 10.3245 7.65879 10.3245 7.68841 10.3245V9.13391H7.6351C7.55217 9.13391 7.46924 9.13391 7.38631 9.13391H7.39223ZM18.1314 7.52274C15.2763 7.52274 12.4271 7.52274 9.57205 7.52274C9.37066 7.52274 9.15149 7.47535 9.05079 7.14957C8.86124 6.52761 8.66577 5.90565 8.46437 5.28961C8.31036 4.79797 8.15043 4.31225 8.00235 3.8206C7.83057 3.2638 7.90757 2.707 8.20967 2.28644C8.51768 1.86588 9.03895 1.62302 9.63129 1.62302H12.5397H13.8606H15.1756H18.0662C18.6645 1.62302 19.1798 1.86588 19.4938 2.28644C19.8018 2.707 19.8788 3.25196 19.7011 3.81468C19.5412 4.33002 19.3812 4.84536 19.2154 5.35477C19.0258 5.95304 18.8363 6.54538 18.6527 7.14364C18.5697 7.40427 18.4157 7.51682 18.1373 7.51682L18.1314 7.52274ZM13.8488 7.10218C15.2763 7.10218 16.7038 7.10218 18.1314 7.10218C18.2025 7.1081 18.2202 7.09033 18.2202 7.09033C18.2202 7.09033 18.2321 7.07849 18.2499 7.01925C18.4335 6.42099 18.623 5.82272 18.8126 5.22445C18.9725 4.70912 19.1384 4.1997 19.2983 3.68437C19.4345 3.24603 19.3812 2.83732 19.1502 2.52338C18.9133 2.20351 18.5283 2.03173 18.0603 2.03173H15.1756H13.8606H12.5397H9.63129C9.16334 2.03173 8.77831 2.20944 8.54138 2.52338C8.31036 2.83732 8.25705 3.25196 8.39329 3.68437C8.5473 4.17601 8.70131 4.66173 8.85532 5.15337C9.05079 5.77533 9.25219 6.39729 9.44174 7.01925C9.45951 7.07849 9.47135 7.09033 9.47135 7.09033C9.47135 7.09033 9.49505 7.11403 9.56613 7.10218C10.9937 7.10218 12.4212 7.10218 13.8488 7.10218Z" fill="#0C4E4B"/>
<path d="M14.8201 5.39606C14.7668 6.15425 14.5239 6.49189 14.0204 6.50373C13.5169 6.51558 13.2681 6.19572 13.1674 5.37828C12.8298 5.37828 12.4685 5.37829 12.2552 5.07027C12.1486 4.91626 12.0716 4.71486 12.0716 4.53124C12.0598 4.03367 12.3737 3.8145 13.1971 3.7375C13.1734 3.38209 13.1793 3.00892 13.5228 2.78975C13.6709 2.69498 13.8723 2.63574 14.05 2.63574C14.5298 2.63574 14.7194 2.91414 14.8438 3.75527C15.1814 3.75527 15.5427 3.7375 15.756 4.05736C15.8567 4.20545 15.9337 4.40092 15.9396 4.5727C15.9574 5.07027 15.6375 5.30128 14.826 5.39606H14.8201Z" fill="#0C4E4B"/>
<path d="M13.9853 6.71708C13.2923 6.71708 13.0731 6.14843 12.9843 5.59163C12.6526 5.57978 12.309 5.52647 12.078 5.19476C11.9417 4.99928 11.8588 4.75642 11.8588 4.54318C11.8411 3.85014 12.386 3.64282 12.9783 3.55989C12.9783 3.26372 13.0257 2.86685 13.4048 2.61807C13.5885 2.4996 13.8254 2.42852 14.0386 2.42852C14.6665 2.41075 14.8857 2.83131 15.0101 3.54805C15.3418 3.54805 15.6854 3.60136 15.9164 3.94492C16.0467 4.14039 16.1237 4.36548 16.1355 4.56687C16.1651 5.27768 15.6083 5.49093 15.0101 5.5857C14.9686 5.9885 14.8087 6.69931 14.0209 6.71708C14.009 6.71708 13.9972 6.71708 13.9853 6.71708ZM14.0505 2.84316C13.9202 2.83724 13.7484 2.89055 13.6299 2.96755C13.4048 3.10971 13.3752 3.3585 13.3989 3.72575L13.4108 3.92715L13.2094 3.94492C12.3268 4.03377 12.2616 4.25886 12.2675 4.53133C12.2675 4.66757 12.3268 4.83343 12.4156 4.95782C12.5519 5.15922 12.777 5.17699 13.1264 5.17699H13.3101L13.3693 5.36061C13.4759 6.2432 13.7425 6.32021 14.009 6.30244C14.2697 6.29651 14.554 6.21951 14.6073 5.38431L14.6191 5.21253L14.7909 5.19476C15.6676 5.08814 15.7268 4.84527 15.7209 4.58464C15.7209 4.46025 15.6617 4.30032 15.5728 4.17593C15.4366 3.97453 15.2115 3.96269 14.8679 3.96269H14.6843L14.6251 3.78498C14.4947 2.91424 14.317 2.84316 14.0446 2.84316H14.0505Z" fill="#0C4E4B"/>
<path d="M13.8023 14.3819C13.1981 14.3819 12.6354 14.1746 12.1437 13.7777C11.7646 13.4697 11.6995 12.9899 11.9779 12.6286C12.2444 12.2791 12.7242 12.2198 13.1092 12.4864C13.6779 12.8773 14.0037 12.8714 14.5842 12.4805C14.9573 12.2258 15.4312 12.285 15.6978 12.6226C15.9762 12.9721 15.9288 13.4519 15.5675 13.754C15.0699 14.1746 14.4894 14.3819 13.8023 14.3819Z" fill="#0C4E4B"/>
<path d="M13.802 14.5893C13.1445 14.5893 12.5463 14.3701 12.0132 13.9377C11.5452 13.5645 11.4623 12.9604 11.8118 12.5043C12.1494 12.0659 12.7417 11.983 13.2275 12.3147C13.725 12.6583 13.956 12.6523 14.4655 12.3029C14.9275 11.9889 15.5257 12.0659 15.8575 12.4865C16.2069 12.9248 16.1359 13.5349 15.7034 13.9081C15.1644 14.3642 14.5425 14.5834 13.802 14.5834V14.5893ZM12.5996 12.5279C12.4219 12.5279 12.256 12.605 12.1435 12.759C11.9362 13.0314 11.9895 13.3868 12.2738 13.6179C12.7299 13.9851 13.2452 14.1747 13.802 14.1747C14.4358 14.1747 14.9689 13.9851 15.431 13.5942C15.6975 13.3691 15.739 13.0137 15.5317 12.7471C15.3303 12.4983 14.9808 12.4509 14.6965 12.6464C14.0449 13.0907 13.6302 13.0966 12.9905 12.6523C12.8661 12.5635 12.7299 12.522 12.5996 12.522V12.5279Z" fill="#0C4E4B"/>
</g>
<defs>
<clipPath id="clip0_2020_19131">
<rect width="27.6327" height="28" fill="white"/>
</clipPath>
</defs>
</svg>
