<svg width="55" height="57" viewBox="0 0 55 57" fill="none" xmlns="http://www.w3.org/2000/svg">
<path d="M40.7502 33.8042C31.0563 33.8534 29.4882 39.9067 28.9655 45.025L28.728 47.2888H26.7796L26.542 45.025C26.0194 39.9067 24.4038 33.8534 15.0424 33.8042C13.4743 30.4574 12.8091 27.7506 12.8091 24.6994C12.8091 17.0713 18.844 9.93496 27.7774 9.93496C36.711 9.93496 42.6509 17.0218 42.6509 24.7488C42.6509 27.7506 42.3658 30.4574 40.7502 33.8042ZM27.6826 0.682632C12.9518 0.682632 0.881836 13.1832 0.881836 28.4887C0.881836 43.8438 12.9518 56.3442 27.6826 56.3442C42.5558 56.3442 54.5782 43.8438 54.5782 28.4887C54.5782 13.1833 42.5558 0.682632 27.6826 0.682632Z" fill="#29B24A"/>
</svg>
