<svg width="58" height="59" viewBox="0 0 58 59" fill="none" xmlns="http://www.w3.org/2000/svg">
<path fill-rule="evenodd" clip-rule="evenodd" d="M0.625488 53.1584V12.1231C0.625488 10.9772 1.08066 9.87838 1.89086 9.06817C2.70107 8.25796 3.79994 7.8028 4.94574 7.8028H45.9811L0.625488 53.1584Z" fill="#1EA361"/>
<path fill-rule="evenodd" clip-rule="evenodd" d="M0.625488 54.0183V53.1571L45.9811 7.80145H46.8423C47.9881 7.80145 49.087 8.25662 49.8972 9.06683C50.7074 9.87703 51.1626 10.9759 51.1626 12.1217V12.9716L5.80696 58.3272H4.95991C3.81411 58.3272 2.71523 57.872 1.90503 57.0618C1.09482 56.2516 0.639653 55.1527 0.639653 54.0069" fill="#FEDB43"/>
<path fill-rule="evenodd" clip-rule="evenodd" d="M5.82471 58.3416L25.9104 38.2559L45.996 58.3416H5.82471Z" fill="#5384C4"/>
<path fill-rule="evenodd" clip-rule="evenodd" d="M45.9975 58.3414L25.9118 38.2388L31.0961 33.0545L51.1959 53.1543V54.0155C51.1959 56.4008 49.2596 58.3357 46.8728 58.3357H46.0116L45.9975 58.3414Z" fill="white"/>
<path fill-rule="evenodd" clip-rule="evenodd" d="M51.1923 53.1588L31.0783 33.0731L51.164 12.9874L51.1923 53.1588Z" fill="#C2C2C1"/>
<path d="M9.65561 13.3878C12.2265 12.2122 15.4448 12.6909 17.5312 14.6173L15.5482 16.582C13.4603 14.5083 9.53521 15.4913 8.55642 18.235C7.27593 20.9334 9.40348 24.4675 12.4135 24.5199C14.3966 24.7494 16.3485 23.4292 16.7621 21.4674C15.3881 21.4703 14.0141 21.4575 12.6543 21.4773L12.6288 18.9319L19.5455 19.0254C19.7183 20.7054 19.5993 22.4901 18.6956 23.9647C17.2791 26.6036 13.932 27.7552 11.1004 27.0894C7.59889 26.3642 4.9784 22.772 5.45717 19.2138C5.70222 16.7038 7.39775 14.429 9.68111 13.3893" fill="#EFEFEF"/>
<path d="M42.3557 0.685013H43.9988C48.1066 0.920148 52.0968 2.92021 54.5799 6.20927C56.206 8.28866 57.1125 10.8837 57.3165 13.49V14.4631C57.2216 19.5426 53.9708 23.7127 51.1548 27.6647C47.9961 32.1294 45.0753 36.995 44.2651 42.498C44.0483 43.4301 44.3076 44.736 43.1942 45.1567C42.9322 44.9528 42.6276 44.7842 42.4435 44.4981C42.1134 41.4215 41.3443 38.3831 40.0326 35.5743C38.5453 32.3164 36.4702 29.3418 34.3639 26.4479C33.082 24.7113 31.8709 22.9152 30.8709 21.0001C29.3127 18.1304 28.7136 14.7393 29.3552 11.5182C29.8822 8.97566 31.1966 6.62005 33.0551 4.79846C35.5367 2.37204 38.8909 0.903151 42.3557 0.68643M42.0355 9.63432C40.095 10.0678 38.4632 11.7874 38.2989 13.7988C38.0949 15.6713 39.1912 17.5708 40.8684 18.3981C42.6871 19.3613 45.0753 19.0638 46.5952 17.6898C48.0145 16.4348 48.5301 14.2676 47.7893 12.514C46.911 10.3185 44.3104 9.06914 42.0341 9.65273" fill="#DC4B3E"/>
<path d="M42.0345 9.63292C44.3094 9.06633 46.9129 10.2987 47.7897 12.4942C48.5305 14.2478 48.0135 16.415 46.5956 17.67C45.0757 19.061 42.6861 19.3698 40.8688 18.3783C39.1902 17.551 38.0953 15.6515 38.2993 13.7789C38.4636 11.7676 40.094 10.0494 42.0359 9.6145" fill="#802C27"/>
</svg>
