<svg width="66" height="66" viewBox="0 0 66 66" fill="none" xmlns="http://www.w3.org/2000/svg">
<g clip-path="url(#clip0_2048_4133)">
<path d="M66.0004 17.7585C65.493 18.9922 64.5479 19.3802 63.2546 19.3802C60.3097 19.3802 57.4047 19.7184 54.6389 20.8625C53.6341 21.2804 52.5696 21.2704 51.5648 20.8526C48.7592 19.6687 45.8045 19.4001 42.8198 19.3603C40.9495 19.3404 40.2729 18.6937 40.2729 16.8034C40.2729 14.6147 40.2729 12.426 40.2729 10.2472C40.2729 9.43141 40.6212 9.00362 41.238 9.00362C41.8648 9.00362 42.1931 9.43141 42.1931 10.2572C42.1931 12.615 42.1931 14.9729 42.1931 17.4103C45.5657 17.47 48.8886 17.669 52.112 19.0021C52.1319 18.6937 52.1518 18.4649 52.1518 18.246C52.1518 13.6397 52.1518 9.02352 52.1717 4.41724C52.1717 3.86011 51.9627 3.62134 51.5051 3.42237C49.6546 2.60657 47.7047 2.25837 45.7149 2.07929C44.5808 1.9798 43.4466 1.9599 42.203 1.89026C42.203 2.45734 42.203 2.96473 42.203 3.46216C42.203 4.12873 42.2229 4.7953 42.1931 5.45191C42.1732 5.9991 41.7454 6.39705 41.2479 6.39705C40.7505 6.39705 40.3028 6.00904 40.2928 5.46186C40.273 4.23817 40.2431 3.01447 40.2928 1.80072C40.3326 0.855592 40.9992 0.338257 41.815 0C42.8397 0 43.8744 0 44.8991 0C45.0682 0.039795 45.2274 0.0895387 45.3966 0.109436C47.9932 0.308411 50.5102 0.785951 52.878 1.94001C53.0272 2.0196 53.276 1.96985 53.465 1.91016C54.9474 1.44257 56.3999 0.895387 57.9021 0.517335C59.0263 0.228821 60.2102 0.15918 61.3643 0C62.389 0 63.4237 0 64.4484 0C65.1946 0.288514 65.692 0.815797 65.9905 1.54206V17.7486L66.0004 17.7585ZM54.1216 19.0021C57.2157 17.7585 60.3595 17.4501 63.5431 17.4402C64.0604 17.4402 64.0704 17.1815 64.0704 16.7935C64.0704 12.0181 64.0704 7.23274 64.0704 2.45734C64.0704 2.29816 64.0405 2.12903 64.0107 1.89026C62.8367 1.94995 61.7026 1.96985 60.5783 2.06934C58.5488 2.23847 56.5491 2.60657 54.6688 3.46216C54.241 3.65119 54.0818 3.89991 54.0818 4.37745C54.1017 9.00362 54.0918 13.6298 54.0918 18.2659C54.0918 18.4748 54.1117 18.6838 54.1216 19.0021Z" fill="white"/>
<path d="M14.7734 27.0706C14.0571 26.6826 13.4005 26.404 12.8434 25.9961C12.2265 25.5385 11.8286 24.8421 11.8186 24.0661C11.7987 22.8523 11.6296 21.549 12.0077 20.4447C12.3758 19.3503 12.4355 18.3057 12.4554 17.2114C12.4852 15.7588 12.3957 14.2765 12.6145 12.8538C13.1916 9.15288 16.5244 6.34733 20.2651 6.30753C23.5482 6.27769 26.8214 6.28764 30.1044 6.30753C31.8654 6.30753 33.0791 7.4019 33.3179 9.17277C33.3676 9.53093 33.5069 9.68016 33.8651 9.73985C35.7752 10.0682 36.7303 11.2123 36.7303 13.1523C36.7303 14.9331 36.7303 16.7139 36.7303 18.4948C36.7303 20.2855 36.7303 22.0863 36.7303 23.877C36.7303 25.4091 36.1732 26.1851 34.7406 26.7522C34.5913 26.8119 34.4222 27.0208 34.3924 27.18C33.9148 30.0552 32.4524 32.2638 30.0149 33.8457C29.8557 33.9452 29.7065 34.2337 29.7363 34.4028C29.8259 34.8803 29.9453 35.3678 30.1542 35.8056C30.4527 36.4125 30.9302 36.7209 31.6863 36.7109C34.3426 36.6612 36.9989 36.691 39.6652 36.691C42.0429 36.691 43.4855 38.0639 43.396 40.4417C43.3263 42.2822 43.6049 43.884 44.6794 45.4957C46.2015 47.7839 46.7487 50.4601 46.7786 53.2059C46.7984 55.3748 46.7786 57.5336 46.7984 59.7025C46.7984 59.9512 46.9576 60.2695 47.1467 60.4387C48.1913 61.3341 48.5892 62.6075 48.1614 63.8511C47.7336 65.0748 46.6094 65.8806 45.2464 65.8806C31.2287 65.8806 17.2009 65.8806 3.18313 65.8806C1.8301 65.8806 0.695941 65.0648 0.278094 63.8411C-0.149703 62.6075 0.258196 61.344 1.30281 60.4387C1.49184 60.2795 1.63112 59.9512 1.64107 59.7025C1.67092 57.6431 1.65102 55.5837 1.66097 53.5243C1.66097 49.9925 2.67574 46.779 4.72518 43.884C4.90426 43.6253 5.00375 43.2671 5.02365 42.9488C5.06344 42.0534 5.02365 41.1481 5.04354 40.2527C5.07339 38.1137 6.46622 36.7209 8.6052 36.7109C11.3312 36.701 14.0472 36.6811 16.7731 36.7209C17.5093 36.7308 18.0167 36.4622 18.2555 35.8553C18.5042 35.2385 18.6037 34.552 18.7231 33.8855C18.7529 33.7462 18.6236 33.5074 18.4943 33.4079C16.3155 31.7763 15.1117 29.5876 14.7436 27.0905L14.7734 27.0706ZM6.98355 59.7622H41.5157C41.5157 59.4637 41.5157 59.215 41.5157 58.9563C41.5157 52.8478 41.5157 46.7392 41.5157 40.6307C41.5157 39.0489 41.068 38.6012 39.4861 38.6012C29.3284 38.6012 19.1608 38.6012 9.00315 38.6012C7.43124 38.6012 6.98355 39.0489 6.98355 40.6307C6.98355 44.2123 6.98355 47.7938 6.98355 51.3754C6.98355 52.3105 6.66519 52.7483 6.00857 52.7383C5.3619 52.7284 5.05349 52.2807 5.05349 51.3455C5.05349 50.2313 5.05349 49.117 5.05349 48.0027C5.05349 47.8237 5.02365 47.6545 4.9938 47.2964C2.9742 51.4152 3.79995 55.6334 3.59103 59.7622H5.05349C5.05349 59.3742 5.05349 59.0359 5.05349 58.6877C5.05349 57.8918 5.04354 57.0959 5.06344 56.3099C5.08334 55.7727 5.39175 55.3549 5.92898 55.3748C6.26724 55.3947 6.6254 55.6931 6.89401 55.9518C7.02335 56.0811 6.98355 56.3995 6.98355 56.6383C6.98355 57.663 6.98355 58.6877 6.98355 59.7721V59.7622ZM13.6691 21.2406C13.6691 21.947 13.6691 22.5737 13.6691 23.1906C13.6791 24.464 14.1367 24.9216 15.4101 24.9415C16.2359 24.9515 16.5344 25.2301 16.594 26.0359C16.9423 30.3139 20.096 33.3283 24.4038 33.4875C28.5524 33.6367 32.3031 30.3437 32.5419 26.3344C32.6215 25.0808 32.7608 24.9216 34.0342 24.852C34.5018 24.8222 34.7804 24.6232 34.8003 24.1655C34.8301 23.29 34.8003 22.4146 34.8003 21.5092C33.2582 21.738 32.0942 21.2804 31.2784 19.9871C31.2088 19.8776 30.9003 19.8577 30.7312 19.8876C29.3881 20.1363 28.055 20.1562 26.7119 19.8478C24.4237 19.3205 22.5633 18.067 20.9715 16.3757C20.4641 15.8384 19.9368 15.4405 19.1807 15.7489C18.4147 16.0573 18.3948 16.7338 18.4047 17.4203C18.4147 18.3455 18.4246 19.2608 18.4047 20.186C18.3649 21.5789 17.2109 22.4046 15.8877 21.9967C15.1813 21.7778 14.475 21.5192 13.6691 21.2406ZM16.4946 20.1761C16.4946 19.022 16.4747 17.9774 16.4946 16.9328C16.5344 14.9629 18.0167 13.6099 19.9766 13.7293C20.9416 13.789 21.658 14.2765 22.2947 14.9629C24.6127 17.4103 27.3188 18.6937 30.771 17.9078C31.6167 17.7187 32.323 18.0869 32.8304 18.7932C32.9697 18.9822 33.0692 19.2708 33.2482 19.3404C33.5965 19.4797 34.0243 19.609 34.3625 19.5095C34.5615 19.4498 34.7704 18.9822 34.7704 18.6937C34.8102 16.8035 34.8003 14.9232 34.7804 13.0329C34.7804 12.1474 34.4322 11.7495 33.6064 11.6202C32.124 11.3714 31.6167 10.8541 31.3779 9.33195C31.2685 8.61564 30.8506 8.21769 30.1144 8.21769C26.7517 8.21769 23.3791 8.16795 20.0164 8.23759C17.1014 8.30723 14.5148 10.874 14.3755 13.7591C14.2959 15.4504 14.3357 17.1417 14.3655 18.843C14.3655 19.0817 14.5247 19.4299 14.7137 19.5195C15.241 19.7781 15.818 19.9373 16.4647 20.1661L16.4946 20.1761ZM24.2347 63.9307C31.0993 63.9307 37.954 63.9307 44.8186 63.9307C45.8931 63.9307 46.4403 63.5427 46.4204 62.8065C46.4005 62.0902 45.8832 61.742 44.8286 61.742C31.1093 61.742 17.3899 61.742 3.67062 61.742C3.48159 61.742 3.28262 61.742 3.09359 61.742C2.51656 61.7917 2.08877 62.2394 2.06887 62.7866C2.04897 63.3537 2.48672 63.8511 3.08364 63.9207C3.27267 63.9406 3.47164 63.9207 3.66067 63.9207C10.5253 63.9207 17.38 63.9207 24.2446 63.9207L24.2347 63.9307ZM43.4656 59.7522H44.9082C44.6694 55.5936 45.525 51.3754 43.4656 47.4755V59.7522ZM20.1457 36.6413H28.3634C28.1744 36.0642 27.9854 35.5071 27.8361 35.0694C26.5925 35.1888 25.3987 35.4275 24.2247 35.3877C23.0508 35.3479 21.8868 35.0196 20.7029 34.8206C20.5337 35.3678 20.3447 35.9946 20.1457 36.6512V36.6413Z" fill="white"/>
<path d="M44.9483 4.38739C46.5899 4.6759 48.2414 4.94452 49.8729 5.26288C50.5694 5.40216 50.9076 5.88965 50.7783 6.42688C50.639 7.02381 50.1515 7.23273 49.4153 7.11335C47.7638 6.85468 46.1123 6.63581 44.4608 6.40699C43.7843 6.31745 43.3565 5.90955 43.4063 5.35242C43.4461 4.79529 43.8739 4.47693 44.5404 4.47693C44.6698 4.47693 44.7991 4.47693 44.9284 4.47693C44.9284 4.44708 44.9384 4.40729 44.9483 4.37744V4.38739Z" fill="white"/>
<path d="M44.7394 12.3961C46.4704 12.6946 48.2015 12.9532 49.9127 13.3114C50.241 13.381 50.5992 13.7591 50.7285 14.0775C50.8181 14.3063 50.639 14.8037 50.4201 14.9529C50.1415 15.142 49.7038 15.1718 49.3456 15.1221C47.7538 14.9231 46.172 14.6445 44.5802 14.4456C43.7743 14.3461 43.3465 14.0078 43.3863 13.4009C43.4261 12.7941 43.9136 12.4558 44.7195 12.3961H44.7394Z" fill="white"/>
<path d="M44.5307 8.15796C46.3413 8.46637 48.152 8.75488 49.9627 9.10309C50.6691 9.24237 50.9675 9.8194 50.7188 10.3865C50.5198 10.864 50.1517 11.0431 49.6344 10.9735C47.8834 10.7148 46.1225 10.4561 44.3715 10.2074C43.7248 10.1079 43.3468 9.70002 43.4164 9.15283C43.4761 8.6156 43.9039 8.28729 44.5406 8.15796H44.5307Z" fill="white"/>
<path d="M62.7961 9.25233C62.7961 9.80946 62.4778 10.1378 61.8112 10.2174C60.5377 10.3765 59.2643 10.5158 57.9909 10.6849C57.5233 10.7446 57.0756 10.8939 56.608 10.9735C56.031 11.073 55.5833 10.8043 55.4539 10.3168C55.3147 9.77961 55.5733 9.24238 56.1603 9.14289C58.0307 8.82453 59.911 8.55592 61.8012 8.31715C62.3882 8.24751 62.7862 8.70515 62.7862 9.26228L62.7961 9.25233Z" fill="white"/>
<path d="M62.7964 5.5315C62.7666 6.01899 62.4283 6.31745 61.8712 6.39704C60.1003 6.65571 58.3195 6.92432 56.5486 7.17304C56.0114 7.25263 55.6234 7.00391 55.4642 6.48658C55.305 5.9593 55.5836 5.43201 56.1606 5.30268C57.3545 5.04401 58.5483 4.82514 59.7521 4.64606C60.4286 4.54657 61.1151 4.51673 61.8016 4.49683C62.4084 4.48688 62.7865 4.87488 62.7865 5.54145L62.7964 5.5315Z" fill="white"/>
<path d="M56.4495 15.2017C55.9222 15.2017 55.5839 14.9629 55.4646 14.4953C55.3452 14.0078 55.5044 13.5402 56.0018 13.4009C56.9469 13.1423 57.912 12.9334 58.8869 12.804C59.3744 12.7344 59.7326 13.0826 59.8221 13.5999C59.9017 14.0874 59.6928 14.4953 59.2351 14.6246C58.3099 14.8734 57.3548 15.0325 56.4495 15.2116V15.2017Z" fill="white"/>
<path d="M29.2396 49.9825C29.2595 52.7383 27.0609 54.9768 24.2951 55.0166C21.5592 55.0564 19.2909 52.8278 19.261 50.072C19.2312 47.2764 21.4498 45.0181 24.2354 45.0181C27.0012 45.0181 29.2197 47.2167 29.2396 49.9825ZM27.3096 50.0123C27.3096 48.3012 25.9565 46.9481 24.2454 46.9481C22.5441 46.9481 21.1911 48.3012 21.1911 50.0123C21.1911 51.7036 22.564 53.0865 24.2553 53.0865C25.9466 53.0865 27.3096 51.7036 27.3096 50.0024V50.0123Z" fill="white"/>
</g>
<defs>
<clipPath id="clip0_2048_4133">
<rect width="66" height="66" fill="white"/>
</clipPath>
</defs>
</svg>
