<svg width="66" height="66" viewBox="0 0 66 66" fill="none" xmlns="http://www.w3.org/2000/svg">
<g clip-path="url(#clip0_2048_4154)">
<path d="M53.7728 0C54.5687 0.169129 55.3646 0.298462 56.1406 0.517335C64.995 3.00452 68.7357 13.6696 63.3734 21.1311C63.1943 21.3799 62.9356 21.6982 62.6769 21.738C62.3486 21.7878 61.9109 21.6684 61.6622 21.4495C61.304 21.1411 61.3936 20.6834 61.6224 20.2756C62.1596 19.3105 62.8262 18.3753 63.1943 17.3407C64.7164 13.003 63.9902 9.00362 60.8663 5.63099C57.6528 2.15888 53.5937 1.06452 49.077 2.47724C44.6996 3.84022 42.0034 6.95418 41.2175 11.4709C39.9341 18.7733 45.8934 25.2997 53.2853 24.8022C55.1756 24.6729 56.9365 24.1058 58.5482 23.091C58.7273 22.9816 58.9064 22.8523 59.0954 22.7528C59.6227 22.4742 60.1599 22.5936 60.4385 23.0612C60.7071 23.5089 60.6275 24.0461 60.1201 24.3545C59.3043 24.8619 58.4388 25.2897 57.5931 25.7474C57.3842 25.8568 57.1653 25.9364 56.9863 26.016C57.3942 27.5381 57.8518 29.0006 58.1702 30.5029C60.6076 41.745 55.9018 53.7531 46.5102 60.3889C40.9986 64.2888 34.8602 66.1691 28.1349 65.8408C19.1512 65.4031 11.8587 61.5629 6.21779 54.5589C5.74025 53.972 5.75019 53.4049 6.21779 53.0268C6.70527 52.6289 7.24251 52.7383 7.74989 53.385C10.9534 57.4242 14.903 60.5083 19.7779 62.1896C30.2341 65.7911 39.7351 64.0003 48.0125 56.6382C52.7978 52.3901 55.5636 46.9481 56.5485 40.6307C57.2947 35.8354 56.7674 31.1495 55.0562 26.6626H49.8828C52.4198 32.2141 52.8774 37.9943 50.8379 43.864C48.8084 49.7239 44.9483 54.0516 39.4168 56.8372C30.443 61.3539 19.2307 59.1851 12.5551 51.6838C5.56117 43.8242 4.76527 32.6418 10.5156 23.8969C15.7487 15.918 27.4683 10.5158 39.2277 15.9777V10.7148C37.6359 10.3069 35.9447 9.74977 34.2036 9.45131C21.8373 7.26259 9.62026 13.6099 4.43696 25.0609C0.726075 33.2587 1.10413 41.4564 5.18312 49.4751C5.27265 49.6443 5.37214 49.8134 5.46168 49.9825C5.77009 50.5993 5.65071 51.1565 5.14332 51.4251C4.63593 51.6937 4.06886 51.5047 3.76044 50.8779C3.09388 49.5149 2.39747 48.1519 1.86023 46.7392C0.895204 44.2321 0.328126 41.6156 0.119202 38.9295C0.109253 38.7404 0.0495606 38.5514 0.00976562 38.3723C0.00976562 37.1287 0.00976562 35.8851 0.00976562 34.6415C0.0495606 34.4525 0.0993044 34.2734 0.119202 34.0844C0.686281 27.4585 3.11378 21.5888 7.6703 16.7537C15.2314 8.7151 24.5235 5.75038 35.3776 7.74013C36.8798 8.01869 38.3522 8.51613 39.8744 8.92403C39.9341 8.79469 40.0137 8.61562 40.0833 8.44649C41.5955 4.84504 44.1623 2.29816 47.8135 0.915285C48.888 0.457642 50.0719 0.288514 51.206 0C52.0616 0 52.9172 0 53.7828 0H53.7728ZM19.8675 54.9071C22.5735 56.3099 25.3791 57.0461 28.4333 57.2053V56.5586C28.4333 55.703 28.4333 54.8475 28.4333 53.9819C28.4333 53.1164 28.7617 52.6587 29.3785 52.6388C30.0052 52.6289 30.3535 53.0965 30.3535 53.9421C30.3535 54.4595 30.3535 54.9668 30.3535 55.4842C30.3535 56.0513 30.3535 56.6183 30.3535 57.1954C33.4276 57.0362 36.2332 56.29 38.8497 54.927C38.8497 54.8475 38.8497 54.8176 38.8497 54.7977C38.6109 54.3699 38.3622 53.9421 38.1334 53.5044C37.7951 52.8876 37.9046 52.3404 38.4219 52.0519C38.9293 51.7633 39.4466 51.9424 39.8147 52.5592C40.0833 52.997 40.332 53.4347 40.6106 53.9123C43.1575 52.2508 45.2268 50.1914 46.8684 47.6545C46.5898 47.4953 46.3709 47.356 46.1521 47.2267C45.9332 47.0974 45.7044 46.968 45.4855 46.8387C44.9085 46.4806 44.7294 45.9931 44.998 45.4956C45.2766 44.9683 45.8337 44.839 46.4406 45.1673C46.8982 45.416 47.3559 45.6847 47.8434 45.9632C49.2362 43.2572 49.9823 40.4516 50.1316 37.4073C49.0074 37.4073 47.9229 37.4073 46.8385 37.4073C46.0327 37.4073 45.575 37.0491 45.575 36.4423C45.575 35.8354 46.0227 35.4772 46.8286 35.4772C47.913 35.4772 49.0074 35.4772 50.1415 35.4772C49.9923 32.423 49.2461 29.6075 47.8533 26.9114C47.336 27.2098 46.8783 27.4884 46.4107 27.7371C45.8337 28.0455 45.3064 27.9062 45.0179 27.4088C44.7393 26.9213 44.9085 26.4139 45.4756 26.0558C45.8337 25.8369 46.1919 25.628 46.4505 25.4787C45.3064 24.5834 44.0628 23.7775 43.0481 22.7627C42.0432 21.7579 41.2573 20.5243 40.3818 19.4001C40.2624 19.609 40.0933 19.8876 39.9341 20.1562C39.4864 20.9322 39.0089 21.151 38.4517 20.8327C37.8946 20.5143 37.825 19.9771 38.2528 19.221C38.4716 18.833 38.7005 18.445 38.9492 18.0072C36.2531 16.6144 33.4376 15.8583 30.3833 15.719C30.3833 15.9976 30.3833 16.2264 30.3833 16.4552C30.3833 17.4004 30.3932 18.3455 30.3833 19.2807C30.3733 19.8677 29.9456 20.2756 29.4183 20.2756C28.9109 20.2756 28.5229 19.8776 28.4731 19.3205C28.4532 19.1115 28.4731 18.8927 28.4731 18.6738C28.4731 17.6889 28.4731 16.7139 28.4731 15.6991C25.4089 15.8583 22.5934 16.5945 19.9172 17.9973C20.2057 18.4947 20.4544 18.9225 20.6932 19.3503C21.0414 19.9771 20.9419 20.5044 20.4445 20.8128C19.9371 21.1212 19.4198 20.9421 19.0417 20.3452C18.7731 19.9074 18.5244 19.4598 18.2359 18.9723C15.689 20.6138 13.6296 22.6831 11.9781 25.23C12.4855 25.5285 12.9431 25.7872 13.4008 26.0657C13.9579 26.4139 14.1171 26.9412 13.8286 27.4287C13.5301 27.9162 13.0128 28.0356 12.4258 27.7272C11.9582 27.4784 11.5105 27.2098 11.0031 26.9213C9.61031 29.6373 8.8542 32.4429 8.71492 35.4872C9.90877 35.4872 11.0429 35.4872 12.1771 35.4872C12.8337 35.4872 13.2516 35.8652 13.2714 36.4124C13.2913 36.9795 12.8536 37.3874 12.1671 37.4073C11.9284 37.4073 11.6995 37.4073 11.4608 37.4073C10.5455 37.4073 9.63021 37.4073 8.70497 37.4073C8.86415 40.4715 9.60036 43.2671 11.0031 45.9632C11.2718 45.814 11.4807 45.6847 11.6995 45.5653C11.9383 45.426 12.1771 45.2768 12.4258 45.1474C13.0028 44.839 13.5401 44.9683 13.8286 45.4558C14.1071 45.9433 13.948 46.4607 13.3908 46.8188C12.9431 47.0974 12.4755 47.356 11.9781 47.6545C13.6296 50.2014 15.689 52.2707 18.2359 53.9123C18.4746 53.5044 18.6935 53.1363 18.9124 52.7682C19.38 51.9524 19.8774 51.7335 20.4445 52.0718C21.0016 52.41 21.0414 52.9373 20.5738 53.7531C20.3749 54.1013 20.1659 54.4595 19.9172 54.8872L19.8675 54.9071Z" fill="white"/>
<path d="M51.0772 12.9035C51.9726 11.1127 52.7983 9.45129 53.6241 7.78985C53.8628 7.31231 54.0817 6.82482 54.3404 6.34728C54.9671 5.18327 56.2008 4.75548 57.4046 5.30266C58.0413 5.60112 58.678 5.91948 59.3048 6.23784C60.6578 6.92431 61.0757 8.15795 60.4091 9.52093C58.5586 13.2617 56.7082 17.0024 54.8378 20.7332C54.6488 21.1212 54.3503 21.5888 53.9822 21.728C52.3407 22.3847 50.6195 22.4643 48.9183 21.9469C48.5403 21.8375 48.202 21.3997 47.9831 21.0316C46.6997 18.9523 45.4561 16.8532 44.2125 14.754C43.4664 13.4905 43.8047 12.217 45.0582 11.441C45.6651 11.0729 46.262 10.7048 46.8788 10.3566C48.0428 9.70996 49.2964 10.0184 50.0226 11.1326C50.3708 11.6699 50.6892 12.227 51.0871 12.8936L51.0772 12.9035ZM51.117 20.2954C51.7139 20.2656 52.1318 20.2755 52.5297 20.2059C52.7486 20.1661 53.0271 20.0268 53.1167 19.8477C54.9771 16.1368 56.8176 12.416 58.6681 8.70513C58.8571 8.31713 58.7377 8.11816 58.3796 7.94903C57.8921 7.72021 57.4046 7.50133 56.947 7.23272C56.4197 6.92431 56.1312 7.02379 55.8625 7.58092C54.6488 10.1079 53.4052 12.615 52.1218 15.1121C51.9527 15.4404 51.5249 15.8185 51.1966 15.8284C50.8683 15.8384 50.4206 15.5101 50.2116 15.2017C49.5849 14.2864 49.0476 13.3114 48.4806 12.3464C48.2617 11.9683 48.0229 11.8987 47.6449 12.1375C47.1773 12.4459 46.7097 12.7443 46.2123 12.993C45.6949 13.2617 45.6949 13.5601 45.9735 14.0178C46.9982 15.6991 48.0627 17.3605 48.988 19.0916C49.5252 20.1064 50.142 20.6337 51.107 20.3054L51.117 20.2954Z" fill="white"/>
<path d="M25.6979 32.7314C25.6979 31.438 25.6184 30.2342 25.7178 29.0404C25.9069 26.5233 28.5433 24.9614 30.8613 25.9662C32.1646 26.5333 33.0202 27.5381 33.07 28.9508C33.1595 31.5773 33.1794 34.2237 33.07 36.8502C32.9904 38.7802 31.3588 40.1531 29.3292 40.173C27.041 40.2029 24.7429 40.173 22.4547 40.173C21.3205 40.173 20.1863 40.2029 19.0522 40.1432C17.2017 40.0437 15.7492 38.5912 15.5801 36.7805C15.4209 34.9897 16.5749 33.3183 18.3259 32.8607C18.7537 32.7513 19.2114 32.7214 19.6591 32.7214C21.3901 32.7015 23.1312 32.7214 24.8622 32.7214C25.0911 32.7214 25.3298 32.7214 25.688 32.7214L25.6979 32.7314ZM27.628 32.8905C27.628 32.8905 27.6081 32.8905 27.5982 32.8905C27.5982 34.0247 27.5783 35.1589 27.5982 36.293C27.6181 37.4968 28.3543 38.2728 29.4188 38.2529C30.4534 38.243 31.1897 37.4769 31.1996 36.3129C31.2195 34.0645 31.2096 31.8161 31.1996 29.5776C31.1996 29.2891 31.1499 28.9707 31.0404 28.7021C30.742 27.9361 29.966 27.5182 29.1203 27.6376C28.3344 27.747 27.6777 28.3539 27.6379 29.1697C27.5783 30.4034 27.628 31.647 27.628 32.8905ZM25.5786 34.7211C23.3699 34.7211 21.1414 34.6913 18.9228 34.741C18.306 34.751 17.8882 35.2186 17.6494 35.7956C17.142 36.9994 17.9976 38.243 19.3904 38.2629C21.4697 38.2927 23.549 38.2728 25.6283 38.2629C25.7676 38.2629 25.8969 38.2231 25.9069 38.2231C25.7974 37.0193 25.688 35.8851 25.5885 34.7211H25.5786Z" fill="white"/>
</g>
<defs>
<clipPath id="clip0_2048_4154">
<rect width="66" height="66" fill="white"/>
</clipPath>
</defs>
</svg>
