<svg width="66" height="66" viewBox="0 0 66 66" fill="none" xmlns="http://www.w3.org/2000/svg">
<g clip-path="url(#clip0_2048_4164)">
<path d="M24.3143 0C25.3987 0.348206 26.3737 0.87549 26.901 1.94001C27.1596 2.44739 27.2989 3.01447 27.4979 3.5716C28.3535 3.15375 29.2887 3.00452 30.2636 3.26319C31.8853 3.70093 33.0195 5.15345 33.0493 6.86464C33.0692 8.29726 33.0493 9.72988 33.0493 11.0431C33.9447 10.9735 34.8202 10.7546 35.6459 10.874C37.4864 11.1426 38.7101 12.7344 38.7101 14.6744C38.7101 20.375 38.73 26.0856 38.7101 31.7863C38.7101 34.4426 38.6902 37.0989 38.5609 39.7552C38.5012 40.9789 38.163 42.2026 37.9043 43.4163C37.775 44.0133 37.2775 44.3018 36.7502 44.1625C36.2229 44.0232 35.9444 43.5755 36.1135 42.9587C36.79 40.4516 36.8497 37.8848 36.8398 35.3081C36.8199 28.5529 36.8398 21.7977 36.8298 15.0425C36.8298 14.6844 36.8298 14.3063 36.7303 13.9581C36.4916 13.1125 35.5962 12.5553 34.7406 12.6648C33.7457 12.7941 33.0592 13.5701 33.0592 14.6147C33.0592 17.6391 33.0592 20.6636 33.0592 23.688C33.0592 24.2451 33.0692 24.8022 33.0592 25.3594C33.0393 25.9961 32.6911 26.3741 32.144 26.3841C31.5968 26.3841 31.2386 26.0359 31.1889 25.3992C31.169 25.2101 31.1889 25.0112 31.1889 24.8221C31.1889 19.0121 31.1889 13.202 31.1889 7.39192C31.1889 7.03377 31.1889 6.65571 31.0794 6.31746C30.8307 5.47181 29.9453 4.92463 29.0797 5.03407C28.2142 5.1435 27.5078 5.86976 27.4183 6.74525C27.3984 6.95418 27.4183 7.17305 27.4183 7.39192C27.4183 13.2418 27.4183 19.1016 27.4183 24.9515C27.4183 25.1902 27.4382 25.429 27.3885 25.6578C27.2691 26.1254 26.9706 26.404 26.4732 26.394C26.0056 26.394 25.6972 26.1453 25.5977 25.6877C25.538 25.4191 25.538 25.1305 25.538 24.8619C25.538 17.9973 25.538 11.1426 25.538 4.27796C25.538 3.91981 25.538 3.54175 25.4385 3.19355C25.1898 2.32801 24.364 1.82062 23.4488 1.91016C22.5733 1.9997 21.8669 2.70606 21.7774 3.5915C21.7575 3.80042 21.7674 4.01929 21.7674 4.23817C21.7674 11.1426 21.7674 18.047 21.7674 24.9515C21.7674 25.1902 21.7873 25.429 21.7376 25.6578C21.6182 26.1254 21.3197 26.404 20.8223 26.394C20.3547 26.394 20.0463 26.1453 19.9468 25.6976C19.8871 25.4489 19.8871 25.1902 19.8871 24.9316C19.8871 19.3105 19.8871 13.6994 19.8871 8.07838C19.8871 7.72023 19.8871 7.34218 19.7777 6.99397C19.519 6.14833 18.6137 5.5912 17.778 5.72053C16.8129 5.86976 16.1265 6.62587 16.1165 7.63069C16.1066 9.74977 16.1165 11.8788 16.1165 13.9979C16.1165 14.2168 16.1364 14.4356 16.0867 14.6346C15.9673 15.1022 15.6489 15.3708 15.1515 15.3609C14.6939 15.3509 14.3854 15.1022 14.286 14.6446C14.2362 14.4157 14.2362 14.177 14.2362 13.9382C14.2362 12.028 14.3257 10.1179 14.2163 8.21767C14.0273 5.09376 16.7532 2.92493 19.8573 4.25806C19.8772 4.02924 19.8871 3.83027 19.907 3.63129C20.0562 1.89026 21.0113 0.676515 22.6728 0.139282C22.7722 0.109436 22.8518 0.0497437 22.9513 0C23.4189 0 23.8964 0 24.364 0L24.3143 0Z" fill="white"/>
<path d="M53.5239 31.7465C53.5239 29.3289 53.5239 27.0109 53.5239 24.7028C53.5239 23.5786 53.8024 23.3099 54.9366 23.3099C56.22 23.3099 57.5133 23.3099 58.7967 23.3099C59.8413 23.3099 60.1099 23.5885 60.1199 24.653C60.1199 26.7522 60.1199 28.8514 60.1199 30.9506C60.1199 31.1794 60.1199 31.4182 60.1199 31.7365C60.7964 31.7365 61.4033 31.7564 62.0201 31.7365C62.627 31.7166 62.9752 31.9852 63.1742 32.5424C63.8905 34.5321 64.6366 36.5219 65.3529 38.5116C65.4624 38.83 65.5022 39.1782 65.5022 39.5164C65.5022 47.8734 65.5022 56.2303 65.5022 64.5873C65.5022 65.5623 65.2137 65.8607 64.2486 65.8607C59.2942 65.8607 54.3496 65.8607 49.3951 65.8607C48.4699 65.8607 48.1416 65.5523 48.1416 64.637C48.1416 56.2403 48.1416 47.8336 48.1416 39.4369C48.1416 39.0986 48.2212 38.7504 48.3306 38.442C49.027 36.492 49.7632 34.5421 50.4597 32.5921C50.6785 31.9753 51.0665 31.7067 51.7132 31.7365C52.2902 31.7664 52.8573 31.7365 53.5139 31.7365L53.5239 31.7465ZM50.0816 60.0606V63.9506H63.592V60.0606C62.1295 60.0606 60.7168 60.0606 59.3041 60.0606C58.5281 60.0606 58.0904 59.7224 58.0804 59.1354C58.0804 58.5385 58.5082 58.1902 59.2743 58.1803C59.4235 58.1803 59.5727 58.1803 59.7219 58.1803C61.0053 58.1803 62.2788 58.1803 63.592 58.1803V45.9135H50.0717V58.1803C50.3701 58.1803 50.6288 58.1803 50.8775 58.1803C52.1012 58.1803 53.3249 58.1803 54.5386 58.1803C55.0759 58.1803 55.4539 58.4489 55.5435 58.9862C55.6231 59.4637 55.3942 59.8318 54.9266 59.981C54.7078 60.0507 54.4591 60.0606 54.2302 60.0606C52.8573 60.0606 51.4844 60.0606 50.0717 60.0606H50.0816ZM63.6119 40.0736H50.0617V43.9436H63.6119V40.0736ZM63.2239 38.1634C62.7066 36.7507 62.2091 35.4375 61.7515 34.1043C61.6122 33.7163 61.4132 33.5969 61.0053 33.5969C58.4784 33.6168 55.9514 33.5969 53.4244 33.5969C52.5356 33.5969 51.9354 34.0214 51.6237 34.8704C51.2357 35.9448 50.8477 37.0193 50.4398 38.1535H63.2239V38.1634ZM58.2097 31.7166V25.2499H55.4738V31.7166H58.2097Z" fill="white"/>
<path d="M16.5154 52.8677H33.299C33.5576 51.7435 33.8063 50.6392 34.0849 49.5547C34.2739 48.8086 34.5226 48.0724 34.7614 47.3461C34.9803 46.6696 35.4678 46.401 36.0349 46.59C36.5422 46.7691 36.7313 47.2665 36.5422 47.9232C36.0846 49.5448 35.627 51.1565 35.1594 52.8179C35.7165 52.8876 36.1244 52.9075 36.5223 52.9771C38.2136 53.2756 39.5866 54.6485 39.6363 56.3497C39.7258 59.1951 39.686 62.0504 39.686 64.9057C39.686 65.4926 39.2682 65.8608 38.7608 65.8508C38.2136 65.8508 37.8356 65.433 37.8356 64.7664C37.8356 62.2195 37.8356 59.6627 37.8356 57.1158C37.8356 55.5638 37.0596 54.7778 35.5076 54.7778C28.4539 54.7778 21.4002 54.7778 14.3466 54.7778C12.8045 54.7778 12.0285 55.5538 12.0186 57.1158C12.0186 59.5433 12.0186 61.9608 12.0186 64.3883C12.0186 64.5774 12.0186 64.7763 12.0086 64.9654C11.9589 65.5225 11.6405 65.8409 11.0933 65.8409C10.5462 65.8409 10.188 65.5125 10.1781 64.9654C10.1681 62.0703 10.1084 59.1752 10.2179 56.2801C10.2875 54.4396 11.9688 53.0169 13.9088 52.8876C14.1377 52.8677 14.3665 52.8577 14.6351 52.8478C14.5953 49.5348 13.7298 46.5403 11.4913 44.0829C10.1383 42.6006 8.68574 41.1878 7.27302 39.7552C5.41261 37.8849 3.52234 36.0443 1.68182 34.1541C0.35864 32.8309 0.000485415 31.2192 0.677 29.4881C1.33362 27.7769 2.66675 26.8418 4.50727 26.7124C5.81056 26.6229 6.94471 27.0706 7.8799 28.0058C9.14339 29.2593 10.387 30.5327 11.6604 31.7763C11.9887 32.0947 12.3966 32.3633 12.8045 32.5822C13.3219 32.8607 13.7696 32.6618 13.9287 32.1245C14.0879 31.5575 14.1874 30.9506 14.1874 30.3636C14.2073 26.6925 14.1974 23.0314 14.1974 19.3603C14.1974 19.1215 14.1974 18.8828 14.2371 18.6539C14.3267 18.1664 14.6351 17.8978 15.1325 17.8978C15.6598 17.8978 15.9583 18.2062 16.0578 18.7037C16.0976 18.8927 16.0777 19.0917 16.0777 19.2807C16.0777 22.8424 16.0976 26.404 16.0677 29.9557C16.0677 30.9307 15.9185 31.9057 15.8289 32.9204C16.595 33.1592 17.5003 33.398 18.3758 33.7362C22.3255 35.2982 24.743 38.1037 25.2902 42.3916C25.3201 42.6503 25.3499 42.909 25.3399 43.1577C25.3101 43.675 25.0116 44.0033 24.4943 44.0431C23.977 44.0829 23.6188 43.8342 23.5193 43.3069C23.3999 42.7001 23.3701 42.0733 23.2209 41.4664C22.3852 38.054 20.0273 36.1438 16.8238 35.149C15.7693 34.8207 14.645 34.6416 13.5507 34.5719C12.3369 34.5023 11.352 34.0844 10.5064 33.2487C9.21303 31.9654 7.91969 30.672 6.6363 29.3886C5.94984 28.7022 5.13404 28.3938 4.17896 28.6226C2.22901 29.0902 1.58234 31.4082 3.01496 32.8707C4.90522 34.8008 6.83528 36.691 8.74544 38.6111C10.0587 39.9343 11.3918 41.2376 12.6752 42.5906C15.1823 45.227 16.3264 48.4305 16.4756 52.032C16.4856 52.2807 16.5055 52.5394 16.5254 52.8577L16.5154 52.8677Z" fill="white"/>
<path d="M16.008 60.3292C15.6498 60.3292 15.2817 60.3591 14.9236 60.3292C14.3864 60.2795 14.0481 59.991 14.0282 59.4339C14.0083 58.8668 14.3366 58.5186 14.8639 58.4887C15.6299 58.439 16.406 58.439 17.172 58.4887C17.7092 58.5285 18.0375 58.8867 18.0176 59.4339C17.9978 59.981 17.6495 60.2894 17.1123 60.3292C16.7542 60.3591 16.3861 60.3292 16.0279 60.3292H16.008Z" fill="white"/>
<path d="M49.1472 24.0859C49.3859 24.0859 49.6247 24.0561 49.8535 24.0859C50.351 24.1754 50.6693 24.4839 50.6693 25.0012C50.6693 25.5185 50.3709 25.8568 49.8635 25.9264C49.4456 25.9861 49.0079 25.9762 48.5801 25.9463C48.013 25.9165 47.625 25.5185 47.625 25.0211C47.625 24.5038 48.0329 24.1058 48.6298 24.066C48.799 24.0561 48.9681 24.066 49.1472 24.066C49.1472 24.066 49.1472 24.066 49.1472 24.076V24.0859Z" fill="white"/>
<path d="M42.4517 24.076C42.6407 24.076 42.8397 24.066 43.0287 24.076C43.6058 24.1257 43.9838 24.4839 43.9938 24.9912C44.0037 25.5185 43.6157 25.9165 43.0188 25.9563C42.6606 25.9762 42.2925 25.9762 41.9344 25.9563C41.3374 25.9165 40.9395 25.4986 40.9693 24.9713C40.9892 24.464 41.3772 24.1058 41.9543 24.066C42.1234 24.0561 42.2925 24.066 42.4617 24.066L42.4517 24.076Z" fill="white"/>
<path d="M48.7089 27.8366C49.0571 28.155 49.4252 28.344 49.5148 28.6226C49.6043 28.9111 49.5247 29.3986 49.3257 29.5876C48.9278 29.9557 48.4204 30.2442 47.9031 30.4034C47.6444 30.483 47.1569 30.3039 46.9778 30.085C46.7988 29.8562 46.7391 29.2692 46.8883 29.12C47.3957 28.6425 48.0224 28.2943 48.7089 27.8366Z" fill="white"/>
<path d="M43.844 32.3434C43.8241 32.413 43.8241 32.602 43.7445 32.6518C43.1178 33.0497 42.491 33.4775 41.8145 33.776C41.6652 33.8357 41.1678 33.4377 41.0584 33.1691C40.9589 32.9204 41.0584 32.4429 41.2673 32.2638C41.6553 31.9156 42.1428 31.637 42.6303 31.438C43.2073 31.1993 43.844 31.6867 43.844 32.3533V32.3434Z" fill="white"/>
<path d="M43.8439 17.5993C43.8141 18.3853 43.1774 18.8429 42.6003 18.6141C42.1526 18.4251 41.7149 18.1664 41.3269 17.8779C40.909 17.5695 40.8295 17.1218 41.108 16.684C41.3766 16.2562 41.7945 16.0971 42.272 16.3358C42.66 16.5249 43.048 16.7139 43.3763 16.9825C43.6052 17.1616 43.7345 17.47 43.834 17.6093L43.8439 17.5993Z" fill="white"/>
<path d="M49.6338 20.972C49.6338 21.6684 49.0469 22.1857 48.4997 21.9768C47.9525 21.7679 47.4153 21.4594 46.9974 21.0615C46.8084 20.8824 46.7785 20.2954 46.9278 20.0467C47.0869 19.798 47.6043 19.5592 47.8729 19.6388C48.4101 19.798 48.8976 20.1462 49.3553 20.4745C49.5244 20.5939 49.5741 20.8725 49.6239 20.9819L49.6338 20.972Z" fill="white"/>
<path d="M55.8821 51.0769C55.8821 50.4999 55.8721 49.9925 55.8821 49.4851C55.902 48.8185 56.2701 48.4007 56.8073 48.3907C57.3744 48.3907 57.7425 48.8185 57.7524 49.5249C57.7524 50.0124 57.7524 50.4999 57.7524 51.0769C58.2996 51.0769 58.7971 51.0769 59.3045 51.0769C60.0108 51.0869 60.4486 51.455 60.4386 52.022C60.4386 52.5593 60.0108 52.9274 59.3442 52.9473C58.8369 52.9672 58.3295 52.9473 57.7524 52.9473C57.7524 53.5243 57.7524 54.0317 57.7524 54.5391C57.7425 55.2156 57.3843 55.6135 56.8272 55.6135C56.2701 55.6135 55.9119 55.2255 55.8821 54.549C55.8622 54.0615 55.8622 53.5641 55.8423 53.0766C55.8423 53.0567 55.8124 53.0468 55.7329 52.9473C55.2951 52.9473 54.7877 52.9572 54.2803 52.9473C53.5939 52.9274 53.2158 52.5792 53.2158 52.0121C53.2158 51.445 53.6138 51.0869 54.2803 51.0769C54.7877 51.067 55.2951 51.0769 55.8721 51.0769H55.8821Z" fill="white"/>
</g>
<defs>
<clipPath id="clip0_2048_4164">
<rect width="66" height="66" fill="white"/>
</clipPath>
</defs>
</svg>
