<svg width="66" height="66" viewBox="0 0 66 66" fill="none" xmlns="http://www.w3.org/2000/svg">
<g clip-path="url(#clip0_2048_4193)">
<path d="M30.4929 0C31.7266 0.467591 32.6817 1.21375 32.8508 2.60657C32.9403 3.34278 32.9304 4.10883 32.8906 4.85499C32.8707 5.40217 32.3932 5.78022 31.8957 5.76033C31.3883 5.74043 31.0103 5.35243 30.9904 4.78535C30.9705 4.24812 30.9904 3.71088 30.9804 3.17365C30.9506 2.37775 30.5128 1.94995 29.7169 1.94001C23.3298 1.94001 16.9427 1.94001 10.5457 1.94001C9.7498 1.94001 9.3021 2.3678 9.29216 3.17365C9.27226 5.70063 9.27226 8.23756 9.29216 10.7645C9.29216 11.6301 9.75975 12.0081 10.7248 12.0081C14.6744 12.0081 18.6141 12.0081 22.5638 12.0081C24.8818 12.0081 27.19 12.0081 29.508 12.0081C30.5924 12.0081 30.9705 11.6201 30.9804 10.5258C30.9804 10.0781 30.9705 9.62044 30.9804 9.17275C31.0103 8.58577 31.3585 8.21767 31.8858 8.20772C32.4429 8.19777 32.8408 8.50618 32.8607 9.02351C32.8906 9.9388 32.9105 10.8839 32.7314 11.7694C32.4827 12.9632 31.4878 13.6895 29.9657 13.9581C29.9657 14.8535 30.0552 15.7787 29.9458 16.6741C29.7766 18.0271 30.2542 18.8529 31.3883 19.6587C34.0944 21.5888 36.2433 24.0561 37.4969 27.1999C38.0241 28.5131 38.2729 29.8661 38.2729 31.2789C38.2729 41.2276 38.2729 51.1764 38.2729 61.1251C38.2729 64.0102 36.3925 65.8707 33.5074 65.8707C24.5933 65.8707 15.6693 65.8707 6.75522 65.8707C3.87009 65.8707 1.98977 64.0202 1.98977 61.1351C1.97982 51.1863 1.98977 41.2376 1.98977 31.2888C1.98977 27.8068 3.48209 24.9316 5.7902 22.4842C7.03379 21.1709 8.51615 20.0865 9.86918 18.8728C10.0682 18.6937 10.2572 18.3753 10.2671 18.1067C10.3069 16.7437 10.287 15.3708 10.287 13.978C10.0284 13.9183 9.79954 13.8785 9.58067 13.8089C8.22764 13.4109 7.37205 12.2668 7.3621 10.7745C7.3422 8.24751 7.35215 5.71058 7.3621 3.1836C7.3621 1.52216 8.30723 0.55713 9.76969 0H30.483L30.4929 0ZM36.313 34.6415H3.95963V55.5837C4.22824 55.5837 4.46701 55.5837 4.69583 55.5837C8.96385 55.5837 13.2319 55.5837 17.4999 55.5837C17.7088 55.5837 17.9376 55.5638 18.1366 55.6135C18.6241 55.7329 18.9225 56.0612 18.9026 56.5885C18.8827 57.1058 18.5743 57.4142 18.067 57.4938C17.858 57.5336 17.6392 57.5137 17.4203 57.5137C13.1722 57.5137 8.934 57.5137 4.68588 57.5137C4.45706 57.5137 4.21829 57.5137 3.91983 57.5137C3.91983 58.7175 3.91983 59.8716 3.91983 61.0256C3.91983 62.9756 4.90476 63.9406 6.85471 63.9406C15.7091 63.9406 24.5635 63.9406 33.4179 63.9406C33.6069 63.9406 33.8059 63.9406 33.9949 63.9406C35.0594 63.861 36.1438 63.0751 36.2334 62.0503C36.3527 60.568 36.2632 59.0657 36.2632 57.5237C36.0344 57.5237 35.8056 57.5237 35.5668 57.5237C31.3187 57.5237 27.0805 57.5237 22.8324 57.5237C22.6135 57.5237 22.3947 57.5436 22.1857 57.5038C21.6783 57.4142 21.3799 57.1058 21.36 56.5885C21.3401 56.0712 21.6386 55.7428 22.136 55.6235C22.3449 55.5737 22.5638 55.5936 22.7727 55.5936C27.0407 55.5936 31.3087 55.5936 35.5767 55.5936C35.8056 55.5936 36.0443 55.5936 36.303 55.5936V34.6515L36.313 34.6415ZM36.3229 32.6518C36.4224 30.9904 36.3229 29.3986 35.6961 27.8764C34.3133 24.5336 31.8261 22.1758 28.8912 20.2059C28.732 20.0965 28.4833 20.0865 28.2843 20.0865C22.8424 20.0865 17.4004 20.0865 11.9485 20.0865C11.7097 20.0865 11.4411 20.1661 11.2421 20.2954C9.21256 21.6186 7.45164 23.2303 6.02897 25.2002C4.42722 27.4188 3.67111 29.8761 3.96957 32.6518H36.3229ZM27.9958 18.1266V13.978H12.2569V18.1266H27.9958Z" fill="white"/>
<path d="M64.1301 54.8773C64.1301 56.7377 64.15 58.6081 64.1301 60.4685C64.0903 63.4332 62.0209 65.6916 59.2452 65.8508C56.2905 66.0298 53.7535 63.7715 53.6938 60.757C53.6242 56.8173 53.6242 52.8676 53.6938 48.9279C53.7436 46.2617 55.8229 44.1028 58.3697 43.874C61.0261 43.6352 63.3939 45.3265 63.9908 47.943C64.1002 48.4404 64.1201 48.9677 64.1301 49.4751C64.15 51.2758 64.1301 53.0766 64.1301 54.8773ZM62.1901 53.8725C62.1901 52.2409 62.2199 50.659 62.1901 49.0772C62.1403 47.167 60.7176 45.7742 58.8871 45.7841C57.0466 45.7941 55.6338 47.2466 55.604 49.1866C55.5841 50.5297 55.604 51.8827 55.604 53.2258C55.604 53.4347 55.6239 53.6436 55.6338 53.8625H62.2L62.1901 53.8725ZM55.604 55.8622C55.604 57.5634 55.5443 59.195 55.6239 60.8167C55.7035 62.5577 57.1162 63.8809 58.7975 63.9306C60.4291 63.9804 62.001 62.7965 62.1105 61.2146C62.2299 59.4537 62.1403 57.6729 62.1403 55.8523H55.604V55.8622Z" fill="white"/>
<path d="M40.9688 54.8574C40.9688 52.997 40.9489 51.1267 40.9688 49.2662C41.0086 46.2816 43.1476 43.9735 45.9133 43.874C48.9278 43.7646 51.3553 45.9732 51.415 49.0275C51.4846 52.9274 51.4747 56.8273 51.415 60.7272C51.3752 63.4631 49.3158 65.6021 46.6694 65.8607C44.0927 66.1095 41.705 64.3784 41.1081 61.8017C40.9986 61.3042 40.9788 60.7769 40.9688 60.2696C40.9489 58.4688 40.9688 56.6681 40.9688 54.8674V54.8574ZM42.9486 53.8626H49.4949C49.4949 52.2907 49.5148 50.7486 49.4949 49.2165C49.465 47.2665 48.0722 45.814 46.2416 45.7941C44.3613 45.7742 42.9387 47.2068 42.8989 49.1966C42.869 50.6093 42.8989 52.022 42.8989 53.4348C42.8989 53.584 42.9387 53.7233 42.9486 53.8725V53.8626ZM42.9486 55.8523C42.9486 57.6729 42.9486 59.414 42.9486 61.1649C42.9486 61.3142 42.9983 61.4634 43.0381 61.6027C43.5157 63.1447 45.0478 64.1297 46.5998 63.9207C48.2413 63.6919 49.4352 62.3687 49.475 60.6576C49.5148 59.1652 49.475 57.663 49.475 56.1607C49.475 56.0612 49.4352 55.9617 49.4053 55.8523H42.9287H42.9486Z" fill="white"/>
<path d="M16.0178 41.1779C13.5505 41.1779 11.0832 41.1779 8.62585 41.1779C8.15826 41.1779 7.72052 41.0684 7.60113 40.5909C7.52154 40.3024 7.54144 39.8248 7.72052 39.6557C7.97919 39.4169 8.42688 39.2578 8.79498 39.2578C13.2122 39.2279 17.6295 39.2379 22.0467 39.2379C22.4745 39.2379 22.9023 39.2379 23.3301 39.2379C24.1857 39.2379 24.6334 39.5861 24.6234 40.2228C24.6135 40.8396 24.1857 41.1679 23.36 41.1679C20.9126 41.1679 18.4751 41.1679 16.0277 41.1679L16.0178 41.1779Z" fill="white"/>
<path d="M16.0173 46.0627C13.55 46.0627 11.0827 46.0627 8.62538 46.0627C7.73994 46.0627 7.19276 45.3564 7.61061 44.6997C7.78969 44.4311 8.21748 44.1625 8.52589 44.1625C13.5401 44.1327 18.5542 44.1327 23.5784 44.1426C24.225 44.1426 24.623 44.5505 24.613 45.1176C24.613 45.6847 24.2051 46.0528 23.5386 46.0627C21.0315 46.0627 18.5244 46.0627 16.0173 46.0627Z" fill="white"/>
<path d="M16.0774 50.9475C13.5903 50.9475 11.1031 50.9475 8.61588 50.9475C7.71054 50.9475 7.16336 50.1815 7.621 49.5348C7.80008 49.2861 8.20798 49.0573 8.51639 49.0473C13.5306 49.0175 18.5447 49.0274 23.5589 49.0274C24.2056 49.0274 24.6035 49.4353 24.5936 50.0024C24.5936 50.5695 24.1857 50.9376 23.5191 50.9475C21.0319 50.9475 18.5447 50.9475 16.0575 50.9475H16.0774Z" fill="white"/>
<path d="M30.1943 41.1679C29.657 41.1679 29.1198 41.1878 28.5925 41.1679C27.9956 41.148 27.5977 40.7501 27.5977 40.2129C27.5977 39.6756 27.9956 39.2677 28.5925 39.2578C29.657 39.2379 30.7315 39.2379 31.806 39.2578C32.4029 39.2677 32.8009 39.6856 32.8009 40.2129C32.8009 40.7401 32.393 41.148 31.806 41.1679C31.2687 41.1878 30.7315 41.1679 30.2042 41.1679H30.1943Z" fill="white"/>
<path d="M30.1642 46.0627C29.627 46.0627 29.0897 46.0826 28.5624 46.0627C27.9954 46.0329 27.6173 45.6648 27.5974 45.1375C27.5775 44.6003 27.9655 44.1625 28.5525 44.1426C29.6469 44.1128 30.7313 44.1227 31.8256 44.1426C32.4126 44.1526 32.8106 44.6003 32.7907 45.1275C32.7708 45.6349 32.3927 46.013 31.8256 46.0528C31.7858 46.0528 31.7361 46.0528 31.6963 46.0528C31.179 46.0528 30.6716 46.0528 30.1542 46.0528L30.1642 46.0627Z" fill="white"/>
<path d="M30.1843 50.9475C29.6471 50.9475 29.1099 50.9674 28.5826 50.9475C27.9857 50.9277 27.5977 50.5198 27.6076 49.9726C27.6076 49.4552 27.9956 49.0473 28.5527 49.0374C29.667 49.0175 30.7813 49.0075 31.8856 49.0374C32.4328 49.0473 32.8108 49.495 32.8009 50.0024C32.8009 50.5098 32.4029 50.9177 31.8557 50.9376C31.2986 50.9674 30.7415 50.9376 30.1843 50.9376V50.9475Z" fill="white"/>
<path d="M20.1167 22.2653C21.8079 22.2255 23.4694 22.4344 24.9816 23.2005C25.7079 23.5686 26.4242 24.076 26.9614 24.6828C27.9065 25.7473 27.8269 27.1999 26.8719 28.2445C25.6681 29.5577 24.0564 30.075 22.3651 30.3437C21.8278 30.4332 21.4597 30.075 21.3801 29.5378C21.2906 28.9906 21.5791 28.6325 22.0965 28.4733C22.7232 28.2743 23.3798 28.135 23.9967 27.8963C24.4444 27.7172 24.8921 27.4685 25.2602 27.1601C25.8372 26.6925 25.8372 26.1154 25.2701 25.628C24.9318 25.3394 24.5438 25.0708 24.1359 24.9116C21.4299 23.8571 18.7039 23.8471 16.0078 24.9713C15.3711 25.24 14.615 25.5683 14.6349 26.4139C14.6448 27.2198 15.391 27.5083 16.0178 27.7769C16.6644 28.0555 17.3509 28.2345 18.0274 28.4335C18.684 28.6225 19.0322 29.0802 18.893 29.6373C18.7636 30.1745 18.2363 30.5227 17.6394 30.3138C16.4953 29.9258 15.2816 29.5975 14.2668 28.9707C12.1079 27.6277 12.1179 25.3096 14.1971 23.8173C15.6397 22.7826 17.3012 22.4245 19.0322 22.2653C19.3904 22.2354 19.7585 22.2653 20.1266 22.2653H20.1167Z" fill="white"/>
</g>
<defs>
<clipPath id="clip0_2048_4193">
<rect width="66" height="66" fill="white"/>
</clipPath>
</defs>
</svg>
