<svg width="66" height="66" viewBox="0 0 66 66" fill="none" xmlns="http://www.w3.org/2000/svg">
<g clip-path="url(#clip0_2048_4212)">
<path d="M39.1085 0C39.1583 0.0298462 39.208 0.0895387 39.2677 0.0994875C41.5957 0.776002 42.7498 2.27826 42.7498 4.70576C42.7498 9.89901 42.7498 15.0823 42.7498 20.2756C42.7498 20.5243 42.7498 20.7829 42.7498 21.1112C43.9436 21.1112 45.0678 21.1112 46.202 21.1112C46.4805 21.1112 46.7591 21.1013 47.0377 21.1112C47.6744 21.1411 48.1022 21.539 48.1022 22.0862C48.1022 22.6334 47.6744 23.0413 47.0377 23.0413C45.3862 23.0513 43.7347 23.0413 42.0832 23.0413C41.6156 23.0413 41.1381 23.0413 40.6705 23.0413C39.1185 23.0712 38.2131 23.9964 38.2032 25.5583C38.2032 26.394 38.1932 27.2297 38.2032 28.0654C38.233 29.3389 39.1583 30.3337 40.4417 30.3337C44.8987 30.3536 49.3657 30.3536 53.8227 30.3337C55.0862 30.3337 56.0114 29.3588 56.0612 28.0555C56.101 27.1601 56.091 26.2547 56.0612 25.3494C56.0114 23.9964 55.0862 23.0811 53.7133 23.0413C52.8179 23.0115 51.9126 23.0413 51.0072 23.0214C50.4501 23.0115 50.0621 22.6135 50.0521 22.0962C50.0422 21.5788 50.4003 21.1212 50.9575 21.1112C52.0916 21.0913 53.2357 21.0317 54.3599 21.1709C56.3 21.4097 57.7226 22.8025 57.9315 24.7525C58.0708 26.0856 58.041 27.4585 57.9017 28.7917C57.7624 30.1845 56.9068 31.1893 55.6632 31.8161C55.2951 32.0051 55.1558 32.1942 55.1956 32.5921C55.2354 33.0597 55.1956 33.5273 55.1956 33.9949C57.464 34.5719 59.1353 35.8254 59.971 37.9744C60.3093 38.8499 60.4884 39.8447 60.4983 40.7899C60.5481 46.8387 60.5381 52.8876 60.5182 58.9264C60.5083 63.0552 57.6629 65.8508 53.5442 65.8607C49.2363 65.8607 44.9186 65.8607 40.6108 65.8607C39.2279 65.8607 37.9445 65.5424 36.7507 64.8261C36.5716 64.7166 36.2234 64.7465 36.0244 64.8459C33.3581 66.199 30.7516 66.1492 28.1947 64.5972C27.8366 64.3784 27.6177 64.4182 27.2894 64.6271C22.7428 67.4525 16.7238 64.9056 15.7091 59.6826C15.0823 56.4293 16.1568 53.7133 18.8827 51.823C21.539 49.9925 24.3744 49.9626 27.18 51.5743C27.6177 51.823 27.8863 51.8429 28.3141 51.5743C29.7766 50.669 31.3883 50.3009 33.1094 50.5197C33.2785 50.5396 33.4477 50.5396 33.6467 50.5496V44.6002C32.7612 45.1176 31.8957 45.5852 31.0799 46.1224C29.8562 46.9283 28.7021 46.9084 27.4983 46.0926C26.4836 45.4061 25.419 44.8191 24.3844 44.1625C23.9665 43.8939 23.6183 43.9038 23.2005 44.1724C22.1658 44.8589 21.1112 45.5155 20.0666 46.192C19.022 46.8686 17.9873 46.8686 16.9427 46.1821C15.9379 45.5255 14.9132 44.9087 13.9282 44.2122C13.4109 43.8441 12.993 43.864 12.4658 44.1724C11.5107 44.7395 10.5158 45.2569 9.53089 45.7742C7.57098 46.7989 5.58123 45.6349 5.57128 43.4263C5.54144 37.9346 5.57128 32.4429 5.56133 26.9611C5.56133 26.3642 5.74041 25.8767 6.37713 25.7673C6.90442 25.6777 7.30237 25.9364 7.44165 26.4637C7.51129 26.7024 7.51129 26.9711 7.51129 27.2297C7.51129 32.5225 7.51129 37.8251 7.51129 43.1179C7.51129 44.252 7.86944 44.461 8.87427 43.9138C9.86914 43.3765 10.874 42.8393 11.8688 42.3021C12.8239 41.7847 13.7591 41.8245 14.6644 42.4115C15.729 43.098 16.8034 43.7645 17.848 44.4809C18.2957 44.7893 18.6738 44.8092 19.1314 44.5008C20.0865 43.8541 21.0913 43.2671 22.0464 42.6105C23.2104 41.8046 24.3346 41.8146 25.5086 42.5906C26.5432 43.2771 27.6376 43.8839 28.6822 44.5505C29.12 44.8291 29.4881 44.8291 29.9258 44.5505C31.0003 43.8839 32.0847 43.2373 33.189 42.6204C33.5571 42.4115 33.6864 42.1827 33.6864 41.7649C33.6864 40.8695 33.6666 39.9442 33.8655 39.0787C34.4326 36.6313 35.9548 34.9898 38.3524 34.2336C38.9095 34.0546 39.0787 33.8059 38.9991 33.2985C38.9991 33.2388 38.9891 33.1691 38.9991 33.1094C39.1185 32.3931 38.8598 31.9952 38.1833 31.6072C36.9098 30.8909 36.2532 29.6871 36.2134 28.2047C36.1935 27.2795 36.1935 26.3642 36.2134 25.439C36.2433 23.0214 37.9047 21.2804 40.3322 21.1212C40.4416 21.1212 40.5411 21.1112 40.76 21.0913C40.76 20.8725 40.76 20.6437 40.76 20.4248C40.76 15.1917 40.76 9.9587 40.76 4.72566C40.76 2.90503 39.795 1.94001 37.9943 1.94001C28.7519 1.94001 19.5095 1.94001 10.2671 1.94001C8.49622 1.94001 7.51129 2.90503 7.51129 4.67591C7.51129 10.5258 7.51129 16.3856 7.51129 22.2355C7.51129 22.514 7.51129 22.7926 7.4516 23.0612C7.34216 23.5387 6.99395 23.7974 6.51641 23.7775C6.00903 23.7576 5.67077 23.479 5.60113 22.9617C5.56133 22.713 5.57128 22.4444 5.57128 22.1957C5.57128 16.6244 5.62103 11.0431 5.54144 5.47181C5.52154 2.95478 6.19805 0.905336 9.24237 0C19.2011 0 29.1498 0 39.1085 0ZM58.5285 58.0211C57.076 58.0211 55.6632 58.041 54.2505 58.0211C51.6439 57.9813 49.6144 56.0314 49.5647 53.4447C49.505 50.7884 49.5149 48.1221 49.5647 45.4658C49.6144 42.8791 51.5942 40.959 54.1809 40.8993C55.2553 40.8695 56.3298 40.8993 57.3943 40.8993C57.7724 40.8993 58.1504 40.8993 58.5185 40.8993C58.5384 40.7103 58.5583 40.6307 58.5583 40.5412C58.5583 37.9147 56.5188 35.8951 53.773 35.8851C49.3756 35.8652 44.9783 35.8752 40.5809 35.8851C37.5963 35.8851 35.6364 37.8749 35.6364 40.8595C35.6364 44.1227 35.6364 47.3759 35.6364 50.6391C35.6364 51.0669 35.7458 51.3157 36.1438 51.5445C39.0787 53.2258 40.5212 56.6084 39.7651 59.9014C39.4766 61.1749 38.8498 62.2792 38.0042 63.3238C38.7802 63.7715 39.5562 63.9605 40.382 63.9605C44.839 63.9605 49.306 63.9705 53.763 63.9506C54.3699 63.9506 55.0066 63.8312 55.5836 63.6123C57.7425 62.8164 58.7871 60.8167 58.5185 58.041L58.5285 58.0211ZM58.5185 42.8294C57.076 42.8294 55.6931 42.8294 54.3003 42.8294C52.6886 42.8393 51.5345 43.9436 51.5146 45.5653C51.4748 48.1519 51.4848 50.7486 51.5146 53.3352C51.5345 54.7579 52.4498 55.8821 53.8227 55.9916C55.3648 56.1109 56.9367 56.0214 58.5185 56.0214V42.8194V42.8294ZM36.9496 54.8972C36.8004 55.0464 36.6412 55.1857 36.492 55.3349C34.4724 57.3545 32.4528 59.3542 30.4531 61.3937C29.9955 61.8613 29.6274 62.4185 29.2195 62.9258C31.4778 64.4977 34.7311 64.0401 36.5915 61.9509C38.3723 59.9512 38.5514 56.7178 36.9496 54.8972ZM20.0766 62.886C22.1658 64.5077 25.5384 64.1296 27.4784 62.0106C29.2792 60.0507 29.4781 56.6283 27.946 55.0066C25.3196 57.6331 22.6931 60.2695 20.0766 62.896V62.886ZM18.5246 61.3241C21.1809 58.6777 23.8073 56.0413 26.4338 53.4248C24.3744 51.833 21.1212 52.1314 19.1513 54.1411C17.2213 56.1109 16.9427 59.3443 18.5246 61.334V61.3241ZM41.0386 33.8556H53.2357V32.3334H41.0386V33.8556ZM30.9306 57.9216C32.4727 56.3995 33.9949 54.9071 35.5071 53.4248C33.8158 52.0817 30.7914 52.1215 29.2692 53.3651C30.3138 54.7181 30.8809 56.2602 30.9306 57.9216Z" fill="white"/>
<path d="M18.2662 27.1104C21.6488 27.1104 24.3449 29.8264 24.3349 33.2089C24.3349 36.5816 21.609 39.2777 18.2264 39.2677C14.8836 39.2578 12.1875 36.5517 12.1875 33.2089C12.1875 29.8264 14.8936 27.1203 18.2662 27.1203V27.1104ZM18.2761 29.0603C15.978 29.0603 14.1375 30.871 14.1275 33.1592C14.1176 35.4574 15.9382 37.3078 18.2164 37.3277C20.5345 37.3476 22.3949 35.5071 22.3949 33.189C22.3949 30.8909 20.5743 29.0703 18.2861 29.0603H18.2761Z" fill="white"/>
<path d="M24.1155 13.9382C20.534 13.9382 16.9624 13.9382 13.3808 13.9382C13.162 13.9382 12.953 13.9382 12.7342 13.9183C12.177 13.8685 11.8686 13.5303 11.8388 13.003C11.8189 12.4658 12.1372 12.1275 12.6645 12.0181C12.8535 11.9783 13.0525 11.9882 13.2415 11.9882C20.5041 11.9882 27.7667 11.9882 35.0293 11.9882C35.3079 11.9882 35.5964 11.9982 35.8451 12.0977C36.2729 12.2469 36.4619 12.615 36.4221 13.0627C36.3823 13.5203 36.1237 13.8188 35.666 13.8984C35.4372 13.9382 35.1984 13.9282 34.9597 13.9282C31.3383 13.9282 27.717 13.9282 24.0956 13.9282L24.1155 13.9382Z" fill="white"/>
<path d="M24.1458 16.8134C27.7871 16.8134 31.4283 16.8134 35.0696 16.8134C35.3282 16.8134 35.6565 16.7537 35.8157 16.893C36.0843 17.1118 36.3927 17.47 36.3927 17.7685C36.3927 18.0669 36.0843 18.4251 35.8058 18.6439C35.6167 18.7932 35.2785 18.7534 34.9999 18.7534C27.7572 18.7534 20.5145 18.7534 13.2719 18.7534C13.1823 18.7534 13.1027 18.7534 13.0132 18.7534C12.277 18.7335 11.8193 18.3554 11.8193 17.7685C11.8193 17.1815 12.267 16.8034 13.0132 16.8034C16.7241 16.8034 20.425 16.8034 24.1359 16.8034L24.1458 16.8134Z" fill="white"/>
<path d="M20.2756 24.3446C17.9575 24.3446 15.6494 24.3446 13.3314 24.3446C13.1125 24.3446 12.9036 24.3545 12.6947 24.3247C12.1773 24.255 11.8888 23.9267 11.849 23.4193C11.8192 22.9418 12.0778 22.5936 12.5355 22.4543C12.7543 22.3847 13.0031 22.3946 13.2319 22.3946C17.9476 22.3946 22.6533 22.3946 27.3691 22.3946C27.5581 22.3946 27.7571 22.3747 27.9461 22.4145C28.4734 22.5339 28.7917 22.8722 28.7519 23.4193C28.7221 23.9466 28.4037 24.3048 27.8466 24.3247C27.18 24.3545 26.5234 24.3346 25.8568 24.3346C23.9964 24.3346 22.1261 24.3346 20.2657 24.3346L20.2756 24.3446Z" fill="white"/>
<path d="M18.1266 8.6355C16.4353 8.6355 14.7441 8.6355 13.0428 8.6355C12.2867 8.6355 11.849 8.27735 11.839 7.69037C11.8291 7.0835 12.2967 6.70544 13.0826 6.70544C16.4453 6.70544 19.808 6.70544 23.1806 6.70544C23.9864 6.70544 24.4341 7.0437 24.4441 7.66052C24.454 8.27735 24.0163 8.64545 23.2104 8.64545C21.5192 8.64545 19.8279 8.64545 18.1266 8.64545V8.6355Z" fill="white"/>
<path d="M42.7798 48.4902C43.506 48.4902 44.2323 48.4803 44.9585 48.4902C45.5754 48.5101 45.9435 48.8782 45.9435 49.4353C45.9435 49.9825 45.5754 50.4004 44.9784 50.4103C43.4861 50.4302 41.9839 50.4302 40.4916 50.4103C39.8648 50.4103 39.4668 49.9427 39.4967 49.3856C39.5265 48.8583 39.9245 48.5001 40.5413 48.4803C41.2875 48.4703 42.0336 48.4803 42.7897 48.4803L42.7798 48.4902Z" fill="white"/>
<path d="M42.7394 54.8474C42.0131 54.8474 41.2869 54.8574 40.5606 54.8474C39.904 54.8375 39.4961 54.4594 39.4961 53.9023C39.4961 53.3452 39.894 52.9273 40.5308 52.9174C42.0032 52.8975 43.4756 52.8975 44.958 52.9174C45.5947 52.9273 45.9727 53.3551 45.9528 53.9322C45.9329 54.4893 45.5648 54.8276 44.9281 54.8474C44.2019 54.8673 43.4756 54.8474 42.7493 54.8474H42.7394Z" fill="white"/>
<path d="M42.7394 45.9732C42.0131 45.9732 41.2869 45.9831 40.5606 45.9732C39.904 45.9632 39.4961 45.5852 39.4961 45.028C39.4961 44.4709 39.894 44.0531 40.5308 44.0431C42.0032 44.0232 43.4756 44.0232 44.958 44.0431C45.5947 44.0531 45.9727 44.4809 45.9528 45.0579C45.9329 45.615 45.5648 45.9533 44.9281 45.9632C44.2019 45.9831 43.4756 45.9632 42.7493 45.9632L42.7394 45.9732Z" fill="white"/>
</g>
<defs>
<clipPath id="clip0_2048_4212">
<rect width="66" height="66" fill="white"/>
</clipPath>
</defs>
</svg>
