<svg width="66" height="66" viewBox="0 0 66 66" fill="none" xmlns="http://www.w3.org/2000/svg">
<g clip-path="url(#clip0_2048_4231)">
<path d="M42.3222 5.65533e-08C42.6306 0.0994876 42.939 0.179078 43.2375 0.298463C44.8989 0.935183 46.0331 2.52698 46.053 4.31776C46.0729 6.33735 46.053 8.347 46.053 10.3666C46.053 10.5954 46.053 10.8242 46.053 11.1327C46.3713 11.1327 46.63 11.1327 46.8787 11.1327C51.0174 11.1327 55.1561 11.1327 59.2947 11.1327C61.9013 11.1327 63.2444 12.4857 63.2444 15.1022C63.2444 17.7585 63.2444 20.4148 63.2444 23.0811C63.2444 25.5981 61.8615 26.991 59.3544 27.0009C58.4093 27.0009 57.3746 26.792 56.5588 27.1203C55.7629 27.4387 55.2058 28.3241 54.5392 28.9708C53.5444 29.9358 52.5793 30.0154 51.7337 28.9409C50.4702 27.3392 48.9679 26.8218 46.9583 26.9611C44.3716 27.1402 42.9987 25.6379 42.9987 23.0314C42.9987 22.0464 42.9987 21.0715 42.9987 20.196C41.188 20.196 39.447 20.1661 37.696 20.2159C37.318 20.2258 36.8703 20.4447 36.5917 20.7133C35.8953 21.3799 35.2984 22.136 34.6417 22.8523C33.7066 23.8671 32.4928 23.8571 31.5676 22.8324C31.0104 22.2156 30.4334 21.5987 29.9161 20.9421C29.4584 20.3551 28.9212 20.1263 28.1949 20.1761C27.4886 20.2258 26.7822 20.2059 26.0759 20.1761C25.1009 20.1562 24.116 20.1064 23.0614 20.0567C23.0614 21.1112 23.0614 22.2454 23.0614 23.3696C23.0614 24.3346 22.7828 25.1803 22.1163 25.8866C21.4099 26.6328 20.5245 26.9611 19.5196 26.9711C18.8133 26.981 18.097 27.0308 17.4006 26.9611C16.6445 26.8915 16.0973 27.1501 15.6098 27.7073C15.1621 28.2246 14.6448 28.6922 14.1473 29.1498C13.4111 29.8264 12.5157 29.8363 11.7795 29.1498C11.1527 28.5728 10.5757 27.9261 9.93899 27.3491C9.71017 27.1402 9.35202 26.991 9.05356 26.9711C8.17807 26.9213 7.29263 26.9711 6.41714 26.9512C4.2881 26.9114 2.83559 25.4589 2.83559 23.3199C2.82564 20.4646 2.82564 17.6192 2.83559 14.7639C2.83559 12.5553 4.27816 11.1028 6.50667 11.0929C10.7747 11.073 15.0427 11.0929 19.3107 11.0929C19.5694 11.0929 19.8181 11.0929 20.1763 11.0929C20.1763 10.8043 20.1763 10.5855 20.1763 10.3566C20.1763 8.46639 20.1763 6.58607 20.1763 4.69581C20.1763 2.27826 21.3204 0.766054 23.6484 0.0795901C23.7081 0.0596926 23.7479 0.00994881 23.7976 -0.0298462C25.7277 -0.0298462 27.6577 -0.0298462 29.5878 -0.0298462C30.0554 0.268616 30.3936 0.646669 30.1946 1.24359C29.9957 1.83057 29.4982 1.91016 28.9411 1.91016C27.5682 1.89026 26.1952 1.91016 24.8223 1.91016C23.1012 1.91016 22.1163 2.90504 22.1063 4.62617C22.1063 8.24751 22.1063 11.8788 22.1063 15.5002C22.1063 17.2213 23.1012 18.2162 24.8223 18.2361C26.046 18.2361 27.2697 18.2659 28.4934 18.2361C29.6375 18.2062 30.523 18.634 31.2492 19.4996C31.8561 20.2159 32.4829 20.9123 33.1395 21.6485C33.8657 20.8426 34.5522 20.0766 35.2387 19.3105C35.8754 18.6042 36.6613 18.2361 37.6164 18.2361C38.8998 18.246 40.1931 18.246 41.4765 18.2361C43.138 18.2162 44.1527 17.1914 44.1527 15.53C44.1527 11.8888 44.1527 8.23756 44.1527 4.59632C44.1527 2.93488 43.128 1.92011 41.4566 1.92011C39.0291 1.92011 36.6116 1.92011 34.1841 1.92011C33.6369 1.92011 33.1494 1.88031 32.9107 1.28339C32.6719 0.676515 33.0499 0.328309 33.4578 -0.00994869C36.4027 5.65533e-08 39.3574 5.65533e-08 42.3222 5.65533e-08ZM12.9833 27.7869C13.6399 27.0805 14.207 26.4637 14.7741 25.8568C15.3014 25.2897 15.948 25.041 16.734 25.0609C17.5896 25.0808 18.4452 25.0709 19.3107 25.0609C20.5643 25.051 21.1313 24.5038 21.1413 23.2602C21.1512 21.8276 21.1512 20.385 21.1413 18.9524C21.1413 18.7136 21.0617 18.445 20.9324 18.2361C20.425 17.4302 20.1663 16.5746 20.1763 15.6195C20.1962 14.7938 20.1763 13.9581 20.1763 13.1224C20.037 13.0926 19.9474 13.0528 19.8678 13.0528C15.3611 13.0528 10.8642 13.0329 6.35744 13.0528C5.33272 13.0528 4.77559 13.6994 4.76564 14.7639C4.76564 17.6192 4.7557 20.4646 4.76564 23.3199C4.76564 24.4341 5.36257 25.0211 6.47683 25.051C7.40206 25.0708 8.31735 25.0708 9.24258 25.051C10.0186 25.0311 10.6653 25.2997 11.1925 25.8667C11.7497 26.4537 12.3068 27.0507 12.9833 27.7769V27.7869ZM53.1564 27.8167C53.813 27.0904 54.3502 26.5035 54.8775 25.9165C55.4247 25.3096 56.1111 25.0311 56.9369 25.051C57.7527 25.0808 58.5685 25.051 59.3843 25.051C60.7473 25.051 61.3143 24.5038 61.3143 23.1507C61.3143 20.4248 61.3143 17.7088 61.3143 14.9828C61.3143 13.58 60.7771 13.0428 59.3644 13.0428C55.166 13.0428 50.9577 13.0428 46.7593 13.0428C46.5305 13.0428 46.3116 13.0627 46.053 13.0826C46.053 13.9084 46.0331 14.6545 46.053 15.4007C46.0927 16.5348 45.7943 17.5496 45.1178 18.4748C44.9884 18.644 44.9287 18.9026 44.9287 19.1215C44.9088 20.5143 44.9088 21.9071 44.9287 23.3C44.9387 24.454 45.5356 25.0211 46.6897 25.051C47.207 25.0609 47.7243 25.1106 48.2317 25.051C49.8633 24.842 51.1766 25.3494 52.1714 26.6726C52.4301 27.0109 52.7286 27.3193 53.1663 27.8167H53.1564Z" fill="white"/>
<path d="M61.7217 56.7377C61.7317 56.4691 61.7516 56.29 61.7516 56.101C61.7516 52.2409 61.7516 48.3808 61.7516 44.5206C61.7416 40.2029 58.8366 36.7208 54.5984 35.9647C52.9171 35.6663 51.2656 35.8851 49.6937 36.5815C49.5743 36.6313 49.4648 36.7009 49.3455 36.7507C48.7386 36.9994 48.2213 36.8402 47.9725 36.3328C47.7238 35.8254 47.9228 35.3081 48.5197 35.0096C50.0618 34.2336 51.7033 33.8755 53.4244 33.9252C59.135 34.0745 63.6418 38.6509 63.6816 44.3714C63.7115 48.8782 63.6816 53.375 63.7015 57.8818C63.7015 58.23 63.8408 58.5782 63.9204 58.9264C64.0298 59.4637 64.2188 60.0109 64.2487 60.558C64.2984 61.5629 64.2785 62.5776 64.2586 63.5825C64.2288 64.9952 63.3036 65.8906 61.8809 65.8906C42.6798 65.8906 23.4887 65.8906 4.28757 65.8906C2.82511 65.8906 1.90982 64.9952 1.88992 63.5427C1.87003 62.5577 1.87003 61.5728 1.88992 60.5879C1.93967 58.7573 2.82511 57.464 4.50644 56.7377C5.91917 56.1308 7.34184 55.5339 8.78441 54.9768C9.2321 54.8077 9.31169 54.5589 9.35149 54.1212C9.46092 52.6886 9.24205 51.4748 8.12779 50.3606C7.35179 49.5945 6.98368 48.4305 6.4166 47.4555C6.27732 47.2168 6.0485 47.0277 5.86942 46.8089C5.69035 46.5999 5.47147 46.4109 5.35209 46.1721C4.26767 43.8541 4.00901 41.4564 4.63578 38.9692C4.79496 38.3325 5.28245 38.0142 5.80973 38.1435C6.37681 38.2828 6.64543 38.7902 6.49619 39.4567C6.10819 41.1779 6.16789 42.9388 6.66532 44.0431C8.0283 42.5906 9.74944 41.7549 11.5303 40.9888C12.8634 40.4118 13.7986 39.3771 14.1866 37.9445C14.5248 36.7009 13.9976 35.905 12.7241 35.6663C11.6198 35.4573 10.5951 35.7061 9.59026 36.1339C9.33159 36.2433 9.09282 36.3826 8.83415 36.4821C8.33671 36.681 7.92881 36.5119 7.6801 36.0742C7.41148 35.6066 7.48112 35.0892 7.94871 34.8306C9.88872 33.7362 11.9382 33.2089 14.0871 34.1242C14.7039 34.3829 15.1616 34.9997 15.7087 35.4374C15.8679 35.5668 16.0868 35.726 16.2559 35.716C19.7877 35.3579 21.6183 38.054 21.8571 40.4815C22.066 42.5508 21.5089 44.4709 20.504 46.2716C20.4642 46.3413 20.4244 46.4507 20.3648 46.4806C19.5291 46.9282 19.4694 47.8734 19.0217 48.5598C18.3651 49.5547 17.6189 50.4998 16.9424 51.4748C16.7832 51.7036 16.634 51.9822 16.6141 52.2508C16.5643 52.9373 16.5643 53.6238 16.6141 54.3102C16.634 54.5291 16.8031 54.8375 16.9921 54.9171C18.0069 55.3747 19.0416 55.8025 20.0762 56.1806C20.2653 56.2502 20.5737 56.1308 20.7726 56.0214C21.3696 55.6632 21.9068 55.1658 22.5435 54.8872C24.4238 54.0615 26.334 53.2954 28.2442 52.5294C28.6521 52.3603 28.851 52.1712 28.8212 51.6937C28.7814 50.8381 28.8311 49.9726 28.7913 49.117C28.7814 48.8583 28.6322 48.5698 28.463 48.3509C28.075 47.8634 27.6174 47.4456 27.2393 46.9481C26.8712 46.4706 26.9608 45.9035 27.3786 45.5752C27.8164 45.237 28.3237 45.3066 28.7416 45.7742C28.9306 45.9831 29.0898 46.2119 29.2788 46.4109C31.4974 48.8583 34.7407 48.8683 36.9195 46.391C38.7699 44.2819 39.5061 41.735 39.6056 38.9991C39.6156 38.6509 39.2873 38.243 39.0286 37.9445C38.4814 37.3277 37.8746 36.7606 37.2975 36.1736C37.198 36.0742 37.0787 35.9747 36.9593 35.9448C36.1335 35.7558 35.3078 35.5867 34.3825 35.3976C34.3825 35.3976 34.2731 35.5369 34.1637 35.6663C33.0295 36.9894 31.5969 37.6958 29.8459 37.7555C29.6469 37.7555 29.4181 37.7953 29.2589 37.9047C28.6023 38.3325 27.9755 38.82 27.309 39.218C26.8215 39.5065 26.5628 39.8049 26.732 40.4019C26.8712 40.8993 26.9409 41.4067 27.0304 41.9141C27.1498 42.5806 26.9011 43.0482 26.3638 43.1875C25.8067 43.3268 25.2396 42.9985 25.16 42.3319C25.0307 41.2376 24.5631 40.4417 23.7175 39.7055C22.643 38.7802 22.444 37.4172 22.4241 36.0543C22.4241 35.4076 22.2849 34.8405 21.9566 34.2436C20.514 31.6072 21.877 28.3539 24.7521 27.4386C25.1302 27.3193 25.3391 27.1402 25.5182 26.7721C26.4534 24.8719 28.7714 24.1854 30.612 25.2599C30.9403 25.4489 31.179 25.4688 31.5372 25.3196C33.328 24.5933 35.3078 25.1703 36.4817 26.7124C36.6111 26.8815 36.7304 27.0606 36.8697 27.0407C37.6656 27.0407 38.4814 26.9213 39.2574 27.0606C40.9587 27.379 42.1127 28.8912 42.0829 30.6322C42.0829 31.05 42.1525 31.3087 42.5405 31.5674C43.814 32.4031 44.3711 33.9153 43.9632 35.3976C43.5453 36.9397 42.9683 38.4022 41.7347 39.5264C41.5755 39.6756 41.5158 39.9741 41.4859 40.2228C41.0781 43.3666 40.0334 46.2119 37.6457 48.4305C37.5263 48.5399 37.4468 48.7588 37.4468 48.9279C37.4269 49.9129 37.4269 50.8978 37.4468 51.8827C37.4468 52.0519 37.5761 52.3205 37.7154 52.3802C39.3072 53.0567 40.9189 53.7033 42.5306 54.35C42.5604 54.36 42.6102 54.35 42.7196 54.3301C42.7196 54.1112 42.7196 53.8824 42.7196 53.6536C42.7196 50.6292 42.7295 47.6048 42.7196 44.5803C42.7196 42.4215 43.2767 40.4317 44.4706 38.631C44.8884 37.9943 45.4257 37.8351 45.9231 38.1733C46.4205 38.5116 46.4902 39.0588 46.0723 39.6955C45.0973 41.1978 44.6397 42.8294 44.6497 44.6201C44.6695 48.0127 44.6497 51.3952 44.6497 54.7878C44.6497 55.7428 45.6147 56.3796 46.4902 56.0214C47.3756 55.6533 48.2809 55.3051 49.1564 54.9071C49.3455 54.8176 49.5245 54.5291 49.5544 54.3102C49.6738 53.4347 49.4549 52.7184 48.8381 51.9922C47.3159 50.2014 46.4504 48.0922 46.321 45.7244C46.2713 44.7893 46.53 44.4809 47.4154 44.2918C48.1218 44.1326 48.848 44.0033 49.5444 43.8043C52.0515 43.1079 53.703 41.4962 54.4691 39.019C54.8571 37.7654 55.3545 37.5366 56.4887 38.1833C58.5878 39.3871 59.6126 41.2973 59.9707 43.6054C60.498 46.978 59.4036 49.8631 57.2348 52.3901C56.608 53.1164 56.8966 53.8824 56.8568 54.6385C56.8568 54.7082 56.9762 54.8176 57.0657 54.8475C58.5978 55.4842 60.1399 56.1209 61.7416 56.7775L61.7217 56.7377ZM41.2173 37.2183C41.5158 36.3925 41.8541 35.6265 42.063 34.8306C42.3017 33.8954 41.7844 33.1094 40.8791 32.8607C39.8146 32.5623 39.6454 32.2339 40.0135 31.1993C40.2921 30.4034 40.0533 29.6174 39.3868 29.1498C38.7301 28.6822 37.8845 28.732 37.2478 29.2792C36.233 30.1447 35.646 29.9756 35.3078 28.7021C34.88 27.0805 33.1489 26.4139 31.7461 27.3193C30.8905 27.8764 30.6916 27.8565 29.9752 27.18C28.9505 26.205 27.3687 26.6328 27.0603 28.0157C26.9011 28.7419 26.5529 29.0404 25.8167 29.1299C23.7274 29.3787 22.5634 31.6768 23.6976 33.4278C24.1751 34.164 24.3244 34.8803 24.3045 35.7061C24.2945 36.1935 24.3343 36.7009 24.4537 37.1685C24.5731 37.6162 24.8317 38.0241 24.981 38.3723C25.7172 37.9346 26.3539 37.5864 26.9508 37.1785C27.2692 36.9596 27.6074 36.691 27.7865 36.3627C28.085 35.7956 28.4829 35.5966 29.0898 35.6961C30.99 35.9946 32.4127 35.1887 33.1986 33.3979C33.6165 32.4528 34.3527 32.3235 35.0292 33.1094C35.656 33.8456 36.4121 34.1342 37.3771 33.9053C38.1034 33.7362 38.4018 33.975 38.7301 34.6415C38.9789 35.139 39.3271 35.6165 39.7151 36.0244C40.123 36.4522 40.6403 36.7805 41.2074 37.2382L41.2173 37.2183ZM48.2213 46.013C48.649 48.4305 49.6439 50.4203 51.4446 51.9524C52.7081 53.0169 53.7229 53.0368 54.9267 51.9126C57.2945 49.7139 58.5282 47.0377 58.0009 43.7446C57.782 42.3916 57.2448 41.1779 56.0808 40.2327C54.5885 43.7048 51.9222 45.5155 48.2014 46.0229L48.2213 46.013ZM6.33701 58.0311C7.78953 59.9711 9.18236 61.8514 10.5951 63.7018C10.7045 63.8511 10.9831 63.9406 11.192 63.9406C12.3461 63.9605 13.5101 63.9705 14.6641 63.9406C14.9427 63.9406 15.2809 63.7814 15.47 63.5725C16.6439 62.2692 17.798 60.946 18.9122 59.5831C19.2505 59.1652 19.4196 58.618 19.6982 58.0907C18.375 57.5436 17.2408 57.066 16.0868 56.6183C15.9475 56.5686 15.7187 56.6183 15.5794 56.7079C13.8284 57.8321 12.0874 57.8321 10.3364 56.7079C10.1971 56.6183 9.96831 56.5586 9.82903 56.6183C8.69487 57.0561 7.58061 57.5336 6.35691 58.0311H6.33701ZM13.6493 42.0434C12.7938 42.4513 11.8387 42.8194 10.9532 43.3367C9.97826 43.9038 9.06297 44.5803 8.15764 45.2569C7.99846 45.3762 7.88902 45.7543 7.94871 45.9533C8.476 47.8933 9.51066 49.5149 11.1323 50.7287C12.4157 51.6837 13.4205 51.6837 14.7139 50.7486C16.2559 49.6244 17.211 48.0724 17.8477 46.3015C18.0168 45.8339 17.9572 45.5155 17.5592 45.1972C16.236 44.1525 14.9327 43.088 13.6493 42.0534V42.0434ZM34.7407 63.9406C35.1486 60.5481 36.3424 57.4938 38.362 54.7281C37.8646 54.5191 37.4368 54.3102 36.9991 54.1809C36.82 54.1212 36.5414 54.1709 36.3822 54.2704C34.2234 55.7528 31.965 55.7528 29.7962 54.2704C29.637 54.161 29.3684 54.1311 29.1793 54.1809C28.7217 54.3202 28.284 54.539 27.7865 54.748C29.8061 57.5237 30.9701 60.5879 31.388 63.9406H34.7407ZM40.2324 55.4742C38.2725 58.0012 37.0986 60.7769 36.7105 63.9008H44.8586C44.8586 62.2891 44.8884 60.7272 44.8486 59.1652C44.8188 58.1604 44.3412 57.3247 43.4359 56.867C42.4112 56.3497 41.3268 55.9418 40.2424 55.4742H40.2324ZM25.9261 55.4941C24.8616 55.9418 23.817 56.3398 22.8221 56.8273C21.9764 57.2352 21.4193 57.9813 21.3795 58.8966C21.2999 60.558 21.3596 62.2294 21.3596 63.9307H29.4281C29.0301 60.8068 27.886 58.041 25.9361 55.5041L25.9261 55.4941ZM55.1953 63.9605C57.4835 63.9605 59.6623 63.9605 61.8411 63.9605C62.2191 63.9605 62.3186 63.7615 62.3186 63.4332C62.3186 62.4284 62.3186 61.4236 62.2987 60.4088C62.2788 59.6925 61.9605 59.0558 61.3437 58.7573C59.8911 58.0609 58.3889 57.464 56.7971 56.7775C56.7473 59.3443 56.5086 61.732 55.2053 63.9506L55.1953 63.9605ZM53.1757 63.483C55.1555 60.6078 54.7874 57.4441 54.877 54.3301C53.4344 54.6584 53.6732 54.8972 51.4645 54.3301C51.5441 57.4441 51.2059 60.6078 53.1757 63.473V63.483ZM46.7787 57.9614V63.9307H51.1462C49.8429 61.722 49.634 59.3244 49.5444 56.8173C48.5297 57.2352 47.5945 57.6232 46.7787 57.9515V57.9614ZM19.35 44.1127C19.8176 43.0084 20.0364 41.8643 19.9171 40.6705C19.738 38.7802 18.385 37.5068 16.7036 37.5864C16.3156 37.6063 16.1664 37.7555 16.0669 38.1336C15.8978 38.7504 15.6988 39.3672 15.3804 39.9144C15.1317 40.3422 15.1218 40.6506 15.46 40.9888C15.6988 41.2276 15.9177 41.5062 16.1863 41.7151C17.211 42.511 18.2556 43.287 19.35 44.1127ZM30.7115 49.7238C30.7115 50.6292 30.6916 51.4151 30.7313 52.211C30.7313 52.41 30.8905 52.6488 31.0497 52.7781C32.1938 53.6735 33.9746 53.6735 35.1187 52.7781C35.268 52.6587 35.457 52.4598 35.457 52.2906C35.4968 51.4649 35.4769 50.6391 35.4769 49.7338C33.8652 50.2511 32.3331 50.271 30.7115 49.7338V49.7238ZM4.57609 58.9065C4.0289 59.3841 3.81003 59.9213 3.80008 60.5481C3.80008 61.2345 3.80008 61.921 3.80008 62.6075C3.80008 64.1694 3.67075 63.9406 5.12327 63.9605C6.15794 63.9605 7.19261 63.9605 8.34666 63.9605C7.04338 62.2095 5.81968 60.5879 4.57609 58.9065ZM11.2119 53.0069C11.4109 53.8128 10.8537 54.6186 11.5701 55.1957C12.2963 55.7727 13.5399 55.7826 14.2861 55.2056C15.0422 54.6286 14.4651 53.7929 14.684 52.9771C13.4902 53.4944 12.4058 53.4646 11.2119 53.0069ZM17.7482 63.9008H19.35V62.0503C18.7829 62.707 18.2954 63.274 17.7482 63.9008Z" fill="white"/>
<path d="M25.9661 9.17273C25.986 5.70062 29.6869 3.58154 32.6815 5.33252C33.0098 5.52154 33.2087 5.52154 33.5371 5.33252C35.2084 4.34759 37.1783 4.50677 38.6308 5.72052C40.1331 6.97406 40.6405 8.86432 39.9441 10.7148C39.3869 12.2071 38.3821 13.3811 37.1485 14.3361C36.1138 15.132 35.0194 15.8483 33.8952 16.505C33.5371 16.7139 32.9202 16.7935 32.5621 16.6243C30.2739 15.5399 28.2045 14.1372 26.8018 11.9484C26.2546 11.1028 25.9561 10.1776 25.9661 9.16279V9.17273ZM27.8961 9.0434C27.8961 10.098 28.314 10.864 28.8711 11.5604C29.9555 12.9035 31.3483 13.8486 32.8506 14.6445C32.9899 14.7142 33.2286 14.7042 33.3679 14.6246C34.8105 13.8089 36.1735 12.8836 37.2181 11.5704C37.626 11.063 37.9643 10.4661 38.1831 9.84925C38.5711 8.76483 38.1732 7.74011 37.2479 7.0835C36.3625 6.45673 35.2184 6.46667 34.3131 7.11334C33.2485 7.8794 32.96 7.8794 31.9254 7.13324C31.1096 6.53632 30.2241 6.43683 29.3287 6.89447C28.4135 7.36206 27.9459 8.13806 27.8961 9.03345V9.0434Z" fill="white"/>
<path d="M7.96878 18.8529C7.95883 16.495 10.3565 14.9231 12.5353 15.8483C12.7641 15.9478 13.1123 15.9677 13.3411 15.8682C14.6643 15.3211 15.9775 15.53 16.9624 16.505C17.9573 17.4799 18.216 18.7932 17.6589 20.1064C17.1614 21.2903 16.266 22.1459 15.2612 22.8921C13.1222 24.4739 12.8238 24.4839 10.645 22.9318C9.4213 22.0564 8.36673 21.0416 8.03842 19.4896C8.01852 19.3901 7.98868 19.2807 7.97873 19.1712C7.96878 19.0618 7.97873 18.9623 7.97873 18.8529H7.96878ZM11.2917 17.46C11.0529 17.5197 10.9236 17.5396 10.8042 17.5794C9.87894 17.9077 9.53073 18.9822 10.257 19.8378C10.9534 20.6536 11.8687 21.2704 12.7044 21.9668C12.7939 22.0365 13.0028 22.0464 13.1023 21.9867C14.1072 21.3997 15.0523 20.7332 15.689 19.7184C16.1268 19.022 16.087 18.3554 15.6194 17.8878C15.0921 17.3705 14.525 17.3605 13.7689 17.8878C13.2118 18.2758 12.6745 18.2758 12.1075 17.8878C11.8388 17.6988 11.5205 17.5794 11.2917 17.47V17.46Z" fill="white"/>
<path d="M51.6242 15.5698C52.5593 16.1269 53.6836 15.719 54.8376 15.6195C57.0164 15.4305 58.6281 17.7187 57.9317 19.8278C57.6034 20.8327 56.9567 21.6385 56.1608 22.2951C55.5539 22.8025 54.8774 23.2204 54.2407 23.6879C53.4846 24.2451 52.7683 24.1854 51.9823 23.6979C50.7188 22.9119 49.5051 22.0862 48.7092 20.7829C47.764 19.221 47.9929 17.4998 49.2962 16.3657C49.903 15.8384 50.6094 15.5698 51.6142 15.5698H51.6242ZM51.5545 17.5098C50.8979 17.5098 50.4005 17.848 50.1816 18.3256C49.9428 18.8529 50.0821 19.3403 50.3607 19.788C50.9874 20.773 51.9226 21.4196 52.9175 21.9867C53.017 22.0464 53.2259 22.0365 53.3254 21.9867C54.3402 21.3699 55.3052 20.6934 55.932 19.6488C56.3299 18.9822 56.2503 18.3256 55.7827 17.8878C55.2654 17.4003 54.6884 17.3904 53.982 17.8878C53.3652 18.3057 52.9076 18.2957 52.2708 17.8878C52.0122 17.7187 51.7137 17.5993 51.5645 17.5297L51.5545 17.5098Z" fill="white"/>
</g>
<defs>
<clipPath id="clip0_2048_4231">
<rect width="66" height="66" fill="white"/>
</clipPath>
</defs>
</svg>
