<svg width="30" height="30" viewBox="0 0 30 30" fill="none" xmlns="http://www.w3.org/2000/svg">
<g clip-path="url(#clip0_1_952)">
<path d="M14.3249 29.9999C13.7749 29.8849 13.2149 29.7999 12.6799 29.6449C9.50489 28.7249 7.15989 25.7849 6.95489 22.4849C6.93989 22.2799 6.86489 22.1549 6.70489 22.0299C4.27989 20.0949 3.14489 17.5599 3.37989 14.4749C3.68989 10.3199 5.72489 7.21492 9.29989 5.09992C9.37489 5.05492 9.46989 4.95492 9.47489 4.87492C9.55989 2.77492 10.6899 1.38492 12.5399 0.594923C14.7499 -0.350077 16.8949 -0.115077 18.8199 1.36992C19.9449 2.23492 20.5499 3.39992 20.5949 4.83992C20.5949 4.93992 20.7149 5.06992 20.8149 5.12492C23.0149 6.38992 24.6549 8.15992 25.6999 10.4699C26.5299 12.2999 26.8949 14.2199 26.6549 16.2199C26.3699 18.5949 25.2599 20.5299 23.3799 22.0099C23.1899 22.1599 23.1149 22.3099 23.1049 22.5449C22.8999 26.1349 19.9449 29.3599 16.3899 29.8899C16.1699 29.9249 15.9549 29.9649 15.7349 30.0049H14.3299L14.3249 29.9999ZM8.69989 17.6549C11.0349 17.6349 12.1749 19.4099 12.1949 20.8149C12.2049 21.5599 12.0049 22.2399 11.5599 22.8349C10.9549 23.6449 10.1249 24.0649 9.11989 24.1549C9.71489 25.9849 11.8449 28.2349 15.0099 28.2449C18.2049 28.2549 20.3349 25.9799 20.9249 24.1749C18.7049 23.9149 17.8349 22.1749 17.8549 20.8999C17.8649 20.1549 18.0949 19.4799 18.5649 18.8999C19.2849 18.0099 20.2399 17.6449 21.3849 17.6649C21.3849 17.2899 21.3949 16.9499 21.3849 16.6099C21.3149 14.3149 19.5949 12.5199 17.3249 12.4399C15.7949 12.3849 14.2649 12.4199 12.7349 12.4399C12.3899 12.4399 12.0349 12.5099 11.7049 12.6099C9.86489 13.1699 8.38489 14.8649 8.70489 17.6499L8.69989 17.6549ZM23.1399 19.7649C23.6999 19.2449 24.0899 18.6299 24.3849 17.9599C25.2199 16.0399 25.1099 14.0949 24.4699 12.1649C22.9349 7.49992 18.3149 4.73992 13.4149 5.50992C9.42989 6.13492 6.25489 9.07992 5.33989 13.0249C4.94989 14.7049 4.95989 16.3699 5.66989 17.9749C5.96489 18.6449 6.34989 19.2549 6.90989 19.8549C6.90989 19.6699 6.90989 19.5699 6.90989 19.4699C6.91989 18.3499 6.88489 17.2249 6.95489 16.1099C7.12489 13.3049 9.60489 10.8299 12.4099 10.7099C14.0849 10.6399 15.7649 10.6399 17.4349 10.6949C19.9249 10.7799 22.0399 12.4349 22.8299 14.7999C23.0499 15.4649 23.1349 16.1449 23.1349 16.8399C23.1349 17.8149 23.1349 18.7849 23.1349 19.7599L23.1399 19.7649ZM18.6949 4.18992C18.5149 2.85992 16.6949 1.75992 14.8149 1.81492C13.1649 1.86492 11.4549 3.03492 11.3699 4.18992C13.8099 3.45492 16.2499 3.45492 18.6949 4.18992ZM21.3699 19.4649C20.7449 19.3599 20.1499 19.6149 19.8399 20.1249C19.5149 20.6649 19.5199 21.2149 19.8699 21.7449C20.1949 22.2449 20.7849 22.4749 21.3699 22.3549V19.4599V19.4649ZM8.70989 19.4399V22.3899C9.38989 22.4349 9.91489 22.2199 10.2449 21.6449C10.5499 21.1199 10.5199 20.5799 10.1799 20.0749C9.82989 19.5599 9.31489 19.3899 8.70989 19.4349V19.4399Z" fill="#0C4E4B"/>
<path d="M15.2845 22.91C16.3045 22.94 17.3045 23.48 17.9795 24.58C18.2645 25.045 18.1495 25.575 17.7245 25.835C17.2995 26.1 16.7745 25.975 16.4945 25.5C16.3095 25.19 16.0945 25.055 15.7195 25.08C15.2045 25.115 14.6895 25.105 14.1745 25.08C13.9245 25.07 13.7695 25.165 13.6495 25.36C13.6095 25.425 13.5695 25.495 13.5245 25.555C13.2345 25.965 12.7195 26.08 12.3145 25.825C11.9195 25.575 11.8045 25.075 12.0345 24.64C12.5945 23.59 13.7645 22.91 15.2795 22.905L15.2845 22.91Z" fill="#0C4E4B"/>
</g>
<defs>
<clipPath id="clip0_1_952">
<rect width="30" height="30" fill="white"/>
</clipPath>
</defs>
</svg>
