<svg width="30" height="30" viewBox="0 0 30 30" fill="none" xmlns="http://www.w3.org/2000/svg">
<g clip-path="url(#clip0_1_937)">
<path d="M14.2682 29.9999C13.7951 29.8956 13.3117 29.8225 12.8525 29.6799C10.9673 29.0921 9.48905 27.9165 8.26818 26.3965C6.76905 24.5321 5.82992 22.4104 5.45775 20.0452C5.42644 19.8538 5.37775 19.6556 5.39514 19.4678C5.4334 19.0782 5.24209 18.8243 4.99514 18.553C3.45775 16.8417 2.28557 14.9182 1.80905 12.6365C1.16209 9.53037 1.85079 6.70254 3.7534 4.18776C5.33253 2.1008 7.44036 0.803413 9.99688 0.267761C10.5847 0.146022 11.1934 0.0764568 11.7917 0.0695003C13.9238 0.0451524 16.0595 0.052109 18.1951 0.0625437C22.8595 0.0868916 27.1621 3.55472 28.1917 8.10776C28.9951 11.6556 28.1708 14.793 25.816 17.5443C25.4508 17.9721 25.0438 18.3686 24.6751 18.7965C24.5847 18.9008 24.5186 19.0573 24.5047 19.1999C24.0664 23.2278 22.3447 26.5147 18.9325 28.8069C17.9795 29.4469 16.9082 29.833 15.7534 29.9512C15.7082 29.9547 15.663 29.9825 15.6177 29.9999H14.2717H14.2682ZM7.12036 18.3895C7.09253 18.393 7.06818 18.3999 7.04036 18.4034C7.16905 19.2278 7.22818 20.0695 7.43688 20.8695C8.10122 23.3912 9.38818 25.5338 11.5412 27.0678C13.5308 28.4869 15.6317 28.6434 17.7917 27.433C18.7551 26.8904 19.5517 26.146 20.2369 25.2869C21.5725 23.6138 22.4351 21.7252 22.6717 19.5965C22.8977 17.5756 22.6299 15.5965 21.896 13.6938C21.4056 12.4208 20.6751 11.3008 19.6073 10.4347C17.9134 9.0608 15.9343 8.71993 13.8334 8.95993C11.3534 9.24515 9.55862 10.5599 8.39688 12.7512C7.4647 14.5112 7.15166 16.4173 7.12036 18.386V18.3895ZM17.0786 1.81211C15.816 1.81211 14.6021 1.80515 13.3847 1.81211C12.616 1.81907 11.8404 1.78776 11.0786 1.88515C8.43166 2.21907 6.33427 3.49906 4.83514 5.70428C3.64905 7.45037 3.15862 9.3982 3.40557 11.4991C3.60383 13.2069 4.32731 14.7199 5.31514 16.1112C5.36036 16.1773 5.41601 16.2365 5.48905 16.3304C5.6734 15.026 5.96557 13.8017 6.49079 12.6399C8.0421 9.21385 10.6717 7.34602 14.4491 7.13037C14.5673 7.12341 14.703 7.04341 14.7934 6.95993C15.5377 6.25385 16.1047 5.42254 16.4977 4.47646C16.8491 3.63472 17.0369 2.7582 17.0751 1.81559L17.0786 1.81211ZM16.8873 7.29037C17.016 7.32167 17.0995 7.34602 17.1864 7.36689C18.4004 7.63472 19.5134 8.12863 20.4977 8.88689C22.3795 10.3338 23.4438 12.2956 24.0282 14.546C24.1882 15.1582 24.2891 15.7878 24.4177 16.4138C26.7412 13.9095 27.4404 10.3304 25.9343 6.96689C24.3934 3.52341 21.0751 1.99298 18.8491 1.90254C18.7621 3.88863 18.1186 5.68341 16.8873 7.29037Z" fill="#0C4E4B"/>
<path d="M14.7934 24.7409C13.823 24.7235 12.9082 24.4904 12.0351 24.0835C11.569 23.8678 11.3812 23.3531 11.5864 22.9078C11.7917 22.4626 12.3412 22.2609 12.8003 22.4835C14.1186 23.127 15.4438 23.0644 16.7795 22.5461C16.9812 22.4696 17.2143 22.4035 17.423 22.4244C17.8264 22.4661 18.1012 22.7861 18.1534 23.1826C18.2021 23.5444 18.0177 23.9478 17.6386 24.0765C16.9743 24.3061 16.289 24.487 15.6038 24.6609C15.343 24.727 15.0647 24.7131 14.7934 24.7374V24.7409Z" fill="#0C4E4B"/>
<path d="M11.37 18.5843C10.6187 18.5843 10.0379 18.4347 9.48481 18.1808C9.04655 17.9791 8.85525 17.4956 9.02568 17.0574C9.18916 16.64 9.70742 16.3687 10.1318 16.5565C10.8866 16.8869 11.61 16.8591 12.3648 16.5634C12.8274 16.3826 13.3318 16.6365 13.4918 17.0747C13.6587 17.5304 13.4535 17.9895 12.9874 18.2052C12.4309 18.4591 11.8431 18.5739 11.3735 18.5878L11.37 18.5843Z" fill="#0C4E4B"/>
<path d="M18.6781 18.5843C17.9059 18.5843 17.325 18.4312 16.772 18.1773C16.3442 17.9825 16.1564 17.5025 16.3164 17.0747C16.4764 16.6469 16.9842 16.3686 17.4085 16.553C18.1842 16.8904 18.925 16.8521 19.6972 16.553C20.1355 16.3825 20.605 16.633 20.772 17.0538C20.9494 17.4956 20.7616 17.9686 20.3198 18.1808C19.7494 18.4521 19.1407 18.5704 18.6711 18.5843H18.6781Z" fill="#0C4E4B"/>
<path d="M15.9065 11.4503C15.8995 11.9234 15.4925 12.3234 15.0265 12.3199C14.543 12.3164 14.1465 11.9025 14.1534 11.4121C14.1604 10.939 14.5673 10.539 15.0334 10.5425C15.5169 10.546 15.9134 10.9599 15.9065 11.4503Z" fill="#0C4E4B"/>
<path d="M10.9355 13.6417C10.9355 13.1478 11.3321 12.7478 11.819 12.7512C12.299 12.7512 12.6851 13.1443 12.6886 13.6243C12.6886 14.1286 12.3095 14.5112 11.8086 14.5078C11.3216 14.5078 10.939 14.1252 10.9355 13.6417Z" fill="#0C4E4B"/>
<path d="M20.4211 20.6297C20.4211 21.1271 20.0246 21.5236 19.5342 21.5166C19.0646 21.5097 18.6646 21.1062 18.6611 20.6366C18.6611 20.1462 19.0611 19.7531 19.5585 19.7566C20.0455 19.7601 20.4246 20.1427 20.4246 20.6297H20.4211Z" fill="#0C4E4B"/>
</g>
<defs>
<clipPath id="clip0_1_937">
<rect width="30" height="30" fill="white"/>
</clipPath>
</defs>
</svg>
