<svg width="30" height="30" viewBox="0 0 30 30" fill="none" xmlns="http://www.w3.org/2000/svg">
<g clip-path="url(#clip0_2013_4118)">
<path d="M0 16.08C0 15.3773 0 14.6747 0 13.9756C0.0173913 13.913 0.0486957 13.8504 0.0521739 13.7843C0.118261 12.7513 0.323478 11.7426 0.612174 10.7513C2.34435 4.86256 7.64174 0.580825 13.7565 0.104304C15.8539 -0.0591746 17.8957 0.177347 19.8748 0.872999C25.6348 2.89039 29.5478 8.04865 29.9304 14.1426C30.0522 16.1043 29.7878 18.0243 29.1478 19.8887C29.1026 20.0173 29.1026 20.2017 29.1617 20.3165C29.8122 21.5617 30.0661 22.8695 29.8956 24.2678C29.5826 26.8486 27.6974 29.0504 25.1687 29.7565C24.8174 29.8539 24.4557 29.92 24.0974 30H22.7513C22.7165 29.986 22.6817 29.9582 22.647 29.9547C21.7878 29.8643 20.9878 29.593 20.2261 29.1895C20.1322 29.1408 19.9861 29.1547 19.8748 29.1826C19.0957 29.3739 18.3235 29.5965 17.5409 29.7704C17.0435 29.8817 16.5322 29.9234 16.0243 30H13.92C13.847 29.9826 13.7704 29.9513 13.6974 29.9443C11.9026 29.8052 10.1843 29.3669 8.57739 28.5634C3.89565 26.226 1.0713 22.4834 0.173913 17.3147C0.104348 16.9043 0.0591304 16.4904 0 16.08ZM27.7009 18.4695C29.0261 14.0765 27.7948 7.67996 22.2504 4.0243C16.7687 0.406912 9.66261 1.31126 5.2313 6.12169C0.925217 10.7965 0.605218 18.0313 4.45565 23.0121C8.50087 28.2469 14.7304 28.9217 18.4139 27.7356C16.0174 24.8556 16.6052 21.1408 18.5843 18.9808C20.4626 16.9321 24.4765 15.7808 27.6974 18.4695H27.7009ZM23.3878 18.6539C20.7583 18.6573 18.5913 20.8347 18.5983 23.4608C18.6052 26.08 20.7652 28.2365 23.3843 28.24C26.0139 28.2469 28.1878 26.0765 28.1878 23.4469C28.1878 20.8173 26.0139 18.6469 23.3878 18.6504V18.6539Z" fill="#0C4E4B"/>
<path d="M14.9323 13.767C15.4749 13.2244 15.9758 12.7236 16.5254 12.1705C16.3028 11.9618 16.0593 11.7462 15.8262 11.5131C15.4123 11.1027 15.388 10.5566 15.7532 10.1914C16.1184 9.82617 16.661 9.854 17.0749 10.2644C17.301 10.4905 17.5202 10.727 17.7184 10.9357C18.2506 10.4001 18.7549 9.89226 19.3115 9.33226C19.1236 9.16182 18.8906 8.96008 18.6715 8.74095C18.2228 8.29922 18.1845 7.75313 18.5636 7.37748C18.9428 7.00182 19.4784 7.04704 19.9271 7.49922C20.1393 7.71139 20.341 7.934 20.5775 8.18443C20.8384 7.91661 21.0645 7.68008 21.2975 7.44704C21.708 7.04008 22.261 7.01922 22.6193 7.39139C22.9741 7.75661 22.9462 8.29226 22.5497 8.69574C22.3202 8.92878 22.0802 9.15487 21.8019 9.42617C22.0697 9.68009 22.3167 9.89922 22.5497 10.1323C22.9497 10.5323 22.9706 11.0714 22.6158 11.4331C22.2541 11.8018 21.701 11.781 21.2941 11.374C21.0645 11.1479 20.8419 10.9183 20.6367 10.7166C20.1219 11.2349 19.6175 11.7427 19.068 12.2957C19.2558 12.4731 19.4993 12.6923 19.7323 12.9253C20.1462 13.3357 20.1706 13.8818 19.8054 14.247C19.4402 14.6123 18.8941 14.5844 18.4836 14.174C18.2575 13.9479 18.0384 13.7114 17.8367 13.5027C17.3045 14.0349 16.8002 14.5427 16.2541 15.0853C16.4593 15.2801 16.6993 15.5062 16.9323 15.7392C17.3393 16.1497 17.3636 16.7027 16.9915 17.061C16.6262 17.4157 16.0906 17.3914 15.6871 16.9949C15.4541 16.7653 15.221 16.5288 15.0054 16.3097C14.4802 16.8349 13.9723 17.3427 13.4262 17.8853C13.6488 18.0975 13.8958 18.3166 14.1288 18.5497C14.5254 18.9497 14.5497 19.4888 14.1949 19.8505C13.8332 20.2192 13.2802 20.1983 12.8732 19.7914C12.6471 19.5653 12.4245 19.3323 12.2262 19.1236C11.7045 19.6488 11.1967 20.1566 10.6506 20.7097C10.8384 20.887 11.0819 21.1097 11.3115 21.3427C11.7219 21.7531 11.7497 22.2992 11.3845 22.6644C11.0193 23.0297 10.4732 23.0018 10.0628 22.5914C9.83667 22.3653 9.61754 22.1288 9.3358 21.8366C9.08885 22.1079 8.88015 22.3618 8.65059 22.5949C8.24363 23.0088 7.69059 23.0297 7.32885 22.661C6.96711 22.2923 6.99841 21.7531 7.41233 21.3392C7.63841 21.1131 7.8645 20.887 8.12189 20.6331C7.86798 20.3862 7.63146 20.1601 7.40189 19.927C6.99493 19.5166 6.97407 18.967 7.34276 18.6053C7.70798 18.2505 8.24363 18.2749 8.64363 18.6714C8.87667 18.901 9.10624 19.1375 9.32189 19.3566C9.85059 18.8279 10.3549 18.3201 10.8871 17.7879C10.6715 17.5792 10.4349 17.3531 10.2019 17.1201C9.80189 16.7166 9.77754 16.1844 10.1323 15.8192C10.4941 15.447 11.0436 15.4679 11.4541 15.8749C11.6836 16.101 11.8993 16.3375 12.0975 16.5392C12.6193 16.0105 13.1236 15.5027 13.6558 14.967C13.4575 14.7653 13.1932 14.5149 12.9462 14.2436C12.4836 13.7392 12.6749 12.9879 13.3184 12.7862C13.6558 12.6818 13.9584 12.7653 14.2054 13.0088C14.4558 13.2523 14.6923 13.5131 14.9358 13.767H14.9323Z" fill="#0C4E4B"/>
<path d="M22.1772 23.44C21.9059 23.1826 21.6624 22.9634 21.4293 22.7269C21.0293 22.3269 21.0085 21.7878 21.3632 21.426C21.725 21.0573 22.2745 21.0782 22.685 21.4852C22.9145 21.7113 23.1302 21.9478 23.405 22.2365C23.6798 21.9443 23.9198 21.6695 24.1841 21.4156C24.4728 21.1373 24.8659 21.0887 25.2102 21.266C25.5302 21.433 25.7389 21.7704 25.6659 22.1356C25.6241 22.3408 25.5059 22.553 25.3702 22.7165C25.158 22.9669 24.9006 23.1791 24.5945 23.4713C24.8972 23.746 25.1824 23.9791 25.4398 24.2434C25.7215 24.5356 25.7598 24.9217 25.5789 25.2695C25.4119 25.586 25.0676 25.7878 24.7059 25.7182C24.5076 25.68 24.3024 25.5687 24.1493 25.433C23.8954 25.2139 23.6763 24.946 23.4119 24.6678C23.1476 24.9426 22.9215 25.1791 22.6885 25.4121C22.278 25.8191 21.725 25.8365 21.3632 25.4643C21.0119 25.0991 21.0398 24.5634 21.4363 24.1634C21.6624 23.9373 21.8954 23.7147 22.1806 23.44H22.1772Z" fill="#0C4E4B"/>
</g>
<defs>
<clipPath id="clip0_2013_4118">
<rect width="30" height="30" fill="white"/>
</clipPath>
</defs>
</svg>
