<svg width="30" height="30" viewBox="0 0 30 30" fill="none" xmlns="http://www.w3.org/2000/svg">
<g clip-path="url(#clip0_2013_4301)">
<path d="M6.08279 29.9999C5.82984 29.947 5.57102 29.8999 5.31808 29.8411C2.52984 29.1881 0.600433 26.7823 0.559256 23.9117C0.51808 21.1528 2.40043 18.694 5.10632 17.9587C5.28279 17.9117 5.36514 17.8411 5.3769 17.6528C5.42985 17.0117 5.66514 16.4411 6.06514 15.947C6.22396 15.747 6.2769 15.5587 6.2769 15.3117C6.24161 12.7999 6.92396 10.5058 8.40632 8.46461C9.60043 6.82343 11.1298 5.58814 13.0004 4.78226C13.1828 4.70579 13.2357 4.61755 13.2298 4.41755C13.1769 2.15285 14.7946 0.317551 17.0416 0.0763746C19.1475 -0.147155 21.1122 1.32343 21.5475 3.47637C21.6063 3.75873 21.6357 4.05873 21.6181 4.34696C21.6063 4.59402 21.6887 4.6999 21.9063 4.79402C24.8004 6.10579 26.8063 8.25285 27.9181 11.2293C28.424 12.5881 28.6004 13.9999 28.5769 15.447C28.5769 15.5705 28.6181 15.7176 28.6887 15.8117C30.4004 17.9293 29.2593 20.9823 26.5769 21.4411C26.3298 21.4823 26.0769 21.4764 25.8004 21.494C25.7651 21.8999 25.7475 22.3058 25.6887 22.7058C25.4593 24.3058 24.7357 25.6528 23.5593 26.7646C23.0534 27.2411 22.5475 27.7058 22.0298 28.1705C19.3416 30.5705 15.4063 30.547 12.7534 28.1176C12.4475 27.8352 12.1357 27.5528 11.824 27.2646C11.571 27.5646 11.3416 27.8646 11.0769 28.1352C10.071 29.1705 8.84749 29.7823 7.4122 29.9587C7.35926 29.9646 7.30043 29.9881 7.24749 30.0058H6.0769L6.08279 29.9999ZM23.8651 22.9058C23.5828 22.8411 23.3593 22.8587 23.171 23.094C23.0475 23.2528 22.8887 23.3881 22.7416 23.5293C22.3593 23.894 21.8298 23.9058 21.4828 23.5587C21.124 23.2117 21.1357 22.6705 21.5181 22.2823C21.7828 22.0117 22.0593 21.747 22.324 21.4764C22.5593 21.2234 22.8475 21.1176 23.1887 21.1234C23.4593 21.1293 23.7298 21.1234 24.0063 21.1234C24.0181 21.047 24.0298 20.9999 24.0298 20.9528C24.0298 19.394 24.0298 17.8352 24.0298 16.2764C24.0298 16.194 24.0122 16.0999 23.9769 16.0234C22.8181 13.494 20.8593 12.0058 18.1004 11.7234C15.0004 11.4058 12.224 13.0823 10.9357 15.9234C10.8769 16.0587 10.8416 16.2176 10.8357 16.3705C10.824 17.2764 10.824 18.1823 10.8357 19.0881C10.8357 19.2411 10.9122 19.4293 11.0181 19.5411C12.4357 21.0234 13.0651 22.794 12.7122 24.8117C12.5946 25.494 12.7828 25.8587 13.2651 26.2058C13.4063 26.3058 13.7004 26.247 13.7416 26.0881C13.7651 25.9764 13.7416 25.8528 13.7534 25.7411C13.7769 25.2528 14.171 24.8646 14.6416 24.8705C15.1063 24.8764 15.4828 25.2528 15.5063 25.7293C15.5181 25.9646 15.4946 26.1999 15.5063 26.4293C15.5357 26.9117 15.3946 27.294 14.9298 27.5117C16.3357 28.4823 18.9181 28.3881 20.2651 27.3058C20.1475 27.0705 20.024 26.8293 19.9122 26.5823C19.7181 26.1352 19.8887 25.647 20.3063 25.4293C20.7298 25.2117 21.2181 25.3646 21.4651 25.7881C21.5298 25.894 21.5828 26.0058 21.6475 26.1234C22.7181 25.2587 23.571 24.2823 23.871 22.9058H23.8651ZM7.99455 14.6528C8.29455 14.6293 8.5122 14.6058 8.73573 14.594C8.97102 14.5823 9.20632 14.6117 9.43573 14.5823C9.53573 14.5705 9.66514 14.4881 9.71808 14.3999C11.3534 11.6881 13.7416 10.194 16.9004 9.92932C16.9887 9.92343 17.0887 9.87638 17.1534 9.81755C17.4122 9.57049 17.6769 9.31755 17.9181 9.05285C18.4769 8.42932 18.6181 7.55285 18.1828 6.85873C17.8946 6.40579 17.5122 5.98814 17.0887 5.66461C16.9063 5.52343 16.5122 5.66461 16.2122 5.66461C16.1946 5.66461 16.171 5.66461 16.1534 5.67049C12.2593 6.25285 9.22396 8.99991 8.29455 12.8176C8.15337 13.4058 8.10043 14.0176 8.00043 14.6352L7.99455 14.6528ZM2.72984 22.0528C1.49455 24.6234 3.19455 27.7117 5.78279 28.1234C5.84161 27.7646 5.85337 27.4293 5.50043 27.1881C5.38279 27.1058 5.28867 26.9881 5.18867 26.8823C4.78867 26.4705 4.77102 25.947 5.14161 25.5823C5.50632 25.2293 6.02396 25.247 6.41808 25.6352C6.68867 25.8999 6.95337 26.1764 7.22396 26.4411C7.45337 26.6646 7.56514 26.9293 7.55337 27.2528C7.54161 27.5411 7.55337 27.8293 7.55337 28.1646C9.00632 27.8176 10.0181 27.0117 10.6475 25.7117C11.2534 24.4705 11.1416 22.8293 10.5946 22.0176C10.3769 22.3823 10.2063 22.7764 9.93573 23.0881C9.4769 23.6058 9.35926 24.1764 9.4122 24.8352C9.44161 25.194 9.22396 25.4646 8.88867 25.6058C8.30632 25.8587 7.69455 25.4352 7.67102 24.7705C7.65926 24.4528 7.67102 24.1352 7.67102 23.8058C7.49455 23.8058 7.36514 23.8058 7.24161 23.8058C6.67102 23.8058 6.27102 23.447 6.27102 22.9352C6.27102 22.4293 6.67102 22.0646 7.23573 22.0528C7.59455 22.0528 7.95926 22.0528 8.31808 22.0528C8.40632 22.0528 8.52984 22.0234 8.57102 21.9646C8.8769 21.4823 9.16514 20.9881 9.45337 20.5058C7.72396 19.0176 5.08867 19.2881 3.78279 20.6352C3.78867 20.6528 3.79455 20.6764 3.80631 20.6881C4.16514 21.047 4.52396 21.4058 4.8769 21.7646C5.28867 22.1823 5.32396 22.7234 4.95926 23.0881C4.59455 23.4528 4.05926 23.4234 3.64161 22.9999C3.34161 22.6999 3.04749 22.3823 2.72396 22.0528H2.72984ZM26.8063 14.5881C26.7063 12.4293 25.9475 10.494 24.5122 8.8352C23.2298 7.35285 21.6298 6.37637 19.6651 5.87049C20.4298 7.38814 20.3063 8.78814 19.3475 10.0999C19.3887 10.1293 19.4063 10.147 19.424 10.1528C21.924 10.7705 23.824 12.194 25.1298 14.4117C25.1828 14.4999 25.3357 14.5764 25.4475 14.5823C25.8828 14.5999 26.3181 14.5881 26.8063 14.5881ZM19.8416 4.04696C19.8357 2.82932 18.6828 1.78226 17.3475 1.81167C16.1004 1.84108 14.971 2.92932 15.0063 4.04696C15.8063 3.98226 16.6063 3.87049 17.4063 3.87049C18.2181 3.87049 19.0298 3.98226 19.8357 4.04696H19.8416ZM25.7945 16.3528V19.7058C26.5122 19.7823 27.0828 19.547 27.471 18.9587C27.8593 18.3705 27.8651 17.7411 27.4946 17.1411C27.1122 16.5293 26.5357 16.2999 25.7945 16.347V16.3528ZM9.05337 18.1999V16.3764C8.10632 16.2352 7.13573 16.947 7.15926 17.747C7.4769 17.7999 7.79455 17.8411 8.10632 17.9176C8.41808 17.994 8.71808 18.0999 9.05337 18.1999Z" fill="#0C4E4B"/>
<path d="M17.4353 21.1294C18.4942 21.1412 19.3236 21.6235 19.9824 22.4176C20.2647 22.7529 20.2118 23.2588 19.9059 23.5647C19.5942 23.8765 19.0824 23.9 18.7353 23.6117C18.6177 23.5117 18.5118 23.3941 18.4 23.2882C17.8236 22.747 17.0295 22.747 16.453 23.2882C16.3353 23.4 16.2236 23.5294 16.0942 23.6294C15.7471 23.9 15.253 23.8647 14.9471 23.5647C14.6353 23.2588 14.6 22.7765 14.8647 22.4176C15.4353 21.647 16.4824 21.1235 17.4412 21.1353L17.4353 21.1294Z" fill="#0C4E4B"/>
<path d="M14.5819 19.6058C13.8584 19.6058 13.2054 19.3352 12.6584 18.8235C12.276 18.4646 12.2466 17.9411 12.576 17.5705C12.8937 17.2176 13.4172 17.1941 13.8113 17.5117C14.3937 17.9823 14.8642 17.9823 15.4348 17.5117C15.8231 17.1882 16.3466 17.2117 16.6701 17.5646C17.0054 17.9294 16.976 18.4588 16.5937 18.8176C16.0407 19.3411 15.376 19.6058 14.5819 19.6058Z" fill="#0C4E4B"/>
<path d="M20.1646 19.6058C19.4587 19.6058 18.7998 19.3352 18.2469 18.8117C17.8763 18.4588 17.8528 17.9411 18.1704 17.5823C18.4881 17.2235 19.0175 17.1941 19.4057 17.5058C20.0057 17.9882 20.4528 17.9882 21.0469 17.5058C21.4351 17.1941 21.9704 17.2235 22.2822 17.5823C22.5998 17.947 22.5704 18.4705 22.2057 18.8176C21.6528 19.3411 20.994 19.6117 20.1646 19.6117V19.6058Z" fill="#0C4E4B"/>
</g>
<defs>
<clipPath id="clip0_2013_4301">
<rect width="30" height="30" fill="white"/>
</clipPath>
</defs>
</svg>
