<svg width="30" height="30" viewBox="0 0 30 30" fill="none" xmlns="http://www.w3.org/2000/svg">
<g clip-path="url(#clip0_2013_4573)">
<path d="M14.2088 30C13.8575 29.9305 13.5062 29.8713 13.1584 29.7879C12.0349 29.52 11.0262 29.0122 10.1219 28.2887C9.18971 27.5409 8.18102 26.88 7.42276 25.9305C6.46971 24.7374 5.89232 23.3913 5.72536 21.8713C5.71493 21.7635 5.69058 21.6592 5.66971 21.52C5.4471 21.52 5.22797 21.52 5.00536 21.52C3.56884 21.5131 2.4071 20.3513 2.39667 18.9183C2.39667 18.3826 2.40015 17.847 2.39667 17.3113C2.38623 16.3235 2.81754 15.5757 3.61754 15.0157C3.70797 14.9531 3.79145 14.8105 3.79841 14.6992C4.0871 10.0835 6.33406 6.79307 10.4941 4.80002C10.7028 4.69915 10.7793 4.60524 10.7688 4.3722C10.6715 2.38263 12.1532 0.382632 14.4906 0.0695886C16.6436 -0.215629 18.8036 1.39828 19.1236 3.55828C19.1654 3.83654 19.1862 4.12176 19.1758 4.40002C19.1688 4.60872 19.2419 4.69915 19.4297 4.78611C22.741 6.29915 24.8871 8.81394 25.8088 12.3374C26.0071 13.0922 26.0419 13.8922 26.1358 14.6713C26.1532 14.8244 26.1741 14.9287 26.3201 15.0261C27.1271 15.5583 27.5549 16.3061 27.5445 17.28C27.5375 18 27.5828 18.7305 27.4749 19.4365C27.2871 20.6365 26.181 21.5061 24.9671 21.5165C24.7445 21.5165 24.5219 21.5165 24.3097 21.5165C24.1845 22.1044 24.0975 22.6783 23.9341 23.2348C23.4436 24.9183 22.4558 26.2609 21.0645 27.3183C20.5845 27.6835 20.1114 28.0626 19.6314 28.4279C18.5149 29.2765 17.2593 29.7878 15.8645 29.9444C15.8193 29.9478 15.7775 29.9792 15.7323 29.9965H14.2123L14.2088 30ZM22.4697 18.5878C22.4697 18.5878 22.4975 18.5878 22.5115 18.5878C22.5115 17.7322 22.5184 16.8731 22.5045 16.0174C22.5045 15.8748 22.4523 15.7079 22.3688 15.5931C20.2019 12.6713 17.3115 11.3496 13.6906 11.8157C11.0819 12.1531 9.04363 13.4922 7.53406 15.6418C7.47145 15.7287 7.42971 15.8539 7.42971 15.9583C7.42276 17.6626 7.40189 19.367 7.43667 21.0713C7.47145 22.7826 8.1045 24.2679 9.38102 25.4192C10.0941 26.0626 10.8593 26.6574 11.6523 27.207C13.7532 28.6644 16.5393 28.567 18.5775 27.0087C19.0819 26.6226 19.5793 26.2365 20.0767 25.8435C21.4854 24.7339 22.3375 23.3044 22.4593 21.5026C22.5254 20.5322 22.4697 19.5583 22.4697 18.5844V18.5878ZM5.57928 14.5913C5.90276 14.6748 6.10449 14.5948 6.30971 14.3235C8.11841 11.9305 10.4941 10.4522 13.4819 10.0661C14.2715 9.96524 14.9462 9.79481 15.4158 9.12002C15.4228 9.11307 15.4297 9.10611 15.4367 9.09915C16.1358 8.33741 16.1358 7.20698 15.4262 6.4522C15.2001 6.2122 14.9671 5.97568 14.7236 5.75307C14.6541 5.69046 14.5393 5.64524 14.4488 5.64872C14.1184 5.66611 13.788 5.69046 13.461 5.74611C9.05406 6.48698 5.82276 10.1148 5.58276 14.5948L5.57928 14.5913ZM17.2245 5.91655C17.6141 6.60872 17.7636 7.31133 17.7149 8.05568C17.6628 8.81046 17.381 9.48524 16.9219 10.0939C17.0193 10.1218 17.0923 10.1496 17.1688 10.167C19.8541 10.7339 22.0036 12.1426 23.6349 14.3339C23.8436 14.6122 24.0523 14.6609 24.348 14.5948C24.261 10.6331 21.2975 6.85915 17.228 5.91307L17.2245 5.91655ZM17.4054 4.11828C17.2419 2.71307 16.1393 1.74263 14.8628 1.81915C13.6001 1.89568 12.5497 2.92872 12.5601 4.11481C14.1671 3.77046 15.7741 3.77394 17.4054 4.11828ZM5.65232 19.7496V16.3757C5.45754 16.3757 5.28363 16.3757 5.10971 16.3757C4.53232 16.3861 4.16363 16.7513 4.15319 17.3252C4.14971 17.687 4.17406 18.0487 4.14971 18.407C4.06971 19.6035 4.63319 19.8609 5.65232 19.7496ZM24.2888 16.3931V19.767C24.4871 19.767 24.661 19.767 24.8349 19.767C25.4088 19.7565 25.7775 19.3913 25.788 18.8139C25.7915 18.4522 25.7706 18.0905 25.7915 17.7322C25.861 16.6296 25.4123 16.3026 24.3897 16.3757C24.3619 16.3757 24.3341 16.3826 24.2888 16.3931Z" fill="#0C4E4B"/>
<path d="M14.9599 15.4366C14.2016 15.4366 13.4399 15.4366 12.6816 15.4366C12.139 15.4366 11.7564 15.0748 11.7529 14.567C11.7529 14.0557 12.1321 13.687 12.6712 13.687C14.2016 13.687 15.7286 13.687 17.259 13.687C17.8051 13.687 18.1842 14.0488 18.1877 14.5601C18.1877 15.0714 17.8121 15.4401 17.2695 15.4401C16.5008 15.4401 15.7321 15.4401 14.9599 15.4401V15.4366Z" fill="#0C4E4B"/>
<path d="M10.3511 24.1844C10.3859 23.1304 10.7685 22.2191 11.499 21.4609C11.8677 21.0783 12.4172 21.0644 12.7755 21.4087C13.1233 21.7461 13.1407 22.2852 12.7824 22.6644C12.3372 23.1409 12.1146 23.7009 12.1007 24.3478C12.0868 24.8904 11.725 25.2591 11.2137 25.2557C10.7059 25.2522 10.3511 24.8696 10.3477 24.3235C10.3477 24.2748 10.3477 24.2261 10.3477 24.1774L10.3511 24.1844Z" fill="#0C4E4B"/>
<path d="M19.6002 24.3166C19.6767 25.0505 18.9185 25.4158 18.4072 25.2071C18.0593 25.0679 17.8437 24.7827 17.8367 24.4071C17.8263 23.7392 17.6141 23.1584 17.1515 22.6645C16.7967 22.2853 16.8141 21.7427 17.1654 21.4088C17.5237 21.0645 18.0733 21.0818 18.4419 21.4645C19.1828 22.2297 19.5619 23.1514 19.6002 24.3166Z" fill="#0C4E4B"/>
<path d="M20.1282 19.1791C20.1004 19.1791 20.0691 19.1791 20.0413 19.1791C19.5682 19.1513 18.803 18.3826 18.7717 17.9095C18.7474 17.5304 18.9282 17.2034 19.2552 17.0504C19.6065 16.8834 19.9404 16.9321 20.2361 17.1826C20.4274 17.3461 20.6082 17.5304 20.7717 17.7182C21.0152 18 21.0674 18.3269 20.9143 18.6713C20.7648 19.0052 20.49 19.1652 20.1282 19.1791Z" fill="#0C4E4B"/>
<path d="M9.42916 19.1896C8.98394 19.1653 8.70916 19.0053 8.55959 18.6748C8.41003 18.3444 8.44829 18.0209 8.68133 17.7461C8.85524 17.5374 9.05351 17.3426 9.25872 17.1653C9.58916 16.88 10.0865 16.8939 10.41 17.1757C10.7231 17.4505 10.8239 17.9444 10.57 18.2853C10.3579 18.5705 10.0865 18.8174 9.81177 19.047C9.69698 19.1444 9.51264 19.1618 9.42916 19.1896Z" fill="#0C4E4B"/>
</g>
<defs>
<clipPath id="clip0_2013_4573">
<rect width="30" height="30" fill="white"/>
</clipPath>
</defs>
</svg>
