<svg width="27" height="27" viewBox="0 0 27 27" fill="none" xmlns="http://www.w3.org/2000/svg">
<g clip-path="url(#clip0_2013_5333)">
<path d="M26.4193 27H0.631747C0.178351 26.7912 0.0458984 26.4295 0.0458984 25.9404C0.0611815 21.8548 0.0509928 17.764 0.0509928 13.6783C0.0509928 12.96 0.326087 12.6849 1.05458 12.6849C1.83401 12.6849 2.61345 12.6849 3.39797 12.6849H3.68835C3.68835 12.5831 3.68835 12.5117 3.68835 12.4455C3.56099 10.8561 3.49477 9.25645 3.2859 7.67721C2.99552 5.47136 2.59816 3.28079 2.24156 1.08513C2.17024 0.636831 2.32307 0.280228 2.68477 0.122303C3.04646 -0.0356214 3.41326 0.0815484 3.69345 0.453435C6.06741 3.66287 7.57533 7.234 8.21212 11.1719C8.29363 11.6712 8.35477 12.1704 8.42099 12.6646H11.1108C10.9631 10.9783 10.8714 9.31249 10.6523 7.66193C10.3568 5.46626 9.96458 3.28079 9.61307 1.09532C9.53665 0.636831 9.67929 0.290416 10.041 0.122303C10.4129 -0.0458101 10.7797 0.0713597 11.07 0.458529C13.3116 3.48966 14.7838 6.85702 15.4767 10.5606C15.6091 11.2585 15.6957 11.9615 15.8027 12.6697H18.4314C18.4314 12.5831 18.4314 12.5168 18.4314 12.4455C18.304 10.8561 18.2378 9.25645 18.0289 7.67721C17.7385 5.47136 17.3412 3.28079 16.9846 1.08513C16.9133 0.636831 17.0661 0.280228 17.4278 0.122303C17.7895 -0.0356214 18.1563 0.0815484 18.4365 0.453435C20.8104 3.66287 22.3184 7.234 22.9551 11.1719C23.0367 11.6712 23.0978 12.1704 23.1691 12.6849C24.1065 12.6849 25.0285 12.7053 25.9455 12.6798C26.4346 12.6646 26.7963 12.8072 27.0051 13.2657V26.4244C26.8778 26.6842 26.6842 26.8778 26.4244 27.0051L26.4193 27ZM15.8893 14.2744C15.8893 14.3814 15.8893 14.4782 15.8893 14.5698C15.8893 15.7976 15.9046 17.0253 15.8893 18.2531C15.874 19.547 14.8042 20.5761 13.5153 20.571C12.2417 20.571 11.1821 19.5368 11.1617 18.2531C11.1414 17.0355 11.1516 15.8129 11.1414 14.5953C11.1414 14.4832 11.1312 14.3763 11.1261 14.2744H8.52288C8.52288 14.9265 8.53816 15.5582 8.52288 16.1898C8.49231 17.3819 7.52948 18.3702 6.3425 18.4619C5.13514 18.5536 4.03477 17.7181 3.84118 16.5261C3.77495 16.1134 3.79533 15.6855 3.78514 15.2678C3.78005 14.9366 3.78514 14.6055 3.78514 14.2744H1.65062V25.4004H25.4004V14.2744H23.2557C23.2557 14.9112 23.2659 15.5378 23.2557 16.1593C23.2302 17.3666 22.2827 18.3702 21.0804 18.4619C19.868 18.5587 18.7676 17.7182 18.5689 16.5057C18.5078 16.1134 18.5282 15.7008 18.518 15.2983C18.5129 14.957 18.518 14.6208 18.518 14.2693H15.8842L15.8893 14.2744ZM11.8953 4.91098C11.9717 5.48155 12.0482 6.05721 12.1246 6.62777C12.42 8.86928 12.6136 11.1261 12.6799 13.3829C12.7257 14.9621 12.7104 16.5414 12.7461 18.1155C12.7461 18.3346 12.848 18.5842 12.9804 18.7523C13.1893 19.0121 13.5051 19.0631 13.821 18.9306C14.1521 18.788 14.3151 18.5231 14.3151 18.1614C14.3151 17.0763 14.3151 15.9861 14.3151 14.901C14.305 12.6085 13.9484 10.367 13.2606 8.17645C12.904 7.0506 12.471 5.95532 11.8953 4.90589V4.91098ZM4.52382 4.91098C4.53401 4.9874 4.5442 5.06381 4.55439 5.14023C4.77344 7.21362 5.03835 9.28193 5.19628 11.3604C5.31854 12.9295 5.31345 14.5138 5.36948 16.088C5.38477 16.5515 5.73118 16.898 6.16929 16.8878C6.59722 16.8827 6.93345 16.5414 6.94873 16.088C7.00986 13.6478 6.77552 11.2432 6.10816 8.88457C5.72099 7.5091 5.21665 6.17947 4.52892 4.90589L4.52382 4.91098ZM19.3382 4.88551C19.3382 4.88551 19.2872 4.90079 19.2617 4.91098C19.2719 4.99249 19.2821 5.074 19.2923 5.15551C19.491 6.92325 19.7457 8.68589 19.8782 10.4587C20.0157 12.3283 20.0361 14.2082 20.1074 16.0778C20.1227 16.5465 20.4538 16.8929 20.897 16.8929C21.3351 16.8929 21.6765 16.5465 21.6867 16.0829C21.7682 13.011 21.3555 10.0206 20.2653 7.13721C19.98 6.37815 19.6489 5.63947 19.3382 4.8906V4.88551Z" fill="#0C4E4B"/>
<path d="M4.05021 20.841C4.47813 20.841 4.83474 21.1976 4.83983 21.6205C4.83983 22.0586 4.47304 22.4254 4.04002 22.4152C3.61209 22.4101 3.26059 22.0484 3.26568 21.6205C3.26568 21.1925 3.62738 20.8359 4.0553 20.8359L4.05021 20.841Z" fill="#0C4E4B"/>
<path d="M10.3564 20.8409C10.7843 20.8358 11.146 21.1873 11.1562 21.6152C11.1664 22.0533 10.7996 22.4201 10.3666 22.4201C9.93864 22.4201 9.58203 22.0584 9.58203 21.6356C9.58203 21.2077 9.93354 20.8511 10.3615 20.846L10.3564 20.8409Z" fill="#0C4E4B"/>
<path d="M16.6638 22.4202C16.2359 22.41 15.8895 22.0432 15.8946 21.6153C15.9048 21.1771 16.2818 20.8205 16.7199 20.8409C17.1478 20.8613 17.4891 21.2332 17.4738 21.656C17.4585 22.0839 17.0918 22.4304 16.6638 22.4151V22.4202Z" fill="#0C4E4B"/>
<path d="M22.9957 20.8408C23.4236 20.8408 23.7802 21.1923 23.7853 21.6203C23.7853 22.0584 23.4236 22.4252 22.9855 22.4201C22.5576 22.415 22.2061 22.0533 22.2061 21.6253C22.2061 21.1974 22.5678 20.8408 22.9906 20.8408H22.9957Z" fill="#0C4E4B"/>
<path d="M7.99819 23.1996C7.99819 23.6275 7.65178 23.9892 7.22385 23.9943C6.78574 24.0045 6.41895 23.6377 6.41895 23.1996C6.41895 22.7716 6.78064 22.415 7.20857 22.415C7.63649 22.415 7.9931 22.7716 7.99819 23.1945V23.1996Z" fill="#0C4E4B"/>
<path d="M14.3156 23.1945C14.3207 23.6224 13.9743 23.9841 13.5463 23.9943C13.1133 24.0045 12.7363 23.6428 12.7363 23.2047C12.7363 22.7767 13.0929 22.4201 13.5209 22.415C13.9488 22.415 14.3105 22.7665 14.3156 23.1894V23.1945Z" fill="#0C4E4B"/>
<path d="M20.6318 23.1996C20.6369 23.6276 20.2854 23.9893 19.8625 23.9994C19.4295 24.0096 19.0576 23.6428 19.0576 23.2098C19.0576 22.7819 19.4142 22.4253 19.8421 22.4253C20.2701 22.4253 20.6267 22.7768 20.6369 23.2047L20.6318 23.1996Z" fill="#0C4E4B"/>
</g>
<defs>
<clipPath id="clip0_2013_5333">
<rect width="27" height="27" fill="white"/>
</clipPath>
</defs>
</svg>
