<svg width="93" height="67" viewBox="0 0 93 67" fill="none" xmlns="http://www.w3.org/2000/svg">
<path d="M1.07168 50.5742V46.6245H8.5499V62.1075H11.657V65.9783H0.676758V62.1075H3.70489V50.5742H1.07168Z" fill="#FF4433"/>
<path d="M29.144 52.9178V59.7376C29.144 63.9771 25.9053 66.3996 21.9291 66.3996C17.9268 66.3996 14.6616 63.9771 14.6616 59.7376V52.9178C14.6616 48.7047 17.9268 46.2559 21.9291 46.2559C25.9053 46.2559 29.144 48.7311 29.144 52.9178ZM24.4306 59.6587V53.0495C24.4306 51.4696 23.3248 50.6796 21.9028 50.6796C20.4283 50.6796 19.3486 51.4696 19.3486 53.0495V59.6587C19.3486 61.2123 20.4283 61.9758 21.9028 61.9758C23.3248 61.9758 24.4306 61.2123 24.4306 59.6587Z" fill="#FF4433"/>
<path d="M36.8806 60.1063C36.8806 61.3439 37.7495 62.0022 39.0398 62.0022C40.3826 62.0022 41.1726 60.9753 41.199 59.685C41.12 56.7359 38.513 56.8412 36.2749 57.0518V56.4199L39.1451 50.7322H33.1941V46.6245H45.5434V47.3355L42.0152 53.8657C45.0699 54.6557 45.9651 57.1308 45.9651 59.6587C45.9651 62.9502 43.6215 66.3469 39.1187 66.3469C35.3533 66.3469 32.5358 63.9507 32.4568 60.1063H36.8806Z" fill="#FF4433"/>
<path d="M49.1033 63.9769C49.1033 62.4234 50.315 61.4228 51.8425 61.4228C53.3958 61.4228 54.5808 62.4234 54.5808 63.9769C54.5808 65.5305 53.3958 66.5048 51.8425 66.5048C50.3409 66.4784 49.1033 65.5042 49.1033 63.9769Z" fill="#FF4433"/>
<path d="M92.6532 47.3618L84.8065 61.8969H92.7317V65.9783H77.4332V65.2674L85.4378 50.7322H78.118V46.6245H92.6532V47.3618Z" fill="#FF4433"/>
<path d="M68.8743 56.0512L74.1146 46.5718H69.3486L65.057 54.4186H62.7921V46.6244H57.9468V65.9782H62.7921V58.2894C63.4769 58.2894 64.4248 58.2894 65.0302 58.2894L69.428 65.9782H74.7201V65.2409C72.9296 62.4761 70.6915 58.895 68.8743 56.0512Z" fill="#FF4433"/>
<path d="M46.7043 35.3259C37.0073 35.3259 29.118 27.4392 29.118 17.7485C29.118 8.05779 37.0073 0.173737 46.7043 0.173737C56.404 0.173737 64.2906 8.05779 64.2906 17.7485C64.2933 27.4392 56.404 35.3259 46.7043 35.3259Z" fill="#F7FEFD"/>
<path d="M46.7049 1.04422C37.487 1.04422 29.9873 8.53898 29.9873 17.7508C29.9873 26.9627 37.487 34.4575 46.7049 34.4575C55.9227 34.4575 63.4224 26.9627 63.4224 17.7508C63.4224 8.53596 55.9227 1.04422 46.7049 1.04422Z" fill="#FF4433"/>
<path d="M49.7014 14.7583V8.02606H43.7147V14.7583H36.9781V20.741H43.7147V27.4706H49.7014V20.741H56.4381V14.7583H49.7014Z" fill="#F7FEFD"/>
</svg>
