<svg width="25" height="25" viewBox="0 0 25 25" fill="none" xmlns="http://www.w3.org/2000/svg">
<path d="M25 24.1911C24.9264 24.1911 24.7794 24.1911 24.7058 24.1911C16.6176 24.1911 8.45584 24.1911 0.367604 24.1911C0.294075 24.1911 0.147016 24.1911 0.0734863 24.1911C0.0734863 20.147 0.0734863 16.1029 0.0734863 12.0588C2.49996 12.0588 4.99996 12.0588 7.49996 12.0588C7.42643 11.9852 7.42643 11.9117 7.3529 11.8382C6.39702 10.3676 5.95584 8.82347 5.95584 7.1323C5.95584 5.73524 5.95584 4.33818 5.95584 2.94112C6.32349 2.79406 6.76466 2.647 7.13231 2.57347C8.82349 1.98524 10.5147 1.47053 12.2794 0.882295C12.4264 0.808766 12.647 0.808766 12.7941 0.882295C14.8529 1.54406 16.8382 2.20582 18.897 2.86759C19.0441 2.94112 19.1176 3.01465 19.1176 3.16171C19.1176 4.41171 19.1176 5.66171 19.1176 6.91171C19.1176 8.67641 18.6764 10.3676 17.647 11.8382C17.647 11.9117 17.5735 11.9117 17.5735 11.9852C17.647 11.9852 17.7205 11.9852 17.7941 11.9852C20.147 11.9852 22.5 11.9852 24.8529 11.9852C24.9264 11.9852 25 11.9852 25 11.9852C25 16.1029 25 20.147 25 24.1911ZM23.5294 13.5294C23.4558 13.5294 23.3823 13.5294 23.3088 13.5294C21.25 13.5294 19.1911 13.5294 17.1323 13.5294C16.6176 13.5294 16.1764 13.6764 15.7353 13.9705C14.7794 14.7058 13.6764 15.2941 12.647 15.9558C12.5735 15.9558 12.5 15.9558 12.4264 15.9558C12.2058 15.8088 11.9853 15.6617 11.7647 15.5146C10.8088 14.9264 9.92643 14.2646 8.97054 13.6764C8.82349 13.6029 8.67643 13.5294 8.52937 13.5294C6.24996 13.5294 4.04407 13.5294 1.76466 13.5294C1.69113 13.5294 1.6176 13.5294 1.54407 13.5294C1.54407 14.9264 1.54407 16.2499 1.54407 17.647C3.23525 17.1323 4.70584 17.3529 6.02937 18.4558C7.3529 19.5588 7.8676 21.0294 7.64702 22.7205C12.9411 22.7205 18.2353 22.7205 23.5294 22.7205C23.5294 19.6323 23.5294 16.6176 23.5294 13.5294ZM7.42643 5.8823C7.42643 6.32347 7.42643 6.83818 7.42643 7.27935C7.49996 9.33818 8.23525 11.1029 9.77937 12.4999C10.5882 13.1617 11.5441 13.7499 12.4264 14.3382C12.5 14.3382 12.5735 14.3382 12.647 14.3382C13.1617 13.9705 13.75 13.6764 14.2647 13.3088C16.3235 11.9852 17.4264 10.0735 17.5735 7.647C17.647 6.54406 17.5735 5.44112 17.647 4.33818C17.647 4.19112 17.5735 4.11759 17.4264 4.11759C15.8088 3.60288 14.2647 3.08818 12.647 2.57347C12.5735 2.57347 12.4264 2.49994 12.3529 2.57347C10.7352 3.08818 9.19113 3.60288 7.57349 4.11759C7.42643 4.19112 7.3529 4.26465 7.42643 4.33818C7.42643 4.77935 7.42643 5.29406 7.42643 5.8823ZM1.54407 22.7205C3.08819 22.7205 4.55878 22.7205 6.02937 22.7941C6.17643 22.7941 6.17643 22.7205 6.17643 22.5735C6.32349 21.8382 6.17643 21.1764 5.80878 20.5882C4.99996 19.1176 3.16172 18.5294 1.69113 19.2646C1.6176 19.3382 1.47055 19.4117 1.47055 19.4852C1.47055 20.5146 1.54407 21.5441 1.54407 22.7205Z" fill="white"/>
<path d="M19.5588 16.8383C20.8088 16.8383 21.7647 17.7941 21.7647 19.0441C21.7647 20.2206 20.8088 21.1765 19.5588 21.1765C18.3823 21.1765 17.3529 20.2206 17.3529 19.0441C17.4264 17.7941 18.3088 16.8383 19.5588 16.8383ZM19.6323 19.7794C20.0735 19.7794 20.3676 19.4853 20.3676 19.0441C20.3676 18.6765 20 18.3088 19.6323 18.3088C19.2647 18.3088 18.897 18.6765 18.897 19.0441C18.897 19.4853 19.1911 19.7794 19.6323 19.7794Z" fill="white"/>
<path d="M6.76465 15.1471C7.20582 15.1471 7.72053 15.1471 8.16171 15.1471C8.16171 15.5883 8.16171 16.103 8.16171 16.6177C7.72053 16.6177 7.20582 16.6177 6.76465 16.6177C6.76465 16.103 6.76465 15.6618 6.76465 15.1471Z" fill="white"/>
<path d="M15.8824 19.1912C15.3677 19.1912 14.9265 19.1912 14.4854 19.1912C14.4854 18.6765 14.4854 18.2353 14.4854 17.7206C14.9265 17.7206 15.4412 17.7206 15.8824 17.7206C15.8824 18.2353 15.8824 18.6765 15.8824 19.1912Z" fill="white"/>
<path d="M10.2206 18.6765C10.7353 18.6765 11.1765 18.6765 11.6912 18.6765C11.6912 19.1912 11.6912 19.6324 11.6912 20.0736C11.1765 20.0736 10.7353 20.0736 10.2206 20.0736C10.2206 19.6324 10.2206 19.1177 10.2206 18.6765Z" fill="white"/>
<path d="M11.6912 10.5147C10.9559 9.77943 10.2206 9.04414 9.48535 8.30885C9.77947 8.01473 10.1471 7.64708 10.5148 7.27943C10.8824 7.64708 11.3236 8.08826 11.6912 8.4559C12.6471 7.50002 13.603 6.54414 14.5589 5.58826C14.9265 5.9559 15.2206 6.25002 15.5148 6.54414C14.2648 7.9412 12.9412 9.26473 11.6912 10.5147Z" fill="white"/>
</svg>
