<svg width="30" height="30" viewBox="0 0 30 30" fill="none" xmlns="http://www.w3.org/2000/svg">
<g clip-path="url(#clip0_1_964)">
<path d="M24.9698 30.0001C24.2821 29.5478 23.5898 29.1047 22.9067 28.6432C22.3113 28.2416 22.3113 27.5309 22.8975 27.1201C23.1282 26.9586 23.3636 26.8062 23.6221 26.6309C23.3682 26.4601 23.1375 26.3078 22.9067 26.1509C22.4544 25.837 22.3344 25.3247 22.6067 24.9093C22.8836 24.4893 23.4098 24.3924 23.8667 24.6878C24.4621 25.0755 25.0528 25.4678 25.639 25.8647C26.2482 26.2801 26.239 26.9862 25.6298 27.4062C25.4082 27.5586 25.1821 27.7062 24.9236 27.8816C25.1636 28.0432 25.3713 28.177 25.579 28.3201C26.2944 28.8001 26.2436 29.5755 25.4682 29.9632C25.4544 29.9724 25.4451 29.9909 25.4313 30.0047H24.9651L24.9698 30.0001Z" fill="#0C4E4B"/>
<path d="M0.000441707 28.597C0.58198 27.8863 1.14506 27.1524 1.7589 26.4693C2.13275 26.054 2.81121 26.1924 3.09736 26.6955C3.24967 26.9632 3.38352 27.2447 3.53583 27.5447C3.73429 27.314 3.91429 27.097 4.0989 26.8847C4.44967 26.4832 4.99429 26.4232 5.37275 26.7463C5.74198 27.0647 5.78352 27.6001 5.45121 28.0017C4.98506 28.5647 4.51429 29.1186 4.02967 29.6632C3.90506 29.8017 3.72044 29.8893 3.56352 30.0001H3.15275C2.52506 29.8063 2.45121 29.1647 2.12813 28.7078C1.92044 28.9478 1.73121 29.1832 1.52352 29.4047C1.08044 29.8755 0.388134 29.7786 0.0789032 29.2109C0.0512109 29.1601 0.0189032 29.1186 -0.00878906 29.0724C-0.00878906 28.9155 -0.00878906 28.7586 -0.00878906 28.6063L0.000441707 28.597Z" fill="#0C4E4B"/>
<path d="M22.819 16.2553C22.819 17.5615 22.9252 18.8769 22.8006 20.1692C22.436 23.8246 20.5483 26.5061 17.2252 28.0523C11.5898 30.6738 5.04058 27.3276 3.77135 21.2307C3.63288 20.5707 3.58673 19.8784 3.5775 19.2C3.55442 17.2523 3.56365 15.3046 3.56827 13.3523C3.5775 10.38 4.69904 7.90611 6.91904 5.92611C7.02519 5.82919 7.09442 5.6538 7.11288 5.50149C7.50519 2.90303 8.93135 1.13995 11.4237 0.336878C15.0513 -0.83543 18.8821 1.6938 19.3067 5.47842C19.3298 5.69534 19.4129 5.84765 19.579 5.99534C21.6744 7.8738 22.7775 10.223 22.8606 13.0384C22.8929 14.1092 22.8652 15.18 22.8652 16.2553C22.8513 16.2553 22.8375 16.2553 22.8237 16.2553H22.819ZM5.33596 14.1415C5.33135 14.2384 5.32212 14.3123 5.32212 14.3907C5.32212 16.0384 5.31288 17.6861 5.32673 19.3292C5.32673 19.7538 5.37288 20.1876 5.4375 20.6076C6.11596 24.9323 10.4175 27.9138 14.7144 27.0461C18.4667 26.2892 21.0929 23.0953 21.1113 19.2646C21.116 17.6492 21.1113 16.0292 21.1113 14.4138C21.1113 14.3261 21.1113 14.243 21.1113 14.1415C17.5667 14.0953 14.9406 12.5261 13.2144 9.44765C11.479 12.5215 8.87596 14.0907 5.33596 14.1369V14.1415ZM21.0283 12.3415C20.7975 8.99995 17.8437 5.75534 14.1237 5.42303C13.8698 9.11534 17.1467 12.5676 21.0283 12.3415ZM12.3098 5.42765C8.66827 5.73226 5.65442 8.92611 5.40519 12.3369C9.18058 12.5769 12.5498 9.21226 12.3098 5.42765ZM17.1929 4.43995C16.7452 3.15226 15.2037 1.73995 13.039 1.82303C11.0498 1.89688 9.61442 3.28149 9.25442 4.43534C11.8944 3.32303 14.5298 3.31842 17.1929 4.43995Z" fill="#0C4E4B"/>
<path d="M26.1744 22.6615C25.8421 22.7261 25.5652 22.7815 25.2883 22.8323C24.7852 22.9246 24.3468 22.6292 24.2406 22.14C24.1437 21.683 24.4483 21.2215 24.9375 21.12C25.6714 20.963 26.4052 20.8153 27.1391 20.6769C27.7575 20.5615 28.2745 21.0876 28.1637 21.7107C28.1129 21.9969 28.0529 22.2784 27.9883 22.6061C28.3114 22.5461 28.5929 22.4907 28.8745 22.4446C29.3868 22.3569 29.8298 22.6476 29.9268 23.1323C30.0237 23.603 29.7145 24.0507 29.2021 24.1569C28.4775 24.3092 27.7575 24.4615 27.0283 24.6C26.4191 24.7153 25.9021 24.203 25.9991 23.5938C26.0452 23.2984 26.1098 23.0076 26.1744 22.6615Z" fill="#0C4E4B"/>
<path d="M15.7892 24.323C15.7938 24.8399 15.4384 25.2414 14.9492 25.2599C14.46 25.283 14.0769 24.9184 14.0353 24.3922C13.9938 23.8661 13.6477 23.5153 13.1723 23.5061C12.683 23.4968 12.323 23.8522 12.2815 24.3922C12.2353 24.9184 11.8523 25.2784 11.3677 25.2553C10.8784 25.2322 10.5277 24.8399 10.5323 24.3184C10.5461 22.9245 11.7323 21.7568 13.1492 21.7522C14.58 21.7476 15.78 22.9107 15.7938 24.3184L15.7892 24.323Z" fill="#0C4E4B"/>
<path d="M9.2494 21.9783C8.26632 21.9783 7.29247 21.1337 6.66016 20.2568C6.3417 19.8137 5.64478 18.7152 6.06016 18.0968C6.20324 17.8844 6.4617 17.7552 6.80324 17.7229C7.27401 17.6814 7.93401 17.8337 8.34478 18.2675C8.55247 18.4844 8.64478 18.7198 8.7094 18.8906C8.71401 18.9044 8.72324 18.9183 8.72786 18.9368C8.77863 18.8952 8.86632 18.8214 8.94016 18.7244C9.15709 18.4383 9.12478 18.0552 9.09709 17.7137C9.06939 17.386 9.02786 16.9383 9.42478 16.7352C9.54478 16.6752 9.75247 16.6244 10.0294 16.7306C10.4494 16.8921 11.0079 17.4229 11.2755 18.1198C11.5617 18.8768 11.4786 19.8506 11.0632 20.6675C10.7309 21.3229 10.2417 21.766 9.68786 21.9183C9.54016 21.9598 9.39247 21.9783 9.2494 21.9783ZM6.86324 18.6414C6.92786 18.9829 7.38016 19.8598 8.12786 20.5152C8.41401 20.7644 8.96786 21.1614 9.44324 21.0275C9.73863 20.9444 10.0294 20.6629 10.2417 20.2475C10.5371 19.6614 10.6063 18.9552 10.4125 18.4429C10.3248 18.2075 10.1771 18.0044 10.0386 17.8521C10.0663 18.2675 10.0479 18.7983 9.67863 19.2783C9.40632 19.6337 8.91709 19.9983 8.42324 19.8552C8.05401 19.7491 7.9294 19.4306 7.85093 19.2183C7.80016 19.0937 7.75863 18.9829 7.67555 18.8998C7.46786 18.6829 7.05709 18.6183 6.85863 18.6414H6.86324Z" fill="#0C4E4B"/>
<path d="M9.24901 22.2092C7.88747 22.2092 6.77977 20.8153 6.47516 20.3907C6.04593 19.7907 5.39054 18.6784 5.87054 17.9676C6.05516 17.6953 6.36901 17.5292 6.78439 17.4968C7.31054 17.4507 8.04901 17.6261 8.51516 18.1107C8.64901 18.2492 8.7367 18.3922 8.80593 18.5215C8.92131 18.3092 8.89824 18.0184 8.87516 17.7368C8.84285 17.3861 8.79208 16.8045 9.32747 16.5322C9.48901 16.4492 9.76131 16.3799 10.1167 16.5184C10.569 16.6938 11.1921 17.243 11.4967 18.0415C11.8059 18.8538 11.7182 19.9061 11.2752 20.7784C10.9105 21.4938 10.3705 21.9784 9.7567 22.1492C9.59516 22.1953 9.42439 22.2184 9.25362 22.2184L9.24901 22.2092ZM6.95516 17.9492C6.90901 17.9492 6.86747 17.9492 6.82131 17.9538C6.63208 17.9722 6.38285 18.0322 6.24901 18.2261C5.9767 18.6322 6.37824 19.4722 6.84439 20.123C7.49054 21.0184 8.63054 21.9692 9.62285 21.6968C10.1121 21.563 10.5505 21.1568 10.8552 20.5615C11.2429 19.7999 11.3213 18.8953 11.0582 18.1984C10.8182 17.5707 10.3059 17.0815 9.94593 16.943C9.74747 16.8645 9.60901 16.8968 9.53054 16.943C9.29516 17.063 9.29977 17.3307 9.32747 17.6953C9.35977 18.0599 9.3967 18.5076 9.12439 18.8676C9.0367 18.9784 8.94439 19.0615 8.87054 19.1215L8.62593 19.3153L8.49208 18.9784C8.42747 18.8168 8.34901 18.6184 8.17362 18.4338C7.85054 18.0968 7.35208 17.9538 6.95054 17.9538L6.95516 17.9492ZM9.24901 21.2861C8.75054 21.2861 8.25208 20.9261 7.97978 20.6907C7.19516 20.0076 6.71516 19.0938 6.6367 18.6876L6.59054 18.443L6.83977 18.4153C7.10285 18.3876 7.58747 18.4707 7.84593 18.7476C7.96131 18.8676 8.01208 19.0061 8.06747 19.1445C8.15977 19.3845 8.25208 19.5692 8.49208 19.643C8.84285 19.7445 9.25362 19.4676 9.49824 19.1492C9.8167 18.7292 9.83054 18.2492 9.80747 17.8753L9.76593 17.2338L10.2044 17.6999C10.3336 17.8384 10.5136 18.0692 10.6244 18.3645C10.8413 18.9368 10.7675 19.7168 10.4444 20.3538C10.2044 20.8245 9.86285 21.1522 9.50285 21.2538C9.41977 21.2768 9.33208 21.2861 9.24439 21.2861H9.24901ZM7.19977 18.9045C7.37516 19.2876 7.74439 19.8738 8.28439 20.3399C8.48747 20.5153 8.99977 20.9122 9.38747 20.8061C9.61824 20.7415 9.86285 20.4968 10.0429 20.1415C10.2921 19.6476 10.3659 19.0615 10.2321 18.6138C10.1767 18.8768 10.0705 19.1538 9.86747 19.4168C9.55362 19.8322 8.97208 20.2522 8.36747 20.0768C7.88747 19.9384 7.73054 19.5276 7.64285 19.3061C7.60131 19.1999 7.56901 19.1122 7.51824 19.0615C7.44901 18.9876 7.32439 18.9368 7.20439 18.9045H7.19977Z" fill="#0C4E4B"/>
<path d="M15.808 17.5754C15.4711 17.5754 15.1203 17.4877 14.8249 17.3077C14.2941 16.98 13.8326 16.2646 14.0172 15.5862C14.1003 15.2815 14.2849 15.1154 14.4049 15.0092C14.4326 14.9862 14.4695 14.9492 14.4787 14.9354C14.4557 14.9354 14.3495 14.8246 14.2895 14.7692C14.128 14.6031 13.8557 14.3308 13.9711 13.9477C14.1649 13.32 15.1341 13.3615 15.7803 13.3892C16.3711 13.4169 16.8003 13.4354 17.2111 13.7723C17.6403 14.1231 17.9726 14.7508 17.7695 15.2723C17.6634 15.5446 17.4695 15.6508 17.3541 15.7154C17.2895 15.7523 17.2711 15.7615 17.2434 15.7985C17.1926 15.8631 17.1926 15.9277 17.2157 16.1354C17.2387 16.3615 17.2711 16.6708 17.0818 16.9754C16.8372 17.3631 16.3341 17.5754 15.8034 17.5754H15.808ZM14.9126 15.8308C14.8664 16.0015 15.0326 16.3477 15.3141 16.5231C15.7111 16.7677 16.2187 16.62 16.3064 16.4862C16.3295 16.4492 16.3157 16.3431 16.3064 16.2369C16.2787 15.9877 16.2418 15.6139 16.5141 15.2492C16.6572 15.0554 16.8187 14.9677 16.9111 14.9169C16.9111 14.9169 16.9111 14.9169 16.9157 14.9169C16.9018 14.8292 16.8049 14.6308 16.6387 14.4969C16.4726 14.3631 16.288 14.3446 15.748 14.3215C15.4757 14.3077 15.2726 14.3077 15.1295 14.3169C15.2818 14.4969 15.4249 14.7462 15.3926 15.0646C15.3603 15.4015 15.1526 15.5908 15.0326 15.7015C14.9495 15.7754 14.9264 15.7985 14.9172 15.84L14.9126 15.8308Z" fill="#0C4E4B"/>
<path d="M15.8077 17.8062C15.4061 17.8062 15.0277 17.7001 14.7046 17.5016C14.1046 17.1324 13.5784 16.3108 13.7954 15.5216C13.8738 15.2447 14.0169 15.0601 14.1415 14.9401C14.1415 14.9401 14.1369 14.9355 14.1323 14.9308C13.9569 14.7555 13.5969 14.3908 13.7585 13.8785C14.0077 13.0755 15.1292 13.1262 15.7984 13.1585C16.4077 13.1862 16.8923 13.2093 17.3631 13.5924C17.8615 13.9939 18.2354 14.7278 17.9908 15.3555C17.8569 15.7016 17.5985 15.8493 17.4738 15.9185C17.4508 15.9324 17.4369 15.937 17.4277 15.9462C17.4369 15.9555 17.4461 16.0708 17.4508 16.1124C17.4785 16.357 17.5154 16.7262 17.28 17.1001C17.0031 17.5385 16.44 17.8108 15.8077 17.8108V17.8062ZM14.5661 14.7093L14.9169 14.737L14.6723 15.0739C14.6538 15.1016 14.6261 15.1293 14.5661 15.1801C14.4554 15.2816 14.3123 15.4108 14.2477 15.6462C14.0954 16.1955 14.4877 16.8231 14.9538 17.1093C15.1985 17.2616 15.5031 17.3447 15.8123 17.3447C16.2877 17.3447 16.7031 17.1555 16.8923 16.8508C17.0446 16.6108 17.0169 16.3708 16.9938 16.1585C16.9754 15.9601 16.9569 15.8078 17.0677 15.6601C17.1231 15.5816 17.1831 15.5539 17.2523 15.5124C17.3585 15.4524 17.4877 15.3785 17.5615 15.1847C17.7231 14.7693 17.4323 14.2339 17.0723 13.9478C16.7169 13.6616 16.3431 13.6431 15.7754 13.6201C15.24 13.597 14.34 13.5555 14.1969 14.017C14.1277 14.2478 14.2708 14.4185 14.4554 14.6078C14.4831 14.6401 14.5292 14.6816 14.5615 14.7139L14.5661 14.7093ZM15.7984 16.8831C15.5954 16.8831 15.3831 16.837 15.1938 16.717C14.8477 16.5001 14.6123 16.057 14.6908 15.7662C14.7231 15.6555 14.7877 15.5955 14.8754 15.517C14.9861 15.4155 15.1384 15.277 15.1615 15.0278C15.18 14.8293 15.1108 14.6447 14.9492 14.4462L14.6492 14.0862L15.1154 14.0678C15.2677 14.0631 15.4708 14.0631 15.7523 14.0724C16.3015 14.0955 16.5508 14.1139 16.7769 14.2985C16.9846 14.4693 17.1185 14.7185 17.1369 14.8662L17.16 15.0278L17.0123 15.1016C16.9338 15.1478 16.8046 15.217 16.6892 15.3693C16.4677 15.6601 16.5 15.9555 16.5277 16.1955C16.5461 16.3616 16.56 16.4908 16.4908 16.5924C16.3938 16.7493 16.1077 16.8647 15.7892 16.8647L15.7984 16.8831ZM15.1338 15.9093C15.1385 15.997 15.2446 16.2093 15.4338 16.3293C15.6692 16.477 15.9692 16.4262 16.0846 16.3708C16.0846 16.3339 16.0754 16.2924 16.0754 16.2601C16.0477 15.9924 15.9969 15.5447 16.3292 15.1062C16.4308 14.9724 16.5369 14.8801 16.6246 14.8155C16.5923 14.7647 16.5461 14.7093 16.4908 14.6678C16.3892 14.5847 16.2369 14.5662 15.7338 14.5431C15.6646 14.5431 15.6 14.5385 15.5354 14.5385C15.6092 14.7139 15.6323 14.8893 15.6185 15.0785C15.5769 15.5078 15.3185 15.7385 15.18 15.8678C15.1569 15.8862 15.1431 15.9001 15.1292 15.9139L15.1338 15.9093Z" fill="#0C4E4B"/>
<path d="M19.0564 23.82C18.7748 23.82 18.4933 23.7461 18.2671 23.5523C17.7964 23.1554 17.8564 22.5092 17.8887 22.1215C17.9441 21.4984 18.2071 21.0415 18.3548 20.82C18.3641 20.8061 19.3887 19.3477 20.2702 19.7584C20.8056 20.0077 20.8887 20.7831 20.8933 21.2261C20.8979 22.0892 20.6071 23.2477 19.7579 23.6584C19.5594 23.7554 19.3056 23.82 19.0517 23.82H19.0564ZM19.8825 20.6354C19.7071 20.7138 19.361 21.0046 19.121 21.3508C19.0241 21.4938 18.8487 21.7984 18.8117 22.2092C18.7933 22.3892 18.761 22.7631 18.8671 22.8508C18.9502 22.9246 19.1902 22.9108 19.361 22.8323C19.6102 22.7123 19.8225 22.3384 19.9194 21.8354C20.0302 21.2861 19.961 20.8154 19.8825 20.6354Z" fill="#0C4E4B"/>
<path d="M19.0566 24.0508C18.692 24.0508 18.3643 23.9401 18.1197 23.7277C17.5566 23.2524 17.6258 22.5047 17.6627 22.1031C17.7227 21.4293 18.0089 20.9308 18.1704 20.6908C18.2166 20.6262 19.3104 19.057 20.372 19.5508C21.0227 19.8508 21.1243 20.7277 21.1289 21.2216C21.1381 22.1539 20.8104 23.4047 19.8643 23.8662C19.6197 23.9862 19.3335 24.0508 19.0566 24.0508ZM19.9427 19.9201C19.292 19.9201 18.5581 20.9447 18.5535 20.9585C18.415 21.157 18.175 21.577 18.1243 22.1493C18.092 22.5139 18.0412 23.0585 18.4197 23.3816C18.6274 23.557 18.8812 23.5939 19.0566 23.5939C19.2643 23.5939 19.4812 23.5431 19.6612 23.4554C20.4135 23.0908 20.672 22.0293 20.6674 21.2308C20.6674 20.9216 20.612 20.1739 20.1781 19.9708C20.0997 19.9339 20.0212 19.9201 19.9427 19.9201ZM19.0566 23.1324C18.9227 23.1324 18.8027 23.1001 18.715 23.0308C18.5489 22.8924 18.5397 22.6154 18.5812 22.1908C18.6227 21.7293 18.8166 21.3831 18.9274 21.2216C19.195 20.8385 19.5689 20.5247 19.7858 20.4277L19.9981 20.3308L20.0904 20.5431C20.1966 20.7831 20.2566 21.3047 20.1412 21.8816C20.0258 22.4631 19.7766 22.8831 19.4581 23.0401C19.3427 23.0954 19.195 23.1324 19.0566 23.1324ZM19.0289 22.6708C19.0843 22.6708 19.1766 22.6616 19.255 22.6247C19.3935 22.5601 19.5874 22.3016 19.6889 21.7939C19.7489 21.4847 19.7489 21.217 19.7304 21.0185C19.592 21.1339 19.435 21.3001 19.3058 21.4847C19.2181 21.6093 19.0704 21.8724 19.0381 22.2324C19.015 22.4862 19.0197 22.6108 19.0289 22.6708Z" fill="#0C4E4B"/>
</g>
<defs>
<clipPath id="clip0_1_964">
<rect width="30" height="30" fill="white"/>
</clipPath>
</defs>
</svg>
