<svg width="30" height="30" viewBox="0 0 30 30" fill="none" xmlns="http://www.w3.org/2000/svg">
<g clip-path="url(#clip0_2013_5787)">
<path d="M0 11.696C0.0432082 11.5367 0.0810154 11.3774 0.132325 11.2208C0.559006 9.92721 1.89846 9.18456 3.24872 9.48702C3.32433 9.50323 3.39725 9.52213 3.50797 9.54643C3.50797 9.41951 3.50797 9.31689 3.50797 9.21157C3.50797 7.42653 3.49986 5.64419 3.51067 3.85915C3.51877 2.32256 4.77181 1.14244 6.2976 1.23425C6.62976 1.25316 6.95922 1.36928 7.29409 1.43949C8.36889 -0.429262 10.9479 -0.402257 12.0119 1.4638C13.4864 0.915593 14.653 1.32067 15.5225 2.64392C16.0329 2.43598 16.5568 2.33066 17.1132 2.43328C18.3716 2.66553 19.2817 3.71062 19.2952 4.99337C19.3087 6.35713 19.2979 7.72359 19.2979 9.08735C19.2979 12.1281 19.2898 15.1689 19.3006 18.2097C19.306 19.3466 19.0035 20.3782 18.3608 21.3153C17.9314 21.9418 17.5101 22.5737 17.0996 23.2137C17.0159 23.3434 16.9646 23.5162 16.9619 23.6701C16.9511 25.3849 16.9403 27.1025 16.9619 28.8173C16.97 29.3601 16.8161 29.7625 16.3111 29.9947H4.15339C3.64839 29.7625 3.49446 29.3628 3.50257 28.82C3.52687 27.1376 3.51607 25.4525 3.50257 23.77C3.50257 23.6269 3.42695 23.4487 3.32703 23.3461C2.72752 22.7222 2.1091 22.1146 1.49608 21.5043C0.864164 20.8724 0.413178 20.1324 0.180934 19.2683C0.108021 19.0117 0.0594113 18.7444 0 18.4797C0 16.2194 0 13.9564 0 11.696ZM11.6986 28.2367C11.6986 27.9612 11.6986 27.7209 11.6986 27.4778C11.6986 26.935 11.5744 26.7757 11.0694 26.6056C10.1539 26.295 9.54631 25.6739 9.41399 24.7098C9.32487 24.059 9.39238 23.3866 9.34648 22.7276C9.33297 22.5143 9.22765 22.2794 9.09533 22.1065C8.88199 21.8311 8.60653 21.6042 8.36079 21.3558C6.20308 19.1873 6.69727 15.8521 9.40049 14.4128C10.1674 14.005 10.5347 13.3866 10.532 12.5224C10.5266 10.173 10.532 7.82351 10.532 5.47676C10.532 4.56939 10.532 3.66472 10.532 2.75734C10.532 2.35767 10.3646 2.05521 10.0027 1.89048C9.40319 1.61773 8.77937 2.06601 8.77937 2.76815C8.77667 4.99067 8.77937 7.21319 8.77937 9.43571C8.77937 10.4781 8.77937 11.5205 8.77937 12.5656C8.77937 12.9653 8.61464 13.2677 8.25007 13.4325C7.65055 13.7052 7.02403 13.2596 7.02403 12.5575C7.02133 9.8759 7.02403 7.19699 7.02403 4.51538C7.02403 4.29123 7.02944 4.06709 7.02403 3.84295C7.00513 3.38386 6.66217 3.02469 6.21928 2.98689C5.7926 2.94908 5.39292 3.24074 5.29571 3.67552C5.2687 3.79704 5.2714 3.92667 5.2714 4.05359C5.2714 7.89372 5.2714 11.7338 5.2714 15.574C5.2714 15.9548 5.2768 16.3355 5.2714 16.7136C5.2633 17.1025 5.07966 17.386 4.7232 17.5373C4.13719 17.783 3.52417 17.3509 3.52147 16.6866C3.51607 15.1662 3.51877 13.6458 3.52147 12.1254C3.52147 11.7257 3.36214 11.4233 2.99757 11.2532C2.40076 10.975 1.76884 11.4206 1.76614 12.12C1.76343 14.0401 1.76614 15.9602 1.76614 17.8802C1.76614 18.8146 2.0875 19.6112 2.74912 20.2702C3.46746 20.9858 4.17769 21.7068 4.90143 22.4171C5.16068 22.6709 5.2822 22.9599 5.2795 23.3272C5.2687 24.8583 5.2741 26.3868 5.2741 27.918V28.2394H11.7094L11.6986 28.2367ZM14.0373 10.7698C13.0867 10.8049 12.3116 11.6258 12.2846 12.6088C12.2441 14.1508 11.542 15.2688 10.1728 15.9845C8.60653 16.8 8.29598 18.7606 9.52201 20.0298C9.80556 20.3242 10.1026 20.6077 10.3889 20.8994C10.8777 21.3963 11.118 21.9931 11.1153 22.6898C11.1126 23.1678 11.1153 23.6458 11.1153 24.1211C11.1153 24.6396 11.2449 24.8151 11.7337 24.9691C12.7707 25.2958 13.4405 26.1951 13.454 27.2888C13.4567 27.5967 13.454 27.9072 13.454 28.2259H15.2093V27.891C15.2093 26.3706 15.1958 24.8502 15.2201 23.3326C15.2255 23.0598 15.3227 22.7546 15.4685 22.5224C15.9465 21.7528 16.4623 21.0101 16.9673 20.2567C17.3454 19.6923 17.5506 19.0738 17.5506 18.3906C17.5506 15.2337 17.5506 12.0768 17.5506 8.91991C17.5506 8.8497 17.5371 8.77949 17.5263 8.69307C16.9997 9.11435 16.5028 9.52213 15.9924 9.911C15.8547 10.0163 15.7899 10.1135 15.7926 10.2891C15.8034 11.029 15.798 11.769 15.7953 12.5116C15.7953 13.1057 15.4415 13.5054 14.923 13.5081C14.4018 13.5081 14.0427 13.1111 14.0427 12.5197C14.0427 11.9364 14.0427 11.3531 14.0427 10.7698H14.0373ZM14.0373 8.89831C14.0373 7.20509 14.0454 5.50106 14.0319 3.79974C14.0292 3.44057 13.8131 3.18132 13.4756 3.0463C12.8841 2.81135 12.29 3.24614 12.2873 3.91856C12.2819 5.7009 12.2873 7.48324 12.2873 9.26558C12.2873 9.33849 12.2981 9.40871 12.3008 9.44651C12.8814 9.26558 13.4432 9.08735 14.04 8.89831H14.0373ZM15.7953 7.83701C16.3867 7.34282 16.9322 6.89453 17.4669 6.43544C17.5209 6.38953 17.5452 6.28421 17.5452 6.2059C17.5533 5.81702 17.556 5.42815 17.5452 5.03928C17.5344 4.53968 17.1564 4.16161 16.6811 4.15621C16.1923 4.15081 15.8061 4.53428 15.7953 5.04738C15.7872 5.42545 15.7953 5.80622 15.7953 6.18429C15.7953 6.7136 15.7953 7.2456 15.7953 7.83971V7.83701Z" fill="#0C4E4B"/>
<path d="M23.2599 10.4347C23.1033 10.0863 22.971 9.80007 22.8414 9.51112C22.6091 8.98722 22.8144 8.42821 23.3248 8.18787C23.8 7.96372 24.3807 8.17436 24.621 8.67936C24.9829 9.4382 25.3339 10.2024 25.6796 10.9694C25.9686 11.6148 25.5284 12.3197 24.8181 12.3602C24.4941 12.3791 24.17 12.3872 23.7919 12.4034C23.9405 12.7382 24.0755 13.0326 24.2024 13.3296C24.432 13.867 24.2294 14.4261 23.7271 14.6583C23.2356 14.8878 22.6712 14.6664 22.4174 14.1344C22.0609 13.3864 21.7072 12.6356 21.3669 11.8768C21.0806 11.2421 21.5046 10.5427 22.1986 10.4914C22.5335 10.4671 22.8684 10.4563 23.2626 10.4374L23.2599 10.4347Z" fill="#0C4E4B"/>
<path d="M23.4165 22.0065C23.6947 21.7472 23.9242 21.5285 24.1565 21.3151C24.5804 20.9263 25.1745 20.9425 25.5661 21.3502C25.9307 21.7283 25.9172 22.344 25.5148 22.7356C24.9126 23.3216 24.3023 23.8995 23.6866 24.472C23.1681 24.9527 22.3606 24.761 22.0933 24.0994C21.9717 23.7969 21.8583 23.4918 21.7233 23.1407C21.4532 23.3891 21.2183 23.6106 20.9779 23.8239C20.5432 24.2128 19.9491 24.1993 19.5656 23.7996C19.1929 23.408 19.2199 22.8031 19.6439 22.3899C20.238 21.812 20.8375 21.2368 21.4451 20.6724C21.9555 20.1998 22.7522 20.3754 23.0249 21.0154C23.1546 21.3232 23.2734 21.6392 23.4165 22.0065Z" fill="#0C4E4B"/>
<path d="M12.0335 19.0197C12.6033 19.0197 13.0651 18.5579 13.0651 17.9881C13.0651 17.4184 12.6033 16.9565 12.0335 16.9565C11.4638 16.9565 11.002 17.4184 11.002 17.9881C11.002 18.5579 11.4638 19.0197 12.0335 19.0197Z" fill="#0C4E4B"/>
<path d="M14.7611 16.2922C15.3308 16.2922 15.7927 15.8303 15.7927 15.2606C15.7927 14.6909 15.3308 14.229 14.7611 14.229C14.1914 14.229 13.7295 14.6909 13.7295 15.2606C13.7295 15.8303 14.1914 16.2922 14.7611 16.2922Z" fill="#0C4E4B"/>
<path d="M16.8216 19.0197C17.3914 19.0197 17.8532 18.5579 17.8532 17.9881C17.8532 17.4184 17.3914 16.9565 16.8216 16.9565C16.2519 16.9565 15.79 17.4184 15.79 17.9881C15.79 18.5579 16.2519 19.0197 16.8216 19.0197Z" fill="#0C4E4B"/>
<path d="M14.4291 20.9209C14.9988 20.9209 15.4607 20.459 15.4607 19.8893C15.4607 19.3195 14.9988 18.8577 14.4291 18.8577C13.8593 18.8577 13.3975 19.3195 13.3975 19.8893C13.3975 20.459 13.8593 20.9209 14.4291 20.9209Z" fill="#0C4E4B"/>
<path d="M13.3968 24.0129C13.9666 24.0129 14.4284 23.551 14.4284 22.9813C14.4284 22.4116 13.9666 21.9497 13.3968 21.9497C12.8271 21.9497 12.3652 22.4116 12.3652 22.9813C12.3652 23.551 12.8271 24.0129 13.3968 24.0129Z" fill="#0C4E4B"/>
</g>
<defs>
<clipPath id="clip0_2013_5787">
<rect width="30" height="30" fill="white"/>
</clipPath>
</defs>
</svg>
