<svg width="66" height="66" viewBox="0 0 66 66" fill="none" xmlns="http://www.w3.org/2000/svg">
<g clip-path="url(#clip0_2048_4119)">
<path d="M49.5349 1.82551e-08C50.1219 0.179078 50.7387 0.298462 51.2959 0.55713C53.8925 1.77088 55.2356 3.85017 55.2953 6.70546C55.345 8.95387 55.3052 11.2023 55.3052 13.4607C55.3052 20.4447 55.3052 27.4386 55.3052 34.4227V35.1589C55.7828 35.1589 56.2105 35.1091 56.6184 35.1589C58.2998 35.3976 59.4538 36.7208 59.4837 38.432C59.5036 39.596 59.7026 39.8646 60.8168 40.2427C62.9459 40.9789 63.7517 43.4263 62.4783 45.2768C61.7918 46.2716 61.7918 46.5601 62.4882 47.5749C63.7517 49.4254 62.9359 51.8827 60.8069 52.609C59.5633 53.0268 59.0061 54.4097 59.613 55.6135C60.4189 57.2153 61.2347 58.827 62.0704 60.4188C62.4285 61.1052 62.5479 61.7519 62.0306 62.3886C61.5232 63.0054 60.8666 63.0154 60.1503 62.8363C59.3643 62.6373 58.5684 62.4682 57.7029 62.2692C57.3845 63.0353 57.0462 63.7814 56.7478 64.5574C56.4692 65.2638 56.0812 65.8209 55.2555 65.8607C54.3999 65.9105 53.9323 65.3832 53.6139 64.6669C53.5244 64.4778 53.415 64.2888 53.3155 64.1197C53.2458 64.1197 53.1961 64.0998 53.1762 64.1197C51.6938 65.413 49.9627 65.8806 48.0128 65.8707C35.2187 65.8508 22.4146 65.8707 9.62056 65.8607C6.20814 65.8607 3.50208 63.6521 2.90515 60.379C2.80566 59.8119 2.80566 59.2249 2.80566 58.6479C2.80566 41.5161 2.80566 24.3943 2.80566 7.26259C2.80566 3.32288 4.59644 1.02472 8.40681 0.0696413C8.4466 0.0696413 8.47645 0.0198975 8.5063 -0.00994873C22.1858 -0.00994873 35.8654 -0.00994873 49.5449 -0.00994873L49.5349 1.82551e-08ZM53.3851 34.9798C53.3851 34.6515 53.3851 34.4625 53.3851 34.2834C53.3851 25.1703 53.3851 16.0573 53.3851 6.94423C53.3851 3.89991 51.3954 1.93006 48.3411 1.93006C35.4774 1.93006 22.6136 1.93006 9.74989 1.93006C6.68568 1.93006 4.73572 3.88001 4.73572 6.96412C4.73572 24.265 4.73572 41.5659 4.73572 58.8767C4.73572 62.0006 6.68568 63.9406 9.78969 63.9406C20.8726 63.9406 31.9555 63.9406 43.0484 63.9406C43.2672 63.9406 43.496 63.9406 43.8045 63.9406C43.5458 63.3138 43.3269 62.7965 43.108 62.2792C42.1928 62.498 41.367 62.697 40.5313 62.886C39.8349 63.0452 39.1982 62.9756 38.7405 62.3588C38.3028 61.7718 38.3625 61.1749 38.6809 60.5481C39.4071 59.1453 40.1135 57.7226 40.8497 56.3199C41.178 55.703 41.377 55.1061 41.3272 54.3799C41.2476 53.3253 41.0586 52.9771 40.0538 52.6488C38.8301 52.2508 38.0839 51.4151 37.7855 50.1616C37.7457 49.9825 37.6959 49.8034 37.6462 49.5945H36.7806C29.1699 49.5945 21.5591 49.5945 13.9483 49.5945C13.6697 49.5945 13.3911 49.5945 13.1126 49.5547C12.6251 49.4652 12.3664 49.1468 12.3565 48.6593C12.3465 48.1718 12.5853 47.8336 13.0628 47.7241C13.3314 47.6645 13.62 47.6744 13.8886 47.6645C21.7779 47.6645 29.6673 47.6645 37.5566 47.6645C38.6013 47.6645 39.1484 46.6994 38.651 45.7543C38.2531 44.9982 37.875 44.2222 37.4472 43.3666H36.8503C29.1997 43.3666 21.5392 43.3666 13.8886 43.3666C13.6995 43.3666 13.5006 43.3666 13.3115 43.3666C12.7445 43.3268 12.3664 42.9686 12.3565 42.4414C12.3366 41.8842 12.7146 41.4962 13.3115 41.4465C13.5006 41.4266 13.6995 41.4465 13.8886 41.4465C21.8476 41.4465 29.7966 41.4465 37.7556 41.4465C38.0043 41.4465 38.2829 41.3669 38.5117 41.2376C39.1186 40.8993 39.6857 40.4715 40.3124 40.183C40.8198 39.9442 41.2078 39.6458 41.2874 39.0886C41.377 38.4718 41.3869 37.8351 41.4367 37.1685H40.6607C31.7167 37.1685 22.7828 37.1685 13.8388 37.1685C12.7942 37.1685 12.3465 36.8601 12.3565 36.1737C12.3664 35.4971 12.7743 35.2385 13.8189 35.2385C23.6184 35.2385 33.418 35.2385 43.2175 35.2385C43.5159 35.2385 43.8144 35.1887 44.1129 35.1987C44.6004 35.2186 45.1077 35.1887 45.5753 35.3081C46.8388 35.6364 46.998 35.6066 47.8039 34.562C49.0773 32.9105 51.5446 32.8309 52.9076 34.4028C53.0369 34.552 53.1662 34.7112 53.405 34.9897L53.3851 34.9798ZM61.2347 43.3964C61.1451 42.6801 60.787 42.2623 60.001 42.0036C58.4192 41.4763 57.5636 40.3223 57.5636 38.7006C57.5636 37.3675 56.7876 36.8203 55.5042 37.2282C54.0019 37.7058 52.619 37.2581 51.6938 36.0045C50.878 34.8903 49.9329 34.8903 49.1171 36.0045C48.1919 37.268 46.809 37.7157 45.3067 37.2382C43.9935 36.8203 43.2374 37.3675 43.2374 38.7603C43.2374 40.2924 42.3818 41.4763 40.9293 41.9638C39.5563 42.4314 39.2678 43.2771 40.1035 44.4411C40.9989 45.6946 41.0089 47.1372 40.1135 48.3907C39.2778 49.5746 39.5464 50.4203 40.9094 50.8779C42.3519 51.3654 43.2274 52.5592 43.2374 54.0714C43.2473 55.5041 43.9338 56.0214 45.2868 55.6235C46.9085 55.1459 48.172 55.5737 49.1768 56.9367C49.9229 57.9415 50.9079 57.9316 51.6441 56.9068C52.6191 55.5737 53.9621 55.126 55.544 55.6334C56.7776 56.0314 57.5536 55.4543 57.5636 54.161C57.5636 52.5294 58.4291 51.3554 59.9911 50.8481C61.175 50.4601 61.5033 49.505 60.777 48.5101C59.7722 47.1272 59.7821 45.7443 60.7571 44.3515C60.9561 44.063 61.0755 43.7248 61.2347 43.4064V43.3964ZM55.1261 63.3835C55.4345 62.6572 55.6833 62.0702 55.932 61.4833C56.3896 60.4088 56.9766 60.1103 58.1207 60.379C58.7375 60.5182 59.3643 60.6675 60.1105 60.8366C59.4439 59.5234 58.8271 58.3196 58.1804 57.066C57.0761 57.8122 55.9519 57.8818 54.7779 57.4242C54.5889 57.3545 54.3501 57.3645 54.1412 57.3943C53.5343 57.4839 52.629 58.4887 52.818 58.8866C53.5443 60.3591 54.3103 61.8215 55.1162 63.3934L55.1261 63.3835ZM40.6806 60.8366C41.5063 60.6476 42.1629 60.4784 42.8295 60.3392C43.8343 60.1302 44.4113 60.4486 44.8292 61.3838C45.0978 62.0006 45.3565 62.6174 45.6748 63.3735C46.4906 61.7917 47.2368 60.3292 47.9829 58.8667C48.0227 58.7971 48.0426 58.6976 48.0227 58.618C47.8536 57.8321 46.7791 57.1357 46.0131 57.4142C44.8292 57.842 43.7149 57.7724 42.6106 57.0561C41.9739 58.2897 41.367 59.4836 40.6806 60.8167V60.8366ZM47.5651 63.9207C48.0824 63.9207 48.4903 63.9406 48.8982 63.9207C50.0921 63.8411 51.1367 63.4133 52.0022 62.5577C52.2509 62.319 52.3305 62.11 52.1415 61.7817C51.7933 61.1649 51.5048 60.5282 51.1665 59.9014C50.9377 59.4736 49.8831 59.4338 49.6643 59.8417C48.9679 61.1649 48.3013 62.498 47.5651 63.9307V63.9207Z" fill="white"/>
<path d="M48.9874 10.2373C47.5349 9.76966 46.5301 8.88422 46.0327 7.46155C45.9929 7.34217 45.7939 7.27253 45.6546 7.21283C45.5651 7.17304 45.4457 7.21283 45.3363 7.21283C34.4623 7.21283 23.5982 7.21283 12.7243 7.21283C12.5352 7.21283 12.3363 7.21283 12.1174 7.21283C11.6697 8.64545 10.7743 9.64033 9.36158 10.1577C9.24219 10.1975 9.15265 10.3865 9.11286 10.5258C9.07306 10.665 9.10291 10.8242 9.10291 10.9735C9.10291 25.7673 9.10291 40.561 9.10291 55.3548V56.0811C10.3962 56.4989 11.3513 57.265 11.9085 58.4986C11.9582 58.6081 12.2268 58.6777 12.386 58.6877C13.4107 58.7076 14.4454 58.6877 15.4701 58.6877C22.0064 58.6877 28.5527 58.6877 35.089 58.6877C35.3079 58.6877 35.5268 58.6678 35.7258 58.7076C36.1934 58.807 36.4918 59.0856 36.5217 59.583C36.5615 60.1103 36.2729 60.4386 35.7954 60.5779C35.5964 60.6376 35.3676 60.6177 35.1587 60.6177C27.329 60.6177 19.5093 60.6177 11.6796 60.6177C10.635 60.6177 10.4858 60.5083 10.1873 59.5134C9.90876 58.5981 9.28199 58.0808 8.35675 57.9415C7.37183 57.7923 7.17285 57.5933 7.17285 56.6382C7.17285 40.9888 7.17285 25.3295 7.17285 9.68012C7.17285 8.76484 7.41162 8.50617 8.31696 8.39673C9.39142 8.27735 10.1475 7.5113 10.2769 6.42688C10.3763 5.55139 10.645 5.30267 11.5006 5.30267C23.1903 5.30267 34.8702 5.30267 46.56 5.30267C47.3956 5.30267 47.6543 5.54144 47.7836 6.36719C47.9727 7.63068 48.6094 8.2475 49.8828 8.40668C50.6091 8.49622 50.9076 8.82453 50.9076 9.62043C50.9175 10.9237 50.9076 12.237 50.9076 13.5402C50.9076 18.7036 50.9076 23.877 50.9076 29.0404C50.9076 29.1896 50.9076 29.3389 50.9076 29.4881C50.8877 30.274 50.5096 30.7317 49.9027 30.7118C49.3158 30.6919 48.9874 30.2641 48.9874 29.4881C48.9874 23.3298 48.9874 17.1815 48.9874 11.0232C48.9874 10.7645 48.9874 10.5158 48.9874 10.2472V10.2373Z" fill="white"/>
<path d="M29.0802 22.7627C34.1342 22.7627 39.1981 22.7627 44.252 22.7627C44.4709 22.7627 44.6798 22.7528 44.8987 22.7727C45.416 22.8423 45.7145 23.1607 45.7543 23.6681C45.7841 24.1754 45.5056 24.5237 45.0081 24.653C44.7893 24.7127 44.5405 24.6928 44.3018 24.6928C34.1242 24.6928 23.9466 24.6928 13.7591 24.6928C13.5502 24.6928 13.3214 24.7127 13.1224 24.6629C12.6051 24.5336 12.2967 24.2053 12.3364 23.6482C12.3762 23.1308 12.6847 22.8423 13.202 22.7727C13.4109 22.7428 13.6298 22.7627 13.8487 22.7627C18.9325 22.7627 24.0063 22.7627 29.0901 22.7627H29.0802Z" fill="white"/>
<path d="M29.0106 30.9008C23.9566 30.9008 18.8927 30.9008 13.8387 30.9008C13.6 30.9008 13.3115 30.9804 13.1423 30.871C12.8339 30.672 12.4857 30.3934 12.3663 30.0751C12.2072 29.6373 12.4758 29.2294 12.9434 29.0802C13.202 29.0006 13.4905 28.9907 13.7691 28.9907C23.9467 28.9907 34.1242 28.9907 44.3018 28.9907C44.3914 28.9907 44.4709 28.9907 44.5605 28.9907C45.3066 29.0106 45.7543 29.3787 45.7643 29.9557C45.7643 30.5427 45.3265 30.9108 44.5704 30.9108C39.3871 30.9108 34.2038 30.9108 29.0106 30.9108V30.9008Z" fill="white"/>
<path d="M28.6923 14.7739C30.7716 14.7739 32.8509 14.7739 34.9301 14.7739C35.1192 14.7739 35.3181 14.7739 35.5072 14.7839C36.0544 14.8436 36.3727 15.1619 36.3926 15.7091C36.4125 16.2563 36.0842 16.5945 35.5569 16.6841C35.2684 16.7338 34.96 16.704 34.6615 16.704C30.5527 16.704 26.4339 16.704 22.3251 16.704C22.1062 16.704 21.8973 16.7139 21.6884 16.6841C21.1312 16.6045 20.793 16.1866 20.8427 15.6593C20.8925 15.1022 21.2208 14.8137 21.768 14.7839C22.1261 14.764 22.4942 14.7739 22.8623 14.7739C24.8123 14.7739 26.7622 14.7739 28.7122 14.7739H28.6923Z" fill="white"/>
<path d="M43.8438 46.4009C43.8537 42.7796 46.7786 39.8746 50.4 39.8746C54.0014 39.8746 56.9463 42.8194 56.9562 46.4208C56.9562 50.0223 53.9616 53.0169 50.3502 52.987C46.7488 52.9572 43.8338 50.0123 43.8537 46.4009H43.8438ZM45.7738 46.4109C45.7738 48.9578 47.8232 51.0371 50.3602 51.057C52.9071 51.0769 55.0361 48.9379 55.0162 46.4009C54.9963 43.8541 52.917 41.8046 50.3801 41.8046C47.8232 41.8046 45.7738 43.8541 45.7738 46.4109Z" fill="white"/>
</g>
<defs>
<clipPath id="clip0_2048_4119">
<rect width="66" height="66" fill="white"/>
</clipPath>
</defs>
</svg>
