<svg width="66" height="66" viewBox="0 0 66 66" fill="none" xmlns="http://www.w3.org/2000/svg">
<g clip-path="url(#clip0_2048_4181)">
<path d="M66.0004 17.7585V51.9822C64.8463 55.2056 63.5828 56.0811 60.1306 56.0811C52.9476 56.0811 45.7646 56.0811 38.5816 56.0811C38.3329 56.0811 38.0842 56.0811 37.8554 56.0811V60.0904C38.2732 60.0904 38.6314 60.0904 38.9995 60.0904C41.3772 60.1302 43.2376 61.8613 43.4466 64.2291C43.5261 65.214 42.979 65.8707 42.004 65.8707C36.0447 65.8707 30.0854 65.8707 24.1261 65.8707C23.1909 65.8707 22.6338 65.214 22.6935 64.2789C22.8526 61.931 24.733 60.1402 27.1008 60.0904C27.4987 60.0904 27.8967 60.0904 28.2946 60.0904V56.0811H27.4788C20.1267 56.0811 12.7746 56.0811 5.41249 56.0811C2.1294 56.0811 0.139648 54.0814 0.139648 50.7884C0.139648 40.1532 0.139648 29.5179 0.139648 18.8827C0.139648 15.6792 2.1493 13.6596 5.35279 13.6596C10.2675 13.6596 15.1722 13.6596 20.0869 13.6596C20.3356 13.6596 20.5843 13.6596 20.8927 13.6596C20.8927 13.3413 20.8927 13.1125 20.8927 12.8836C20.8927 10.6153 20.8927 8.33705 20.8927 6.06874C20.9027 3.74073 21.8677 1.92011 23.9172 0.766054C24.5041 0.407899 25.2005 0.248719 25.8572 0C30.6624 0 35.4677 0 40.263 0C40.2928 0.0298462 40.3226 0.0696412 40.3624 0.07959C43.6555 0.935182 45.2473 2.97468 45.2473 6.37715C45.2473 9.70003 45.2473 13.0229 45.2473 16.3458C45.2473 16.7238 45.2473 17.1019 45.2473 17.5098H46.0133C50.7688 17.5098 55.5343 17.5098 60.2898 17.5098C61.7025 17.5098 62.1303 17.9475 62.1303 19.3503C62.1303 29.6871 62.1303 40.0238 62.1303 50.3506C62.1303 51.7932 61.7125 52.211 60.24 52.211C42.1234 52.211 24.0067 52.211 5.88008 52.211C5.6612 52.211 5.45228 52.221 5.23341 52.2011C4.55689 52.1215 4.01966 51.6639 3.98981 51.0172C3.95002 49.7537 3.95002 48.4902 3.98981 47.2267C4.00971 46.6795 4.38776 46.3811 4.925 46.3512C5.42243 46.3214 5.87013 46.7293 5.89003 47.2765C5.91987 48.0724 5.89997 48.8583 5.89997 49.6542C5.89997 49.8532 5.89997 50.0621 5.89997 50.2511H12.1577C12.1577 49.9626 12.1577 49.7039 12.1577 49.4552C12.1577 46.6696 12.1577 43.8839 12.1577 41.0883C12.1677 37.457 14.0778 34.8405 17.5102 33.6964C20.4152 32.7314 23.3103 31.7465 26.2054 30.7615C27.0809 30.4631 27.2798 30.1845 27.2898 29.2593C27.2898 28.8116 27.2699 28.3539 27.2898 27.9062C27.3196 27.5083 27.1505 27.3093 26.8122 27.1004C24.0962 25.4489 22.2756 23.0811 21.3703 20.0467C21.221 19.5493 21.0221 19.4299 20.5445 19.4299C15.8885 19.4498 11.2425 19.4399 6.58644 19.4399C6.35762 19.4399 6.13874 19.4399 5.89003 19.4399V20.3153C5.89003 27.6277 5.89003 34.94 5.89003 42.2523C5.89003 42.4911 5.91987 42.7299 5.87013 42.9587C5.76069 43.4561 5.45228 43.7546 4.925 43.7447C4.39771 43.7447 4.0893 43.4362 3.98981 42.9388C3.95002 42.7299 3.96992 42.511 3.96992 42.3021C3.96992 34.6515 3.96992 26.991 3.96992 19.3404C3.96992 17.9376 4.40766 17.5197 5.83033 17.5197C10.5858 17.5197 15.3513 17.5197 20.1068 17.5197H20.843V15.5897H20.0968C15.1623 15.5897 10.2376 15.5897 5.30305 15.5897C3.19391 15.5897 2.03986 16.7437 2.03986 18.8429C2.03986 29.5179 2.03986 40.2029 2.03986 50.8779C2.03986 52.987 3.19391 54.151 5.2931 54.151C23.7978 54.151 42.3024 54.151 60.8071 54.151C62.8964 54.151 64.0504 52.987 64.0504 50.868C64.0504 40.1929 64.0504 29.508 64.0504 18.833C64.0504 16.7338 62.8864 15.5797 60.7773 15.5797C56.8276 15.5797 52.8879 15.5797 48.9383 15.5797C48.212 15.5797 47.8141 15.2315 47.8141 14.6346C47.8141 14.0377 48.212 13.6596 48.9184 13.6596C53.0371 13.6596 57.1559 13.6298 61.2648 13.6696C63.4634 13.6895 65.2841 15.2017 65.8412 17.3407C65.881 17.48 65.9307 17.6192 65.9805 17.7585H66.0004ZM46.7495 39.9542C46.7495 39.9542 46.9684 40.0537 47.1475 40.1333C49.2268 41.1281 50.1918 43.5059 49.3959 45.6648C48.6 47.8037 46.2919 48.9876 44.0833 48.3907C42.193 47.8833 40.8499 46.1423 40.8201 44.1724C40.7902 42.2324 42.0935 40.4317 44.0037 39.9044C44.5011 39.7652 44.6802 39.5164 44.7896 39.0588C45.1478 37.6262 45.1378 36.2134 44.6504 34.8206C44.5708 34.5819 44.3121 34.3232 44.0833 34.2436C42.8198 33.776 41.5264 33.388 40.263 32.9304C39.8949 32.801 39.6859 32.8806 39.4273 33.1393C37.8554 34.7211 36.2735 36.293 34.7016 37.8649C33.6172 38.9494 32.7417 38.9494 31.6573 37.8749C30.0655 36.2831 28.4637 34.7012 26.8819 33.0995C26.6033 32.8209 26.3745 32.7513 25.9865 32.8906C24.8822 33.2985 23.748 33.6168 22.6437 34.0347C22.395 34.1242 22.1164 34.4028 22.0468 34.6515C21.7085 35.8652 21.6886 37.0989 21.9473 38.3425C22.0269 38.7404 22.196 38.8996 22.584 38.9991C24.5439 39.4965 26.086 41.1978 26.2153 43.1179C26.3049 44.4212 26.275 45.7344 26.2452 47.0377C26.2253 47.8535 25.6184 48.4504 24.8225 48.52C24.4444 48.5499 24.0465 48.5499 23.6684 48.52C23.1412 48.4902 22.8327 48.1519 22.793 47.6545C22.7532 47.1173 23.0516 46.7591 23.5889 46.6397C23.8077 46.59 24.0465 46.59 24.335 46.5601C24.335 45.5553 24.3649 44.5704 24.335 43.5855C24.2853 42.0932 23.1014 40.8794 21.6687 40.77C20.0968 40.6506 18.6841 41.6057 18.4752 43.1278C18.326 44.252 18.4453 45.416 18.4453 46.58C18.6642 46.59 18.8632 46.59 19.0522 46.6198C19.6193 46.7094 19.9675 47.1073 19.9476 47.6147C19.9277 48.1221 19.5397 48.4902 18.9726 48.52C18.714 48.5399 18.4553 48.53 18.1966 48.52C17.1122 48.4902 16.4854 47.8734 16.4655 46.789C16.4556 45.7344 16.4357 44.6898 16.4655 43.6352C16.5451 41.5261 17.5898 40.0537 19.4999 39.1782C19.6889 39.0886 19.878 39.009 19.9476 38.9792V35.0096C19.8581 34.9897 19.8083 34.9599 19.7785 34.9699C19.2313 35.139 18.6742 35.3181 18.127 35.4971C15.4707 36.3925 14.1077 38.2828 14.0977 41.0983C14.0977 43.9038 14.0977 46.7193 14.0977 49.5249C14.0977 49.7537 14.1176 49.9825 14.1276 50.2014H51.9925C51.9925 46.9084 52.0522 43.675 51.9726 40.4417C51.9129 37.8351 49.9829 35.7061 46.9585 35.2285C46.8888 36.7407 46.8192 38.2629 46.7396 39.9144L46.7495 39.9542ZM44.9389 19.4697C44.8792 19.6687 44.8195 19.8378 44.7697 19.997C43.9937 22.713 42.5114 24.9813 40.1436 26.5134C39.0194 27.2397 38.6413 28.0057 38.7806 29.2493C38.8801 30.2044 38.9995 30.473 39.9247 30.7814C42.7999 31.7564 45.685 32.7115 48.5602 33.6964C52.092 34.9002 53.9325 37.4769 53.9325 41.1978C53.9325 43.9635 53.9325 46.7293 53.9325 49.495C53.9325 49.7437 53.9325 49.9925 53.9325 50.2412H60.1406V19.4697H44.9289H44.9389ZM35.7562 9.58065C31.7767 12.0977 27.4888 13.4109 22.6736 13.6099C22.8228 15.4504 22.7432 17.2611 23.1312 18.9723C24.4146 24.6431 30.0754 28.1351 35.597 26.5831C42.193 24.7326 43.9042 19.1712 43.2078 13.5601C40.2431 13.202 37.7559 11.8987 35.7462 9.58065H35.7562ZM22.8526 11.6201C23.0516 11.6201 23.2207 11.6201 23.3799 11.6201C27.4689 11.3913 31.2195 10.1577 34.6718 7.9789C35.796 7.26259 36.4227 7.37202 37.2783 8.3868C38.5617 9.89901 40.1734 10.9138 42.0935 11.4013C42.4716 11.5008 42.8596 11.5405 43.2774 11.6201C43.2774 9.52095 43.367 7.52125 43.2476 5.54145C43.1182 3.40247 41.4469 1.94995 39.2979 1.94995C35.1592 1.94001 31.0305 1.94995 26.8918 1.94995C24.4743 1.94995 22.8228 3.5915 22.793 6.01899C22.7731 7.73018 22.793 9.45131 22.793 11.1625C22.793 11.3117 22.8228 11.451 22.8327 11.6301L22.8526 11.6201ZM33.1297 36.5318C34.7016 34.9599 36.2536 33.4079 37.8454 31.8161C36.7809 30.9108 36.8505 29.5975 36.8804 28.2544C34.2937 29.0304 31.8065 29.0404 29.2596 28.2544C29.2696 29.5876 29.3293 30.8511 28.3643 31.7664C29.9958 33.398 31.5777 34.9897 33.1297 36.5418V36.5318ZM41.4071 63.9207C41.029 62.7169 40.1933 62.0603 39.0393 62.0205C38.3727 62.0006 37.7161 62.0205 37.0495 62.0205C33.7764 62.0205 30.5032 62.0205 27.2201 62.0205C25.9268 62.0205 24.9817 62.7567 24.7529 63.9207H41.4071ZM30.2943 56.1209V60.0407H35.8159V56.1209H30.2943ZM45.2672 46.6099C46.66 46.5999 47.7444 45.4956 47.7345 44.1028C47.7245 42.7199 46.6103 41.6256 45.2174 41.6455C43.8445 41.6554 42.7203 42.7995 42.7402 44.1525C42.7601 45.5255 43.8843 46.6198 45.2672 46.6099Z" fill="white"/>
</g>
<defs>
<clipPath id="clip0_2048_4181">
<rect width="66" height="66" fill="white"/>
</clipPath>
</defs>
</svg>
