<svg width="66" height="66" viewBox="0 0 66 66" fill="none" xmlns="http://www.w3.org/2000/svg">
<g clip-path="url(#clip0_2048_4259)">
<path d="M57.1159 1.82551e-08C57.7029 0.368104 58.4093 0.63672 58.8371 1.14411C59.235 1.6117 59.3544 2.32801 59.5633 2.94483C59.633 3.13386 59.5832 3.37263 59.5832 3.58155C59.5832 23.1607 59.5832 42.7398 59.5733 62.309C59.5733 62.9159 59.5036 63.5725 59.2549 64.1197C58.7376 65.2737 57.7527 65.8707 56.4892 65.8707C49.734 65.8806 42.9788 65.8707 36.2236 65.8707C35.5172 65.8707 35.0994 65.5026 35.0994 64.9156C35.0994 64.3087 35.5172 63.9406 36.2733 63.9406C42.7101 63.9406 49.137 63.9008 55.5739 63.9605C57.6631 63.9804 57.8124 63.3238 57.6034 61.5629H27.6676V63.9406C29.0704 63.9406 30.4533 63.9406 31.8461 63.9406C32.0948 63.9406 32.4331 63.9207 32.5823 64.06C32.831 64.2988 33.1494 64.6967 33.0997 64.9753C33.0499 65.2936 32.6619 65.5822 32.3734 65.8209C32.254 65.9204 32.0053 65.8607 31.8063 65.8607C26.5932 65.8607 21.38 65.8607 16.1768 65.8607C11.2721 65.8508 7.43189 62.5876 6.61609 57.7525C6.52655 57.2053 6.5166 56.6382 6.5166 56.091C6.5166 40.6506 6.5166 25.2101 6.5166 9.77962C6.5166 4.70576 9.6803 0.965029 14.6746 0.0895388C14.7542 0.07959 14.8238 0.0198975 14.9034 -0.00994873C16.8732 -0.00994873 18.8531 -0.00994873 20.8229 -0.00994873C21.2109 0.338257 21.589 0.696412 21.3402 1.30329C21.1015 1.89026 20.604 1.93006 20.0568 1.93006C19.052 1.92011 18.0472 1.93006 16.9926 1.93006V46.8984C17.2613 46.8984 17.5199 46.8984 17.7686 46.8984C30.4831 46.8984 43.2076 46.8984 55.9221 46.8984C57.3547 46.8984 57.6432 46.5999 57.6432 45.1574C57.6432 31.3286 57.6432 17.4998 57.6432 3.66114C57.6432 2.22852 57.3448 1.93006 55.9221 1.93006C45.645 1.93006 35.3779 1.93006 25.1009 1.93006C24.9516 1.93006 24.8024 1.93006 24.6532 1.93006C24.096 1.9599 23.5986 1.85047 23.4096 1.26349C23.2305 0.666566 23.5588 0.278565 24.0463 1.82551e-08C35.0695 1.82551e-08 46.0927 1.82551e-08 57.1159 1.82551e-08ZM8.44666 50.6292C10.2474 48.4405 12.3963 47.2765 14.9929 46.9382V2.0196C14.7343 2.05939 14.5154 2.07929 14.3164 2.12903C10.7448 2.97468 8.45661 5.9593 8.45661 9.79952C8.45661 23.1308 8.45661 36.4622 8.45661 49.7935C8.45661 50.0024 8.45661 50.2113 8.45661 50.6192L8.44666 50.6292ZM57.6432 48.719C56.9966 48.7588 56.4394 48.8185 55.8922 48.8185C48.2417 48.8185 40.5811 48.8185 32.9305 48.8185C27.3095 48.8185 21.6984 48.7986 16.0773 48.8185C11.4711 48.8484 8.1283 52.5393 8.47651 57.1456C8.78492 61.2843 12.8639 64.4679 17.1319 63.8809V61.6027C16.6643 61.6027 16.2365 61.6225 15.8187 61.6027C11.9785 61.4136 9.59076 57.3943 11.3517 54.0217C12.3864 52.032 14.1075 51.1565 16.3559 51.1565C29.5181 51.1764 42.6803 51.1565 55.8425 51.1565C56.141 51.1565 56.4494 51.1565 56.7379 51.0968C57.2552 50.9973 57.5935 50.669 57.6333 50.1417C57.6731 49.6542 57.6333 49.1667 57.6333 48.6991L57.6432 48.719ZM57.6233 53.1064H54.8675C42.1033 53.1064 29.349 53.1064 16.5847 53.1064C16.2166 53.1064 15.8485 53.1064 15.4904 53.1462C14.2468 53.2954 13.0927 54.3301 12.9435 55.4046H57.6134V53.1064H57.6233ZM27.6477 59.7024H28.2745C37.5567 59.7024 46.8389 59.7024 56.1111 59.7024C56.3001 59.7024 56.4991 59.7124 56.6881 59.6726C57.1856 59.5632 57.5636 59.2647 57.6233 58.7374C57.6731 58.2997 57.6333 57.8619 57.6333 57.4242H27.6477V59.7024ZM19.1416 63.871C19.1416 63.871 19.2311 63.9008 19.2709 63.9108C19.7285 63.2939 20.1862 62.6672 20.6438 62.0603C21.6387 60.7371 23.131 60.7471 24.1358 62.0702C24.5338 62.5975 24.9218 63.1348 25.3197 63.672C25.3894 63.7715 25.5088 63.8312 25.648 63.9506V57.4341H19.1217V63.8809L19.1416 63.871ZM12.9335 57.4043C13.3116 59.0458 14.9432 59.9213 17.122 59.6427V57.4043H12.9335ZM23.141 63.9307C22.8425 63.5526 22.6236 63.284 22.3749 62.9656C22.1162 63.3238 21.9173 63.6024 21.6785 63.9307H23.141Z" fill="white"/>
<path d="M40.4014 8.51612C41.1377 8.51612 41.8042 8.51612 42.4608 8.51612C43.8338 8.53602 44.6496 9.35182 44.6595 10.7247C44.6595 11.4112 44.6794 12.0977 44.6496 12.7841C44.5998 13.8387 43.8238 14.6346 42.7593 14.6843C41.9932 14.7241 41.2272 14.6843 40.3915 14.6843C40.3915 15.4603 40.3915 16.1369 40.3915 16.8134C40.3716 18.0868 39.6055 18.9026 38.3321 18.9623C37.6456 18.9922 36.9592 18.9922 36.2727 18.9623C35.0092 18.9026 34.2233 18.0769 34.2034 16.8134C34.2034 16.1369 34.2034 15.4504 34.2034 14.7042C33.4771 14.7042 32.8205 14.7042 32.1639 14.7042C30.7412 14.6843 29.9553 13.8884 29.9453 12.4558C29.9453 11.8589 29.9453 11.252 29.9453 10.6551C29.9652 9.40156 30.781 8.55592 32.0346 8.51612C32.731 8.49622 33.4373 8.51612 34.2034 8.51612C34.2034 7.78986 34.2034 7.13325 34.2034 6.47663C34.2133 5.11365 35.049 4.27795 36.4021 4.25806C36.999 4.25806 37.6059 4.25806 38.2028 4.25806C39.5359 4.27795 40.3716 5.09375 40.3816 6.41693C40.3816 7.0835 40.3816 7.74012 40.3816 8.51612H40.4014ZM36.1434 6.20801C36.1434 7.07355 36.1434 7.8794 36.1434 8.68525C36.1434 9.899 35.5962 10.4362 34.3725 10.4362C33.5667 10.4362 32.7608 10.4362 31.945 10.4362V12.7742C32.8305 12.7742 33.6661 12.7543 34.5018 12.7742C35.5863 12.804 36.1434 13.3811 36.1533 14.4754C36.1533 15.3012 36.1533 16.1369 36.1533 17.0024H38.4813C38.4813 16.2463 38.4813 15.5499 38.4813 14.8435C38.4813 13.2617 38.9688 12.7742 40.5507 12.7742C41.267 12.7742 41.9833 12.7742 42.6897 12.7742V10.4362C41.9037 10.4362 41.1576 10.4362 40.4114 10.4362C38.9788 10.4362 38.4813 9.92884 38.4714 8.50617C38.4714 7.74012 38.4714 6.98401 38.4714 6.19806H36.1434V6.20801Z" fill="white"/>
<path d="M37.3273 29.6274C35.9145 29.6274 34.5018 29.6274 33.0891 29.6274C31.2386 29.6075 29.9851 28.3539 29.9751 26.5134C29.9751 25.7872 29.9652 25.0609 29.9751 24.3247C30.005 22.6633 31.2386 21.36 32.8901 21.3401C35.8449 21.3102 38.7997 21.3102 41.7644 21.3401C43.396 21.36 44.6197 22.6135 44.6794 24.2451C44.7092 25.0808 44.7092 25.9165 44.6794 26.7522C44.6197 28.344 43.386 29.5776 41.7843 29.6075C40.3019 29.6373 38.8295 29.6075 37.3471 29.6075L37.3273 29.6274ZM37.3074 27.6973C38.7002 27.6973 40.093 27.6973 41.4858 27.6973C42.3414 27.6973 42.7195 27.3292 42.7394 26.5035C42.7593 25.7971 42.7593 25.0908 42.7394 24.3844C42.7195 23.6681 42.3315 23.2701 41.6052 23.2701C38.7599 23.2602 35.9046 23.2602 33.0592 23.2701C32.3031 23.2701 31.9151 23.678 31.8952 24.4242C31.8753 25.0908 31.8952 25.7474 31.8952 26.4139C31.8952 27.3193 32.2832 27.6874 33.1985 27.6973C34.5714 27.6973 35.9444 27.6973 37.3074 27.6973Z" fill="white"/>
<path d="M24.5036 40.2924C23.1506 40.2924 21.8075 40.2924 20.4545 40.2924C19.7481 40.2924 19.3203 39.9243 19.3004 39.3572C19.2805 38.7703 19.7382 38.3624 20.4644 38.3624C23.1605 38.3624 25.8666 38.3624 28.5627 38.3624C29.3188 38.3624 29.7367 38.7305 29.7367 39.3373C29.7367 39.9542 29.3288 40.2825 28.5528 40.2825C27.1997 40.2825 25.8567 40.2825 24.5036 40.2825V40.2924Z" fill="white"/>
<path d="M22.3349 44.5505C21.6683 44.5505 21.0017 44.5605 20.3451 44.5505C19.7283 44.5306 19.3303 44.1625 19.3005 43.6352C19.2806 43.088 19.6984 42.6503 20.3352 42.6304C21.7081 42.6105 23.081 42.6105 24.4539 42.6304C25.1106 42.6404 25.4986 43.0483 25.4787 43.6153C25.4687 44.1924 25.0807 44.5306 24.3942 44.5406C23.7078 44.5505 23.0213 44.5406 22.3349 44.5406V44.5505Z" fill="white"/>
<path d="M34.064 40.2825C33.7258 40.2825 33.3776 40.2924 33.0393 40.2825C32.4921 40.2526 32.1638 39.9542 32.1141 39.407C32.0643 38.8897 32.4126 38.4221 32.9597 38.3823C33.7258 38.3325 34.5018 38.3325 35.2678 38.3823C35.815 38.4121 36.1732 38.8698 36.1433 39.3871C36.1135 39.8945 35.7354 40.2526 35.1584 40.2924C35.1186 40.2924 35.0689 40.2924 35.0291 40.2924C34.7107 40.2924 34.3824 40.2924 34.064 40.2924V40.2825Z" fill="white"/>
</g>
<defs>
<clipPath id="clip0_2048_4259">
<rect width="66" height="66" fill="white"/>
</clipPath>
</defs>
</svg>
