<svg width="608" height="578" viewBox="0 0 608 578" fill="none" xmlns="http://www.w3.org/2000/svg">
<g opacity="0.1">
<mask id="mask0_2048_4307" style="mask-type:luminance" maskUnits="userSpaceOnUse" x="0" y="0" width="608" height="578">
<path d="M607.37 0H0V577.017H607.37V0Z" fill="white"/>
</mask>
<g mask="url(#mask0_2048_4307)">
<path opacity="0.4" fill-rule="evenodd" clip-rule="evenodd" d="M464.747 411.169L464.677 411.222C462.696 412.478 460.485 409.984 461.917 408.18C516.239 339.106 658.472 273.747 737.416 312.662C765.24 326.6 781.336 350.763 780.876 375.403C778.435 369.849 775.128 364.454 771.077 359.377C765.081 351.895 757.368 345.067 748.153 339.389C744.314 337.054 740.281 334.967 736.071 333.128C688.719 312.432 620.07 322.904 560.655 347.95C535.484 358.528 511.976 371.742 492.448 386.299C482.188 393.976 472.99 401.989 465.278 410.196L464.73 411.222L464.747 411.169Z" fill="#F1F5E4"/>
<path fill-rule="evenodd" clip-rule="evenodd" d="M611.934 561.574C591.468 550.36 706.797 587.187 738.513 554.694C743.359 549.688 746.278 543.072 746.384 534.352V533.591V533.344C746.419 530.796 746.26 528.267 745.906 525.844C745.287 521.528 744.049 517.389 742.28 513.391C741.873 512.507 741.449 511.604 740.989 510.738L740.317 509.464L739.91 508.739C736.85 503.397 732.817 498.32 727.97 493.58C727.28 492.872 726.555 492.183 725.795 491.528C725.069 490.838 724.309 490.166 723.513 489.512C717.463 484.293 710.37 479.447 702.534 474.989C687.888 466.64 670.606 459.583 652.246 453.692C650.229 453.038 648.23 452.419 646.179 451.8C605.194 439.347 559.806 432.537 526.994 430.255C501.398 428.539 480.331 429.406 480.331 429.441C477.943 429.459 477.342 426.222 479.518 425.391L479.712 425.32C490.255 421.322 502 418.121 514.558 415.768C516.716 415.344 518.892 414.954 521.086 414.618C539.588 411.558 559.646 410.232 580.13 410.639C584.269 410.727 588.355 410.886 592.494 411.116C627.022 412.956 662.116 419.783 692.399 431.741C699.899 434.695 707.062 437.95 713.89 441.558C723.318 446.511 732.039 452.1 739.839 458.309C745.234 462.607 750.169 467.171 754.574 472.088L755.476 473.114L755.653 473.291L756.749 474.565L757.139 475.025L757.988 476.033L758.271 476.387C760.641 479.323 762.852 482.33 764.868 485.461C766.85 488.627 768.618 491.793 770.175 495.013C770.511 495.685 770.812 496.375 771.13 497.047C773.518 502.3 775.34 507.554 776.578 512.754L776.773 513.497C777.993 518.91 778.612 524.269 778.612 529.488C778.825 580.961 720.983 619.717 611.951 561.645" fill="#F1F5E4"/>
<path opacity="0.9" fill-rule="evenodd" clip-rule="evenodd" d="M479.659 425.302C478.686 425.426 478.173 425.497 478.173 425.497C476.316 425.727 475.325 423.746 476.086 422.401L476.988 421.535C484.063 417.979 491.776 414.742 499.983 411.877C503.538 410.638 507.165 409.453 510.879 408.357C534.21 401.387 560.778 397.036 588.001 395.709C598.596 395.196 609.298 395.143 619.929 395.55C664.362 397.284 707.858 407.401 739.291 427.513C745.34 431.387 750.93 435.632 756.006 440.267C756.625 440.833 757.209 441.346 757.793 441.912C758.27 442.372 758.748 442.832 759.19 443.274C761.985 446.033 764.585 448.934 767.009 451.959C773.713 460.485 778.63 469.506 781.69 478.598C781.92 479.305 782.15 479.995 782.362 480.703C784.078 486.292 785.104 491.882 785.44 497.383C786.148 508.81 783.883 519.794 778.595 529.434C778.595 524.216 777.975 518.857 776.755 513.444L776.56 512.701C775.34 507.501 773.518 502.23 771.112 496.994C770.794 496.322 770.493 495.632 770.157 494.96C768.601 491.758 766.832 488.574 764.851 485.408C762.834 482.277 760.623 479.27 758.253 476.334L757.97 475.98L757.121 474.972L756.732 474.512L755.635 473.238L755.458 473.061L754.556 472.035C750.134 467.136 745.216 462.554 739.821 458.256C732.038 452.047 723.3 446.458 713.872 441.505C707.045 437.896 699.881 434.642 692.381 431.688C662.098 419.73 627.022 412.903 592.476 411.063C588.337 410.815 584.251 410.674 580.112 410.585C559.629 410.179 539.57 411.505 521.068 414.565C518.874 414.884 516.699 415.291 514.541 415.715C501.964 418.085 490.237 421.287 479.694 425.267H479.659V425.302Z" fill="#F1F5E4"/>
<path opacity="0.8" fill-rule="evenodd" clip-rule="evenodd" d="M476.086 422.419C474.246 422.808 473.096 420.827 473.804 419.43L474.158 418.934H474.175L474.582 418.581C484.187 412.673 495.136 407.313 507.058 402.573C508.456 402.007 509.888 401.441 511.357 400.928H511.41C533.007 392.755 557.541 386.741 582.871 383.274C586.391 382.797 589.929 382.355 593.52 382.001C646.373 376.358 701.437 382.142 739.945 403.811C745.092 406.694 749.921 409.843 754.396 413.363L754.68 413.539C755.175 413.929 755.652 414.3 756.112 414.672C757.687 415.927 759.261 417.254 760.729 418.598C762.622 420.279 764.444 422.048 766.159 423.852C769.255 427.16 772.05 430.573 774.526 434.093C778.011 438.94 780.841 443.981 783.105 449.111L783.388 449.801C785.847 455.567 787.509 461.369 788.394 467.153L788.518 468.02C789.968 478.191 788.995 488.185 785.475 497.383C785.139 491.9 784.113 486.31 782.397 480.738C782.185 480.031 781.955 479.341 781.725 478.633C778.647 469.541 773.748 460.502 767.044 451.994C764.62 448.97 762.02 446.069 759.225 443.309C758.766 442.867 758.306 442.407 757.828 441.947C757.262 441.381 756.661 440.868 756.042 440.302C750.983 435.685 745.393 431.423 739.326 427.549C707.893 407.437 664.397 397.319 619.964 395.586C609.333 395.161 598.632 395.232 588.036 395.745C560.796 397.071 534.228 401.423 510.914 408.392C507.2 409.489 503.556 410.674 500.018 411.912C491.811 414.778 484.116 418.015 477.023 421.57L476.121 422.437L476.086 422.419ZM580.112 410.603C558.815 410.975 538.738 412.443 522.093 414.459L521.067 414.583C539.57 411.523 559.628 410.196 580.112 410.603Z" fill="#F1F5E4"/>
<path opacity="0.7" fill-rule="evenodd" clip-rule="evenodd" d="M789.402 462.89C789.102 464.305 788.748 465.738 788.359 467.136C787.474 461.369 785.812 455.55 783.353 449.783L783.07 449.093C780.806 443.964 777.976 438.922 774.491 434.076C772.015 430.556 769.22 427.142 766.124 423.834C764.409 422.012 762.587 420.243 760.694 418.581C759.226 417.219 757.652 415.91 756.077 414.654C755.617 414.282 755.14 413.911 754.644 413.522L754.361 413.345C749.886 409.842 745.057 406.676 739.91 403.793C701.402 382.125 646.338 376.34 593.485 381.983C589.894 382.337 586.356 382.779 582.836 383.257C557.488 386.724 532.972 392.738 511.375 400.892H511.321C509.871 401.423 508.438 401.989 507.023 402.555C495.119 407.295 484.152 412.655 474.547 418.563L474.14 418.917H474.123L473.769 419.412H473.68C472.301 419.872 471.222 418.899 471.027 417.785V417.732C470.903 417.059 471.133 416.334 471.823 415.804L473.273 414.725C478.81 410.692 484.859 406.8 491.298 403.139L491.563 402.979C495.649 400.662 499.877 398.416 504.264 396.24L504.494 396.116C530.39 383.327 561.345 373.404 593.219 367.673C650.406 357.414 710.529 360.757 749.851 385.68L750.382 386.034C754.768 388.829 758.872 391.889 762.693 395.249C766.089 398.292 769.184 401.44 771.979 404.748C776.136 409.613 779.585 414.707 782.398 419.96C784.945 424.878 786.944 429.919 788.323 434.978C790.835 444.282 791.26 453.639 789.438 462.607L789.402 462.873V462.89Z" fill="#F1F5E4"/>
<path opacity="0.6" fill-rule="evenodd" clip-rule="evenodd" d="M473.185 414.795L471.982 415.308C471.062 415.697 470.567 415.91 470.567 415.91C468.851 416.617 467.365 414.954 467.737 413.469L468.373 412.425C474.281 407.154 480.879 402.024 488.061 397.124C491.156 395.002 494.358 392.915 497.666 390.88C518.361 378.074 542.895 366.983 568.844 358.617C578.944 355.362 589.239 352.514 599.622 350.144C642.977 340.256 687.605 338.717 723.194 349.949C730.039 352.107 736.549 354.761 742.651 357.909C743.377 358.281 744.084 358.634 744.792 359.023C745.375 359.342 745.941 359.66 746.507 359.961C749.921 361.907 753.194 364.029 756.307 366.293C765.01 372.767 772.085 380.232 777.427 388.209C777.834 388.829 778.241 389.448 778.612 390.067C781.743 395.02 784.166 400.149 785.917 405.367C789.225 415.167 790.092 425.285 788.323 435.013C786.943 429.937 784.945 424.895 782.397 419.978C779.585 414.725 776.136 409.613 771.979 404.766C769.184 401.458 766.089 398.292 762.692 395.267C758.872 391.906 754.768 388.829 750.381 386.051L749.851 385.698C710.547 360.775 650.406 357.431 593.219 367.691C561.344 373.422 530.389 383.345 504.493 396.134L504.263 396.258C499.877 398.433 495.649 400.68 491.563 402.997L491.298 403.156C484.859 406.835 478.81 410.709 473.273 414.742L473.167 414.831L473.185 414.795Z" fill="#F1F5E4"/>
<path opacity="0.5" fill-rule="evenodd" clip-rule="evenodd" d="M467.737 413.451C466.057 414.318 464.429 412.708 464.748 411.169L465.296 410.143C473.008 401.918 482.206 393.905 492.466 386.246C511.994 371.706 535.502 358.493 560.672 347.897C620.088 322.85 688.737 312.397 736.089 333.074C740.299 334.914 744.314 337.001 748.171 339.336C757.386 345.014 765.098 351.842 771.095 359.324C775.163 364.401 778.453 369.796 780.894 375.35C785.193 385.043 786.961 395.267 785.935 405.332C784.184 400.114 781.761 394.984 778.63 390.031C778.259 389.412 777.852 388.793 777.445 388.174C772.103 380.197 765.028 372.732 756.325 366.258C753.212 363.976 749.939 361.871 746.526 359.926C745.959 359.625 745.411 359.306 744.81 358.988C744.102 358.599 743.395 358.245 742.669 357.874C736.567 354.725 730.057 352.072 723.212 349.914C687.64 338.682 642.995 340.221 599.64 350.108C589.257 352.479 578.945 355.327 568.862 358.581C542.931 366.948 518.397 378.056 497.684 390.845C494.376 392.879 491.192 394.967 488.079 397.089C480.897 401.989 474.299 407.119 468.392 412.39L467.755 413.433L467.737 413.451Z" fill="#F1F5E4"/>
<path opacity="0.4" fill-rule="evenodd" clip-rule="evenodd" d="M477.696 471.239L477.642 471.169C476.387 469.205 478.881 466.976 480.685 468.409C549.758 522.731 615.117 664.964 576.203 743.908C562.264 771.732 538.102 787.828 513.462 787.386C519.016 784.927 524.411 781.637 529.487 777.569C536.97 771.572 543.797 763.86 549.475 754.644C551.828 750.806 553.915 746.773 555.737 742.563C576.433 695.211 565.961 626.562 540.914 567.146C530.336 541.976 517.123 518.468 502.566 498.957C494.889 488.68 486.876 479.5 478.668 471.788L477.66 471.239H477.696Z" fill="#F1F5E4"/>
<path fill-rule="evenodd" clip-rule="evenodd" d="M327.29 618.425C338.504 597.96 301.659 713.289 334.171 745.004C339.177 749.851 345.792 752.752 354.513 752.876H355.273H355.521C358.068 752.911 360.597 752.752 363.021 752.398C367.337 751.779 371.476 750.541 375.473 748.772C376.358 748.365 377.26 747.941 378.127 747.498L379.4 746.826L380.126 746.419C385.467 743.359 390.544 739.344 395.285 734.48C395.992 733.772 396.682 733.064 397.336 732.304C398.026 731.579 398.698 730.818 399.371 730.022C404.589 723.973 409.435 716.88 413.893 709.044C422.242 694.397 429.3 677.133 435.19 658.755C435.844 656.739 436.463 654.74 437.082 652.688C449.535 611.704 456.345 566.333 458.627 533.503C460.343 507.908 459.476 486.841 459.441 486.841C459.423 484.47 462.66 483.869 463.491 486.027L463.562 486.221C467.56 496.746 470.761 508.491 473.132 521.068C473.556 523.226 473.945 525.402 474.281 527.613C477.342 546.115 478.668 566.156 478.261 586.657C478.155 590.778 478.014 594.882 477.784 599.021C475.944 633.549 469.116 668.643 457.159 698.908C454.205 706.408 450.95 713.572 447.342 720.4C442.389 729.827 436.799 738.548 430.591 746.349C426.292 751.744 421.729 756.661 416.811 761.083L415.786 761.985L415.609 762.162L414.335 763.259L413.875 763.648L412.867 764.497L412.513 764.78C409.595 767.15 406.57 769.379 403.439 771.378C400.273 773.359 397.106 775.128 393.887 776.684C393.215 777.02 392.525 777.339 391.853 777.657C386.6 780.045 381.346 781.867 376.146 783.088L375.403 783.264C369.99 784.503 364.63 785.104 359.412 785.122C307.939 785.316 269.183 727.475 327.255 618.461" fill="#F1F5E4"/>
<path opacity="0.9" fill-rule="evenodd" clip-rule="evenodd" d="M463.562 486.151C463.438 485.196 463.35 484.683 463.35 484.683C463.12 482.825 465.101 481.835 466.445 482.578L467.294 483.48C470.85 490.555 474.087 498.267 476.952 506.475C478.191 510.013 479.376 513.656 480.472 517.371C487.442 540.702 491.793 567.27 493.12 594.51C493.633 605.088 493.686 615.79 493.261 626.421C491.528 670.854 481.41 714.35 461.298 745.783C457.424 751.832 453.161 757.439 448.545 762.498C447.996 763.117 447.466 763.719 446.9 764.285C446.44 764.78 445.98 765.24 445.538 765.7C442.778 768.512 439.877 771.095 436.852 773.518C428.327 780.24 419.305 785.139 410.214 788.2C409.506 788.43 408.816 788.659 408.109 788.872C402.537 790.588 396.93 791.613 391.446 791.95C380.019 792.657 369.035 790.393 359.395 785.122C364.613 785.122 369.972 784.503 375.385 783.264L376.128 783.088C381.328 781.867 386.599 780.045 391.835 777.657C392.507 777.339 393.197 777.038 393.869 776.684C397.071 775.128 400.255 773.359 403.421 771.378C406.552 769.361 409.577 767.15 412.495 764.78L412.849 764.497L413.857 763.648L414.317 763.259L415.591 762.162L415.768 761.985L416.794 761.083C421.693 756.661 426.275 751.726 430.573 746.349C436.782 738.548 442.371 729.827 447.324 720.4C450.933 713.572 454.187 706.408 457.141 698.908C469.099 668.625 475.926 633.549 477.766 599.021C478.014 594.882 478.155 590.778 478.244 586.657C478.65 566.174 477.324 546.115 474.264 527.613C473.945 525.419 473.538 523.244 473.114 521.068C470.761 508.491 467.542 496.764 463.544 486.222V486.168L463.562 486.151Z" fill="#F1F5E4"/>
<path opacity="0.8" fill-rule="evenodd" clip-rule="evenodd" d="M466.463 482.578C466.074 480.72 468.055 479.588 469.452 480.278L469.948 480.632V480.667L470.302 481.074C476.21 490.679 481.551 501.628 486.31 513.533C486.876 514.948 487.442 516.38 487.955 517.831V517.884C496.127 539.482 502.141 563.998 505.608 589.345C506.085 592.865 506.528 596.421 506.881 599.994C512.524 652.847 506.74 707.912 485.089 746.419C482.206 751.567 479.057 756.396 475.537 760.871L475.36 761.136C474.971 761.631 474.6 762.109 474.246 762.569C472.99 764.143 471.664 765.718 470.319 767.186C468.639 769.078 466.87 770.9 465.066 772.616C461.758 775.712 458.344 778.506 454.824 781C449.977 784.467 444.936 787.297 439.807 789.562L439.117 789.845C433.35 792.321 427.531 793.966 421.764 794.85L420.898 794.974C410.727 796.425 400.715 795.452 391.535 791.932C397.018 791.596 402.608 790.57 408.18 788.854C408.887 788.642 409.577 788.412 410.284 788.182C419.376 785.122 428.415 780.204 436.923 773.5C439.948 771.077 442.849 768.495 445.608 765.682C446.051 765.222 446.511 764.762 446.97 764.267C447.536 763.701 448.067 763.1 448.615 762.481C453.232 757.422 457.495 751.832 461.369 745.765C481.481 714.332 491.598 670.836 493.332 626.403C493.756 615.772 493.703 605.071 493.19 594.493C491.864 567.253 487.512 540.684 480.543 517.353C479.447 513.639 478.261 509.995 477.023 506.457C474.158 498.25 470.921 490.538 467.365 483.462L466.516 482.56L466.463 482.578ZM478.261 586.621C477.89 565.325 476.422 545.23 474.405 528.585L474.281 527.577C477.342 546.079 478.668 566.12 478.261 586.621Z" fill="#F1F5E4"/>
<path opacity="0.7" fill-rule="evenodd" clip-rule="evenodd" d="M425.974 795.894C424.559 795.593 423.126 795.24 421.729 794.85C427.495 793.966 433.315 792.321 439.081 789.845L439.771 789.562C444.901 787.297 449.942 784.467 454.789 781C458.309 778.506 461.723 775.711 465.03 772.616C466.852 770.9 468.621 769.078 470.284 767.186C471.646 765.717 472.955 764.143 474.211 762.569C474.582 762.109 474.954 761.631 475.325 761.136L475.502 760.871C479.004 756.396 482.171 751.567 485.054 746.419C506.722 707.911 512.506 652.847 506.846 599.994C506.492 596.421 506.05 592.865 505.573 589.345C502.106 563.998 496.091 539.482 487.937 517.884V517.831C487.406 516.38 486.84 514.948 486.274 513.533C481.534 501.628 476.174 490.679 470.266 481.074L469.912 480.667V480.632L469.417 480.278V480.19C468.957 478.81 469.93 477.731 471.045 477.536H471.098C471.77 477.413 472.495 477.643 473.026 478.332L474.105 479.783C478.138 485.319 482.029 491.369 485.708 497.807L485.867 498.073C488.185 502.176 490.431 506.404 492.625 510.773L492.731 511.003C505.519 536.899 515.443 567.854 521.174 599.729C531.433 656.915 528.09 717.056 503.167 756.36L502.813 756.891C500.018 761.278 496.958 765.381 493.597 769.202C490.555 772.598 487.406 775.694 484.099 778.489C479.234 782.645 474.14 786.095 468.887 788.889C463.969 791.454 458.928 793.453 453.869 794.815C444.565 797.327 435.208 797.751 426.24 795.929L425.974 795.894Z" fill="#F1F5E4"/>
<path opacity="0.6" fill-rule="evenodd" clip-rule="evenodd" d="M474.069 479.677L473.556 478.474C473.167 477.554 472.955 477.059 472.955 477.059C472.248 475.343 473.91 473.857 475.414 474.229L476.457 474.865C481.729 480.773 486.858 487.389 491.758 494.553C493.881 497.666 495.968 500.85 498.002 504.158C510.808 524.853 521.899 549.387 530.266 575.336C533.52 585.436 536.368 595.731 538.739 606.114C548.626 649.469 550.183 694.114 538.933 729.686C536.775 736.549 534.122 743.041 530.973 749.143C530.602 749.869 530.248 750.576 529.859 751.284C529.541 751.885 529.222 752.433 528.921 752.999C526.993 756.413 524.853 759.686 522.589 762.799C516.115 771.502 508.65 778.595 500.673 783.919C500.054 784.326 499.435 784.733 498.816 785.104C493.863 788.235 488.733 790.658 483.515 792.409C473.716 795.717 463.598 796.584 453.869 794.815C458.946 793.435 463.969 791.454 468.887 788.889C474.14 786.077 479.252 782.628 484.099 778.489C487.407 775.694 490.573 772.598 493.597 769.202C496.958 765.381 500.036 761.278 502.813 756.891L503.167 756.36C528.09 717.056 531.433 656.933 521.174 599.729C515.443 567.872 505.52 536.899 492.731 511.003L492.625 510.773C490.431 506.386 488.185 502.159 485.868 498.073L485.708 497.807C482.029 491.386 478.155 485.319 474.105 479.783L474.016 479.677H474.069Z" fill="#F1F5E4"/>
<path opacity="0.5" fill-rule="evenodd" clip-rule="evenodd" d="M475.413 474.229C474.547 472.548 476.156 470.921 477.695 471.239L478.703 471.788C486.929 479.5 494.942 488.68 502.601 498.957C517.141 518.485 530.354 541.976 540.949 567.146C565.996 626.562 576.45 695.211 555.772 742.563C553.95 746.773 551.845 750.788 549.511 754.644C543.832 763.86 537.005 771.572 529.522 777.569C524.446 781.637 519.051 784.927 513.497 787.386C503.821 791.667 493.562 793.435 483.515 792.427C488.733 790.676 493.862 788.253 498.815 785.122C499.434 784.75 500.053 784.343 500.673 783.937C508.65 778.595 516.115 771.519 522.589 762.817C524.87 759.703 526.993 756.431 528.921 753.017C529.222 752.451 529.54 751.903 529.859 751.301C530.248 750.594 530.601 749.886 530.973 749.161C534.121 743.059 536.775 736.567 538.933 729.704C550.183 694.132 548.626 649.486 538.738 606.132C536.368 595.749 533.52 585.454 530.265 575.354C521.899 549.405 510.808 524.889 498.002 504.175C495.967 500.868 493.88 497.666 491.758 494.57C486.858 487.389 481.728 480.791 476.457 474.883L475.413 474.246V474.229Z" fill="#F1F5E4"/>
<path opacity="0.4" fill-rule="evenodd" clip-rule="evenodd" d="M418.227 484.753L418.298 484.7C420.279 483.444 422.49 485.938 421.057 487.76C366.736 556.834 224.502 622.193 145.541 583.278C117.717 569.34 101.62 545.16 102.08 520.537C104.539 526.109 107.829 531.486 111.898 536.563C117.894 544.045 125.606 550.891 134.84 556.569C138.678 558.904 142.711 560.991 146.903 562.83C194.255 583.526 262.904 573.054 322.32 548.007C347.491 537.43 370.999 524.216 390.527 509.659C400.804 501.982 409.984 493.969 417.696 485.762L418.245 484.736L418.227 484.753Z" fill="#F1F5E4"/>
<path fill-rule="evenodd" clip-rule="evenodd" d="M271.041 334.348C291.506 345.563 176.177 308.717 144.462 341.229C139.615 346.235 136.697 352.85 136.59 361.571V362.331V362.579C136.555 365.126 136.714 367.655 137.068 370.096C137.687 374.412 138.925 378.552 140.694 382.549C141.101 383.434 141.508 384.318 141.968 385.202L142.64 386.494L143.047 387.219C146.107 392.561 150.14 397.655 154.987 402.378C155.694 403.086 156.419 403.758 157.162 404.43C157.887 405.12 158.648 405.792 159.444 406.446C165.511 411.664 172.587 416.511 180.423 420.969C195.069 429.318 212.35 436.375 230.711 442.266C232.727 442.92 234.726 443.557 236.778 444.176C277.762 456.611 323.151 463.439 355.963 465.721C381.559 467.454 402.625 466.57 402.625 466.534C404.996 466.499 405.615 469.753 403.439 470.585L403.245 470.656C392.702 474.635 380.957 477.855 368.398 480.207C366.24 480.632 364.065 481.021 361.871 481.357C343.369 484.417 323.31 485.744 302.827 485.337C298.706 485.231 294.602 485.089 290.463 484.859C255.935 483.02 220.841 476.21 190.558 464.235C183.076 461.281 175.894 458.026 169.067 454.418C159.639 449.465 150.918 443.893 143.118 437.667C137.723 433.386 132.805 428.805 128.383 423.905L127.481 422.861L127.304 422.684L126.207 421.411L125.818 420.951L124.969 419.943L124.686 419.589C122.316 416.67 120.105 413.646 118.088 410.515C116.107 407.348 114.338 404.182 112.782 400.981C112.446 400.308 112.145 399.601 111.827 398.946C109.421 393.711 107.617 388.439 106.379 383.239L106.184 382.496C104.963 377.083 104.344 371.724 104.344 366.523C104.132 315.05 161.973 276.277 271.005 334.366" fill="#F1F5E4"/>
<path opacity="0.9" fill-rule="evenodd" clip-rule="evenodd" d="M403.315 470.62C404.288 470.496 404.801 470.408 404.801 470.408C406.659 470.178 407.631 472.159 406.889 473.503L405.986 474.353C398.911 477.908 391.199 481.145 382.991 484.01C379.436 485.249 375.81 486.434 372.095 487.53C348.764 494.5 322.196 498.851 294.973 500.178C284.378 500.691 273.694 500.744 263.063 500.337C218.63 498.603 175.134 488.486 143.701 468.374C137.652 464.5 132.062 460.237 126.986 455.62C126.367 455.072 125.783 454.541 125.199 453.975C124.722 453.515 124.244 453.056 123.802 452.613C121.007 449.854 118.407 446.953 115.983 443.946C109.262 435.42 104.362 426.381 101.302 417.307C101.072 416.6 100.842 415.91 100.63 415.202C98.914 409.613 97.8881 404.023 97.552 398.54C96.8445 387.113 99.1086 376.128 104.397 366.488C104.397 371.724 105.017 377.066 106.237 382.478L106.432 383.221C107.652 388.422 109.474 393.693 111.88 398.929C112.198 399.583 112.499 400.291 112.835 400.963C114.391 404.165 116.16 407.331 118.141 410.497C120.158 413.628 122.369 416.653 124.739 419.571L125.022 419.925L125.871 420.933L126.26 421.393L127.357 422.667L127.534 422.844L128.436 423.887C132.858 428.787 137.776 433.368 143.171 437.649C150.954 443.858 159.692 449.447 169.12 454.4C175.947 458.008 183.111 461.263 190.611 464.217C220.894 476.192 255.988 483.002 290.516 484.842C294.655 485.089 298.741 485.231 302.88 485.319C323.363 485.726 343.422 484.4 361.924 481.339C364.118 481.021 366.293 480.632 368.451 480.19C381.01 477.837 392.755 474.618 403.298 470.638H403.333L403.315 470.62Z" fill="#F1F5E4"/>
<path opacity="0.8" fill-rule="evenodd" clip-rule="evenodd" d="M406.888 473.503C408.728 473.114 409.878 475.078 409.17 476.493L408.816 476.988H408.781L408.374 477.342C398.769 483.25 387.82 488.609 375.916 493.35C374.501 493.898 373.068 494.482 371.617 494.995H371.564C349.967 503.149 325.433 509.181 300.103 512.63C296.583 513.108 293.045 513.55 289.454 513.904C236.601 519.547 181.537 513.762 143.047 492.112C137.899 489.228 133.07 486.062 128.595 482.56L128.312 482.383C127.817 482.012 127.357 481.622 126.897 481.269C125.305 480.013 123.749 478.686 122.28 477.342C120.388 475.679 118.566 473.893 116.85 472.088C113.755 468.798 110.96 465.367 108.483 461.847C104.999 457 102.169 451.959 99.9044 446.847L99.6214 446.139C97.1627 440.373 95.5 434.553 94.6156 428.787L94.4918 427.92C93.0413 417.749 94.0319 407.755 97.5519 398.575C97.888 404.058 98.8962 409.648 100.612 415.22C100.824 415.927 101.054 416.617 101.284 417.325C104.362 426.417 109.262 435.455 115.966 443.964C118.389 446.971 120.989 449.872 123.784 452.631C124.244 453.073 124.704 453.533 125.181 453.993C125.747 454.559 126.349 455.09 126.968 455.638C132.027 460.255 137.634 464.518 143.683 468.391C175.116 488.503 218.612 498.621 263.045 500.355C273.676 500.779 284.378 500.726 294.956 500.195C322.196 498.869 348.764 494.517 372.077 487.548C375.81 486.451 379.436 485.266 382.973 484.028C391.181 481.145 398.875 477.926 405.969 474.37L406.871 473.521L406.888 473.503ZM302.845 485.302C324.142 484.93 344.218 483.462 360.863 481.446L361.871 481.322C343.369 484.382 323.31 485.708 302.827 485.302H302.845Z" fill="#F1F5E4"/>
<path opacity="0.7" fill-rule="evenodd" clip-rule="evenodd" d="M93.5719 433.032C93.8726 431.617 94.2264 430.184 94.6155 428.787C95.5 434.553 97.1627 440.373 99.6214 446.139L99.9044 446.847C102.169 451.959 104.999 457.018 108.483 461.847C110.96 465.367 113.754 468.781 116.85 472.088C118.566 473.91 120.388 475.679 122.28 477.342C123.748 478.704 125.323 480.03 126.897 481.269C127.357 481.64 127.835 482.012 128.312 482.383L128.595 482.56C133.07 486.062 137.899 489.229 143.047 492.112C181.555 513.762 236.601 519.547 289.454 513.904C293.045 513.55 296.583 513.108 300.103 512.63C325.45 509.163 349.967 503.149 371.564 494.995H371.617C373.068 494.482 374.518 493.898 375.916 493.35C387.82 488.609 398.769 483.25 408.374 477.342L408.781 476.988H408.816L409.17 476.493H409.259C410.638 476.033 411.717 477.006 411.912 478.12V478.173C412.036 478.828 411.806 479.571 411.116 480.119L409.665 481.198C404.129 485.231 398.079 489.122 391.659 492.802L391.393 492.961C387.307 495.278 383.08 497.524 378.693 499.718L378.463 499.842C352.567 512.613 321.612 522.554 289.737 528.267C232.55 538.526 172.427 535.183 133.106 510.26L132.575 509.906C128.206 507.129 124.085 504.051 120.264 500.691C116.868 497.648 113.772 494.5 110.977 491.174C106.821 486.31 103.389 481.233 100.577 475.962C98.0294 471.027 96.0306 466.021 94.6509 460.945C92.1391 451.64 91.7146 442.283 93.5365 433.315L93.5719 433.05V433.032Z" fill="#F1F5E4"/>
<path opacity="0.6" fill-rule="evenodd" clip-rule="evenodd" d="M409.789 481.127L410.992 480.614C411.912 480.243 412.407 480.013 412.407 480.013C414.14 479.305 415.609 480.968 415.237 482.454L414.6 483.497C408.692 488.769 402.077 493.898 394.913 498.816C391.8 500.921 388.616 503.008 385.308 505.06C364.613 517.849 340.079 528.957 314.13 537.324C304.03 540.578 293.735 543.426 283.352 545.779C239.997 555.667 195.369 557.223 159.78 545.973C152.934 543.815 146.407 541.162 140.322 538.013C139.597 537.642 138.89 537.288 138.182 536.881C137.598 536.563 137.032 536.245 136.466 535.944C133.053 533.998 129.78 531.876 126.667 529.611C117.964 523.137 110.889 515.69 105.547 507.695C105.14 507.076 104.733 506.457 104.362 505.838C101.249 500.903 98.8076 495.756 97.0564 490.537C93.7487 480.738 92.8819 470.638 94.6508 460.892C96.0128 465.986 98.0116 471.009 100.576 475.927C103.389 481.18 106.82 486.275 110.977 491.139C113.772 494.464 116.868 497.613 120.264 500.655C124.084 504.016 128.188 507.094 132.575 509.871L133.106 510.225C172.409 535.148 232.55 538.491 289.737 528.232C321.612 522.501 352.567 512.577 378.463 499.806L378.693 499.682C383.079 497.507 387.307 495.26 391.393 492.925L391.658 492.766C398.079 489.087 404.146 485.196 409.665 481.163L409.771 481.074L409.789 481.127Z" fill="#F1F5E4"/>
<path opacity="0.5" fill-rule="evenodd" clip-rule="evenodd" d="M415.238 482.472C416.918 481.605 418.545 483.214 418.227 484.753L417.679 485.779C409.966 494.004 400.768 502.017 390.509 509.676C370.999 524.216 347.473 537.43 322.302 548.025C262.886 573.072 194.237 583.526 146.885 562.848C142.675 561.026 138.642 558.939 134.822 556.586C125.588 550.908 117.876 544.063 111.88 536.581C107.811 531.504 104.521 526.109 102.063 520.555C97.7643 510.879 95.9955 500.638 97.0214 490.573C98.7726 495.791 101.214 500.938 104.327 505.873C104.698 506.492 105.105 507.112 105.512 507.731C110.854 515.708 117.929 523.173 126.632 529.647C129.745 531.929 133.018 534.051 136.431 535.979C136.98 536.28 137.546 536.598 138.147 536.917C138.855 537.324 139.562 537.677 140.287 538.049C146.39 541.197 152.899 543.851 159.745 546.009C195.316 557.258 239.962 555.702 283.317 545.814C293.7 543.461 304.012 540.614 314.095 537.359C340.026 528.992 364.56 517.884 385.273 505.095C388.581 503.061 391.783 500.974 394.878 498.851C402.042 493.934 408.657 488.804 414.565 483.533L415.202 482.489L415.238 482.472Z" fill="#F1F5E4"/>
<path opacity="0.4" fill-rule="evenodd" clip-rule="evenodd" d="M405.279 424.683L405.332 424.754C406.588 426.735 404.111 428.946 402.289 427.513C333.216 373.192 267.857 230.959 306.772 151.997C320.71 124.173 344.873 108.077 369.513 108.537C363.959 110.978 358.564 114.285 353.487 118.354C345.987 124.35 339.177 132.062 333.481 141.296C331.146 145.134 329.059 149.167 327.22 153.359C306.542 200.729 316.996 269.36 342.042 328.776C352.62 353.947 365.834 377.455 380.391 396.983C388.068 407.242 396.081 416.44 404.288 424.153L405.314 424.701L405.279 424.683Z" fill="#F1F5E4"/>
<path fill-rule="evenodd" clip-rule="evenodd" d="M555.684 277.497C544.47 297.963 581.297 182.634 548.803 150.918C543.798 146.072 537.182 143.153 528.462 143.047H527.701H527.453C524.906 143.012 522.377 143.171 519.954 143.524C515.638 144.144 511.498 145.382 507.501 147.151C506.616 147.557 505.714 147.964 504.848 148.424L503.574 149.096L502.849 149.503C497.507 152.563 492.413 156.596 487.69 161.443C486.982 162.15 486.292 162.876 485.638 163.619C484.948 164.344 484.294 165.104 483.621 165.9C478.403 171.95 473.557 179.043 469.099 186.879C460.75 201.525 453.692 218.789 447.802 237.167C447.148 239.184 446.529 241.183 445.909 243.235C433.457 284.219 426.647 329.607 424.365 362.42C422.631 388.015 423.516 409.082 423.551 409.082C423.569 411.47 420.332 412.071 419.501 409.896L419.43 409.701C415.432 399.159 412.231 387.413 409.878 374.855C409.453 372.697 409.064 370.521 408.728 368.328C405.668 349.825 404.342 329.767 404.748 309.283C404.837 305.162 404.996 301.058 405.226 296.919C407.066 262.391 413.893 227.297 425.851 197.014C428.805 189.532 432.059 182.351 435.668 175.523C440.621 166.095 446.21 157.375 452.419 149.574C456.717 144.179 461.281 139.262 466.198 134.839L467.224 133.937L467.401 133.76L468.657 132.664L469.117 132.275L470.125 131.426L470.479 131.143C473.415 128.772 476.422 126.561 479.553 124.545C482.719 122.564 485.886 120.795 489.105 119.238C489.777 118.902 490.467 118.601 491.139 118.283C496.392 115.895 501.646 114.073 506.846 112.853L507.589 112.658C513.002 111.438 518.362 110.818 523.58 110.818C575.053 110.606 613.809 168.448 555.737 277.479" fill="#F1F5E4"/>
<path opacity="0.9" fill-rule="evenodd" clip-rule="evenodd" d="M419.412 409.772C419.535 410.745 419.606 411.258 419.606 411.258C419.836 413.115 417.855 414.105 416.511 413.345L415.644 412.443C412.089 405.367 408.852 397.655 405.986 389.448C404.748 385.892 403.563 382.266 402.466 378.552C395.497 355.22 391.145 328.652 389.819 301.43C389.306 290.834 389.253 280.15 389.66 269.502C391.393 225.068 401.511 181.572 421.623 150.14C425.496 144.091 429.742 138.483 434.376 133.424C434.942 132.823 435.455 132.222 436.021 131.638C436.481 131.16 436.941 130.683 437.383 130.24C440.143 127.446 443.043 124.845 446.068 122.422C454.594 115.7 463.615 110.801 472.707 107.723C473.415 107.493 474.104 107.263 474.812 107.051C480.402 105.335 485.991 104.309 491.475 103.973C502.901 103.265 513.886 105.53 523.526 110.818C518.308 110.818 512.948 111.438 507.536 112.658L506.793 112.853C501.592 114.073 496.321 115.895 491.085 118.283C490.413 118.601 489.723 118.902 489.051 119.238C485.85 120.795 482.666 122.564 479.499 124.545C476.369 126.561 473.362 128.772 470.425 131.143L470.071 131.426L469.063 132.275L468.603 132.664L467.347 133.76L467.171 133.937L466.145 134.839C461.245 139.262 456.664 144.179 452.365 149.574C446.157 157.357 440.567 166.095 435.614 175.523C432.006 182.351 428.751 189.515 425.797 197.015C413.84 227.297 407.012 262.374 405.172 296.919C404.925 301.058 404.783 305.162 404.695 309.283C404.288 329.767 405.615 349.825 408.675 368.328C408.993 370.521 409.4 372.697 409.824 374.855C412.195 387.414 415.396 399.159 419.376 409.701V409.736L419.412 409.772Z" fill="#F1F5E4"/>
<path opacity="0.8" fill-rule="evenodd" clip-rule="evenodd" d="M416.529 413.345C416.918 415.202 414.955 416.352 413.539 415.644L413.044 415.291V415.255L412.69 414.848C406.782 405.243 401.423 394.294 396.682 382.39C396.116 380.975 395.55 379.542 395.037 378.092V378.039C386.865 356.441 380.851 331.907 377.384 306.577C376.907 303.057 376.464 299.519 376.111 295.929C370.468 243.075 376.252 188.011 397.921 149.521C400.804 144.374 403.952 139.545 407.472 135.069L407.649 134.786C408.038 134.291 408.41 133.813 408.781 133.354C410.037 131.779 411.364 130.205 412.708 128.737C414.389 126.844 416.157 125.022 417.962 123.306C421.269 120.211 424.683 117.416 428.203 114.94C433.05 111.455 438.091 108.625 443.221 106.361L443.911 106.078C449.677 103.619 455.479 101.956 461.263 101.072L462.13 100.948C472.301 99.4978 482.295 100.488 491.493 104.008C486.009 104.344 480.42 105.353 474.848 107.068C474.14 107.281 473.45 107.511 472.743 107.741C463.651 110.818 454.612 115.718 446.104 122.44C443.079 124.863 440.178 127.463 437.419 130.258C436.977 130.718 436.517 131.178 436.057 131.655C435.491 132.222 434.978 132.823 434.412 133.442C429.795 138.501 425.532 144.108 421.658 150.158C401.547 181.59 391.429 225.086 389.695 269.52C389.271 280.15 389.342 290.852 389.855 301.447C391.181 328.688 395.533 355.256 402.502 378.569C403.599 382.284 404.784 385.928 406.022 389.465C408.887 397.673 412.124 405.367 415.68 412.46L416.547 413.363L416.529 413.345ZM404.713 309.319C405.084 330.616 406.553 350.692 408.569 367.337L408.675 368.363C405.615 349.861 404.288 329.802 404.695 309.319H404.713Z" fill="#F1F5E4"/>
<path opacity="0.7" fill-rule="evenodd" clip-rule="evenodd" d="M457 100.028C458.415 100.329 459.848 100.683 461.245 101.072C455.479 101.957 449.659 103.619 443.893 106.078L443.203 106.361C438.073 108.625 433.032 111.455 428.185 114.94C424.665 117.416 421.251 120.211 417.944 123.307C416.122 125.022 414.353 126.844 412.69 128.737C411.328 130.205 410.019 131.779 408.763 133.354C408.409 133.813 408.02 134.291 407.631 134.786L407.454 135.069C403.952 139.545 400.786 144.374 397.903 149.521C376.234 188.029 370.45 243.075 376.093 295.929C376.446 299.519 376.889 303.057 377.366 306.577C380.833 331.925 386.847 356.441 395.002 378.039V378.092C395.532 379.542 396.098 380.993 396.664 382.39C401.405 394.294 406.764 405.244 412.672 414.848L413.026 415.255V415.291L413.521 415.644V415.733C413.981 417.112 413.009 418.191 411.894 418.386H411.841C411.169 418.51 410.444 418.28 409.913 417.59L408.834 416.14C404.801 410.603 400.91 404.554 397.248 398.133L397.089 397.867C394.772 393.781 392.525 389.554 390.35 385.167L390.226 384.937C377.437 359.041 367.514 328.086 361.783 296.212C351.523 239.025 354.866 178.901 379.79 139.58L380.143 139.049C382.938 134.68 385.998 130.559 389.359 126.738C392.401 123.342 395.55 120.246 398.858 117.452C403.722 113.295 408.816 109.863 414.07 107.033C418.987 104.486 424.028 102.487 429.087 101.107C438.392 98.5957 447.749 98.1712 456.717 99.9931L456.982 100.028H457Z" fill="#F1F5E4"/>
<path opacity="0.6" fill-rule="evenodd" clip-rule="evenodd" d="M408.905 416.246L409.418 417.449C409.807 418.368 410.019 418.864 410.019 418.864C410.727 420.597 409.064 422.065 407.578 421.694L406.534 421.057C401.263 415.167 396.134 408.551 391.234 401.37C389.111 398.257 387.024 395.073 384.99 391.765C372.183 371.069 361.093 346.535 352.726 320.586C349.471 310.486 346.624 300.192 344.253 289.808C334.383 246.454 332.826 201.826 344.059 166.237C346.217 159.373 348.87 152.864 352.019 146.779C352.39 146.054 352.744 145.346 353.133 144.639C353.451 144.055 353.77 143.489 354.07 142.923C356.016 139.509 358.139 136.237 360.403 133.124C366.877 124.421 374.341 117.346 382.319 112.004C382.938 111.597 383.557 111.19 384.176 110.818C389.129 107.705 394.259 105.264 399.477 103.513C409.276 100.188 419.376 99.3386 429.105 101.107C424.028 102.487 419.005 104.486 414.087 107.033C408.834 109.846 403.722 113.295 398.875 117.452C395.568 120.229 392.401 123.342 389.377 126.738C386.016 130.559 382.938 134.663 380.161 139.049L379.807 139.58C354.884 178.884 351.541 239.025 361.8 296.212C367.531 328.086 377.455 359.041 390.243 384.937L390.367 385.167C392.543 389.554 394.789 393.781 397.107 397.867L397.266 398.133C400.945 404.554 404.819 410.621 408.852 416.14L408.94 416.246H408.905Z" fill="#F1F5E4"/>
<path opacity="0.5" fill-rule="evenodd" clip-rule="evenodd" d="M407.56 421.694C408.427 423.374 406.817 425.002 405.279 424.701L404.253 424.153C396.027 416.44 388.015 407.242 380.355 396.983C365.815 377.455 352.602 353.947 342.007 328.776C316.96 269.36 306.506 200.711 327.184 153.359C329.023 149.149 331.111 145.134 333.446 141.296C339.124 132.062 345.951 124.35 353.451 118.354C358.528 114.285 363.923 110.995 369.477 108.537C379.17 104.238 389.394 102.469 399.459 103.495C394.241 105.247 389.094 107.688 384.158 110.801C383.539 111.172 382.92 111.579 382.301 111.986C374.324 117.328 366.859 124.403 360.385 133.106C358.103 136.219 355.998 139.492 354.053 142.905C353.752 143.471 353.434 144.037 353.115 144.621C352.726 145.311 352.372 146.036 352.001 146.761C348.852 152.864 346.199 159.356 344.041 166.219C332.809 201.79 334.365 246.436 344.236 289.791C346.606 300.174 349.454 310.486 352.708 320.569C361.075 346.5 372.183 371.034 384.972 391.747C387.006 395.073 389.094 398.257 391.216 401.352C396.116 408.534 401.246 415.131 406.517 421.039L407.56 421.676V421.694Z" fill="#F1F5E4"/>
</g>
</g>
</svg>
