<svg width="33" height="37" viewBox="0 0 33 37" fill="none" xmlns="http://www.w3.org/2000/svg">
<g clip-path="url(#clip0_1_183)">
<path d="M32.6558 28.1928V29.4914C32.6558 29.4914 32.6086 29.6803 32.585 29.7748C32.0892 33.104 30.271 35.3708 27.1306 36.5514C26.5167 36.7875 25.8556 36.8584 25.2181 37H0.0712891C0.0712891 36.8347 0.0712891 36.6931 0.0712891 36.5278C0.0712891 24.5329 0.0712891 12.538 0.0712891 0.543102C0.0712891 0.40143 0.0712891 0.236146 0.0712891 0.0708618H26.1389V0.543102C26.1389 7.17807 26.1389 13.813 26.1389 20.448C26.1389 20.7314 26.2098 20.873 26.5167 20.9675C29.5863 21.8175 31.5461 23.8245 32.4197 26.8941C32.5378 27.3191 32.585 27.7677 32.6795 28.1928H32.6558ZM23.943 2.26678H2.2672V34.8041H18.8901C16.5052 32.2776 15.6788 29.397 16.8358 26.1385C18.0164 22.8564 20.4957 21.1328 23.9194 20.7078V2.26678H23.943ZM24.4861 34.8277C27.7682 34.8277 30.4599 32.1596 30.4835 28.8775C30.4835 25.5954 27.8154 22.8801 24.5333 22.8564C21.2513 22.8564 18.5595 25.5246 18.5359 28.8067C18.5359 32.1123 21.204 34.8041 24.4861 34.8277Z" fill="white"/>
<path d="M21.7698 6.58777V8.71285H8.7832V6.58777H21.7698Z" fill="white"/>
<path d="M8.80762 10.956H21.7706V13.0811H8.80762V10.956Z" fill="white"/>
<path d="M21.7706 15.3006V17.4257H8.80762V15.3006H21.7706Z" fill="white"/>
<path d="M8.7832 21.7467V19.6216H15.2529V21.7467H8.7832Z" fill="white"/>
<path d="M6.56453 15.3006V17.4257H4.43945V15.3006H6.56453Z" fill="white"/>
<path d="M6.56453 21.7703H4.43945V19.6452H6.56453V21.7703Z" fill="white"/>
<path d="M4.41521 6.58777C5.09996 6.58777 5.73749 6.58777 6.3514 6.58777C6.42223 6.58777 6.56391 6.70583 6.56391 6.77666C6.56391 7.41419 6.56391 8.07532 6.56391 8.76007C5.87916 8.76007 5.24163 8.76007 4.5805 8.76007C4.50966 8.76007 4.3916 8.64201 4.3916 8.57118C4.3916 7.93365 4.3916 7.27252 4.3916 6.58777H4.41521Z" fill="white"/>
<path d="M6.56453 10.956V13.0811H4.43945V10.956H6.56453Z" fill="white"/>
<path d="M22.2661 27.7441C22.7147 28.2164 23.2105 28.7358 23.6828 29.2553C24.7217 28.1928 25.737 27.201 26.7287 26.1857C27.2718 26.7288 27.7676 27.2247 28.2399 27.6969C26.7287 29.2081 25.2176 30.7192 23.7064 32.2304C22.7383 31.2387 21.723 30.247 20.7549 29.2553C21.2271 28.7831 21.723 28.2872 22.2661 27.7441Z" fill="white"/>
</g>
<defs>
<clipPath id="clip0_1_183">
<rect width="32.6554" height="37" fill="white"/>
</clipPath>
</defs>
</svg>
