<svg width="20" height="20" viewBox="0 0 20 20" fill="none" xmlns="http://www.w3.org/2000/svg">
<path d="M8.50025 2.06021e-08C10.0685 -0.000109149 11.6062 0.433645 12.9432 1.25327C14.2803 2.07289 15.3645 3.24643 16.0759 4.64403C16.7873 6.04163 17.0982 7.6088 16.9742 9.17214C16.8502 10.7355 16.2961 12.234 15.3733 13.502L15.1763 13.762L18.8283 17.414C19.0095 17.5935 19.1153 17.8356 19.1239 18.0905C19.1326 18.3455 19.0435 18.5942 18.8748 18.7856C18.7061 18.977 18.4707 19.0967 18.2166 19.1202C17.9626 19.1437 17.7092 19.0692 17.5083 18.912L17.4143 18.828L13.7623 15.176C12.6977 16.015 11.448 16.5872 10.1173 16.8449C8.7866 17.1026 7.41358 17.0384 6.11277 16.6576C4.81196 16.2768 3.62108 15.5904 2.63949 14.6557C1.6579 13.7211 0.914061 12.5652 0.470032 11.2846C0.0260029 10.004 -0.10534 8.63574 0.0869618 7.29404C0.279263 5.95235 0.789633 4.67609 1.57549 3.57175C2.36135 2.46742 3.3999 1.56702 4.60451 0.945694C5.80912 0.324364 7.14485 0.000115493 8.50025 2.06021e-08ZM8.50025 2C6.77635 2 5.12305 2.68482 3.90406 3.90381C2.68507 5.12279 2.00025 6.77609 2.00025 8.5C2.00025 10.2239 2.68507 11.8772 3.90406 13.0962C5.12305 14.3152 6.77635 15 8.50025 15C10.2242 15 11.8775 14.3152 13.0964 13.0962C14.3154 11.8772 15.0003 10.2239 15.0003 8.5C15.0003 6.77609 14.3154 5.12279 13.0964 3.90381C11.8775 2.68482 10.2242 2 8.50025 2ZM8.50025 4C8.74519 4.00003 8.98159 4.08996 9.16463 4.25272C9.34766 4.41547 9.4646 4.63975 9.49325 4.883L9.50025 5V7.5H12.0003C12.2551 7.50028 12.5003 7.59788 12.6856 7.77285C12.871 7.94782 12.9825 8.18695 12.9974 8.44139C13.0124 8.69584 12.9296 8.94638 12.766 9.14183C12.6024 9.33729 12.3703 9.4629 12.1173 9.493L12.0003 9.5H9.50025V12C9.49997 12.2549 9.40238 12.5 9.22741 12.6854C9.05244 12.8707 8.8133 12.9822 8.55886 12.9972C8.30442 13.0121 8.05387 12.9293 7.85842 12.7657C7.66297 12.6021 7.53736 12.3701 7.50725 12.117L7.50025 12V9.5H5.00025C4.74537 9.49972 4.50022 9.40212 4.31489 9.22715C4.12955 9.05218 4.01802 8.81305 4.00308 8.55861C3.98814 8.30416 4.07093 8.05362 4.23452 7.85817C4.39811 7.66271 4.63016 7.5371 4.88325 7.507L5.00025 7.5H7.50025V5C7.50025 4.73478 7.60561 4.48043 7.79315 4.29289C7.98068 4.10536 8.23504 4 8.50025 4Z" fill="white"/>
</svg>
