<svg width="28" height="28" viewBox="0 0 28 28" fill="none" xmlns="http://www.w3.org/2000/svg">
<g clip-path="url(#clip0_2020_17717)">
<path d="M13.337 27.7919C12.8437 27.7027 12.3444 27.6492 11.8571 27.5244C8.94474 26.7577 6.918 24.9508 5.74712 22.193C5.49749 21.6106 5.39051 20.9746 5.20032 20.3684C5.15277 20.2079 5.06361 20.0355 4.94474 19.9286C4.11265 19.2332 3.37565 18.4486 2.83479 17.5036C1.59853 15.3401 1.50938 13.1291 2.62082 10.8944C2.85262 10.4248 3.1914 10.0028 3.4648 9.55708C3.52424 9.46199 3.57179 9.32529 3.55396 9.2183C3.33404 8.14252 3.54801 7.12618 3.99972 6.15738C4.74861 4.55857 5.9492 3.35203 7.38159 2.35946C8.77238 1.39661 10.3118 0.766593 11.9759 0.481304C13.8838 0.148466 15.7739 0.285167 17.6045 0.927069C20.077 1.78888 22.1156 3.2391 23.5124 5.4917C24.1067 6.45456 24.4514 7.50062 24.3861 8.65961C24.3861 8.70716 24.392 8.75471 24.3801 8.79631C24.2077 9.24208 24.4039 9.56897 24.6654 9.93152C25.8541 11.6076 26.2999 13.462 25.8422 15.4947C25.551 16.7844 24.921 17.9018 24.0294 18.8706C23.6669 19.2629 23.2449 19.6076 22.8586 19.982C22.7694 20.0712 22.6921 20.196 22.6684 20.3149C22.0978 23.2391 20.5109 25.4144 17.8898 26.8231C16.9269 27.3401 15.8809 27.6314 14.7872 27.7443C14.6981 27.7562 14.6149 27.774 14.5257 27.7919H13.343H13.337ZM7.0963 13.2183C6.87639 13.8127 6.72186 14.4367 6.70997 15.0846C6.68026 16.3149 6.66837 17.5452 6.69214 18.7755C6.70403 19.3342 6.73969 19.9167 6.88234 20.4516C7.71443 23.5719 9.69363 25.5452 12.9031 26.0801C15.3281 26.4843 17.4202 25.6641 19.126 23.9107C20.3207 22.6745 21.0339 21.1767 21.129 19.465C21.2122 17.991 21.1825 16.5051 21.129 15.0251C21.1112 14.413 20.921 13.8008 20.808 13.1945C19.6966 13.1945 18.6624 13.2005 17.6342 13.1945C17.3014 13.1945 16.9685 13.1648 16.6416 13.1173C16.0176 13.0222 15.4886 12.7428 15.1022 12.2198C14.3771 12.7606 13.5866 13.1054 12.7129 13.1767C12.0413 13.2302 11.3697 13.2183 10.6981 13.2242C9.50344 13.2302 8.30878 13.2242 7.0963 13.2242V13.2183ZM22.7694 17.777C22.8348 17.7592 22.8586 17.7592 22.8645 17.7473C24.077 16.3565 24.6535 14.7815 24.2731 12.9271C24.0354 11.7562 23.3994 10.7933 22.5911 9.94341C22.4841 9.83049 22.4247 9.73539 22.502 9.56897C22.9596 8.56451 22.817 7.58383 22.3058 6.65069C21.1884 4.60017 19.4291 3.31043 17.2835 2.51994C15.0547 1.69973 12.7962 1.70567 10.5614 2.51994C8.58813 3.2391 6.94177 4.41592 5.79467 6.21087C5.12305 7.26288 4.80804 8.38026 5.35485 9.60463C5.38456 9.67595 5.35485 9.81266 5.30136 9.87803C5.13494 10.0979 4.93286 10.2941 4.76049 10.514C3.35188 12.3387 3.02498 14.2941 4.0651 16.404C4.31473 16.9092 4.63568 17.3669 5.0755 17.8245C5.0755 17.0935 5.0755 16.4338 5.0755 15.774C5.0755 14.7815 5.20031 13.8067 5.51532 12.8617C6.13939 10.9895 7.26272 9.47387 8.87936 8.3446C10.6624 7.1024 12.6595 6.59126 14.8229 6.80523C16.7962 7.00136 18.5257 7.78591 19.97 9.15292C21.7115 10.7993 22.6565 12.826 22.7635 15.2272C22.7991 16.0712 22.7694 16.9152 22.7694 17.7829V17.777ZM16.2375 8.82603C16.2791 8.85575 16.3147 8.88546 16.3563 8.92113C16.3563 9.56897 16.3504 10.2109 16.3563 10.8587C16.3623 11.3342 16.4811 11.4887 16.9507 11.5125C17.8541 11.5541 18.7635 11.5601 19.6669 11.5779C19.7441 11.5779 19.8214 11.5719 19.9522 11.566C18.2226 9.25396 15.9878 8.13658 13.1528 8.41592C10.9477 8.62989 9.23003 9.74133 7.97 11.5779C9.33107 11.6195 10.6743 11.6314 12.0235 11.6195C12.8615 11.6135 13.6461 11.3817 14.282 10.8112C14.9002 10.2644 15.4826 9.67595 16.071 9.10537C16.1424 9.03405 16.184 8.92112 16.2375 8.83197V8.82603Z" fill="#0C4E4B"/>
<path d="M13.3375 28H13.3018C13.1473 27.9703 12.9928 27.9465 12.8382 27.9227C12.4995 27.8692 12.1488 27.8157 11.81 27.7266C8.8739 26.9539 6.76989 25.1174 5.56335 22.2763C5.40287 21.896 5.29589 21.4918 5.19485 21.1055C5.13542 20.8796 5.07598 20.6538 5.0106 20.4338C4.96305 20.2793 4.89173 20.1545 4.81447 20.0951C3.8635 19.3046 3.15622 18.4903 2.65696 17.6166C1.3791 15.3759 1.30184 13.0876 2.43705 10.8113C2.59158 10.5022 2.78772 10.2169 2.97197 9.93756C3.07895 9.77709 3.19188 9.61661 3.28698 9.45613C3.33452 9.37887 3.35236 9.29566 3.34641 9.27189C3.13839 8.23771 3.28698 7.19165 3.81001 6.08021C4.5054 4.59432 5.63467 3.32241 7.25726 2.19908C8.67182 1.22434 10.2469 0.576492 11.9348 0.285259C13.9021 -0.0535227 15.8278 0.0950657 17.6644 0.736968C20.3152 1.66416 22.342 3.22731 23.6792 5.39076C24.3449 6.46059 24.648 7.57203 24.5827 8.67753C24.5827 8.74885 24.5827 8.80829 24.5589 8.87367C24.4281 9.22434 24.5767 9.47397 24.8204 9.81869C26.0804 11.5958 26.4846 13.5275 26.0329 15.5483C25.7476 16.8202 25.1176 17.9911 24.1666 19.0193C23.9408 19.263 23.6971 19.4888 23.4534 19.7028C23.2989 19.8454 23.1384 19.9881 22.9898 20.1367C22.9244 20.1961 22.8769 20.2912 22.859 20.3625C22.2825 23.3462 20.6362 25.5869 17.9735 27.0133C17.0344 27.5185 15.9645 27.8395 14.7937 27.9584C14.7402 27.9584 14.6867 27.9762 14.6391 27.9881L14.55 28.0059H13.3256L13.3375 28ZM13.3553 27.5839L14.5678 27.572C14.6332 27.5601 14.6986 27.5483 14.7639 27.5364C15.8754 27.4175 16.8977 27.1203 17.7892 26.6389C20.333 25.2719 21.9081 23.1263 22.4608 20.2734C22.4905 20.1188 22.5856 19.9524 22.7045 19.8276C22.859 19.6731 23.0195 19.5304 23.18 19.3818C23.4118 19.1679 23.6495 18.9539 23.8635 18.7221C24.761 17.7474 25.3553 16.6419 25.6287 15.4413C26.0567 13.5393 25.6763 11.7266 24.4876 10.0445C24.2617 9.72954 23.9586 9.29566 24.1785 8.71319V8.64187C24.2379 7.6077 23.9586 6.60918 23.3286 5.59878C22.021 3.49477 20.125 2.02671 17.5277 1.11735C15.7565 0.499226 13.9021 0.350638 12.0061 0.677532C10.3776 0.962822 8.85607 1.58095 7.495 2.52597C5.93185 3.60175 4.85013 4.82018 4.18445 6.24068C3.70302 7.26891 3.56038 8.22582 3.75652 9.17085C3.79812 9.37887 3.67925 9.59878 3.64359 9.65822C3.5366 9.83058 3.42962 9.99105 3.31669 10.1575C3.1265 10.4368 2.94819 10.6983 2.81149 10.9836C1.7476 13.1292 1.81892 15.2867 3.01952 17.3967C3.495 18.2288 4.17256 19.0074 5.08192 19.7622C5.25429 19.9049 5.35533 20.1367 5.40288 20.2971C5.4742 20.523 5.53363 20.7548 5.59307 20.9866C5.69411 21.3789 5.7892 21.7474 5.93779 22.098C7.09678 24.8142 9.09976 26.5676 11.9051 27.3105C12.2261 27.3937 12.5648 27.4472 12.8917 27.5007C13.0403 27.5245 13.1949 27.5483 13.3434 27.572L13.3553 27.5839ZM14.122 26.3952C13.7119 26.3952 13.2959 26.3596 12.8739 26.2882C9.64656 25.7474 7.56038 23.8038 6.68668 20.5052C6.53215 19.9168 6.50243 19.3046 6.49054 18.7756C6.47271 17.6939 6.47866 16.5171 6.50837 15.0787C6.52026 14.4606 6.65102 13.8306 6.90659 13.1411L6.95414 13.0044H8.17851C9.02249 13.0044 9.86053 13.0044 10.6986 13.0044H11.0908C11.6198 13.0044 12.1666 13.0044 12.7015 12.9569C13.498 12.8915 14.2409 12.5884 14.9839 12.0356L15.1503 11.9108L15.2751 12.0772C15.6139 12.5349 16.0775 12.8023 16.6778 12.8915C17.0047 12.939 17.3256 12.9628 17.6406 12.9688C18.3776 12.9747 19.1146 12.9747 19.8754 12.9688H20.9868L21.0165 13.1352C21.0522 13.3254 21.0938 13.5096 21.1354 13.6998C21.2305 14.1218 21.3256 14.5557 21.3434 15.0015C21.391 16.422 21.4266 17.9376 21.3434 19.4591C21.2424 21.1887 20.5529 22.7281 19.281 24.0356C17.7714 25.5928 16.0418 26.3714 14.122 26.3714V26.3952ZM7.24537 13.4264C7.03735 14.0148 6.93631 14.5616 6.92442 15.0906C6.8947 16.523 6.88876 17.6939 6.90659 18.7697C6.91253 19.2689 6.94225 19.8514 7.09084 20.3982C7.92293 23.5245 9.89025 25.367 12.9452 25.8722C15.2216 26.2526 17.2543 25.5453 18.9839 23.7622C20.1845 22.526 20.8382 21.0757 20.9274 19.4472C21.0106 17.9376 20.9749 16.4338 20.9274 15.0252C20.9155 14.6211 20.8264 14.2229 20.7313 13.8009C20.7015 13.6642 20.6718 13.5275 20.6421 13.3908H19.8754C19.1087 13.3908 18.3717 13.3908 17.6347 13.3908C17.3018 13.3908 16.9571 13.361 16.6124 13.3075C15.9764 13.2124 15.4534 12.939 15.0611 12.4873C14.3063 13.0104 13.5396 13.3016 12.7253 13.367C12.1785 13.4145 11.6198 13.4145 11.0849 13.4145H10.6926C9.85458 13.4145 9.01655 13.4145 8.16662 13.4145H7.23348L7.24537 13.4264ZM5.284 18.3477L4.92739 17.9792C4.48163 17.5156 4.14879 17.046 3.88133 16.5052C2.84715 14.4012 3.09084 12.3447 4.6005 10.3952C4.68371 10.2823 4.7788 10.1812 4.8739 10.0743C4.96305 9.97322 5.05815 9.87218 5.14136 9.75926C5.15325 9.74142 5.16513 9.69982 5.16513 9.67605C4.65993 8.54677 4.80852 7.3759 5.62873 6.10398C6.73423 4.37441 8.37464 3.10844 10.4965 2.32984C12.7847 1.49774 15.0968 1.49774 17.3613 2.32984C19.7446 3.20948 21.4207 4.58838 22.4905 6.55569C23.079 7.63147 23.1443 8.67753 22.6926 9.65822C22.6688 9.71171 22.6629 9.71765 22.7461 9.80086C23.6911 10.7994 24.2617 11.8098 24.4816 12.8856C24.8501 14.6924 24.3746 16.3328 23.0255 17.8841L22.9839 17.9316L22.6154 18.0445L22.5678 17.7771C22.5678 17.5037 22.5678 17.2303 22.5738 16.9569C22.5797 16.3625 22.5856 15.7979 22.5619 15.2273C22.4608 12.9093 21.5396 10.9123 19.8338 9.29566C18.4311 7.97025 16.7372 7.19759 14.8115 7.0074C12.6956 6.79937 10.7461 7.30457 9.0106 8.51111C7.44151 9.60472 6.33601 11.0906 5.72383 12.9212C5.43259 13.8009 5.28995 14.734 5.29589 15.7682C5.29589 16.2258 5.29589 16.6775 5.29589 17.153V18.3358L5.284 18.3477ZM13.8784 6.54975C14.1934 6.54975 14.5143 6.56758 14.8412 6.59729C16.862 6.79937 18.6332 7.6077 20.1072 8.99848C21.8962 10.6924 22.859 12.7845 22.966 15.2154C22.9898 15.7979 22.9839 16.3685 22.9779 16.9688C22.9779 17.0757 22.9779 17.1827 22.9779 17.2897C24.0299 15.9405 24.3925 14.526 24.0715 12.9747C23.8635 11.9584 23.3464 11.0431 22.443 10.0921C22.3538 9.997 22.1696 9.8068 22.3122 9.4918C22.7105 8.6181 22.651 7.72657 22.122 6.75777C21.0998 4.88556 19.495 3.56609 17.2127 2.72805C15.0433 1.93162 12.8264 1.93162 10.6332 2.72805C8.59455 3.47099 7.02546 4.68348 5.97345 6.33578C5.23051 7.49477 5.09381 8.51111 5.54552 9.5334C5.6109 9.68793 5.55741 9.9019 5.46825 10.0208C5.3791 10.1396 5.27806 10.2466 5.18296 10.3596C5.09381 10.4546 5.0106 10.5557 4.92739 10.6567C3.50094 12.4933 3.28103 14.3477 4.24983 16.3269C4.42219 16.6716 4.61833 16.9866 4.86201 17.2897V17.1708C4.86201 16.6954 4.86201 16.2377 4.86201 15.786C4.85607 14.7043 5.00466 13.7295 5.31372 12.8023C5.95562 10.8826 7.11461 9.32538 8.75503 8.17827C10.3063 7.09655 12.024 6.54975 13.8724 6.54975H13.8784ZM10.8947 11.8335C9.89025 11.8335 8.92145 11.8157 7.96454 11.786L7.58415 11.7741L7.79812 11.4591C9.12947 9.51557 10.9244 8.42196 13.1295 8.20799C15.9527 7.92865 18.3063 9.01631 20.1191 11.4413L20.3568 11.7563L19.8457 11.7801C19.7743 11.7801 19.7209 11.7801 19.6674 11.786L18.9125 11.7741C18.2587 11.7622 17.605 11.7563 16.9512 11.7206C16.3033 11.6909 16.1666 11.37 16.1607 10.8588C16.1547 10.4071 16.1607 9.95539 16.1607 9.50368V9.31943L15.8635 9.61067C15.4058 10.0624 14.9244 10.526 14.4371 10.9598C13.807 11.5185 13.0047 11.8098 12.0418 11.8157C11.6614 11.8157 11.287 11.8217 10.9125 11.8217L10.8947 11.8335ZM8.3687 11.3818C9.55146 11.4116 10.7461 11.4234 12.018 11.4116C12.8739 11.4056 13.5871 11.15 14.1399 10.6567C14.6213 10.2288 15.0968 9.7652 15.5544 9.31943L15.9289 8.95688C15.9289 8.95688 15.9705 8.90339 15.9883 8.86178C15.1206 8.60027 14.1815 8.523 13.1711 8.62404C11.2157 8.81423 9.59901 9.74142 8.3687 11.3818ZM16.5648 9.06386V9.50963C16.5648 9.96134 16.5648 10.4071 16.5648 10.8588C16.5648 11.2392 16.6183 11.2927 16.9631 11.3105C17.6109 11.3402 18.2647 11.3521 18.9125 11.364L19.5366 11.3759C18.657 10.2882 17.6703 9.52151 16.5648 9.06981V9.06386Z" fill="#0C4E4B"/>
<path d="M1.86031 27.792V26.1873H0.208008V24.5707H1.84248V22.9778H3.46507V24.5647H5.05793V26.1695H3.47695V27.798H1.86031V27.792Z" fill="#0C4E4B"/>
<path d="M3.68499 28.0001H1.6523V26.3953H0V24.3626H1.64042V22.7698H3.67905V24.3567H5.27192V26.3775H3.68499V28.006V28.0001ZM2.06835 27.584H3.26895V25.9555H4.85587V24.7727H3.263V23.1858H2.05646V24.7787H0.416048V25.9793H2.06835V27.584Z" fill="#0C4E4B"/>
<path d="M24.3866 0.208008H25.9973V1.90786H27.6615V3.5245H26.0092V5.12331H24.4045V3.53639H22.8057V1.93163H24.3866V0.208008Z" fill="#0C4E4B"/>
<path d="M26.2173 5.3373H24.1965V3.75037H22.5977V1.72957H24.1786V0H26.2054V1.69985H27.8696V3.73254H26.2173V5.33135V5.3373ZM24.6125 4.92125H25.8012V3.32244H27.4535V2.12184H25.7893V0.416048H24.5947V2.13967H23.0137V3.32838H24.6125V4.9153V4.92125Z" fill="#0C4E4B"/>
<path d="M1.87207 1.92578H3.44711V3.51271H1.87207V1.92578Z" fill="#0C4E4B"/>
<path d="M3.65515 3.72074H1.66406V1.71777H3.65515V3.72074ZM2.08011 3.3047H3.2391V2.13382H2.08011V3.3047Z" fill="#0C4E4B"/>
<path d="M25.9852 22.942H24.4102V21.3669H25.9852V22.942Z" fill="#0C4E4B"/>
<path d="M26.1932 23.15H24.2021V21.1589H26.1932V23.15ZM24.6182 22.734H25.7772V21.575H24.6182V22.734Z" fill="#0C4E4B"/>
<path d="M10.4424 22.5615C10.9238 22.2821 11.3755 22.0206 11.8332 21.7532C12.3443 22.5139 13.0278 22.9478 13.9431 22.9478C14.8525 22.9478 15.53 22.508 16.0293 21.7532C16.487 22.0206 16.9327 22.2762 17.4142 22.5556C16.6772 23.7383 15.6489 24.4278 14.2819 24.5407C12.6296 24.6715 11.3696 23.9701 10.4424 22.5615Z" fill="#0C4E4B"/>
<path d="M13.9018 24.7607C12.41 24.7607 11.1856 24.0593 10.2703 22.6745L10.1455 22.4902L11.8929 21.4739L11.9999 21.6344C12.4991 22.3773 13.1232 22.7161 13.9375 22.7339C14.7339 22.7339 15.358 22.3714 15.8513 21.6344L15.9583 21.4739L17.6938 22.4783L17.5809 22.6626C16.7904 23.9345 15.6849 24.6299 14.2882 24.7428C14.1515 24.7547 14.0207 24.7607 13.8899 24.7607H13.9018ZM10.7399 22.6269C11.6433 23.887 12.8023 24.4456 14.2644 24.3327C15.4531 24.2376 16.41 23.667 17.1173 22.6269L16.089 22.0326C15.5363 22.7755 14.8112 23.1559 13.9434 23.1618C13.0757 23.1559 12.3327 22.7874 11.7681 22.0385L10.7339 22.6388L10.7399 22.6269Z" fill="#0C4E4B"/>
<path d="M12.8496 16.6477C12.4751 17.0222 12.1066 17.3907 11.7262 17.7651C11.0665 17.2421 10.3711 17.2302 9.6995 17.7592C9.31911 17.3788 8.95061 17.0044 8.57617 16.6359C9.6579 15.4769 11.7025 15.4709 12.8496 16.6477Z" fill="#0C4E4B"/>
<path d="M11.7442 18.0505L11.6016 17.9375C11.0132 17.468 10.4188 17.468 9.83039 17.9316L9.68775 18.0445L8.29102 16.6478L8.42772 16.4992C8.97452 15.9108 9.78879 15.572 10.6625 15.5601C11.5659 15.5542 12.4099 15.8989 13.0042 16.5052L13.1469 16.6537L11.7502 18.0505H11.7442ZM10.71 17.1708C11.0488 17.1708 11.3817 17.2838 11.7085 17.5037L12.5525 16.6597C12.0533 16.2199 11.3698 15.9584 10.6625 15.9821C9.97898 15.9881 9.33708 16.2258 8.87348 16.6478L9.72341 17.4977C10.0444 17.2838 10.3772 17.1768 10.71 17.1768V17.1708Z" fill="#0C4E4B"/>
<path d="M15.0254 16.6479C16.0061 15.477 18.229 15.477 19.2928 16.6539C18.9243 17.0224 18.5618 17.3909 18.1814 17.7713C17.5098 17.2542 16.8144 17.2304 16.1428 17.7653C15.7683 17.3909 15.3939 17.0224 15.0254 16.6479Z" fill="#0C4E4B"/>
<path d="M18.1992 18.0506L18.0566 17.9376C17.4444 17.4622 16.8619 17.4621 16.2794 17.9317L16.1368 18.0506L14.752 16.6657L14.8768 16.5171C15.3701 15.9287 16.1725 15.584 17.0699 15.5662C18.0209 15.5662 18.9065 15.9049 19.4592 16.5171L19.59 16.6657L18.2111 18.0506H18.1992ZM17.1472 17.165C17.486 17.165 17.8248 17.2779 18.1576 17.5038L19.0016 16.6598C18.5261 16.22 17.8188 15.9763 17.0699 15.9822C16.3627 15.9941 15.7386 16.2318 15.3166 16.6479L16.1665 17.4978C16.4875 17.2779 16.8144 17.1709 17.1472 17.1709V17.165Z" fill="#0C4E4B"/>
</g>
<defs>
<clipPath id="clip0_2020_17717">
<rect width="27.8692" height="28" fill="white"/>
</clipPath>
</defs>
</svg>
