<svg width="29" height="28" viewBox="0 0 29 28" fill="none" xmlns="http://www.w3.org/2000/svg">
<g clip-path="url(#clip0_2020_19118)">
<path d="M0.208008 12.8794C0.208008 12.6482 0.208008 12.411 0.208008 12.1797C0.225797 12.1323 0.249516 12.0848 0.261375 12.0315C0.670524 10.2644 2.65697 9.55285 4.08603 10.6676C4.5011 10.9938 4.77387 11.4207 4.96362 11.901C5.04071 12.0967 5.14151 12.2864 5.23046 12.4821C5.27789 12.3635 5.27789 12.2687 5.27789 12.1678C5.27789 9.49949 5.26603 6.83112 5.27196 4.16276C5.27196 2.89974 6.16735 1.89169 7.40665 1.76124C7.80394 1.71973 8.21902 1.80275 8.65189 1.82647C8.83571 1.29872 9.18556 0.836207 9.71923 0.545653C9.99793 0.391481 10.3181 0.314395 10.6146 0.195801C10.8459 0.195801 11.0831 0.195801 11.3143 0.195801C11.3558 0.21359 11.3914 0.237309 11.4329 0.249168C12.5596 0.516004 13.3008 1.37581 13.3897 2.5321C13.4016 2.70999 13.3897 2.88788 13.3897 3.08356C14.8603 2.73964 15.8683 3.29703 16.5265 4.57191C16.5384 4.57191 16.5562 4.57191 16.568 4.56005C16.6155 4.51855 16.657 4.47111 16.6985 4.42367C18.2343 2.81079 20.114 2.11109 22.3258 2.41351C25.3143 2.82265 27.538 5.22418 27.7989 8.27204C28.042 11.1124 26.1978 13.8459 23.4346 14.7769C22.3139 15.1564 21.2169 15.5952 20.1021 15.9925C19.9302 16.0518 19.8946 16.1467 19.9005 16.3068C19.9064 16.965 19.9064 17.6172 19.9005 18.2754C19.8827 20.7066 18.9518 22.7168 17.1313 24.3237C17.0483 24.4008 16.9772 24.5431 16.9772 24.6617C16.9653 25.6164 16.9712 26.5651 16.9712 27.5198V27.7985H6.03689C6.03689 26.7015 6.03689 25.6223 6.03689 24.5431C6.03689 24.3534 5.97167 24.2644 5.81157 24.1755C3.93185 23.1081 2.80521 21.5012 2.46129 19.3606C2.40199 18.9988 2.39013 18.6193 2.26561 18.2873C1.59556 16.4787 0.895852 14.688 0.208008 12.8853V12.8794ZM8.5155 12.5889C8.5155 12.4525 8.5155 12.3398 8.5155 12.2331C8.5155 9.56471 8.5155 6.89635 8.5155 4.22799C8.5155 3.7299 8.14193 3.34447 7.68535 3.3504C7.22283 3.36226 6.89077 3.72397 6.89077 4.22206C6.89077 7.93405 6.8967 11.646 6.89077 15.358C6.89077 15.5418 6.956 15.5952 7.12203 15.6308C8.49772 15.9451 9.44647 16.7634 9.92084 18.0916C10.3241 19.2182 10.0513 20.3864 10.1462 21.5427H8.50957C8.50957 20.7718 8.5155 20.0188 8.50957 19.2657C8.49772 18.3169 7.85731 17.4749 6.93821 17.2496C6.5765 17.1606 6.19107 17.1666 5.8175 17.1606C5.62182 17.1606 5.51508 17.1013 5.43799 16.9175C4.96362 15.8324 4.47146 14.7532 3.99115 13.674C3.77175 13.1818 3.55828 12.6897 3.32703 12.2034C3.16692 11.8714 2.85858 11.7053 2.51466 11.7528C2.18852 11.7943 1.9039 12.0374 1.85646 12.3754C1.83274 12.5533 1.86832 12.7549 1.93355 12.9209C2.52652 14.4626 3.11949 16.0044 3.73024 17.5342C3.90813 17.9789 4.05638 18.4237 4.04452 18.9099C4.04452 19.0759 4.08603 19.2479 4.1216 19.4139C4.5604 21.2343 5.69297 22.4381 7.40665 23.1259C7.59047 23.203 7.66756 23.286 7.66163 23.4876C7.64977 24.2881 7.66163 25.0886 7.66163 25.8891C7.66163 25.984 7.66163 26.0789 7.66163 26.1797H15.3524C15.3524 25.3911 15.3524 24.6143 15.3584 23.8434C15.3584 23.7367 15.4236 23.6003 15.5066 23.541C17.8607 21.857 18.5426 19.491 18.2402 16.7218C17.1906 17.0954 16.1292 17.4749 15.0144 17.8722C15.5718 16.2771 16.0996 14.7532 16.6333 13.2293C16.6866 13.0751 16.6688 12.9802 16.568 12.8438C16.313 12.5118 16.0581 12.1678 15.8505 11.8061C15.2991 10.8455 15.0382 9.8019 15.0382 8.68712C15.0382 7.60198 15.0382 6.51092 15.0382 5.42579C15.0382 4.99885 14.7417 4.66679 14.3325 4.59563C13.9767 4.5304 13.5795 4.76166 13.4609 5.12337C13.4134 5.26569 13.4075 5.42579 13.4075 5.57403C13.4075 7.80359 13.4075 10.0332 13.4075 12.2627C13.4075 12.3695 13.4075 12.4703 13.4075 12.5829H11.7828V12.2212C11.7828 9.11406 11.7828 6.00097 11.7828 2.89381C11.7828 2.77522 11.7828 2.65662 11.7709 2.54396C11.7175 2.14074 11.3736 1.83833 10.9823 1.82647C10.5968 1.81461 10.2529 2.08144 10.1699 2.47873C10.1462 2.59733 10.1462 2.72778 10.1462 2.8523C10.1462 5.98911 10.1462 9.12592 10.1462 12.2627V12.5889H8.52736H8.5155ZM17.6413 15.2216C18.2402 14.9904 18.7739 14.7828 19.3075 14.5812C20.535 14.1246 21.7565 13.6562 22.9899 13.2233C25.1009 12.4762 26.4232 10.3652 26.1563 8.15345C25.9191 6.23223 24.5672 4.66086 22.6934 4.13905C20.8374 3.62316 18.845 4.28136 17.6591 5.81122C16.0996 7.82138 16.3783 10.5787 18.341 12.3635C18.5367 12.5414 18.5604 12.6778 18.4715 12.9091C18.1928 13.6562 17.9319 14.4093 17.6472 15.2276L17.6413 15.2216Z" fill="#0C4E4B"/>
<path d="M17.1784 28.0001H5.82896V26.9683C5.82896 26.15 5.82896 25.3436 5.82896 24.5371C5.82896 24.4423 5.8171 24.4126 5.70443 24.3474C3.76542 23.2445 2.6032 21.5782 2.24742 19.3842C2.22963 19.2775 2.21777 19.1708 2.20592 19.064C2.17627 18.809 2.14662 18.5659 2.0636 18.3465C1.56551 17.0064 1.04963 15.6663 0.539672 14.3321L-0.00585938 12.8734L0.0297188 12.0492C0.0297188 12.0492 0.0475078 12.0018 0.0534375 11.978C0.260977 11.0767 0.883594 10.3652 1.71375 10.0687C2.54391 9.7722 3.4808 9.9323 4.21015 10.5016C4.56593 10.7802 4.84463 11.142 5.06403 11.6104V9.80185C5.0581 7.92214 5.05217 6.0365 5.06403 4.15678C5.06403 2.78703 6.04243 1.69003 7.38846 1.55365C7.68495 1.524 7.98143 1.55365 8.26606 1.5833C8.34907 1.58923 8.43209 1.60109 8.51511 1.60702C8.74043 1.06148 9.11993 0.634547 9.61803 0.361781C9.82557 0.249117 10.0509 0.172031 10.2644 0.100875C10.3592 0.0712266 10.4482 0.0356485 10.5431 0.00600001L10.6142 -0.00585938L11.3969 0.0119297L11.48 0.0534375C12.6896 0.338063 13.502 1.28088 13.5969 2.52019C13.6028 2.62099 13.6028 2.72773 13.5969 2.82853C14.8955 2.60913 15.8976 3.08351 16.5795 4.2398C18.1746 2.57949 20.1136 1.89164 22.3491 2.19999C25.4088 2.61506 27.7332 5.0996 28.0001 8.24234C28.255 11.1716 26.3575 13.9941 23.4935 14.9607C22.8116 15.1919 22.1237 15.4469 21.4655 15.696C21.0327 15.8561 20.5998 16.0221 20.1669 16.1763C20.0602 16.2118 20.0958 16.1644 20.1017 16.2949C20.1077 16.9531 20.1077 17.6113 20.1017 18.2694C20.0839 20.7362 19.1293 22.8234 17.2614 24.4719C17.2199 24.5075 17.1784 24.6024 17.1725 24.6557C17.1606 25.3851 17.1665 26.1204 17.1665 26.8497V27.9941L17.1784 28.0001ZM6.24996 27.585H16.7633V26.8556C16.7633 26.1204 16.7633 25.391 16.7692 24.6557C16.7692 24.4838 16.8641 24.2822 16.9946 24.1695C18.7675 22.604 19.6748 20.6176 19.6926 18.2754C19.6926 17.6231 19.6926 16.9649 19.6926 16.3126C19.6926 16.1288 19.7282 15.9094 20.0365 15.7968C20.4694 15.6426 20.9022 15.4825 21.3292 15.3165C21.9933 15.0674 22.6871 14.8065 23.3749 14.5752C26.0611 13.668 27.834 11.0234 27.5968 8.28385C27.3419 5.33679 25.1657 3.00642 22.3016 2.61506C20.1907 2.33044 18.3584 2.9827 16.8523 4.56593L16.8107 4.60744C16.7811 4.64302 16.7455 4.67267 16.7159 4.70824L16.6684 4.75568L16.4075 4.82684L16.3423 4.67267C15.7019 3.43929 14.7531 2.98863 13.4367 3.29105L13.1818 3.35035V2.89969C13.1818 2.7811 13.1877 2.66843 13.1818 2.55577C13.1047 1.48842 12.4346 0.705703 11.3851 0.462586C11.3376 0.450727 11.2961 0.432938 11.2665 0.415149H10.6498C10.5668 0.444797 10.4838 0.474446 10.3948 0.504094C10.1873 0.57525 9.9916 0.640477 9.81371 0.735352C9.36305 0.984399 9.02506 1.38762 8.84717 1.9035L8.7938 2.05174L8.63963 2.03988C8.49732 2.03395 8.36093 2.01617 8.21862 2.00431C7.93993 1.97466 7.67309 1.94501 7.42404 1.97466C6.2974 2.09325 5.4791 3.01235 5.47317 4.16864C5.47317 6.04836 5.47317 7.92807 5.47317 9.81371V12.1737C5.47317 12.2805 5.47318 12.4109 5.41981 12.5592L5.24192 13.0157L4.95136 12.3931C4.88614 12.2567 4.82091 12.1204 4.76161 11.978C4.55407 11.4681 4.2991 11.1005 3.94924 10.8277C3.32663 10.3415 2.5617 10.2051 1.85013 10.46C1.13857 10.715 0.628618 11.3021 0.450727 12.0729C0.438867 12.1204 0.421078 12.1619 0.403289 12.2093V12.8379L0.919172 14.1839C1.43506 15.524 1.95094 16.8582 2.44903 18.2042C2.54391 18.4651 2.57949 18.7438 2.61506 19.0107C2.62692 19.1115 2.63878 19.2182 2.65657 19.319C2.98863 21.3766 4.08563 22.948 5.90604 23.9857C6.07207 24.0805 6.23811 24.2169 6.23811 24.5371C6.23218 25.3436 6.23218 26.15 6.23811 26.9624V27.5791L6.24996 27.585ZM15.5596 26.3813H7.45369V25.2309C7.45369 24.6498 7.45369 24.0628 7.45369 23.4816C7.45369 23.3749 7.45369 23.3631 7.32917 23.3156C5.50875 22.5803 4.35839 21.2877 3.9196 19.4613C3.87216 19.2716 3.83065 19.0877 3.83658 18.9039C3.84844 18.4355 3.69427 18.0085 3.53417 17.6113C2.92341 16.0755 2.33044 14.5337 1.73747 12.992C1.65445 12.7726 1.61888 12.5414 1.64852 12.3457C1.70189 11.9306 2.04581 11.5985 2.48461 11.5452C2.92934 11.4918 3.3207 11.7112 3.51045 12.1144C3.67055 12.4584 3.82472 12.8082 3.98482 13.1581L4.53035 14.3796C4.89799 15.1979 5.26564 16.0162 5.62735 16.8404C5.66885 16.9412 5.69257 16.959 5.82303 16.959H5.92976C6.27961 16.9649 6.64132 16.9708 6.99118 17.0539C7.99329 17.3029 8.70486 18.2102 8.72265 19.2656C8.72858 19.7874 8.72265 20.3093 8.72265 20.837V21.3351H9.92637C9.90858 20.9912 9.92637 20.6473 9.92637 20.3152C9.95009 19.5621 9.96788 18.8565 9.72476 18.1627C9.28004 16.9175 8.39058 16.1348 7.07419 15.8323C6.87851 15.7849 6.6769 15.696 6.6769 15.352C6.6769 12.8438 6.6769 10.3355 6.6769 7.82726V4.21608C6.6769 3.59939 7.09791 3.14874 7.67309 3.13688C7.94586 3.14281 8.1949 3.23175 8.38465 3.4215C8.59219 3.62904 8.71079 3.90774 8.71079 4.22201V12.3753H9.91451V2.85225C9.91451 2.70994 9.91451 2.57356 9.94416 2.43717C10.045 1.95094 10.4838 1.62481 10.9641 1.62481C11.4622 1.63666 11.8832 2.02209 11.9484 2.52019C11.9662 2.63285 11.9662 2.74552 11.9662 2.85818V12.3813H13.1758V10.8633C13.1758 9.10215 13.1758 7.34696 13.1758 5.58584C13.1758 5.41981 13.1818 5.23599 13.2351 5.06996C13.3834 4.6193 13.8815 4.32281 14.3381 4.40583C14.8539 4.50071 15.2097 4.92171 15.2157 5.4376C15.2157 6.48715 15.2157 7.54264 15.2157 8.59219V8.69893C15.2157 9.78406 15.4766 10.798 15.9984 11.7112C16.2 12.0611 16.4431 12.3931 16.704 12.7252C16.8523 12.9149 16.876 13.0869 16.8048 13.3063C16.3957 14.4626 15.9924 15.6248 15.5833 16.8107L15.3283 17.5401L18.394 16.4431L18.4236 16.704C18.7616 19.8171 17.8366 22.1119 15.607 23.7129C15.5833 23.7307 15.5477 23.8078 15.5418 23.8493C15.5299 24.4363 15.5359 25.0293 15.5359 25.6223V26.3872L15.5596 26.3813ZM7.86877 25.9662H15.1445V25.6163C15.1445 25.0174 15.1445 24.4245 15.1504 23.8374C15.1504 23.6655 15.2572 23.4639 15.3876 23.369C17.4274 21.9103 18.305 19.823 18.0619 17.0064L14.6761 18.2161L15.2157 16.6684C15.6307 15.4766 16.034 14.3203 16.4372 13.1581C16.4668 13.081 16.4668 13.0513 16.4016 12.9683C16.1348 12.6244 15.8798 12.2805 15.6663 11.9069C15.1089 10.9285 14.8243 9.84336 14.8302 8.68707V8.58033C14.8302 7.53078 14.8302 6.48122 14.8302 5.43167C14.8302 5.11146 14.6108 4.86242 14.2966 4.80312C14.0356 4.76161 13.7451 4.93357 13.6621 5.18855C13.6265 5.30121 13.6206 5.44353 13.6206 5.57398C13.6206 7.3351 13.6206 9.09029 13.6206 10.8514V12.7845H11.5808V2.89376C11.5808 2.75738 11.5808 2.6625 11.5689 2.57356C11.5274 2.27707 11.2783 2.04581 10.9819 2.03395C10.9819 2.03395 10.97 2.03395 10.9641 2.03395C10.6794 2.03395 10.4363 2.23556 10.377 2.52019C10.3592 2.61506 10.3592 2.72773 10.3592 2.84039V12.7963H8.32536V4.22794C8.32536 4.03226 8.2542 3.85437 8.12375 3.72392C8.01108 3.61125 7.86877 3.55196 7.70867 3.55788C7.35882 3.56381 7.1157 3.83658 7.1157 4.22201V7.83319C7.1157 10.3415 7.1157 12.8497 7.1157 15.358C7.1157 15.3876 7.1157 15.4054 7.1157 15.4113C7.12756 15.4113 7.13942 15.4173 7.18686 15.4291C8.64556 15.7671 9.64175 16.6388 10.1339 18.0263C10.4067 18.7913 10.383 19.574 10.3592 20.333C10.3474 20.7303 10.3355 21.1394 10.3652 21.5308L10.383 21.7561H8.3135V20.837C8.3135 20.3093 8.3135 19.7874 8.3135 19.2716C8.30164 18.4058 7.72053 17.6587 6.8963 17.4571C6.59389 17.38 6.25589 17.38 5.92383 17.3741H5.8171C5.53247 17.3681 5.36051 17.2555 5.24785 17.0005C4.88614 16.1763 4.51849 15.3639 4.15085 14.5456L3.60532 13.3241C3.45115 12.9802 3.29698 12.6362 3.13688 12.2923C3.01828 12.0433 2.79888 11.9247 2.53798 11.9543C2.28893 11.984 2.09325 12.1678 2.0636 12.3991C2.04581 12.5236 2.06953 12.6955 2.12883 12.8438C2.7218 14.3855 3.31477 15.9213 3.92553 17.4571C4.09156 17.8781 4.26945 18.3703 4.25759 18.9158C4.25759 19.0462 4.28724 19.1945 4.32281 19.3427C4.74382 21.0801 5.77559 22.2483 7.48927 22.9361C7.68495 23.0132 7.88063 23.1437 7.8747 23.4994C7.86284 24.0805 7.86877 24.6617 7.86877 25.2428V25.978V25.9662ZM17.297 15.5655L17.6883 14.4626C17.884 13.8993 18.0738 13.3537 18.2754 12.8201C18.3347 12.66 18.3287 12.6185 18.1983 12.4999C16.1585 10.6379 15.862 7.76204 17.4927 5.66293C18.7379 4.06191 20.8014 3.37406 22.7464 3.9196C24.6972 4.46513 26.1144 6.10765 26.3635 8.11189C26.6422 10.4007 25.2546 12.6303 23.0606 13.4071C22.1237 13.7392 21.1869 14.089 20.2559 14.4389L19.3842 14.765C19.0166 14.9014 18.6549 15.0437 18.2694 15.1919L17.297 15.5655ZM21.4122 4.15678C20.0306 4.15678 18.7023 4.79126 17.8188 5.92383C16.3245 7.85098 16.6032 10.4838 18.477 12.1974C18.726 12.4287 18.7794 12.6481 18.6608 12.9683C18.4592 13.502 18.2694 14.0416 18.0738 14.6049L17.9848 14.8539L18.1153 14.8006C18.5007 14.6523 18.8683 14.51 19.236 14.3736L20.1077 14.0475C21.0445 13.6977 21.9755 13.3478 22.9183 13.0157C24.9285 12.3042 26.2034 10.2644 25.9425 8.16525C25.7171 6.33298 24.4185 4.82091 22.6278 4.32281C22.2245 4.21015 21.8095 4.15678 21.4063 4.15678H21.4122Z" fill="#0C4E4B"/>
<path d="M13.4072 19.4908V17.8958H14.9964V19.4908H13.4072Z" fill="#0C4E4B"/>
<path d="M15.1976 19.6984H13.1934V17.6882H15.1976V19.6984ZM13.6084 19.2833H14.7825V18.1033H13.6084V19.2833Z" fill="#0C4E4B"/>
<path d="M20.7897 5.91772C21.1751 6.06004 21.6673 5.94144 22.1654 5.92958C23.5826 5.89401 24.6084 7.13331 24.3712 8.52086C24.3475 8.65724 24.3475 8.80548 24.3712 8.94187C24.6499 10.5844 23.1971 11.9067 21.5902 11.4798C21.4835 11.4501 21.3589 11.4501 21.2581 11.4798C19.6512 11.9067 18.1984 10.5725 18.483 8.94187C18.5068 8.81141 18.5068 8.67503 18.483 8.55051C18.2281 7.14517 19.2598 5.91772 20.7897 5.92365V5.91772ZM21.4242 9.53484C21.5783 9.64157 21.7206 9.74238 21.8748 9.83725C22.1239 9.99142 22.3788 9.97363 22.5745 9.80167C22.7821 9.61785 22.8591 9.33916 22.7168 9.09604C22.5567 8.83513 22.5686 8.62166 22.7168 8.36076C22.8651 8.11764 22.788 7.8508 22.5864 7.67884C22.3848 7.50688 22.0883 7.44758 21.8926 7.62548C21.5605 7.92196 21.2878 7.92196 20.9557 7.62548C20.76 7.44758 20.4635 7.50688 20.2619 7.67884C20.0603 7.8508 19.9832 8.11171 20.1315 8.36076C20.2857 8.62166 20.3034 8.83513 20.1374 9.09604C19.9892 9.33916 20.0663 9.61785 20.2738 9.80167C20.4695 9.97363 20.7245 9.99142 20.9735 9.84318C21.1277 9.74831 21.27 9.64157 21.4242 9.54077V9.53484Z" fill="#0C4E4B"/>
<path d="M22.1949 11.7645C21.9755 11.7645 21.7561 11.7348 21.5367 11.6755C21.4655 11.6578 21.3825 11.6578 21.3114 11.6755C20.4871 11.8949 19.6273 11.6874 19.0166 11.13C18.4058 10.5726 18.1271 9.73654 18.2754 8.90045C18.2932 8.79371 18.2932 8.67512 18.2754 8.58025C18.1449 7.85682 18.3287 7.1334 18.7853 6.58787C19.2538 6.02455 19.9831 5.70435 20.7718 5.70435H20.7836L20.8548 5.71621C21.0801 5.79922 21.3825 5.7755 21.6968 5.74585C21.845 5.73399 21.9992 5.71621 22.1534 5.71621C22.8768 5.70435 23.5587 5.9949 24.0212 6.52857C24.4956 7.0741 24.6913 7.81532 24.5668 8.5506C24.549 8.66326 24.549 8.78779 24.5668 8.90045C24.7091 9.74247 24.4304 10.5786 23.8196 11.1359C23.369 11.5451 22.7879 11.7645 22.189 11.7645H22.1949ZM21.424 11.2486C21.5011 11.2486 21.5723 11.2605 21.6434 11.2783C22.3372 11.4621 23.031 11.302 23.5469 10.8335C24.0627 10.3651 24.2881 9.6891 24.1635 8.97754C24.1398 8.81743 24.1398 8.6514 24.1635 8.48537C24.2703 7.86868 24.1043 7.25792 23.7129 6.80727C23.3275 6.36254 22.776 6.11942 22.1712 6.13721C22.0289 6.13721 21.8806 6.155 21.7442 6.16686C21.4122 6.19651 21.0623 6.22616 20.7599 6.12535C20.0899 6.12535 19.5028 6.39219 19.1115 6.86064C18.732 7.31129 18.5837 7.89833 18.6904 8.50909C18.7201 8.65733 18.7142 8.81743 18.6904 8.97754C18.5659 9.68317 18.7912 10.3592 19.3012 10.8276C19.8052 11.2901 20.5227 11.4621 21.2046 11.2783C21.2758 11.2605 21.3529 11.2486 21.424 11.2486ZM20.6354 10.1457C20.4575 10.1457 20.2796 10.0805 20.1373 9.95C19.8408 9.68317 19.7696 9.29774 19.9594 8.98346C20.0721 8.79964 20.0721 8.66326 19.9475 8.46165C19.7578 8.14145 19.8289 7.77381 20.1254 7.51883C20.4278 7.26385 20.8311 7.24014 21.092 7.47139C21.3469 7.69672 21.5011 7.69672 21.7561 7.47139C22.017 7.24014 22.4202 7.26385 22.7226 7.52476C23.0132 7.77381 23.0784 8.15331 22.8946 8.46758C22.776 8.66919 22.776 8.79964 22.8946 8.98939C23.0843 9.30367 23.0132 9.69503 22.7167 9.95593C22.4558 10.1872 22.0941 10.2109 21.7739 10.0152C21.6672 9.95 21.5604 9.87885 21.4537 9.80176L21.43 9.78397L21.4062 9.80176C21.2995 9.87292 21.1987 9.94407 21.086 10.0152C20.9437 10.1042 20.7896 10.1516 20.6413 10.1516L20.6354 10.1457ZM21.424 9.27995L21.6849 9.45784C21.7857 9.529 21.8806 9.59422 21.9874 9.65945C22.1059 9.73061 22.2779 9.78397 22.438 9.64759C22.5566 9.54679 22.6396 9.37482 22.5388 9.20286C22.3431 8.88266 22.3431 8.58618 22.5388 8.25411C22.6633 8.04064 22.5032 7.88054 22.4558 7.83903C22.3372 7.73823 22.1475 7.67893 22.0348 7.78567C21.6256 8.14738 21.2284 8.14738 20.8192 7.78567C20.7065 7.68486 20.5227 7.7323 20.3982 7.83903C20.333 7.89833 20.1907 8.0525 20.3093 8.25411C20.5109 8.59211 20.5109 8.88859 20.3093 9.20286C20.2084 9.36889 20.2915 9.54086 20.4101 9.64166C20.5346 9.75432 20.6947 9.76025 20.8607 9.65945C20.9615 9.59422 21.0623 9.529 21.1631 9.45784L21.424 9.27995Z" fill="#0C4E4B"/>
</g>
<defs>
<clipPath id="clip0_2020_19118">
<rect width="28.0296" height="28" fill="white"/>
</clipPath>
</defs>
</svg>
